<svg width="666" height="1024" viewBox="0 0 666 1024" fill="none" xmlns="http://www.w3.org/2000/svg">
<g opacity="0.15">
<path d="M1426.57 291.234C1422.06 299.102 1417.86 306.408 1413.71 313.663C1362.02 406.446 1303.52 492.637 1235.1 570.066C1202.02 607.517 1174.01 650.868 1141.22 688.753C1110.67 724.057 1075.39 753.946 1045.14 789.557C980.146 865.939 905.664 927.581 829.458 987.69C716.839 1076.54 599.668 1078.33 478.516 1018.6C408.588 984.088 344.055 937.722 281.489 888.01C251.448 864.06 225.374 834.07 204.509 799.468C183.197 764.368 162.924 728.426 142.806 692.406C114.154 641.263 102.459 584.475 103.012 523.804C103.667 424.159 122.879 325.845 159.342 235.544C192.549 152.929 229.513 72.3061 265.24 -8.9296C325.44 -145.881 403.857 -269.139 481.699 -392.806C493.439 -411.48 505.576 -429.745 518 -448.905L603.249 -375.18C600.046 -365.831 596.422 -356.682 592.394 -347.769C556.335 -277.033 520.609 -205.913 483.269 -135.79C456.54 -85.5413 427.004 -37.3112 399.855 12.6565C359.088 88.6956 324.751 169.094 297.318 252.737C273.353 324.418 248.681 395.793 225.71 467.909C220.191 484.507 217.962 502.323 219.189 520.048C223.267 566.28 229.406 612.239 237.583 657.74C251.091 729.549 285.889 786.414 336.516 830.711C383.35 872.105 435.351 905.042 490.741 928.398C569.335 961.122 647.929 960.33 726.479 924.183C786.856 896.415 836.267 851.786 882.163 800.49C947.736 727.174 1013.46 654.019 1079.34 581.026C1168.93 482.074 1248.81 372.023 1317.54 252.864C1322.62 244.025 1328.5 235.8 1335.31 225.275L1426.57 291.234ZM616.779 -339.109C579.792 -279.256 549.217 -215.058 521.671 -148.895C477.167 -42.7006 434.013 64.234 389.178 170.249C358.602 242.518 325.904 313.561 294.577 385.371C281.865 414.467 272.712 445.48 275.918 478.46C282.042 543.269 286.309 608.794 305.101 670.922C323.03 730.163 354.843 778.725 401.978 810.198C474.337 858.505 551.273 890.744 636.146 897.258C685.933 901.039 729.972 889.134 769.501 855.567C801.204 828.54 833.791 802.125 862.112 770.678C919.548 706.916 975.128 640.701 1029.96 574.078C1075.23 519.103 1119.98 463.515 1162.32 405.143C1207.24 342.371 1247.12 275.001 1281.46 203.867C1283.96 197.882 1286.08 191.692 1287.8 185.346L1215.49 122.836C1212.59 126.847 1210.91 128.737 1209.65 130.959C1140.43 253.758 1055.98 362.124 967.633 466.248C912.009 531.85 850.062 590.35 790.282 651.149C754.445 687.45 712.904 713.276 668.799 733.636C642.704 745.464 614.337 748.968 586.668 743.779C552.489 737.903 521.582 721.912 491.272 703.646C462.465 686.25 445.11 659.911 436.267 624.76C421.278 566.567 418.935 506.841 421.765 446.706C424.285 394.286 438.943 345.11 456.01 296.982C487.602 208.619 517.094 119.106 552.843 32.9915C590.382 -57.0831 634.355 -143.607 675.52 -231.638C685.712 -253.378 695.97 -275.092 707.09 -298.772L628.85 -357.349C623.898 -350.145 620.205 -344.704 616.735 -339.058L616.779 -339.109ZM679.168 -188.44C654.851 -119.813 627.481 -52.6817 597.169 12.6827C553.882 107.713 520.565 208.031 491.626 310.138C478.361 356.886 465.339 403.61 459.856 452.76C454.241 503.034 459.967 551.393 479.112 596.558C505.996 660.014 550.742 693.53 612.49 693.607C661.128 693.607 702.292 669.645 740.009 636.588C769.611 610.71 799.502 584.96 827.115 556.374C858.663 523.599 889.061 489.035 917.669 452.811C954.169 406.599 987.774 357.347 1023.72 310.547C1073.62 245.584 1124.49 181.744 1174.76 117.573C1179.83 111.11 1184.62 104.341 1191.1 95.5787L1106.18 22.1345C1102.98 25.5832 1099.99 28.3165 1097.54 31.5608C1057.48 84.9005 1015.25 136.299 977.891 192.091C910.395 292.92 837.394 387.388 754.954 471.868C723.605 504.005 690.376 533.255 653.323 556.093C620.714 576.197 589.63 571.906 565.245 545.773C547.492 526.792 544.574 502.728 546.542 476.901C551.98 404.76 571.988 336.935 595.378 270.669C645.332 128.111 702.127 -11.1163 765.499 -146.366C778.366 -173.7 790.88 -201.238 804.255 -230.182C781.44 -245.816 759.685 -260.837 737.776 -275.628C732.738 -278.497 727.573 -281.055 722.3 -283.292C707.532 -251.257 690.487 -221.139 679.124 -188.389L679.168 -188.44Z" fill="#1B71D7" fill-opacity="0.1"/>
</g>
</svg>
