<svg width="56" height="56" viewBox="0 0 56 56" fill="none" xmlns="http://www.w3.org/2000/svg">
<g clip-path="url(#clip0_606_1308)">
<path d="M49 39.55C45.5 32.9 42 33.95 38.15 33.6C38.5 34.65 38.5 35.7 38.5 37.1C44.1 38.5 45.5 45.15 45.5 49V52.5H38.5V49H42C42 49 42 40.25 36.75 40.25C31.5 40.25 31.5 48.65 31.5 49H35V52.5H28V49C28 45.15 29.4 38.15 35 37.1C35 35 34.65 33.25 34.3 32.55C33.6 32.2 32.9 31.5 32.9 30.45C32.9 28.35 35.7 29.05 37.8 25.2C37.8 25.2 40.95 17.15 39.9 10.15H36.4C36.4 9.45 36.75 9.1 36.75 8.4C36.75 7.7 36.75 7.35 36.4 6.65H39.2C38.15 3.15 34.65 0 28 0C21.35 0 17.85 3.15 16.45 7H19.25C19.25 7.7 18.9 8.05 18.9 8.75C18.9 9.45 18.9 9.8 19.25 10.5H15.75C15.05 17.5 17.85 25.55 17.85 25.55C19.95 29.05 22.75 28.35 22.75 30.8C22.75 32.55 21 33.25 18.9 33.6C18.2 34.3 17.5 35.7 17.5 38.5C17.5 39.9 17.5 41.3 17.5 42.7C19.6 43.4 21 45.5 21 47.6C21 50.05 18.55 52.5 15.75 52.5C12.95 52.5 10.5 50.05 10.5 47.25C10.5 44.8 11.9 43.05 14 42.35C14 41.3 14 39.9 14 38.15C14 36.4 14.35 35 14.7 33.6C12.25 33.95 9.45001 35 7.00001 39.55C4.90001 43.4 3.85001 56 3.85001 56H51.8C52.15 56 51.1 43.4 49 39.55ZM22.75 8.75C22.75 5.95 25.2 3.5 28 3.5C30.8 3.5 33.25 5.95 33.25 8.75C33.25 11.55 30.8 14 28 14C25.2 14 22.75 11.55 22.75 8.75Z" fill="white"/>
<path d="M17.5 47.25C17.5 48.216 16.716 49 15.75 49C14.784 49 14 48.216 14 47.25C14 46.284 14.784 45.5 15.75 45.5C16.716 45.5 17.5 46.284 17.5 47.25Z" fill="white"/>
</g>
<defs>
<clipPath id="clip0_606_1308">
<rect width="56" height="56" fill="white"/>
</clipPath>
</defs>
</svg>
