<svg width="105" height="23" viewBox="0 0 105 23" fill="none" xmlns="http://www.w3.org/2000/svg">
<path d="M18.5325 19.84C18.5125 20.08 18.4825 20.33 18.4425 20.59C18.4025 20.85 18.3325 21.09 18.2325 21.31C18.1325 21.55 18.0025 21.73 17.8425 21.85C17.6225 22.05 17.3625 22.16 17.0625 22.18C16.7825 22.28 16.5125 22.31 16.2525 22.27C15.9925 22.23 15.7525 22.16 15.5325 22.06C15.2525 21.88 15.0425 21.67 14.9025 21.43C14.7825 21.17 14.6925 20.9 14.6325 20.62C14.5725 20.34 14.5425 20.05 14.5425 19.75C14.5425 19.45 14.5425 19.17 14.5425 18.91V16.57L14.5125 11.98C14.5125 11.66 14.5125 11.41 14.5125 11.23C14.5125 11.05 14.5125 10.89 14.5125 10.75C14.5125 10.59 14.5025 10.42 14.4825 10.24C14.4825 10.04 14.4825 9.76 14.4825 9.4C14.4825 9.34 14.4825 9.24 14.4825 9.1C14.5025 8.94 14.4925 8.53 14.4525 7.87C13.6725 9.17 13.0225 10.22 12.5025 11.02C12.0025 11.8 11.5725 12.41 11.2125 12.85C10.8725 13.27 10.5725 13.56 10.3125 13.72C10.0525 13.86 9.7825 13.94 9.5025 13.96C9.3425 13.98 9.1825 13.95 9.0225 13.87C8.8625 13.79 8.7025 13.69 8.5425 13.57C8.4025 13.45 8.2625 13.33 8.1225 13.21C8.0025 13.07 7.9025 12.94 7.8225 12.82C7.3425 12.22 6.8025 11.5 6.2025 10.66C5.6025 9.82 4.9825 8.8 4.3425 7.6C4.3425 7.62 4.3325 7.95 4.3125 8.59C4.3125 9.23 4.3125 10.03 4.3125 10.99C4.3125 11.93 4.3025 12.95 4.2825 14.05C4.2825 15.13 4.2725 16.14 4.2525 17.08C4.2525 18.02 4.2425 18.81 4.2225 19.45C4.2025 20.07 4.1825 20.38 4.1625 20.38C4.1625 20.72 4.0825 21.04 3.9225 21.34C3.7625 21.62 3.5425 21.85 3.2625 22.03C3.0025 22.21 2.6925 22.31 2.3325 22.33C1.9725 22.35 1.5825 22.25 1.1625 22.03C0.9025 21.87 0.7025 21.64 0.5625 21.34C0.4425 21.04 0.3625 20.76 0.3225 20.5C0.3025 20.22 0.2825 19.95 0.2625 19.69C0.2625 19.43 0.2625 19.16 0.2625 18.88L0.2925 16.54L0.3225 11.92V7.9C0.3225 6.16 0.3825 4.45 0.5025 2.77C0.5025 2.55 0.5225 2.35 0.5625 2.17C0.6225 1.97 0.6925 1.78 0.7725 1.6C0.9325 1.28 1.1425 1.04 1.4025 0.879998C1.7025 0.699998 2.0225 0.609998 2.3625 0.609998C2.5025 0.609998 2.6325 0.619999 2.7525 0.64C2.8925 0.64 3.0225 0.649999 3.1425 0.669999C3.5425 0.749999 3.8825 0.989999 4.1625 1.39C4.4625 1.77 4.7425 2.1 5.0025 2.38C5.1625 2.56 5.3325 2.78 5.5125 3.04C5.6925 3.3 5.8725 3.57 6.0525 3.85C6.2325 4.13 6.4025 4.4 6.5625 4.66C6.7225 4.92 6.8625 5.15 6.9825 5.35C7.5025 6.19 7.9625 6.96 8.3625 7.66C8.7825 8.36 9.1725 8.96 9.5325 9.46C9.5925 9.4 9.6625 9.32 9.7425 9.22C9.8225 9.1 9.9025 8.98 9.9825 8.86C10.0825 8.72 10.1625 8.59 10.2225 8.47C10.3025 8.35 10.3625 8.25 10.4025 8.17C10.6025 7.85 10.8025 7.54 11.0025 7.24C11.2025 6.92 11.4125 6.59 11.6325 6.25C11.8725 5.89 12.1125 5.5 12.3525 5.08C12.6125 4.66 12.9125 4.18 13.2525 3.64C13.3925 3.4 13.5725 3.11 13.7925 2.77C14.0125 2.43 14.2625 2.1 14.5425 1.78C14.8225 1.46 15.1125 1.19 15.4125 0.969999C15.7325 0.729998 16.0525 0.609998 16.3725 0.609998C16.5325 0.609998 16.6725 0.619999 16.7925 0.64C16.9125 0.64 17.0325 0.649999 17.1525 0.669999C17.3925 0.689999 17.6225 0.799999 17.8425 0.999999C18.0025 1.16 18.1225 1.33 18.2025 1.51C18.2825 1.77 18.3325 1.99 18.3525 2.17C18.3725 2.31 18.3825 2.44 18.3825 2.56C18.4025 2.68 18.4125 2.8 18.4125 2.92C18.4125 4.04 18.4225 5.15 18.4425 6.25C18.4625 7.35 18.4725 8.46 18.4725 9.58C18.4725 10.94 18.4725 12.34 18.4725 13.78C18.4925 15.22 18.5025 16.62 18.5025 17.98C18.5025 18.26 18.5125 18.56 18.5325 18.88C18.5525 19.2 18.5525 19.52 18.5325 19.84ZM31.3554 17.89C31.5954 17.83 31.8354 17.79 32.0754 17.77C32.3354 17.75 32.5654 17.78 32.7654 17.86C32.9854 17.94 33.1654 18.08 33.3054 18.28C33.4454 18.46 33.5154 18.72 33.5154 19.06C33.5154 19.3 33.4554 19.53 33.3354 19.75C33.2154 19.97 33.0654 20.17 32.8854 20.35C32.7054 20.53 32.5054 20.69 32.2854 20.83C32.0654 20.95 31.8554 21.05 31.6554 21.13C31.0754 21.39 30.4054 21.59 29.6454 21.73C28.9054 21.87 28.1354 21.92 27.3354 21.88C26.2554 21.84 25.2154 21.63 24.2154 21.25C23.2354 20.85 22.4654 20.2 21.9054 19.3C21.3854 18.42 21.0754 17.44 20.9754 16.36C20.8754 15.28 20.9254 14.26 21.1254 13.3C21.3454 12.14 21.7154 11.2 22.2354 10.48C22.7754 9.74 23.4154 9.15 24.1554 8.71C25.0554 8.19 26.0654 7.92 27.1854 7.9C28.3054 7.88 29.3754 8.1 30.3954 8.56C31.0754 8.86 31.6854 9.27 32.2254 9.79C32.7654 10.29 33.1754 10.9 33.4554 11.62C33.5354 11.8 33.5954 12.02 33.6354 12.28C33.6954 12.54 33.7354 12.82 33.7554 13.12C33.7754 13.4 33.7754 13.68 33.7554 13.96C33.7354 14.24 33.6854 14.49 33.6054 14.71C33.4854 15.07 33.3354 15.35 33.1554 15.55C32.9754 15.75 32.7454 15.9 32.4654 16C32.1854 16.1 31.8454 16.17 31.4454 16.21C31.0654 16.23 30.6054 16.25 30.0654 16.27C29.5854 16.29 29.1354 16.3 28.7154 16.3C28.2954 16.3 27.8654 16.3 27.4254 16.3C26.9854 16.28 26.5254 16.27 26.0454 16.27C25.5854 16.25 25.0654 16.23 24.4854 16.21C24.4254 16.61 24.4754 16.96 24.6354 17.26C24.8154 17.54 25.0554 17.78 25.3554 17.98C25.6554 18.16 25.9954 18.3 26.3754 18.4C26.7554 18.5 27.1254 18.56 27.4854 18.58C28.1654 18.62 28.8154 18.57 29.4354 18.43C30.0554 18.27 30.6954 18.09 31.3554 17.89ZM30.0654 12.07C29.6854 11.63 29.2854 11.31 28.8654 11.11C28.5454 10.97 28.2054 10.91 27.8454 10.93C27.5054 10.93 27.1754 10.98 26.8554 11.08C26.2754 11.22 25.7854 11.52 25.3854 11.98C25.3454 12.02 25.2754 12.12 25.1754 12.28C25.0754 12.42 24.9754 12.57 24.8754 12.73C24.7954 12.89 24.7354 13.04 24.6954 13.18C24.6554 13.32 24.6754 13.39 24.7554 13.39H30.6354C30.6154 13.11 30.5654 12.88 30.4854 12.7C30.4054 12.5 30.2654 12.29 30.0654 12.07ZM45.5405 1.03C45.9205 0.929998 46.2505 0.919998 46.5305 0.999999C46.8305 1.06 47.0805 1.19 47.2805 1.39C47.5005 1.59 47.6605 1.84 47.7605 2.14C47.8805 2.44 47.9405 2.77 47.9405 3.13C47.9605 4.13 47.9605 4.91 47.9405 5.47C47.9405 6.03 47.9405 6.52 47.9405 6.94V16.15C47.9405 17.23 47.9405 18.13 47.9405 18.85C47.9405 19.57 47.9005 20.16 47.8205 20.62C47.7605 21.06 47.6405 21.39 47.4605 21.61C47.3005 21.83 47.0505 21.98 46.7105 22.06C46.3705 22.16 45.9205 22.21 45.3605 22.21C44.8205 22.21 44.1405 22.21 43.3205 22.21C41.1605 22.21 39.4505 21.7 38.1905 20.68C36.9505 19.66 36.2905 18.04 36.2105 15.82C36.1705 14.86 36.2905 13.98 36.5705 13.18C36.8505 12.38 37.2605 11.7 37.8005 11.14C38.3605 10.56 39.0405 10.12 39.8405 9.82C40.6605 9.5 41.5905 9.35 42.6305 9.37H44.2805V4C44.2805 3.68 44.2805 3.37 44.2805 3.07C44.2805 2.75 44.3105 2.46 44.3705 2.2C44.4305 1.92 44.5505 1.68 44.7305 1.48C44.9105 1.28 45.1805 1.13 45.5405 1.03ZM40.3205 17.68C40.7405 18.26 41.5005 18.58 42.6005 18.64C42.8205 18.66 43.0305 18.67 43.2305 18.67C43.4305 18.65 43.6105 18.62 43.7705 18.58C43.9505 18.56 44.1205 18.53 44.2805 18.49V12.94C43.5805 12.82 42.9405 12.75 42.3605 12.73C41.8005 12.69 41.2405 12.89 40.6805 13.33C40.3805 13.57 40.1505 13.88 39.9905 14.26C39.8305 14.62 39.7405 15.01 39.7205 15.43C39.7005 15.83 39.7405 16.23 39.8405 16.63C39.9405 17.03 40.1005 17.38 40.3205 17.68Z" fill="#00A7AC"/>
<path d="M68.0902 2.2C68.1902 2.66 68.2002 3.13 68.1202 3.61C68.0602 4.07 67.9702 4.49 67.8502 4.87C67.6102 5.65 67.3302 6.52 67.0102 7.48C66.6902 8.44 66.3702 9.4 66.0502 10.36C65.7302 11.32 65.4202 12.23 65.1202 13.09C64.8202 13.93 64.5702 14.63 64.3702 15.19C64.1702 15.71 63.9602 16.3 63.7402 16.96C63.5202 17.62 63.2502 18.27 62.9302 18.91C62.6302 19.53 62.2702 20.1 61.8502 20.62C61.4502 21.14 60.9602 21.52 60.3802 21.76C59.8002 22 59.2702 22.06 58.7902 21.94C58.3102 21.8 57.8802 21.56 57.5002 21.22C57.1202 20.86 56.7702 20.42 56.4502 19.9C56.1502 19.36 55.8802 18.81 55.6402 18.25C55.4002 17.69 55.1802 17.15 54.9802 16.63C54.7802 16.09 54.6002 15.63 54.4402 15.25C53.8202 13.89 53.2602 12.45 52.7602 10.93C52.2602 9.41 51.7502 7.96 51.2302 6.58C51.0902 6.18 50.9302 5.7 50.7502 5.14C50.5702 4.56 50.4502 3.99 50.3902 3.43C50.3502 2.85 50.4202 2.33 50.6002 1.87C50.7802 1.39 51.1602 1.06 51.7402 0.879998C51.8602 0.839999 51.9802 0.809999 52.1002 0.789999C52.2402 0.749999 52.3702 0.719999 52.4902 0.699999C52.6302 0.699999 52.7602 0.709999 52.8802 0.729998C53.0002 0.749999 53.1302 0.799999 53.2702 0.879998C53.3702 0.919999 53.4702 0.969999 53.5702 1.03C53.6702 1.07 53.7602 1.13 53.8402 1.21C53.9202 1.31 53.9902 1.41 54.0502 1.51C54.1302 1.61 54.2102 1.71 54.2902 1.81C54.3502 1.95 54.4002 2.08 54.4402 2.2C54.5002 2.3 54.5502 2.4 54.5902 2.5C54.6302 2.64 54.6802 2.77 54.7402 2.89C54.8002 2.99 54.8502 3.09 54.8902 3.19L55.0702 3.7L59.3902 16.03L63.6502 3.73L63.8602 3.22C63.9002 3.12 63.9402 3.02 63.9802 2.92C64.0202 2.8 64.0602 2.67 64.1002 2.53C64.1402 2.43 64.1802 2.33 64.2202 2.23C64.2802 2.11 64.3502 1.99 64.4302 1.87C64.4902 1.77 64.5502 1.67 64.6102 1.57C64.6902 1.45 64.7702 1.34 64.8502 1.24C64.9102 1.16 64.9802 1.09 65.0602 1.03C65.1602 0.969999 65.2502 0.919999 65.3302 0.879998C65.4902 0.799999 65.6302 0.749999 65.7502 0.729998C65.8902 0.709999 66.0102 0.699999 66.1102 0.699999C66.2302 0.719999 66.3502 0.749999 66.4702 0.789999C66.6102 0.809999 66.7402 0.839999 66.8602 0.879998C67.2402 0.979998 67.5202 1.15 67.7002 1.39C67.9002 1.63 68.0302 1.9 68.0902 2.2ZM74.355 10.63C74.355 11.19 74.355 11.82 74.355 12.52C74.375 13.22 74.385 13.95 74.385 14.71C74.385 15.45 74.385 16.19 74.385 16.93C74.385 17.65 74.375 18.32 74.355 18.94C74.335 19.24 74.305 19.57 74.265 19.93C74.225 20.27 74.145 20.59 74.025 20.89C73.905 21.19 73.715 21.44 73.455 21.64C73.215 21.82 72.885 21.9 72.465 21.88C71.845 21.84 71.395 21.57 71.115 21.07C70.855 20.57 70.705 19.87 70.665 18.97C70.665 18.51 70.655 17.98 70.635 17.38C70.635 16.78 70.625 16.17 70.605 15.55C70.605 14.93 70.605 14.33 70.605 13.75C70.605 13.15 70.605 12.61 70.605 12.13C70.605 11.85 70.595 11.51 70.575 11.11C70.575 10.71 70.585 10.3 70.605 9.88C70.625 9.46 70.675 9.06 70.755 8.68C70.835 8.28 70.965 7.95 71.145 7.69C71.285 7.53 71.485 7.41 71.745 7.33C72.005 7.23 72.275 7.18 72.555 7.18C72.855 7.18 73.135 7.23 73.395 7.33C73.675 7.43 73.875 7.57 73.995 7.75C74.075 7.87 74.135 8.04 74.175 8.26C74.215 8.48 74.245 8.73 74.265 9.01C74.305 9.27 74.325 9.55 74.325 9.85C74.345 10.13 74.355 10.39 74.355 10.63ZM73.215 4.57C72.595 4.73 72.075 4.67 71.655 4.39C71.255 4.09 71.005 3.65 70.905 3.07C70.825 2.65 70.855 2.28 70.995 1.96C71.135 1.64 71.345 1.4 71.625 1.24C71.905 1.06 72.225 0.979999 72.585 0.999999C72.945 1.02 73.305 1.16 73.665 1.42C74.005 1.66 74.245 1.94 74.385 2.26C74.545 2.58 74.595 2.89 74.535 3.19C74.495 3.49 74.365 3.77 74.145 4.03C73.925 4.27 73.615 4.45 73.215 4.57ZM90.341 8.86C90.421 9.1 90.441 9.37 90.401 9.67C90.361 9.97 90.291 10.28 90.191 10.6C90.091 10.9 89.971 11.2 89.831 11.5C89.711 11.78 89.601 12.03 89.501 12.25C88.981 13.31 88.491 14.35 88.031 15.37C87.571 16.39 87.031 17.5 86.411 18.7C86.291 18.94 86.151 19.23 85.991 19.57C85.851 19.89 85.691 20.21 85.511 20.53C85.331 20.83 85.131 21.11 84.911 21.37C84.711 21.63 84.491 21.82 84.251 21.94C84.051 22.06 83.851 22.11 83.651 22.09C83.491 22.13 83.311 22.08 83.111 21.94C82.871 21.82 82.641 21.63 82.421 21.37C82.221 21.11 82.031 20.83 81.851 20.53C81.671 20.21 81.501 19.89 81.341 19.57C81.201 19.23 81.071 18.94 80.951 18.7C80.711 18.24 80.481 17.81 80.261 17.41C80.061 17.01 79.841 16.58 79.601 16.12C79.381 15.64 79.131 15.1 78.851 14.5C78.571 13.88 78.241 13.13 77.861 12.25C77.761 12.01 77.651 11.76 77.531 11.5C77.411 11.24 77.301 10.96 77.201 10.66C77.121 10.36 77.061 10.06 77.021 9.76C77.001 9.44 77.021 9.12 77.081 8.8C77.141 8.5 77.291 8.26 77.531 8.08C77.771 7.9 78.041 7.78 78.341 7.72C78.641 7.66 78.941 7.67 79.241 7.75C79.541 7.81 79.781 7.94 79.961 8.14C80.141 8.32 80.311 8.56 80.471 8.86C80.631 9.16 80.781 9.48 80.921 9.82C81.081 10.14 81.221 10.47 81.341 10.81C81.481 11.13 81.611 11.41 81.731 11.65C82.011 12.23 82.321 12.86 82.661 13.54C83.021 14.22 83.341 14.85 83.621 15.43C83.821 14.97 84.001 14.59 84.161 14.29C84.321 13.97 84.471 13.66 84.611 13.36C84.771 13.06 84.931 12.73 85.091 12.37C85.271 12.01 85.491 11.55 85.751 10.99C85.991 10.47 86.231 9.96 86.471 9.46C86.731 8.96 87.041 8.52 87.401 8.14C87.581 7.94 87.811 7.81 88.091 7.75C88.371 7.67 88.661 7.66 88.961 7.72C89.261 7.78 89.531 7.91 89.771 8.11C90.031 8.29 90.221 8.54 90.341 8.86ZM102.312 17.89C102.552 17.83 102.792 17.79 103.032 17.77C103.292 17.75 103.522 17.78 103.722 17.86C103.942 17.94 104.122 18.08 104.262 18.28C104.402 18.46 104.472 18.72 104.472 19.06C104.472 19.3 104.412 19.53 104.292 19.75C104.172 19.97 104.022 20.17 103.842 20.35C103.662 20.53 103.462 20.69 103.242 20.83C103.022 20.95 102.812 21.05 102.612 21.13C102.032 21.39 101.362 21.59 100.602 21.73C99.8624 21.87 99.0924 21.92 98.2924 21.88C97.2124 21.84 96.1724 21.63 95.1724 21.25C94.1924 20.85 93.4224 20.2 92.8624 19.3C92.3424 18.42 92.0324 17.44 91.9324 16.36C91.8324 15.28 91.8824 14.26 92.0824 13.3C92.3024 12.14 92.6724 11.2 93.1924 10.48C93.7324 9.74 94.3724 9.15 95.1124 8.71C96.0124 8.19 97.0224 7.92 98.1424 7.9C99.2624 7.88 100.332 8.1 101.352 8.56C102.032 8.86 102.642 9.27 103.182 9.79C103.722 10.29 104.132 10.9 104.412 11.62C104.492 11.8 104.552 12.02 104.592 12.28C104.652 12.54 104.692 12.82 104.712 13.12C104.732 13.4 104.732 13.68 104.712 13.96C104.692 14.24 104.642 14.49 104.562 14.71C104.442 15.07 104.292 15.35 104.112 15.55C103.932 15.75 103.702 15.9 103.422 16C103.142 16.1 102.802 16.17 102.402 16.21C102.022 16.23 101.562 16.25 101.022 16.27C100.542 16.29 100.092 16.3 99.6724 16.3C99.2524 16.3 98.8224 16.3 98.3824 16.3C97.9424 16.28 97.4824 16.27 97.0024 16.27C96.5424 16.25 96.0224 16.23 95.4424 16.21C95.3824 16.61 95.4324 16.96 95.5924 17.26C95.7724 17.54 96.0124 17.78 96.3124 17.98C96.6124 18.16 96.9524 18.3 97.3324 18.4C97.7124 18.5 98.0824 18.56 98.4424 18.58C99.1224 18.62 99.7724 18.57 100.392 18.43C101.012 18.27 101.652 18.09 102.312 17.89ZM101.022 12.07C100.642 11.63 100.242 11.31 99.8224 11.11C99.5024 10.97 99.1624 10.91 98.8024 10.93C98.4624 10.93 98.1324 10.98 97.8124 11.08C97.2324 11.22 96.7424 11.52 96.3424 11.98C96.3024 12.02 96.2324 12.12 96.1324 12.28C96.0324 12.42 95.9324 12.57 95.8324 12.73C95.7524 12.89 95.6924 13.04 95.6524 13.18C95.6124 13.32 95.6324 13.39 95.7124 13.39H101.592C101.572 13.11 101.522 12.88 101.442 12.7C101.362 12.5 101.222 12.29 101.022 12.07Z" fill="#1648CE"/>
</svg>
