<svg width="42" height="37" viewBox="0 0 42 37" fill="none" xmlns="http://www.w3.org/2000/svg">
<g clip-path="url(#clip0_510_1530)">
<path d="M8.94873 34.4738V8.62767H21.3333C22.1112 8.62767 22.8814 8.78088 23.6 9.07854C24.3186 9.3762 24.9716 9.81249 25.5216 10.3625C26.0716 10.9125 26.5079 11.5655 26.8056 12.2841C27.1032 13.0027 27.2564 13.7729 27.2564 14.5507C27.2564 15.3286 27.1032 16.0988 26.8056 16.8174C26.5079 17.536 26.0716 18.189 25.5216 18.739C24.9716 19.289 24.3186 19.7253 23.6 20.023C22.8814 20.3206 22.1112 20.4738 21.3333 20.4738H8.94873M15.4103 20.4738L32.641 36.6277M18.641 36.6277L32.641 22.6277" stroke="#00A7AC" stroke-width="2" stroke-linecap="round" stroke-linejoin="round"/>
</g>
<defs>
<clipPath id="clip0_510_1530">
<rect width="41.8462" height="36.2553" fill="white"/>
</clipPath>
</defs>
</svg>
