<svg width="320" height="244" viewBox="0 0 320 244" fill="none" xmlns="http://www.w3.org/2000/svg">
<g opacity="0.2">
<path d="M176.651 85.1666C176.769 85.0879 176.902 85.0358 177.042 85.0138C177.181 84.9919 177.324 85.0006 177.46 85.0394C177.596 85.0782 177.722 85.1462 177.829 85.2386C177.936 85.3311 178.022 85.4457 178.08 85.5745L178.852 87.2953C178.879 87.3514 178.919 87.4004 178.968 87.4386C179.017 87.4767 179.074 87.5028 179.135 87.5148L180.996 87.8503C181.174 87.8819 181.34 87.963 181.475 88.0844C181.61 88.2059 181.707 88.3627 181.757 88.537C181.807 88.7113 181.807 88.8961 181.757 89.0703C181.707 89.2446 181.609 89.4012 181.474 89.5224L180.075 90.7924C180.029 90.835 179.995 90.8875 179.974 90.9459C179.953 91.0042 179.947 91.0666 179.955 91.1281L180.213 92.9982C180.24 93.1803 180.216 93.3666 180.142 93.5353C180.068 93.7041 179.948 93.8483 179.795 93.9514C179.642 94.0545 179.464 94.1121 179.279 94.1176C179.095 94.1231 178.913 94.0762 178.755 93.9824L177.117 93.0439C177.062 93.0134 177 92.9964 176.938 92.9945C176.875 92.9926 176.812 93.0058 176.756 93.033L175.05 93.8381C174.887 93.9179 174.705 93.9503 174.525 93.9317C174.344 93.913 174.173 93.8441 174.03 93.7327C173.887 93.6213 173.778 93.472 173.716 93.3017C173.653 93.1314 173.64 92.9471 173.678 92.7697L174.1 90.9427C174.111 90.8818 174.108 90.8189 174.09 90.7595C174.072 90.7001 174.04 90.646 173.997 90.6018L172.694 89.2386C172.569 89.1082 172.482 88.945 172.445 88.7679C172.408 88.5907 172.421 88.4066 172.483 88.2364C172.545 88.0663 172.653 87.917 172.796 87.8055C172.939 87.694 173.11 87.6248 173.29 87.6058L175.167 87.3997C175.229 87.3942 175.289 87.373 175.341 87.3379C175.393 87.3029 175.435 87.2554 175.463 87.1996L176.359 85.5407C176.424 85.3935 176.524 85.2649 176.651 85.1666ZM179.462 93.4482C179.523 93.4099 179.572 93.3546 179.602 93.2891C179.632 93.2236 179.642 93.1508 179.631 93.0797L179.378 91.2063C179.356 91.0507 179.372 90.8921 179.425 90.7442C179.478 90.5963 179.566 90.4635 179.682 90.3573L181.081 89.0873C181.134 89.0394 181.172 88.9777 181.191 88.9092C181.211 88.8407 181.211 88.7681 181.191 88.6996C181.171 88.6312 181.133 88.5696 181.08 88.5219C181.027 88.4742 180.962 88.4423 180.892 88.4298L179.031 88.0943C178.876 88.0655 178.731 87.9994 178.607 87.9019C178.483 87.8043 178.385 87.6781 178.321 87.5342L177.543 85.8167C177.514 85.7517 177.468 85.6961 177.409 85.6562C177.35 85.6162 177.281 85.5936 177.21 85.5908C177.139 85.588 177.068 85.6052 177.006 85.6403C176.945 85.6755 176.894 85.7273 176.86 85.7898L175.962 87.4569C175.888 87.5944 175.782 87.7118 175.652 87.7992C175.523 87.8866 175.374 87.9414 175.219 87.9588L173.337 88.1682C173.264 88.1703 173.193 88.1935 173.132 88.235C173.072 88.2765 173.025 88.3345 172.996 88.4021C172.968 88.4697 172.96 88.544 172.973 88.6162C172.986 88.6883 173.019 88.7552 173.069 88.8088L174.371 90.172C174.48 90.2862 174.559 90.4245 174.603 90.5756C174.647 90.7266 174.655 90.886 174.625 91.0405L174.241 92.8916C174.225 92.9616 174.229 93.0348 174.254 93.1024C174.278 93.17 174.321 93.2292 174.378 93.2729C174.435 93.3166 174.502 93.3434 174.573 93.3505C174.644 93.3576 174.716 93.3445 174.78 93.3129L176.481 92.4899C176.623 92.4222 176.779 92.39 176.936 92.3962C177.093 92.4023 177.246 92.4467 177.382 92.5253L179.048 93.4733C179.112 93.5112 179.185 93.529 179.259 93.5245C179.333 93.52 179.404 93.4934 179.462 93.4482Z" fill="white"/>
<path opacity="0.5" d="M176.651 85.1666C176.769 85.0879 176.902 85.0358 177.042 85.0138C177.181 84.9919 177.324 85.0006 177.46 85.0394C177.596 85.0782 177.722 85.1462 177.829 85.2386C177.936 85.3311 178.022 85.4457 178.08 85.5745L178.852 87.2953C178.879 87.3514 178.919 87.4004 178.968 87.4386C179.017 87.4767 179.074 87.5028 179.135 87.5148L180.996 87.8503C181.174 87.8819 181.34 87.963 181.475 88.0844C181.61 88.2059 181.707 88.3627 181.757 88.537C181.807 88.7113 181.807 88.8961 181.757 89.0703C181.707 89.2446 181.609 89.4012 181.474 89.5224L180.075 90.7924C180.029 90.835 179.995 90.8875 179.974 90.9459C179.953 91.0042 179.947 91.0666 179.955 91.1281L180.213 92.9982C180.24 93.1803 180.216 93.3666 180.142 93.5353C180.068 93.7041 179.948 93.8483 179.795 93.9514C179.642 94.0545 179.464 94.1121 179.279 94.1176C179.095 94.1231 178.913 94.0762 178.755 93.9824L177.117 93.0439C177.062 93.0134 177 92.9964 176.938 92.9945C176.875 92.9926 176.812 93.0058 176.756 93.033L175.05 93.8381C174.887 93.9179 174.705 93.9503 174.525 93.9317C174.344 93.913 174.173 93.8441 174.03 93.7327C173.887 93.6213 173.778 93.472 173.716 93.3017C173.653 93.1314 173.64 92.9471 173.678 92.7697L174.1 90.9427C174.111 90.8818 174.108 90.8189 174.09 90.7595C174.072 90.7001 174.04 90.646 173.997 90.6018L172.694 89.2386C172.569 89.1082 172.482 88.945 172.445 88.7679C172.408 88.5907 172.421 88.4066 172.483 88.2364C172.545 88.0663 172.653 87.917 172.796 87.8055C172.939 87.694 173.11 87.6248 173.29 87.6058L175.167 87.3997C175.229 87.3942 175.289 87.373 175.341 87.3379C175.393 87.3029 175.435 87.2554 175.463 87.1996L176.359 85.5407C176.424 85.3935 176.524 85.2649 176.651 85.1666ZM179.462 93.4482C179.523 93.4099 179.572 93.3546 179.602 93.2891C179.632 93.2236 179.642 93.1508 179.631 93.0797L179.378 91.2063C179.356 91.0507 179.372 90.8921 179.425 90.7442C179.478 90.5963 179.566 90.4635 179.682 90.3573L181.081 89.0873C181.134 89.0394 181.172 88.9777 181.191 88.9092C181.211 88.8407 181.211 88.7681 181.191 88.6996C181.171 88.6312 181.133 88.5696 181.08 88.5219C181.027 88.4742 180.962 88.4423 180.892 88.4298L179.031 88.0943C178.876 88.0655 178.731 87.9994 178.607 87.9019C178.483 87.8043 178.385 87.6781 178.321 87.5342L177.543 85.8167C177.514 85.7517 177.468 85.6961 177.409 85.6562C177.35 85.6162 177.281 85.5936 177.21 85.5908C177.139 85.588 177.068 85.6052 177.006 85.6403C176.945 85.6755 176.894 85.7273 176.86 85.7898L175.962 87.4569C175.888 87.5944 175.782 87.7118 175.652 87.7992C175.523 87.8866 175.374 87.9414 175.219 87.9588L173.337 88.1682C173.264 88.1703 173.193 88.1935 173.132 88.235C173.072 88.2765 173.025 88.3345 172.996 88.4021C172.968 88.4697 172.96 88.544 172.973 88.6162C172.986 88.6883 173.019 88.7552 173.069 88.8088L174.371 90.172C174.48 90.2862 174.559 90.4245 174.603 90.5756C174.647 90.7266 174.655 90.886 174.625 91.0405L174.241 92.8916C174.225 92.9616 174.229 93.0348 174.254 93.1024C174.278 93.17 174.321 93.2292 174.378 93.2729C174.435 93.3166 174.502 93.3434 174.573 93.3505C174.644 93.3576 174.716 93.3445 174.78 93.3129L176.481 92.4899C176.623 92.4222 176.779 92.39 176.936 92.3962C177.093 92.4023 177.246 92.4467 177.382 92.5253L179.048 93.4733C179.112 93.5112 179.185 93.529 179.259 93.5245C179.333 93.52 179.404 93.4934 179.462 93.4482Z" fill="white"/>
<path d="M61.608 108.26C61.7895 108.14 61.9933 108.059 62.2071 108.021C62.4208 107.983 62.6401 107.988 62.8516 108.037C63.0632 108.086 63.2626 108.178 63.4379 108.306C63.6131 108.434 63.7606 108.596 63.8714 108.783L65.6881 111.914C65.7692 112.054 65.8832 112.172 66.0202 112.259C66.1573 112.345 66.3133 112.396 66.4747 112.409L70.0814 112.69C70.3764 112.712 70.6593 112.816 70.8984 112.99C71.1374 113.164 71.3232 113.402 71.4346 113.676C71.546 113.95 71.5788 114.249 71.5292 114.541C71.4796 114.833 71.3496 115.105 71.1538 115.326L68.7303 118.023C68.6204 118.143 68.5422 118.288 68.5028 118.446C68.4634 118.603 68.464 118.768 68.5047 118.926L69.3513 122.443C69.4199 122.731 69.4069 123.032 69.3136 123.313C69.2203 123.593 69.0504 123.842 68.8232 124.032C68.596 124.221 68.3203 124.344 68.0274 124.385C67.7344 124.426 67.4358 124.385 67.1651 124.265L63.8555 122.8C63.7077 122.733 63.5457 122.704 63.3839 122.715C63.2221 122.725 63.0653 122.775 62.9274 122.861L59.8407 124.754C59.589 124.912 59.2979 124.997 59.0003 124.998C58.7028 125 58.4109 124.918 58.1578 124.761C57.9048 124.605 57.7007 124.38 57.5689 124.114C57.4371 123.847 57.3829 123.548 57.4123 123.252L57.8043 119.642C57.8259 119.477 57.8063 119.31 57.7472 119.154C57.6881 118.999 57.5914 118.861 57.4658 118.753L54.7121 116.403C54.4861 116.212 54.3184 115.961 54.2282 115.679C54.138 115.397 54.1289 115.096 54.202 114.809C54.2745 114.521 54.4258 114.26 54.6389 114.053C54.852 113.847 55.1184 113.704 55.4082 113.641L58.9455 112.887C59.104 112.853 59.2519 112.781 59.3765 112.677C59.5011 112.573 59.5986 112.441 59.6607 112.291L61.0397 108.948C61.1606 108.669 61.3576 108.431 61.608 108.26ZM68.3567 123.652L68.4441 123.593C68.59 123.475 68.6991 123.318 68.7583 123.14C68.8175 122.962 68.8244 122.771 68.7781 122.589L67.9315 119.072C67.8692 118.822 67.8697 118.56 67.9329 118.31C67.9962 118.06 68.1202 117.83 68.2939 117.639L70.7174 114.942C70.8428 114.803 70.9268 114.631 70.9597 114.447C70.9926 114.262 70.9732 114.072 70.9036 113.898C70.834 113.724 70.7171 113.573 70.566 113.462C70.415 113.351 70.2359 113.285 70.049 113.271L66.4424 112.989C66.187 112.968 65.9406 112.886 65.7245 112.748C65.5084 112.61 65.329 112.422 65.2019 112.2L63.3852 109.069C63.2938 108.906 63.1577 108.773 62.9929 108.684C62.8282 108.596 62.6417 108.557 62.4554 108.572C62.269 108.578 62.0882 108.637 61.9335 108.742C61.7789 108.846 61.6567 108.992 61.5808 109.162L60.197 112.509C60.0991 112.746 59.9453 112.956 59.7486 113.121C59.5519 113.286 59.3182 113.4 59.0675 113.455L55.5254 114.212C55.3466 114.253 55.1824 114.342 55.0506 114.469C54.9188 114.597 54.8245 114.758 54.7779 114.935C54.7314 115.113 54.7343 115.299 54.7864 115.475C54.8385 115.651 54.9379 115.809 55.0736 115.932L57.8273 118.282C58.0231 118.449 58.1755 118.66 58.2713 118.899C58.367 119.137 58.4032 119.396 58.3767 119.651L57.9848 123.262C57.9672 123.448 58.0016 123.635 58.084 123.802C58.1665 123.97 58.2938 124.111 58.4519 124.211C58.6099 124.31 58.7924 124.363 58.9791 124.365C59.1657 124.367 59.3492 124.317 59.5091 124.221L62.5877 122.326C62.8075 122.192 63.0565 122.113 63.3136 122.096C63.5706 122.079 63.828 122.124 64.0636 122.228L67.3682 123.697C67.5223 123.777 67.6949 123.815 67.8685 123.807C68.0421 123.8 68.2105 123.746 68.3567 123.652Z" fill="white"/>
<path opacity="0.5" d="M61.608 108.26C61.7895 108.14 61.9933 108.059 62.2071 108.021C62.4208 107.983 62.6401 107.988 62.8516 108.037C63.0632 108.086 63.2626 108.178 63.4379 108.306C63.6131 108.434 63.7606 108.596 63.8714 108.783L65.6881 111.914C65.7692 112.054 65.8832 112.172 66.0202 112.259C66.1573 112.345 66.3133 112.396 66.4747 112.409L70.0814 112.69C70.3764 112.712 70.6593 112.816 70.8984 112.99C71.1374 113.164 71.3232 113.402 71.4346 113.676C71.546 113.95 71.5788 114.249 71.5292 114.541C71.4796 114.833 71.3496 115.105 71.1538 115.326L68.7303 118.023C68.6204 118.143 68.5422 118.288 68.5028 118.446C68.4634 118.603 68.464 118.768 68.5047 118.926L69.3513 122.443C69.4199 122.731 69.4069 123.032 69.3136 123.313C69.2203 123.593 69.0504 123.842 68.8232 124.032C68.596 124.221 68.3203 124.344 68.0274 124.385C67.7344 124.426 67.4358 124.385 67.1651 124.265L63.8555 122.8C63.7077 122.733 63.5457 122.704 63.3839 122.715C63.2221 122.725 63.0653 122.775 62.9274 122.861L59.8407 124.754C59.589 124.912 59.2979 124.997 59.0003 124.998C58.7028 125 58.4109 124.918 58.1578 124.761C57.9048 124.605 57.7007 124.38 57.5689 124.114C57.4371 123.847 57.3829 123.548 57.4123 123.252L57.8043 119.642C57.8259 119.477 57.8063 119.31 57.7472 119.154C57.6881 118.999 57.5914 118.861 57.4658 118.753L54.7121 116.403C54.4861 116.212 54.3184 115.961 54.2282 115.679C54.138 115.397 54.1289 115.096 54.202 114.809C54.2745 114.521 54.4258 114.26 54.6389 114.053C54.852 113.847 55.1184 113.704 55.4082 113.641L58.9455 112.887C59.104 112.853 59.2519 112.781 59.3765 112.677C59.5011 112.573 59.5986 112.441 59.6607 112.291L61.0397 108.948C61.1606 108.669 61.3576 108.431 61.608 108.26ZM68.3567 123.652L68.4441 123.593C68.59 123.475 68.6991 123.318 68.7583 123.14C68.8175 122.962 68.8244 122.771 68.7781 122.589L67.9315 119.072C67.8692 118.822 67.8697 118.56 67.9329 118.31C67.9962 118.06 68.1202 117.83 68.2939 117.639L70.7174 114.942C70.8428 114.803 70.9268 114.631 70.9597 114.447C70.9926 114.262 70.9732 114.072 70.9036 113.898C70.834 113.724 70.7171 113.573 70.566 113.462C70.415 113.351 70.2359 113.285 70.049 113.271L66.4424 112.989C66.187 112.968 65.9406 112.886 65.7245 112.748C65.5084 112.61 65.329 112.422 65.2019 112.2L63.3852 109.069C63.2938 108.906 63.1577 108.773 62.9929 108.684C62.8282 108.596 62.6417 108.557 62.4554 108.572C62.269 108.578 62.0882 108.637 61.9335 108.742C61.7789 108.846 61.6567 108.992 61.5808 109.162L60.197 112.509C60.0991 112.746 59.9453 112.956 59.7486 113.121C59.5519 113.286 59.3182 113.4 59.0675 113.455L55.5254 114.212C55.3466 114.253 55.1824 114.342 55.0506 114.469C54.9188 114.597 54.8245 114.758 54.7779 114.935C54.7314 115.113 54.7343 115.299 54.7864 115.475C54.8385 115.651 54.9379 115.809 55.0736 115.932L57.8273 118.282C58.0231 118.449 58.1755 118.66 58.2713 118.899C58.367 119.137 58.4032 119.396 58.3767 119.651L57.9848 123.262C57.9672 123.448 58.0016 123.635 58.084 123.802C58.1665 123.97 58.2938 124.111 58.4519 124.211C58.6099 124.31 58.7924 124.363 58.9791 124.365C59.1657 124.367 59.3492 124.317 59.5091 124.221L62.5877 122.326C62.8075 122.192 63.0565 122.113 63.3136 122.096C63.5706 122.079 63.828 122.124 64.0636 122.228L67.3682 123.697C67.5223 123.777 67.6949 123.815 67.8685 123.807C68.0421 123.8 68.2105 123.746 68.3567 123.652Z" fill="white"/>
<path d="M45.9985 90.0214L45.3865 88.2558C45.3508 88.157 45.2916 88.0685 45.2142 87.9976C45.1368 87.9267 45.0433 87.8755 44.9419 87.8486L43.1421 87.3517C43.0216 87.3185 42.9128 87.2522 42.8282 87.1602C42.7435 87.0683 42.6862 86.9545 42.663 86.8317C42.6398 86.7088 42.6514 86.582 42.6967 86.4654C42.7419 86.3489 42.8189 86.2474 42.919 86.1725L44.4084 85.0467C44.494 84.9801 44.5624 84.894 44.6079 84.7955C44.6535 84.6971 44.6748 84.5892 44.6702 84.4809L44.5845 82.6146C44.5856 82.4946 44.6188 82.377 44.6806 82.274C44.7424 82.171 44.8306 82.0864 44.936 82.029C45.0414 81.9715 45.1603 81.9432 45.2803 81.9471C45.4003 81.9509 45.5171 81.9867 45.6187 82.0508L47.1568 83.1346C47.2464 83.1955 47.3491 83.2342 47.4566 83.2478C47.5641 83.2613 47.6732 83.2491 47.7751 83.2123L49.5242 82.5549C49.6414 82.5096 49.7689 82.4982 49.8922 82.5221C50.0155 82.5459 50.1296 82.604 50.2214 82.6897C50.3132 82.7753 50.379 82.8852 50.4113 83.0065C50.4435 83.1279 50.441 83.2559 50.4039 83.3759L49.8549 85.1613C49.8234 85.2673 49.8186 85.3794 49.8411 85.4877C49.8636 85.596 49.9126 85.697 49.9837 85.7817L51.1484 87.2449C51.2197 87.3433 51.2627 87.4593 51.273 87.5805C51.2832 87.7016 51.2603 87.8232 51.2065 87.9322C51.1528 88.0412 51.0704 88.1335 50.9681 88.1992C50.8658 88.2649 50.7476 88.3014 50.6261 88.3049L48.7563 88.3434C48.6478 88.3464 48.5416 88.3751 48.4464 88.4271C48.3511 88.4791 48.2696 88.5529 48.2084 88.6426L47.1834 90.2047C47.1105 90.3049 47.0114 90.3831 46.8971 90.4306C46.7827 90.4782 46.6574 90.4934 46.535 90.4744C46.4126 90.4555 46.2978 90.4032 46.2031 90.3233C46.1085 90.2433 46.0377 90.1389 45.9985 90.0214Z" fill="white"/>
<path opacity="0.2" d="M45.9985 90.0214L45.3865 88.2558C45.3508 88.157 45.2916 88.0685 45.2142 87.9976C45.1368 87.9267 45.0433 87.8755 44.9419 87.8486L43.1421 87.3517C43.0216 87.3185 42.9128 87.2522 42.8282 87.1602C42.7435 87.0683 42.6862 86.9545 42.663 86.8317C42.6398 86.7088 42.6514 86.582 42.6967 86.4654C42.7419 86.3489 42.8189 86.2474 42.919 86.1725L44.4084 85.0467C44.494 84.9801 44.5624 84.894 44.6079 84.7955C44.6535 84.6971 44.6748 84.5892 44.6702 84.4809L44.5845 82.6146C44.5856 82.4946 44.6188 82.377 44.6806 82.274C44.7424 82.171 44.8306 82.0864 44.936 82.029C45.0414 81.9715 45.1603 81.9432 45.2803 81.9471C45.4003 81.9509 45.5171 81.9867 45.6187 82.0508L47.1568 83.1346C47.2464 83.1955 47.3491 83.2342 47.4566 83.2478C47.5641 83.2613 47.6732 83.2491 47.7751 83.2123L49.5242 82.5549C49.6414 82.5096 49.7689 82.4982 49.8922 82.5221C50.0155 82.5459 50.1296 82.604 50.2214 82.6897C50.3132 82.7753 50.379 82.8852 50.4113 83.0065C50.4435 83.1279 50.441 83.2559 50.4039 83.3759L49.8549 85.1613C49.8234 85.2673 49.8186 85.3794 49.8411 85.4877C49.8636 85.596 49.9126 85.697 49.9837 85.7817L51.1484 87.2449C51.2197 87.3433 51.2627 87.4593 51.273 87.5805C51.2832 87.7016 51.2603 87.8232 51.2065 87.9322C51.1528 88.0412 51.0704 88.1335 50.9681 88.1992C50.8658 88.2649 50.7476 88.3014 50.6261 88.3049L48.7563 88.3434C48.6478 88.3464 48.5416 88.3751 48.4464 88.4271C48.3511 88.4791 48.2696 88.5529 48.2084 88.6426L47.1834 90.2047C47.1105 90.3049 47.0114 90.3831 46.8971 90.4306C46.7827 90.4782 46.6574 90.4934 46.535 90.4744C46.4126 90.4555 46.2978 90.4032 46.2031 90.3233C46.1085 90.2433 46.0377 90.1389 45.9985 90.0214Z" fill="white"/>
<path d="M135.348 26.8485L134.935 25.6492C134.909 25.5806 134.868 25.5189 134.815 25.469C134.762 25.419 134.697 25.3822 134.627 25.3616L133.411 25.0369C133.329 25.0136 133.256 24.9682 133.199 24.9057C133.142 24.8431 133.103 24.766 133.087 24.6828C133.071 24.5996 133.079 24.5136 133.109 24.4345C133.139 24.3553 133.191 24.2861 133.258 24.2345L134.268 23.4676C134.327 23.4238 134.373 23.3662 134.404 23.2998C134.434 23.2335 134.448 23.1606 134.443 23.0877L134.389 21.823C134.384 21.7384 134.403 21.6542 134.444 21.58C134.485 21.5058 134.546 21.4447 134.62 21.4036C134.694 21.3624 134.779 21.3429 134.863 21.3474C134.948 21.3518 135.029 21.3799 135.099 21.4285L136.134 22.1445C136.194 22.1875 136.264 22.2151 136.337 22.2248C136.41 22.2346 136.484 22.2263 136.554 22.2006L137.738 21.7546C137.817 21.7242 137.903 21.7167 137.986 21.7328C138.07 21.749 138.146 21.7882 138.208 21.8461C138.27 21.9039 138.315 21.9779 138.336 22.0598C138.358 22.1416 138.357 22.228 138.332 22.3089L137.966 23.5176C137.944 23.5878 137.939 23.6625 137.952 23.7349C137.966 23.8074 137.996 23.8756 138.042 23.9335L138.838 24.924C138.89 24.9908 138.923 25.0709 138.932 25.1552C138.941 25.2395 138.927 25.3247 138.891 25.4014C138.854 25.478 138.798 25.543 138.726 25.5892C138.655 25.6353 138.573 25.6608 138.488 25.6627L137.224 25.6879C137.151 25.6885 137.078 25.7072 137.013 25.7425C136.948 25.7777 136.893 25.8284 136.852 25.8901L136.152 26.9495C136.106 27.02 136.041 27.076 135.964 27.1113C135.887 27.1466 135.802 27.1598 135.719 27.1492C135.635 27.1387 135.556 27.105 135.491 27.0518C135.425 26.9987 135.376 26.9282 135.348 26.8485Z" fill="white"/>
<path opacity="0.2" d="M135.348 26.8485L134.935 25.6492C134.909 25.5806 134.868 25.5189 134.815 25.469C134.762 25.419 134.697 25.3822 134.627 25.3616L133.411 25.0369C133.329 25.0136 133.256 24.9682 133.199 24.9057C133.142 24.8431 133.103 24.766 133.087 24.6828C133.071 24.5996 133.079 24.5136 133.109 24.4345C133.139 24.3553 133.191 24.2861 133.258 24.2345L134.268 23.4676C134.327 23.4238 134.373 23.3662 134.404 23.2998C134.434 23.2335 134.448 23.1606 134.443 23.0877L134.389 21.823C134.384 21.7384 134.403 21.6542 134.444 21.58C134.485 21.5058 134.546 21.4447 134.62 21.4036C134.694 21.3624 134.779 21.3429 134.863 21.3474C134.948 21.3518 135.029 21.3799 135.099 21.4285L136.134 22.1445C136.194 22.1875 136.264 22.2151 136.337 22.2248C136.41 22.2346 136.484 22.2263 136.554 22.2006L137.738 21.7546C137.817 21.7242 137.903 21.7167 137.986 21.7328C138.07 21.749 138.146 21.7882 138.208 21.8461C138.27 21.9039 138.315 21.9779 138.336 22.0598C138.358 22.1416 138.357 22.228 138.332 22.3089L137.966 23.5176C137.944 23.5878 137.939 23.6625 137.952 23.7349C137.966 23.8074 137.996 23.8756 138.042 23.9335L138.838 24.924C138.89 24.9908 138.923 25.0709 138.932 25.1552C138.941 25.2395 138.927 25.3247 138.891 25.4014C138.854 25.478 138.798 25.543 138.726 25.5892C138.655 25.6353 138.573 25.6608 138.488 25.6627L137.224 25.6879C137.151 25.6885 137.078 25.7072 137.013 25.7425C136.948 25.7777 136.893 25.8284 136.852 25.8901L136.152 26.9495C136.106 27.02 136.041 27.076 135.964 27.1113C135.887 27.1466 135.802 27.1598 135.719 27.1492C135.635 27.1387 135.556 27.105 135.491 27.0518C135.425 26.9987 135.376 26.9282 135.348 26.8485Z" fill="white"/>
<path d="M224.279 75.4025C224.396 75.3239 224.529 75.2717 224.669 75.2498C224.809 75.2278 224.951 75.2365 225.087 75.2754C225.223 75.3142 225.349 75.3822 225.456 75.4746C225.563 75.567 225.649 75.6816 225.707 75.8105L226.48 77.5313C226.506 77.5874 226.546 77.6364 226.595 77.6745C226.644 77.7126 226.701 77.7387 226.762 77.7508L228.623 78.0863C228.801 78.1179 228.967 78.199 229.102 78.3204C229.237 78.4418 229.335 78.5986 229.384 78.7729C229.434 78.9473 229.434 79.1321 229.384 79.3063C229.334 79.4805 229.236 79.6372 229.101 79.7584L227.702 81.0284C227.657 81.0709 227.622 81.1235 227.601 81.1818C227.581 81.2402 227.574 81.3026 227.582 81.3641L227.84 83.2342C227.868 83.4163 227.843 83.6026 227.769 83.7713C227.695 83.94 227.575 84.0843 227.422 84.1874C227.27 84.2905 227.091 84.3481 226.907 84.3536C226.723 84.359 226.541 84.3122 226.382 84.2183L224.744 83.2799C224.689 83.2493 224.628 83.2324 224.565 83.2305C224.502 83.2286 224.44 83.2418 224.383 83.269L222.677 84.0741C222.514 84.1539 222.332 84.1863 222.152 84.1676C221.972 84.149 221.8 84.08 221.657 83.9686C221.514 83.8573 221.405 83.7079 221.343 83.5376C221.281 83.3674 221.267 83.183 221.305 83.0056L221.727 81.1787C221.739 81.1178 221.735 81.0549 221.718 80.9955C221.7 80.9361 221.668 80.882 221.624 80.8378L220.322 79.4746C220.196 79.3441 220.11 79.181 220.072 79.0038C220.035 78.8267 220.048 78.6425 220.11 78.4724C220.172 78.3023 220.28 78.153 220.423 78.0415C220.566 77.93 220.737 77.8608 220.917 77.8418L222.794 77.6357C222.856 77.6302 222.916 77.6089 222.968 77.5739C223.02 77.5389 223.062 77.4913 223.09 77.4356L223.986 75.7766C224.051 75.6295 224.151 75.5009 224.279 75.4025ZM227.09 83.6841C227.151 83.6458 227.199 83.5905 227.229 83.5251C227.259 83.4596 227.269 83.3868 227.258 83.3156L227.005 81.4422C226.983 81.2867 226.999 81.1281 227.052 80.9802C227.105 80.8322 227.193 80.6994 227.309 80.5933L228.708 79.3233C228.761 79.2754 228.799 79.2137 228.819 79.1452C228.838 79.0766 228.838 79.004 228.818 78.9356C228.799 78.8671 228.76 78.8055 228.707 78.7579C228.654 78.7102 228.589 78.6783 228.519 78.6658L226.658 78.3303C226.503 78.3014 226.358 78.2354 226.234 78.1378C226.11 78.0403 226.012 77.9141 225.948 77.7702L225.17 76.0527C225.141 75.9877 225.095 75.9321 225.036 75.8921C224.977 75.8522 224.908 75.8296 224.837 75.8268C224.766 75.824 224.695 75.8411 224.634 75.8763C224.572 75.9115 224.521 75.9632 224.487 76.0257L223.589 77.6929C223.515 77.8303 223.409 77.9478 223.279 78.0352C223.15 78.1226 223.001 78.1774 222.846 78.1948L220.964 78.4041C220.891 78.4063 220.82 78.4295 220.759 78.471C220.699 78.5124 220.652 78.5705 220.624 78.6381C220.595 78.7057 220.587 78.78 220.6 78.8521C220.613 78.9242 220.646 78.9911 220.696 79.0447L221.999 80.408C222.107 80.5222 222.186 80.6605 222.231 80.8115C222.275 80.9625 222.282 81.1219 222.253 81.2764L221.868 83.1275C221.852 83.1976 221.857 83.2707 221.881 83.3383C221.905 83.4059 221.948 83.4651 222.005 83.5089C222.062 83.5525 222.13 83.5794 222.201 83.5865C222.272 83.5935 222.343 83.5805 222.407 83.5488L224.108 82.7258C224.25 82.6581 224.406 82.626 224.563 82.6321C224.72 82.6383 224.873 82.6826 225.009 82.7612L226.675 83.7093C226.739 83.7471 226.812 83.765 226.886 83.7605C226.96 83.756 227.031 83.7294 227.09 83.6841Z" fill="white"/>
<path opacity="0.5" d="M224.279 75.4025C224.396 75.3239 224.529 75.2717 224.669 75.2498C224.809 75.2278 224.951 75.2365 225.087 75.2754C225.223 75.3142 225.349 75.3822 225.456 75.4746C225.563 75.567 225.649 75.6816 225.707 75.8105L226.48 77.5313C226.506 77.5874 226.546 77.6364 226.595 77.6745C226.644 77.7126 226.701 77.7387 226.762 77.7508L228.623 78.0863C228.801 78.1179 228.967 78.199 229.102 78.3204C229.237 78.4418 229.335 78.5986 229.384 78.7729C229.434 78.9473 229.434 79.1321 229.384 79.3063C229.334 79.4805 229.236 79.6372 229.101 79.7584L227.702 81.0284C227.657 81.0709 227.622 81.1235 227.601 81.1818C227.581 81.2402 227.574 81.3026 227.582 81.3641L227.84 83.2342C227.868 83.4163 227.843 83.6026 227.769 83.7713C227.695 83.94 227.575 84.0843 227.422 84.1874C227.27 84.2905 227.091 84.3481 226.907 84.3536C226.723 84.359 226.541 84.3122 226.382 84.2183L224.744 83.2799C224.689 83.2493 224.628 83.2324 224.565 83.2305C224.502 83.2286 224.44 83.2418 224.383 83.269L222.677 84.0741C222.514 84.1539 222.332 84.1863 222.152 84.1676C221.972 84.149 221.8 84.08 221.657 83.9686C221.514 83.8573 221.405 83.7079 221.343 83.5376C221.281 83.3674 221.267 83.183 221.305 83.0056L221.727 81.1787C221.739 81.1178 221.735 81.0549 221.718 80.9955C221.7 80.9361 221.668 80.882 221.624 80.8378L220.322 79.4746C220.196 79.3441 220.11 79.181 220.072 79.0038C220.035 78.8267 220.048 78.6425 220.11 78.4724C220.172 78.3023 220.28 78.153 220.423 78.0415C220.566 77.93 220.737 77.8608 220.917 77.8418L222.794 77.6357C222.856 77.6302 222.916 77.6089 222.968 77.5739C223.02 77.5389 223.062 77.4913 223.09 77.4356L223.986 75.7766C224.051 75.6295 224.151 75.5009 224.279 75.4025ZM227.09 83.6841C227.151 83.6458 227.199 83.5905 227.229 83.5251C227.259 83.4596 227.269 83.3868 227.258 83.3156L227.005 81.4422C226.983 81.2867 226.999 81.1281 227.052 80.9802C227.105 80.8322 227.193 80.6994 227.309 80.5933L228.708 79.3233C228.761 79.2754 228.799 79.2137 228.819 79.1452C228.838 79.0766 228.838 79.004 228.818 78.9356C228.799 78.8671 228.76 78.8055 228.707 78.7579C228.654 78.7102 228.589 78.6783 228.519 78.6658L226.658 78.3303C226.503 78.3014 226.358 78.2354 226.234 78.1378C226.11 78.0403 226.012 77.9141 225.948 77.7702L225.17 76.0527C225.141 75.9877 225.095 75.9321 225.036 75.8921C224.977 75.8522 224.908 75.8296 224.837 75.8268C224.766 75.824 224.695 75.8411 224.634 75.8763C224.572 75.9115 224.521 75.9632 224.487 76.0257L223.589 77.6929C223.515 77.8303 223.409 77.9478 223.279 78.0352C223.15 78.1226 223.001 78.1774 222.846 78.1948L220.964 78.4041C220.891 78.4063 220.82 78.4295 220.759 78.471C220.699 78.5124 220.652 78.5705 220.624 78.6381C220.595 78.7057 220.587 78.78 220.6 78.8521C220.613 78.9242 220.646 78.9911 220.696 79.0447L221.999 80.408C222.107 80.5222 222.186 80.6605 222.231 80.8115C222.275 80.9625 222.282 81.1219 222.253 81.2764L221.868 83.1275C221.852 83.1976 221.857 83.2707 221.881 83.3383C221.905 83.4059 221.948 83.4651 222.005 83.5089C222.062 83.5525 222.13 83.5794 222.201 83.5865C222.272 83.5935 222.343 83.5805 222.407 83.5488L224.108 82.7258C224.25 82.6581 224.406 82.626 224.563 82.6321C224.72 82.6383 224.873 82.6826 225.009 82.7612L226.675 83.7093C226.739 83.7471 226.812 83.765 226.886 83.7605C226.96 83.756 227.031 83.7294 227.09 83.6841Z" fill="white"/>
<path d="M206.081 108.372L203.916 105.469C203.795 105.301 203.634 105.164 203.449 105.072C203.263 104.979 203.057 104.933 202.85 104.937L199.234 105.072C198.993 105.08 198.754 105.021 198.545 104.901C198.336 104.781 198.164 104.605 198.049 104.393C197.935 104.18 197.882 103.94 197.896 103.699C197.911 103.459 197.992 103.227 198.131 103.03L200.22 100.077C200.342 99.9072 200.42 99.7098 200.448 99.5024C200.475 99.2949 200.452 99.0839 200.379 98.8877L199.13 95.4867C199.046 95.2599 199.027 95.0141 199.075 94.7772C199.124 94.5402 199.238 94.3216 199.404 94.146C199.57 93.9704 199.783 93.8449 200.016 93.7836C200.25 93.7223 200.497 93.7277 200.728 93.7993L204.185 94.8751C204.385 94.9396 204.597 94.9534 204.804 94.9153C205.01 94.8772 205.204 94.7884 205.367 94.6568L208.211 92.4255C208.401 92.2779 208.629 92.1861 208.868 92.1604C209.107 92.1347 209.349 92.1761 209.566 92.28C209.783 92.3839 209.967 92.5462 210.097 92.7486C210.227 92.9511 210.298 93.1858 210.302 93.4264L210.347 97.0458C210.35 97.2509 210.403 97.4522 210.5 97.6328C210.597 97.8133 210.737 97.9678 210.906 98.0832L213.91 100.102C214.115 100.234 214.279 100.421 214.382 100.642C214.485 100.863 214.524 101.109 214.494 101.351C214.464 101.593 214.366 101.822 214.211 102.011C214.057 102.2 213.852 102.341 213.621 102.419L210.195 103.579C209.997 103.646 209.819 103.761 209.675 103.912C209.531 104.064 209.425 104.248 209.368 104.449L208.386 107.941C208.324 108.179 208.196 108.394 208.016 108.562C207.836 108.73 207.613 108.843 207.371 108.888C207.129 108.933 206.88 108.909 206.651 108.817C206.423 108.726 206.225 108.571 206.081 108.372Z" fill="white"/>
<path opacity="0.2" d="M206.081 108.372L203.916 105.469C203.795 105.301 203.634 105.164 203.449 105.072C203.263 104.979 203.057 104.933 202.85 104.937L199.234 105.072C198.993 105.08 198.754 105.021 198.545 104.901C198.336 104.781 198.164 104.605 198.049 104.393C197.935 104.18 197.882 103.94 197.896 103.699C197.911 103.459 197.992 103.227 198.131 103.03L200.22 100.077C200.342 99.9072 200.42 99.7098 200.448 99.5024C200.475 99.2949 200.452 99.0839 200.379 98.8877L199.13 95.4867C199.046 95.2599 199.027 95.0141 199.075 94.7772C199.124 94.5402 199.238 94.3216 199.404 94.146C199.57 93.9704 199.783 93.8449 200.016 93.7836C200.25 93.7223 200.497 93.7277 200.728 93.7993L204.185 94.8751C204.385 94.9396 204.597 94.9534 204.804 94.9153C205.01 94.8772 205.204 94.7884 205.367 94.6568L208.211 92.4255C208.401 92.2779 208.629 92.1861 208.868 92.1604C209.107 92.1347 209.349 92.1761 209.566 92.28C209.783 92.3839 209.967 92.5462 210.097 92.7486C210.227 92.9511 210.298 93.1858 210.302 93.4264L210.347 97.0458C210.35 97.2509 210.403 97.4522 210.5 97.6328C210.597 97.8133 210.737 97.9678 210.906 98.0832L213.91 100.102C214.115 100.234 214.279 100.421 214.382 100.642C214.485 100.863 214.524 101.109 214.494 101.351C214.464 101.593 214.366 101.822 214.211 102.011C214.057 102.2 213.852 102.341 213.621 102.419L210.195 103.579C209.997 103.646 209.819 103.761 209.675 103.912C209.531 104.064 209.425 104.248 209.368 104.449L208.386 107.941C208.324 108.179 208.196 108.394 208.016 108.562C207.836 108.73 207.613 108.843 207.371 108.888C207.129 108.933 206.88 108.909 206.651 108.817C206.423 108.726 206.225 108.571 206.081 108.372Z" fill="white"/>
<path d="M109.235 98.4956C109.417 98.3764 109.621 98.2953 109.834 98.2571C110.048 98.2189 110.267 98.2244 110.479 98.2734C110.69 98.3223 110.89 98.4136 111.065 98.5417C111.24 98.6699 111.388 98.8323 111.499 99.019L113.315 102.15C113.396 102.29 113.51 102.408 113.647 102.495C113.785 102.581 113.941 102.632 114.102 102.645L117.709 102.926C118.004 102.948 118.287 103.052 118.526 103.226C118.765 103.4 118.95 103.638 119.062 103.912C119.173 104.186 119.206 104.485 119.156 104.777C119.107 105.069 118.977 105.341 118.781 105.562L116.358 108.259C116.248 108.379 116.169 108.524 116.13 108.682C116.091 108.839 116.091 109.004 116.132 109.162L116.978 112.679C117.047 112.967 117.034 113.268 116.941 113.549C116.847 113.829 116.678 114.078 116.45 114.268C116.223 114.457 115.948 114.58 115.655 114.621C115.362 114.662 115.063 114.621 114.792 114.501L111.483 113.036C111.335 112.969 111.173 112.94 111.011 112.951C110.849 112.961 110.692 113.011 110.555 113.097L107.468 114.99C107.216 115.148 106.925 115.233 106.628 115.234C106.33 115.236 106.038 115.153 105.785 114.997C105.532 114.841 105.328 114.616 105.196 114.349C105.064 114.083 105.01 113.784 105.04 113.488L105.431 109.878C105.453 109.713 105.433 109.546 105.374 109.39C105.315 109.235 105.219 109.097 105.093 108.989L102.339 106.639C102.113 106.448 101.946 106.197 101.855 105.915C101.765 105.633 101.756 105.332 101.829 105.045C101.902 104.757 102.053 104.495 102.266 104.289C102.479 104.083 102.746 103.94 103.035 103.877L106.573 103.123C106.731 103.089 106.879 103.017 107.004 102.913C107.128 102.809 107.226 102.676 107.288 102.527L108.667 99.1835C108.788 98.9053 108.985 98.6669 109.235 98.4956ZM115.984 113.888L116.071 113.829C116.217 113.711 116.326 113.554 116.386 113.376C116.445 113.198 116.452 113.007 116.405 112.825L115.559 109.308C115.496 109.058 115.497 108.796 115.56 108.546C115.623 108.296 115.747 108.066 115.921 107.875L118.345 105.178C118.47 105.039 118.554 104.867 118.587 104.683C118.62 104.498 118.6 104.308 118.531 104.134C118.461 103.96 118.344 103.809 118.193 103.698C118.042 103.587 117.863 103.521 117.676 103.507L114.07 103.225C113.814 103.204 113.568 103.122 113.352 102.984C113.136 102.846 112.956 102.658 112.829 102.436L111.012 99.3048C110.921 99.1419 110.785 99.0085 110.62 98.9204C110.455 98.8324 110.269 98.7933 110.083 98.8078C109.896 98.8145 109.715 98.8734 109.561 98.9777C109.406 99.0821 109.284 99.2278 109.208 99.3982L107.824 102.745C107.726 102.982 107.572 103.192 107.376 103.357C107.179 103.522 106.945 103.636 106.695 103.691L103.153 104.448C102.974 104.489 102.81 104.578 102.678 104.705C102.546 104.833 102.452 104.994 102.405 105.171C102.359 105.349 102.361 105.535 102.414 105.711C102.466 105.887 102.565 106.045 102.701 106.168L105.454 108.518C105.65 108.685 105.803 108.896 105.898 109.135C105.994 109.373 106.03 109.632 106.004 109.887L105.612 113.498C105.594 113.684 105.629 113.871 105.711 114.038C105.794 114.206 105.921 114.347 106.079 114.446C106.237 114.546 106.42 114.599 106.606 114.601C106.793 114.603 106.976 114.553 107.136 114.457L110.215 112.562C110.435 112.428 110.684 112.349 110.941 112.332C111.198 112.315 111.455 112.36 111.691 112.464L114.995 113.933C115.149 114.013 115.322 114.051 115.496 114.043C115.669 114.036 115.838 113.982 115.984 113.888Z" fill="white"/>
<path opacity="0.5" d="M109.235 98.4956C109.417 98.3764 109.621 98.2953 109.834 98.2571C110.048 98.2189 110.267 98.2244 110.479 98.2734C110.69 98.3223 110.89 98.4136 111.065 98.5417C111.24 98.6699 111.388 98.8323 111.499 99.019L113.315 102.15C113.396 102.29 113.51 102.408 113.647 102.495C113.785 102.581 113.941 102.632 114.102 102.645L117.709 102.926C118.004 102.948 118.287 103.052 118.526 103.226C118.765 103.4 118.95 103.638 119.062 103.912C119.173 104.186 119.206 104.485 119.156 104.777C119.107 105.069 118.977 105.341 118.781 105.562L116.358 108.259C116.248 108.379 116.169 108.524 116.13 108.682C116.091 108.839 116.091 109.004 116.132 109.162L116.978 112.679C117.047 112.967 117.034 113.268 116.941 113.549C116.847 113.829 116.678 114.078 116.45 114.268C116.223 114.457 115.948 114.58 115.655 114.621C115.362 114.662 115.063 114.621 114.792 114.501L111.483 113.036C111.335 112.969 111.173 112.94 111.011 112.951C110.849 112.961 110.692 113.011 110.555 113.097L107.468 114.99C107.216 115.148 106.925 115.233 106.628 115.234C106.33 115.236 106.038 115.153 105.785 114.997C105.532 114.841 105.328 114.616 105.196 114.349C105.064 114.083 105.01 113.784 105.04 113.488L105.431 109.878C105.453 109.713 105.433 109.546 105.374 109.39C105.315 109.235 105.219 109.097 105.093 108.989L102.339 106.639C102.113 106.448 101.946 106.197 101.855 105.915C101.765 105.633 101.756 105.332 101.829 105.045C101.902 104.757 102.053 104.495 102.266 104.289C102.479 104.083 102.746 103.94 103.035 103.877L106.573 103.123C106.731 103.089 106.879 103.017 107.004 102.913C107.128 102.809 107.226 102.676 107.288 102.527L108.667 99.1835C108.788 98.9053 108.985 98.6669 109.235 98.4956ZM115.984 113.888L116.071 113.829C116.217 113.711 116.326 113.554 116.386 113.376C116.445 113.198 116.452 113.007 116.405 112.825L115.559 109.308C115.496 109.058 115.497 108.796 115.56 108.546C115.623 108.296 115.747 108.066 115.921 107.875L118.345 105.178C118.47 105.039 118.554 104.867 118.587 104.683C118.62 104.498 118.6 104.308 118.531 104.134C118.461 103.96 118.344 103.809 118.193 103.698C118.042 103.587 117.863 103.521 117.676 103.507L114.07 103.225C113.814 103.204 113.568 103.122 113.352 102.984C113.136 102.846 112.956 102.658 112.829 102.436L111.012 99.3048C110.921 99.1419 110.785 99.0085 110.62 98.9204C110.455 98.8324 110.269 98.7933 110.083 98.8078C109.896 98.8145 109.715 98.8734 109.561 98.9777C109.406 99.0821 109.284 99.2278 109.208 99.3982L107.824 102.745C107.726 102.982 107.572 103.192 107.376 103.357C107.179 103.522 106.945 103.636 106.695 103.691L103.153 104.448C102.974 104.489 102.81 104.578 102.678 104.705C102.546 104.833 102.452 104.994 102.405 105.171C102.359 105.349 102.361 105.535 102.414 105.711C102.466 105.887 102.565 106.045 102.701 106.168L105.454 108.518C105.65 108.685 105.803 108.896 105.898 109.135C105.994 109.373 106.03 109.632 106.004 109.887L105.612 113.498C105.594 113.684 105.629 113.871 105.711 114.038C105.794 114.206 105.921 114.347 106.079 114.446C106.237 114.546 106.42 114.599 106.606 114.601C106.793 114.603 106.976 114.553 107.136 114.457L110.215 112.562C110.435 112.428 110.684 112.349 110.941 112.332C111.198 112.315 111.455 112.36 111.691 112.464L114.995 113.933C115.149 114.013 115.322 114.051 115.496 114.043C115.669 114.036 115.838 113.982 115.984 113.888Z" fill="white"/>
<path d="M93.6257 80.2573L93.0137 78.4917C92.978 78.393 92.9188 78.3044 92.8414 78.2335C92.764 78.1626 92.6705 78.1115 92.5691 78.0845L90.7693 77.5877C90.6488 77.5545 90.54 77.4881 90.4554 77.3962C90.3707 77.3043 90.3134 77.1904 90.2902 77.0676C90.267 76.9448 90.2786 76.8179 90.3239 76.7014C90.3691 76.5849 90.4461 76.4834 90.5462 76.4084L92.0356 75.2826C92.1212 75.216 92.1896 75.1299 92.2351 75.0315C92.2807 74.9331 92.302 74.8252 92.2974 74.7168L92.2117 72.8506C92.2128 72.7305 92.246 72.6129 92.3078 72.51C92.3696 72.407 92.4577 72.3224 92.5632 72.2649C92.6686 72.2075 92.7875 72.1792 92.9075 72.183C93.0275 72.1869 93.1443 72.2227 93.2459 72.2868L94.784 73.3706C94.8736 73.4314 94.9763 73.4702 95.0838 73.4837C95.1913 73.4972 95.3004 73.4851 95.4023 73.4483L97.1514 72.7909C97.2686 72.7456 97.3961 72.7342 97.5194 72.758C97.6427 72.7818 97.7568 72.8399 97.8486 72.9256C97.9404 73.0113 98.0062 73.1211 98.0385 73.2425C98.0707 73.3638 98.0682 73.4918 98.0311 73.6118L97.4821 75.3972C97.4506 75.5032 97.4458 75.6154 97.4683 75.7237C97.4908 75.8319 97.5398 75.9329 97.6109 76.0176L98.7756 77.4808C98.8469 77.5793 98.8899 77.6953 98.9002 77.8164C98.9104 77.9375 98.8875 78.0591 98.8337 78.1682C98.78 78.2772 98.6976 78.3695 98.5953 78.4352C98.493 78.5008 98.3748 78.5374 98.2533 78.5408L96.3835 78.5794C96.275 78.5824 96.1688 78.611 96.0736 78.663C95.9783 78.715 95.8968 78.7889 95.8356 78.8785L94.8105 80.4407C94.7377 80.5409 94.6386 80.619 94.5243 80.6666C94.4099 80.7142 94.2846 80.7293 94.1622 80.7104C94.0398 80.6914 93.925 80.6391 93.8303 80.5592C93.7357 80.4793 93.6649 80.3749 93.6257 80.2573Z" fill="white"/>
<path opacity="0.2" d="M93.6257 80.2573L93.0137 78.4917C92.978 78.393 92.9188 78.3044 92.8414 78.2335C92.764 78.1626 92.6705 78.1115 92.5691 78.0845L90.7693 77.5877C90.6488 77.5545 90.54 77.4881 90.4554 77.3962C90.3707 77.3043 90.3134 77.1904 90.2902 77.0676C90.267 76.9448 90.2786 76.8179 90.3239 76.7014C90.3691 76.5849 90.4461 76.4834 90.5462 76.4084L92.0356 75.2826C92.1212 75.216 92.1896 75.1299 92.2351 75.0315C92.2807 74.9331 92.302 74.8252 92.2974 74.7168L92.2117 72.8506C92.2128 72.7305 92.246 72.6129 92.3078 72.51C92.3696 72.407 92.4577 72.3224 92.5632 72.2649C92.6686 72.2075 92.7875 72.1792 92.9075 72.183C93.0275 72.1869 93.1443 72.2227 93.2459 72.2868L94.784 73.3706C94.8736 73.4314 94.9763 73.4702 95.0838 73.4837C95.1913 73.4972 95.3004 73.4851 95.4023 73.4483L97.1514 72.7909C97.2686 72.7456 97.3961 72.7342 97.5194 72.758C97.6427 72.7818 97.7568 72.8399 97.8486 72.9256C97.9404 73.0113 98.0062 73.1211 98.0385 73.2425C98.0707 73.3638 98.0682 73.4918 98.0311 73.6118L97.4821 75.3972C97.4506 75.5032 97.4458 75.6154 97.4683 75.7237C97.4908 75.8319 97.5398 75.9329 97.6109 76.0176L98.7756 77.4808C98.8469 77.5793 98.8899 77.6953 98.9002 77.8164C98.9104 77.9375 98.8875 78.0591 98.8337 78.1682C98.78 78.2772 98.6976 78.3695 98.5953 78.4352C98.493 78.5008 98.3748 78.5374 98.2533 78.5408L96.3835 78.5794C96.275 78.5824 96.1688 78.611 96.0736 78.663C95.9783 78.715 95.8968 78.7889 95.8356 78.8785L94.8105 80.4407C94.7377 80.5409 94.6386 80.619 94.5243 80.6666C94.4099 80.7142 94.2846 80.7293 94.1622 80.7104C94.0398 80.6914 93.925 80.6391 93.8303 80.5592C93.7357 80.4793 93.6649 80.3749 93.6257 80.2573Z" fill="white"/>
<path d="M182.976 17.0845L182.562 15.8852C182.537 15.8166 182.496 15.7549 182.443 15.7049C182.389 15.655 182.325 15.6182 182.255 15.5975L181.038 15.2729C180.957 15.2496 180.883 15.2042 180.826 15.1416C180.769 15.0791 180.731 15.0019 180.715 14.9187C180.699 14.8355 180.707 14.7496 180.737 14.6704C180.767 14.5913 180.818 14.5221 180.886 14.4705L181.896 13.7036C181.954 13.6598 182.001 13.6021 182.031 13.5358C182.062 13.4695 182.075 13.3966 182.071 13.3237L182.016 12.0589C182.012 11.9743 182.031 11.8901 182.072 11.816C182.113 11.7418 182.174 11.6807 182.248 11.6395C182.322 11.5984 182.406 11.5789 182.491 11.5833C182.575 11.5877 182.657 11.6159 182.726 11.6645L183.761 12.3805C183.821 12.4234 183.891 12.451 183.964 12.4608C184.037 12.4706 184.112 12.4623 184.181 12.4366L185.366 11.9906C185.445 11.9602 185.531 11.9526 185.614 11.9688C185.697 11.985 185.774 12.0242 185.836 12.082C185.898 12.1398 185.942 12.2139 185.964 12.2958C185.986 12.3776 185.984 12.4639 185.959 12.5449L185.594 13.7536C185.572 13.8238 185.567 13.8984 185.58 13.9709C185.593 14.0434 185.624 14.1115 185.669 14.1694L186.465 15.16C186.518 15.2268 186.55 15.3068 186.56 15.3911C186.569 15.4754 186.555 15.5607 186.518 15.6373C186.482 15.714 186.425 15.779 186.354 15.8251C186.283 15.8713 186.2 15.8967 186.115 15.8986L184.852 15.9239C184.778 15.9245 184.705 15.9432 184.64 15.9785C184.575 16.0137 184.52 16.0644 184.479 16.1261L183.78 17.1855C183.733 17.2559 183.668 17.312 183.591 17.3473C183.515 17.3826 183.43 17.3957 183.346 17.3852C183.262 17.3747 183.183 17.3409 183.118 17.2878C183.052 17.2346 183.003 17.1642 182.976 17.0845Z" fill="white"/>
<path opacity="0.2" d="M182.976 17.0845L182.562 15.8852C182.537 15.8166 182.496 15.7549 182.443 15.7049C182.389 15.655 182.325 15.6182 182.255 15.5975L181.038 15.2729C180.957 15.2496 180.883 15.2042 180.826 15.1416C180.769 15.0791 180.731 15.0019 180.715 14.9187C180.699 14.8355 180.707 14.7496 180.737 14.6704C180.767 14.5913 180.818 14.5221 180.886 14.4705L181.896 13.7036C181.954 13.6598 182.001 13.6021 182.031 13.5358C182.062 13.4695 182.075 13.3966 182.071 13.3237L182.016 12.0589C182.012 11.9743 182.031 11.8901 182.072 11.816C182.113 11.7418 182.174 11.6807 182.248 11.6395C182.322 11.5984 182.406 11.5789 182.491 11.5833C182.575 11.5877 182.657 11.6159 182.726 11.6645L183.761 12.3805C183.821 12.4234 183.891 12.451 183.964 12.4608C184.037 12.4706 184.112 12.4623 184.181 12.4366L185.366 11.9906C185.445 11.9602 185.531 11.9526 185.614 11.9688C185.697 11.985 185.774 12.0242 185.836 12.082C185.898 12.1398 185.942 12.2139 185.964 12.2958C185.986 12.3776 185.984 12.4639 185.959 12.5449L185.594 13.7536C185.572 13.8238 185.567 13.8984 185.58 13.9709C185.593 14.0434 185.624 14.1115 185.669 14.1694L186.465 15.16C186.518 15.2268 186.55 15.3068 186.56 15.3911C186.569 15.4754 186.555 15.5607 186.518 15.6373C186.482 15.714 186.425 15.779 186.354 15.8251C186.283 15.8713 186.2 15.8967 186.115 15.8986L184.852 15.9239C184.778 15.9245 184.705 15.9432 184.64 15.9785C184.575 16.0137 184.52 16.0644 184.479 16.1261L183.78 17.1855C183.733 17.2559 183.668 17.312 183.591 17.3473C183.515 17.3826 183.43 17.3957 183.346 17.3852C183.262 17.3747 183.183 17.3409 183.118 17.2878C183.052 17.2346 183.003 17.1642 182.976 17.0845Z" fill="white"/>
<path d="M226.723 27.3109C226.84 27.2322 226.973 27.1801 227.113 27.1581C227.253 27.1361 227.395 27.1449 227.531 27.1837C227.667 27.2225 227.793 27.2905 227.9 27.3829C228.007 27.4753 228.093 27.59 228.151 27.7188L228.924 29.4396C228.951 29.4957 228.99 29.5447 229.039 29.5828C229.088 29.621 229.145 29.6471 229.206 29.6591L231.067 29.9946C231.245 30.0262 231.412 30.1073 231.546 30.2287C231.681 30.3501 231.779 30.5069 231.828 30.6813C231.878 30.8556 231.878 31.0404 231.828 31.2146C231.778 31.3889 231.68 31.5455 231.545 31.6667L230.146 32.9367C230.101 32.9792 230.066 33.0318 230.046 33.0902C230.025 33.1485 230.018 33.2109 230.026 33.2724L230.284 35.1425C230.312 35.3246 230.287 35.5109 230.213 35.6796C230.139 35.8483 230.019 35.9926 229.866 36.0957C229.714 36.1988 229.535 36.2564 229.351 36.2619C229.167 36.2674 228.985 36.2205 228.826 36.1267L227.188 35.1882C227.133 35.1576 227.072 35.1407 227.009 35.1388C226.946 35.1369 226.884 35.1501 226.827 35.1773L225.121 35.9824C224.958 36.0622 224.776 36.0946 224.596 36.076C224.416 36.0573 224.244 35.9884 224.101 35.877C223.958 35.7656 223.849 35.6162 223.787 35.446C223.725 35.2757 223.711 35.0913 223.749 34.9139L224.171 33.087C224.183 33.0261 224.18 32.9632 224.162 32.9038C224.144 32.8444 224.112 32.7903 224.068 32.7461L222.766 31.3829C222.64 31.2524 222.554 31.0893 222.516 30.9122C222.479 30.735 222.492 30.5509 222.554 30.3807C222.616 30.2106 222.724 30.0613 222.867 29.9498C223.01 29.8383 223.181 29.7691 223.361 29.7501L225.238 29.544C225.3 29.5385 225.36 29.5172 225.412 29.4822C225.464 29.4472 225.506 29.3996 225.534 29.3439L226.43 27.6849C226.495 27.5378 226.596 27.4092 226.723 27.3109ZM229.534 35.5924C229.595 35.5541 229.643 35.4989 229.673 35.4334C229.703 35.3679 229.713 35.2951 229.702 35.224L229.449 33.3506C229.427 33.195 229.443 33.0364 229.496 32.8885C229.549 32.7406 229.637 32.6078 229.753 32.5016L231.152 31.2316C231.205 31.1837 231.243 31.122 231.263 31.0535C231.282 30.985 231.282 30.9124 231.262 30.8439C231.243 30.7754 231.204 30.7139 231.151 30.6662C231.098 30.6185 231.033 30.5866 230.963 30.5741L229.102 30.2386C228.947 30.2098 228.802 30.1437 228.678 30.0461C228.554 29.9486 228.456 29.8224 228.392 29.6785L227.614 27.961C227.585 27.896 227.539 27.8404 227.48 27.8005C227.421 27.7605 227.352 27.7379 227.281 27.7351C227.21 27.7323 227.14 27.7494 227.078 27.7846C227.016 27.8198 226.965 27.8715 226.931 27.9341L226.034 29.6012C225.959 29.7386 225.853 29.8561 225.723 29.9435C225.594 30.0309 225.445 30.0857 225.29 30.1031L223.408 30.3125C223.335 30.3146 223.264 30.3378 223.204 30.3793C223.143 30.4208 223.096 30.4788 223.068 30.5464C223.039 30.614 223.031 30.6883 223.044 30.7604C223.057 30.8326 223.091 30.8994 223.14 30.9531L224.443 32.3163C224.551 32.4305 224.63 32.5688 224.675 32.7198C224.719 32.8709 224.726 33.0302 224.697 33.1848L224.312 35.0359C224.296 35.1059 224.301 35.1791 224.325 35.2467C224.349 35.3142 224.392 35.3734 224.449 35.4172C224.506 35.4608 224.574 35.4877 224.645 35.4948C224.716 35.5018 224.787 35.4888 224.851 35.4571L226.552 34.6342C226.694 34.5665 226.85 34.5343 227.007 34.5405C227.164 34.5466 227.317 34.5909 227.453 34.6696L229.119 35.6176C229.183 35.6555 229.256 35.6733 229.33 35.6688C229.404 35.6643 229.475 35.6377 229.534 35.5924Z" fill="white"/>
<path opacity="0.5" d="M226.723 27.3109C226.84 27.2322 226.973 27.1801 227.113 27.1581C227.253 27.1361 227.395 27.1449 227.531 27.1837C227.667 27.2225 227.793 27.2905 227.9 27.3829C228.007 27.4753 228.093 27.59 228.151 27.7188L228.924 29.4396C228.951 29.4957 228.99 29.5447 229.039 29.5828C229.088 29.621 229.145 29.6471 229.206 29.6591L231.067 29.9946C231.245 30.0262 231.412 30.1073 231.546 30.2287C231.681 30.3501 231.779 30.5069 231.828 30.6813C231.878 30.8556 231.878 31.0404 231.828 31.2146C231.778 31.3889 231.68 31.5455 231.545 31.6667L230.146 32.9367C230.101 32.9792 230.066 33.0318 230.046 33.0902C230.025 33.1485 230.018 33.2109 230.026 33.2724L230.284 35.1425C230.312 35.3246 230.287 35.5109 230.213 35.6796C230.139 35.8483 230.019 35.9926 229.866 36.0957C229.714 36.1988 229.535 36.2564 229.351 36.2619C229.167 36.2674 228.985 36.2205 228.826 36.1267L227.188 35.1882C227.133 35.1576 227.072 35.1407 227.009 35.1388C226.946 35.1369 226.884 35.1501 226.827 35.1773L225.121 35.9824C224.958 36.0622 224.776 36.0946 224.596 36.076C224.416 36.0573 224.244 35.9884 224.101 35.877C223.958 35.7656 223.849 35.6162 223.787 35.446C223.725 35.2757 223.711 35.0913 223.749 34.9139L224.171 33.087C224.183 33.0261 224.18 32.9632 224.162 32.9038C224.144 32.8444 224.112 32.7903 224.068 32.7461L222.766 31.3829C222.64 31.2524 222.554 31.0893 222.516 30.9122C222.479 30.735 222.492 30.5509 222.554 30.3807C222.616 30.2106 222.724 30.0613 222.867 29.9498C223.01 29.8383 223.181 29.7691 223.361 29.7501L225.238 29.544C225.3 29.5385 225.36 29.5172 225.412 29.4822C225.464 29.4472 225.506 29.3996 225.534 29.3439L226.43 27.6849C226.495 27.5378 226.596 27.4092 226.723 27.3109ZM229.534 35.5924C229.595 35.5541 229.643 35.4989 229.673 35.4334C229.703 35.3679 229.713 35.2951 229.702 35.224L229.449 33.3506C229.427 33.195 229.443 33.0364 229.496 32.8885C229.549 32.7406 229.637 32.6078 229.753 32.5016L231.152 31.2316C231.205 31.1837 231.243 31.122 231.263 31.0535C231.282 30.985 231.282 30.9124 231.262 30.8439C231.243 30.7754 231.204 30.7139 231.151 30.6662C231.098 30.6185 231.033 30.5866 230.963 30.5741L229.102 30.2386C228.947 30.2098 228.802 30.1437 228.678 30.0461C228.554 29.9486 228.456 29.8224 228.392 29.6785L227.614 27.961C227.585 27.896 227.539 27.8404 227.48 27.8005C227.421 27.7605 227.352 27.7379 227.281 27.7351C227.21 27.7323 227.14 27.7494 227.078 27.7846C227.016 27.8198 226.965 27.8715 226.931 27.9341L226.034 29.6012C225.959 29.7386 225.853 29.8561 225.723 29.9435C225.594 30.0309 225.445 30.0857 225.29 30.1031L223.408 30.3125C223.335 30.3146 223.264 30.3378 223.204 30.3793C223.143 30.4208 223.096 30.4788 223.068 30.5464C223.039 30.614 223.031 30.6883 223.044 30.7604C223.057 30.8326 223.091 30.8994 223.14 30.9531L224.443 32.3163C224.551 32.4305 224.63 32.5688 224.675 32.7198C224.719 32.8709 224.726 33.0302 224.697 33.1848L224.312 35.0359C224.296 35.1059 224.301 35.1791 224.325 35.2467C224.349 35.3142 224.392 35.3734 224.449 35.4172C224.506 35.4608 224.574 35.4877 224.645 35.4948C224.716 35.5018 224.787 35.4888 224.851 35.4571L226.552 34.6342C226.694 34.5665 226.85 34.5343 227.007 34.5405C227.164 34.5466 227.317 34.5909 227.453 34.6696L229.119 35.6176C229.183 35.6555 229.256 35.6733 229.33 35.6688C229.404 35.6643 229.475 35.6377 229.534 35.5924Z" fill="white"/>
<path d="M208.526 60.2804L206.361 57.3774C206.239 57.2091 206.079 57.0728 205.893 56.9801C205.707 56.8875 205.502 56.8412 205.294 56.8454L201.678 56.9803C201.437 56.9886 201.199 56.9294 200.989 56.8094C200.78 56.6894 200.608 56.5134 200.494 56.301C200.379 56.0887 200.326 55.8486 200.34 55.6078C200.355 55.3669 200.436 55.1349 200.575 54.9378L202.664 51.9857C202.786 51.8155 202.864 51.6181 202.892 51.4107C202.919 51.2033 202.896 50.9922 202.823 50.7961L201.574 47.3951C201.49 47.1682 201.471 46.9224 201.519 46.6855C201.568 46.4485 201.682 46.2299 201.848 46.0543C202.014 45.8787 202.227 45.7532 202.461 45.6919C202.695 45.6306 202.941 45.6361 203.172 45.7076L206.629 46.7834C206.829 46.8479 207.041 46.8617 207.248 46.8236C207.454 46.7855 207.648 46.6967 207.811 46.5652L210.655 44.3338C210.845 44.1862 211.073 44.0944 211.312 44.0687C211.551 44.043 211.793 44.0844 212.01 44.1883C212.227 44.2922 212.411 44.4545 212.541 44.657C212.671 44.8594 212.742 45.0941 212.746 45.3347L212.791 48.9541C212.795 49.1592 212.847 49.3605 212.944 49.5411C213.041 49.7217 213.181 49.8762 213.35 49.9916L216.354 52.0099C216.559 52.1421 216.723 52.3295 216.826 52.5505C216.929 52.7715 216.968 53.0172 216.938 53.2594C216.908 53.5015 216.81 53.7301 216.655 53.919C216.501 54.1079 216.296 54.2494 216.065 54.3272L212.639 55.487C212.441 55.5545 212.263 55.6689 212.119 55.8204C211.975 55.9718 211.869 56.1559 211.812 56.3569L210.83 59.849C210.769 60.087 210.64 60.3024 210.46 60.4701C210.28 60.6379 210.057 60.7509 209.815 60.7962C209.573 60.8414 209.324 60.8169 209.095 60.7256C208.867 60.6342 208.669 60.4798 208.526 60.2804Z" fill="white"/>
<path opacity="0.2" d="M208.526 60.2804L206.361 57.3774C206.239 57.2091 206.079 57.0728 205.893 56.9801C205.707 56.8875 205.502 56.8412 205.294 56.8454L201.678 56.9803C201.437 56.9886 201.199 56.9294 200.989 56.8094C200.78 56.6894 200.608 56.5134 200.494 56.301C200.379 56.0887 200.326 55.8486 200.34 55.6078C200.355 55.3669 200.436 55.1349 200.575 54.9378L202.664 51.9857C202.786 51.8155 202.864 51.6181 202.892 51.4107C202.919 51.2033 202.896 50.9922 202.823 50.7961L201.574 47.3951C201.49 47.1682 201.471 46.9224 201.519 46.6855C201.568 46.4485 201.682 46.2299 201.848 46.0543C202.014 45.8787 202.227 45.7532 202.461 45.6919C202.695 45.6306 202.941 45.6361 203.172 45.7076L206.629 46.7834C206.829 46.8479 207.041 46.8617 207.248 46.8236C207.454 46.7855 207.648 46.6967 207.811 46.5652L210.655 44.3338C210.845 44.1862 211.073 44.0944 211.312 44.0687C211.551 44.043 211.793 44.0844 212.01 44.1883C212.227 44.2922 212.411 44.4545 212.541 44.657C212.671 44.8594 212.742 45.0941 212.746 45.3347L212.791 48.9541C212.795 49.1592 212.847 49.3605 212.944 49.5411C213.041 49.7217 213.181 49.8762 213.35 49.9916L216.354 52.0099C216.559 52.1421 216.723 52.3295 216.826 52.5505C216.929 52.7715 216.968 53.0172 216.938 53.2594C216.908 53.5015 216.81 53.7301 216.655 53.919C216.501 54.1079 216.296 54.2494 216.065 54.3272L212.639 55.487C212.441 55.5545 212.263 55.6689 212.119 55.8204C211.975 55.9718 211.869 56.1559 211.812 56.3569L210.83 59.849C210.769 60.087 210.64 60.3024 210.46 60.4701C210.28 60.6379 210.057 60.7509 209.815 60.7962C209.573 60.8414 209.324 60.8169 209.095 60.7256C208.867 60.6342 208.669 60.4798 208.526 60.2804Z" fill="white"/>
<path d="M111.679 50.4039C111.861 50.2848 112.065 50.2036 112.278 50.1654C112.492 50.1272 112.711 50.1328 112.923 50.1817C113.134 50.2306 113.334 50.3219 113.509 50.4501C113.684 50.5782 113.832 50.7406 113.943 50.9273L115.759 54.0584C115.84 54.1985 115.954 54.3168 116.092 54.403C116.229 54.4891 116.385 54.5406 116.546 54.553L120.153 54.8344C120.448 54.8565 120.731 54.9605 120.97 55.1346C121.209 55.3088 121.394 55.5462 121.506 55.8202C121.617 56.0941 121.65 56.3938 121.6 56.6853C121.551 56.9769 121.421 57.2489 121.225 57.4706L118.802 60.1678C118.692 60.2874 118.614 60.4326 118.574 60.5901C118.535 60.7477 118.535 60.9127 118.576 61.0699L119.423 64.5871C119.491 64.8749 119.478 65.1761 119.385 65.4569C119.292 65.7376 119.122 65.9867 118.894 66.1762C118.667 66.3656 118.392 66.4879 118.099 66.5291C117.806 66.5704 117.507 66.529 117.236 66.4097L113.927 64.9444C113.779 64.8778 113.617 64.8485 113.455 64.859C113.293 64.8696 113.137 64.9198 112.999 65.0051L109.912 66.898C109.66 67.0566 109.369 67.1415 109.072 67.1428C108.774 67.1441 108.482 67.0618 108.229 66.9054C107.976 66.7489 107.772 66.5245 107.64 66.2578C107.508 65.9911 107.454 65.6927 107.484 65.3966L107.876 61.786C107.897 61.6214 107.878 61.4539 107.818 61.2987C107.759 61.1435 107.663 61.0055 107.537 60.8969L104.783 58.547C104.557 58.3559 104.39 58.1051 104.299 57.8233C104.209 57.5414 104.2 57.2399 104.273 56.9531C104.346 56.6655 104.497 56.4038 104.71 56.1975C104.923 55.9911 105.19 55.8483 105.48 55.7851L109.017 55.0311C109.175 54.997 109.323 54.9249 109.448 54.8211C109.572 54.7173 109.67 54.5848 109.732 54.435L111.111 51.0918C111.232 50.8136 111.429 50.5752 111.679 50.4039ZM118.428 65.7962L118.515 65.7372C118.661 65.6194 118.77 65.4623 118.83 65.2843C118.889 65.1064 118.896 64.9153 118.849 64.7336L118.003 61.2164C117.941 60.9661 117.941 60.7044 118.004 60.4544C118.067 60.2044 118.191 59.9738 118.365 59.7833L120.789 57.0861C120.914 56.9469 120.998 56.7754 121.031 56.5909C121.064 56.4064 121.044 56.2165 120.975 56.0425C120.905 55.8685 120.788 55.7175 120.637 55.6066C120.486 55.4957 120.307 55.4294 120.12 55.4151L116.514 55.1337C116.258 55.1127 116.012 55.0299 115.796 54.8923C115.58 54.7548 115.4 54.5666 115.273 54.3441L113.456 51.2131C113.365 51.0502 113.229 50.9168 113.064 50.8288C112.899 50.7407 112.713 50.7016 112.527 50.7161C112.34 50.7228 112.159 50.7817 112.005 50.8861C111.85 50.9905 111.728 51.1362 111.652 51.3066L110.268 54.653C110.17 54.8903 110.017 55.1003 109.82 55.2651C109.623 55.4299 109.389 55.5447 109.139 55.5995L105.597 56.3568C105.418 56.3974 105.254 56.4863 105.122 56.6137C104.99 56.7412 104.896 56.9023 104.849 57.0797C104.803 57.257 104.806 57.4437 104.858 57.6194C104.91 57.7952 105.009 57.9533 105.145 58.0766L107.899 60.4265C108.094 60.5929 108.247 60.8046 108.343 61.0431C108.438 61.2817 108.474 61.54 108.448 61.7957L108.056 65.4063C108.038 65.5921 108.073 65.7792 108.155 65.9467C108.238 66.1141 108.365 66.2554 108.523 66.3548C108.681 66.4542 108.864 66.5077 109.05 66.5095C109.237 66.5113 109.421 66.4612 109.58 66.3649L112.659 64.4705C112.879 64.3361 113.128 64.257 113.385 64.24C113.642 64.2229 113.899 64.2683 114.135 64.3724L117.44 65.841C117.594 65.9214 117.766 65.9596 117.94 65.9517C118.113 65.9439 118.282 65.8902 118.428 65.7962Z" fill="white"/>
<path opacity="0.5" d="M111.679 50.4039C111.861 50.2848 112.065 50.2036 112.278 50.1654C112.492 50.1272 112.711 50.1328 112.923 50.1817C113.134 50.2306 113.334 50.3219 113.509 50.4501C113.684 50.5782 113.832 50.7406 113.943 50.9273L115.759 54.0584C115.84 54.1985 115.954 54.3168 116.092 54.403C116.229 54.4891 116.385 54.5406 116.546 54.553L120.153 54.8344C120.448 54.8565 120.731 54.9605 120.97 55.1346C121.209 55.3088 121.394 55.5462 121.506 55.8202C121.617 56.0941 121.65 56.3938 121.6 56.6853C121.551 56.9769 121.421 57.2489 121.225 57.4706L118.802 60.1678C118.692 60.2874 118.614 60.4326 118.574 60.5901C118.535 60.7477 118.535 60.9127 118.576 61.0699L119.423 64.5871C119.491 64.8749 119.478 65.1761 119.385 65.4569C119.292 65.7376 119.122 65.9867 118.894 66.1762C118.667 66.3656 118.392 66.4879 118.099 66.5291C117.806 66.5704 117.507 66.529 117.236 66.4097L113.927 64.9444C113.779 64.8778 113.617 64.8485 113.455 64.859C113.293 64.8696 113.137 64.9198 112.999 65.0051L109.912 66.898C109.66 67.0566 109.369 67.1415 109.072 67.1428C108.774 67.1441 108.482 67.0618 108.229 66.9054C107.976 66.7489 107.772 66.5245 107.64 66.2578C107.508 65.9911 107.454 65.6927 107.484 65.3966L107.876 61.786C107.897 61.6214 107.878 61.4539 107.818 61.2987C107.759 61.1435 107.663 61.0055 107.537 60.8969L104.783 58.547C104.557 58.3559 104.39 58.1051 104.299 57.8233C104.209 57.5414 104.2 57.2399 104.273 56.9531C104.346 56.6655 104.497 56.4038 104.71 56.1975C104.923 55.9911 105.19 55.8483 105.48 55.7851L109.017 55.0311C109.175 54.997 109.323 54.9249 109.448 54.8211C109.572 54.7173 109.67 54.5848 109.732 54.435L111.111 51.0918C111.232 50.8136 111.429 50.5752 111.679 50.4039ZM118.428 65.7962L118.515 65.7372C118.661 65.6194 118.77 65.4623 118.83 65.2843C118.889 65.1064 118.896 64.9153 118.849 64.7336L118.003 61.2164C117.941 60.9661 117.941 60.7044 118.004 60.4544C118.067 60.2044 118.191 59.9738 118.365 59.7833L120.789 57.0861C120.914 56.9469 120.998 56.7754 121.031 56.5909C121.064 56.4064 121.044 56.2165 120.975 56.0425C120.905 55.8685 120.788 55.7175 120.637 55.6066C120.486 55.4957 120.307 55.4294 120.12 55.4151L116.514 55.1337C116.258 55.1127 116.012 55.0299 115.796 54.8923C115.58 54.7548 115.4 54.5666 115.273 54.3441L113.456 51.2131C113.365 51.0502 113.229 50.9168 113.064 50.8288C112.899 50.7407 112.713 50.7016 112.527 50.7161C112.34 50.7228 112.159 50.7817 112.005 50.8861C111.85 50.9905 111.728 51.1362 111.652 51.3066L110.268 54.653C110.17 54.8903 110.017 55.1003 109.82 55.2651C109.623 55.4299 109.389 55.5447 109.139 55.5995L105.597 56.3568C105.418 56.3974 105.254 56.4863 105.122 56.6137C104.99 56.7412 104.896 56.9023 104.849 57.0797C104.803 57.257 104.806 57.4437 104.858 57.6194C104.91 57.7952 105.009 57.9533 105.145 58.0766L107.899 60.4265C108.094 60.5929 108.247 60.8046 108.343 61.0431C108.438 61.2817 108.474 61.54 108.448 61.7957L108.056 65.4063C108.038 65.5921 108.073 65.7792 108.155 65.9467C108.238 66.1141 108.365 66.2554 108.523 66.3548C108.681 66.4542 108.864 66.5077 109.05 66.5095C109.237 66.5113 109.421 66.4612 109.58 66.3649L112.659 64.4705C112.879 64.3361 113.128 64.257 113.385 64.24C113.642 64.2229 113.899 64.2683 114.135 64.3724L117.44 65.841C117.594 65.9214 117.766 65.9596 117.94 65.9517C118.113 65.9439 118.282 65.8902 118.428 65.7962Z" fill="white"/>
<path d="M96.0698 32.1657L95.4578 30.4C95.422 30.3013 95.3629 30.2128 95.2855 30.1418C95.2081 30.0709 95.1146 30.0198 95.0132 29.9929L93.2134 29.496C93.0929 29.4628 92.9841 29.3965 92.8994 29.3045C92.8148 29.2126 92.7575 29.0988 92.7343 28.9759C92.7111 28.8531 92.7227 28.7262 92.768 28.6097C92.8132 28.4932 92.8902 28.3917 92.9903 28.3168L94.4797 27.191C94.5653 27.1244 94.6337 27.0382 94.6792 26.9398C94.7248 26.8414 94.7461 26.7335 94.7415 26.6252L94.6558 24.7589C94.6569 24.6388 94.6901 24.5212 94.7519 24.4183C94.8137 24.3153 94.9018 24.2307 95.0073 24.1733C95.1127 24.1158 95.2316 24.0875 95.3516 24.0914C95.4716 24.0952 95.5884 24.131 95.6899 24.1951L97.2281 25.2789C97.3177 25.3398 97.4204 25.3785 97.5279 25.392C97.6354 25.4055 97.7445 25.3934 97.8464 25.3566L99.5955 24.6992C99.7126 24.6539 99.8402 24.6425 99.9635 24.6663C100.087 24.6902 100.201 24.7483 100.293 24.8339C100.384 24.9196 100.45 25.0294 100.483 25.1508C100.515 25.2722 100.512 25.4002 100.475 25.5201L99.9262 27.3055C99.8946 27.4115 99.8899 27.5237 99.9124 27.632C99.9349 27.7403 99.9839 27.8413 100.055 27.926L101.22 29.3892C101.291 29.4876 101.334 29.6036 101.344 29.7247C101.355 29.8459 101.332 29.9675 101.278 30.0765C101.224 30.1855 101.142 30.2778 101.039 30.3435C100.937 30.4092 100.819 30.4457 100.697 30.4492L98.8276 30.4877C98.7191 30.4907 98.6129 30.5194 98.5177 30.5714C98.4224 30.6234 98.3409 30.6972 98.2797 30.7869L97.2546 32.349C97.1818 32.4492 97.0827 32.5274 96.9683 32.5749C96.854 32.6225 96.7287 32.6376 96.6063 32.6187C96.4839 32.5998 96.369 32.5475 96.2744 32.4675C96.1798 32.3876 96.109 32.2832 96.0698 32.1657Z" fill="white"/>
<path opacity="0.2" d="M96.0698 32.1657L95.4578 30.4C95.422 30.3013 95.3629 30.2128 95.2855 30.1418C95.2081 30.0709 95.1146 30.0198 95.0132 29.9929L93.2134 29.496C93.0929 29.4628 92.9841 29.3965 92.8994 29.3045C92.8148 29.2126 92.7575 29.0988 92.7343 28.9759C92.7111 28.8531 92.7227 28.7262 92.768 28.6097C92.8132 28.4932 92.8902 28.3917 92.9903 28.3168L94.4797 27.191C94.5653 27.1244 94.6337 27.0382 94.6792 26.9398C94.7248 26.8414 94.7461 26.7335 94.7415 26.6252L94.6558 24.7589C94.6569 24.6388 94.6901 24.5212 94.7519 24.4183C94.8137 24.3153 94.9018 24.2307 95.0073 24.1733C95.1127 24.1158 95.2316 24.0875 95.3516 24.0914C95.4716 24.0952 95.5884 24.131 95.6899 24.1951L97.2281 25.2789C97.3177 25.3398 97.4204 25.3785 97.5279 25.392C97.6354 25.4055 97.7445 25.3934 97.8464 25.3566L99.5955 24.6992C99.7126 24.6539 99.8402 24.6425 99.9635 24.6663C100.087 24.6902 100.201 24.7483 100.293 24.8339C100.384 24.9196 100.45 25.0294 100.483 25.1508C100.515 25.2722 100.512 25.4002 100.475 25.5201L99.9262 27.3055C99.8946 27.4115 99.8899 27.5237 99.9124 27.632C99.9349 27.7403 99.9839 27.8413 100.055 27.926L101.22 29.3892C101.291 29.4876 101.334 29.6036 101.344 29.7247C101.355 29.8459 101.332 29.9675 101.278 30.0765C101.224 30.1855 101.142 30.2778 101.039 30.3435C100.937 30.4092 100.819 30.4457 100.697 30.4492L98.8276 30.4877C98.7191 30.4907 98.6129 30.5194 98.5177 30.5714C98.4224 30.6234 98.3409 30.6972 98.2797 30.7869L97.2546 32.349C97.1818 32.4492 97.0827 32.5274 96.9683 32.5749C96.854 32.6225 96.7287 32.6376 96.6063 32.6187C96.4839 32.5998 96.369 32.5475 96.2744 32.4675C96.1798 32.3876 96.109 32.2832 96.0698 32.1657Z" fill="white"/>
</g>
</svg>
