<svg width="53" height="53" viewBox="0 0 53 53" fill="none" xmlns="http://www.w3.org/2000/svg">
<mask id="mask0_71_1380" style="mask-type:alpha" maskUnits="userSpaceOnUse" x="0" y="0" width="53" height="53">
<circle cx="26.5" cy="26.5" r="26.5" fill="#D9D9D9"/>
</mask>
<g mask="url(#mask0_71_1380)">
<path d="M22.8885 42.5868C21.8506 47.0891 9.28049 87.9066 6.71255 88.5199C-0.856473 90.3262 -9.96221 91.6945 -9.90155 85.4667C-9.81393 75.6937 7.37307 51.6656 16.4181 41.6567C21.8304 35.6514 23.913 38.1721 22.8885 42.5868Z" fill="#DD6A57"/>
<path d="M18.1773 59.8614L6.46313 52.6564C6.46313 52.6564 13.0279 44.292 17.4628 39.9515C21.8977 35.6109 25.0318 35.8333 22.8548 44.6695C21.6039 49.8233 20.0418 54.8966 18.1773 59.8614Z" fill="#1648CE"/>
<path d="M18.5547 56.1612C16.9843 55.1704 15.3802 54.22 13.7626 53.3101C12.9605 52.8653 12.1652 52.4002 11.3632 51.9621C10.5611 51.524 9.65794 51.1264 8.82892 50.6748C8.76826 50.6748 8.71434 50.7287 8.76826 50.7624C9.55684 51.2275 10.3185 51.7465 11.107 52.2115C11.8956 52.6766 12.7449 53.1416 13.5671 53.6067C15.1915 54.5166 16.8428 55.3928 18.5076 56.2218C18.5547 56.2555 18.6019 56.1881 18.5547 56.1612Z" fill="#263238"/>
<path d="M8.54578 81.6788C8.54578 81.6788 36.0787 82.8718 47.7254 81.4901C47.7254 81.4901 39.7587 47.844 31.2663 38.7787C27.4043 34.6471 23.6299 35.2806 20.4284 37.9362C19.6331 38.6102 9.73875 51.1601 8.89625 55.5343C8.15485 59.4098 11.3024 63.7032 11.3024 63.7032L8.54578 81.6788Z" fill="#1648CE"/>
<path d="M11.0665 50.2502C11.6596 49.3538 12.273 48.4641 12.8998 47.5946C13.0076 47.2846 13.129 46.988 13.2503 46.6847C13.4447 46.2448 13.6699 45.8191 13.9243 45.4109C13.7976 45.8703 13.64 46.3207 13.4525 46.7589C13.3941 46.8802 13.3401 47.0015 13.2907 47.1228C13.9153 46.2646 14.5668 45.4243 15.2453 44.6021C14.0052 46.5836 12.6572 48.491 11.4103 50.4591C10.7647 51.4215 10.1838 52.4257 9.67134 53.4652C9.51026 53.8005 9.36849 54.1448 9.24672 54.4964C8.72306 56.2941 8.81318 58.215 9.50284 59.9558C9.77568 60.895 10.1251 61.8102 10.5475 62.6922C10.5547 62.6988 10.5601 62.707 10.5634 62.7161C10.5667 62.7252 10.5678 62.7349 10.5665 62.7445C10.5653 62.7541 10.5618 62.7633 10.5563 62.7712C10.5508 62.7792 10.5435 62.7857 10.5349 62.7903C10.5264 62.7948 10.5169 62.7973 10.5072 62.7974C10.4975 62.7975 10.4879 62.7954 10.4793 62.791C10.4706 62.7867 10.4631 62.7804 10.4574 62.7726C10.4517 62.7648 10.4479 62.7557 10.4464 62.7461C9.97808 61.8488 9.55957 60.9262 9.1928 59.9827C8.84234 59.0564 8.63991 58.0806 8.59294 57.0913C8.39074 54.2807 9.81288 52.4137 11.0665 50.2502Z" fill="#263238"/>
<path opacity="0.1" d="M31.8931 51.0388H23.6299V52.6227H31.8931V51.0388Z" fill="black"/>
<path d="M30.0598 43.2878C32.6884 46.9004 46.1752 61.7958 46.6672 63.1843C47.1592 64.5727 44.0453 67.6192 44.0992 68.1921C44.3082 70.5174 49.343 86.0329 51.3582 84.4557C54.007 82.3865 65.2494 67.5113 63.6587 61.0746C62.0681 54.6379 35.8158 39.1831 31.6572 37.8419C27.4986 36.5006 27.4649 39.7291 30.0598 43.2878Z" fill="#DD6A57"/>
<path d="M40.6282 56.8621L48.2848 46.0781C48.2848 46.0781 39.7183 40.4637 34.0028 38.044C28.2872 35.6244 25.4497 36.9859 30.6934 44.3931C33.7482 48.7478 37.0659 52.9118 40.6282 56.8621Z" fill="#1648CE"/>
<path d="M46.0202 45.4109C44.807 46.8128 43.6275 48.2551 42.4817 49.7177C41.9223 50.4389 41.3426 51.1533 40.7967 51.888C40.2507 52.6227 39.7116 53.4449 39.1454 54.1998C39.105 54.2537 39.1454 54.3211 39.2195 54.274C39.7992 53.5595 40.426 52.926 41.0056 52.1778C41.5853 51.4297 42.1716 50.695 42.7513 49.9536C43.8971 48.4843 45.0092 46.988 46.0876 45.4648C46.1348 45.4176 46.0808 45.3637 46.0202 45.4109Z" fill="#263238"/>
<path d="M40.6686 56.916C39.4891 55.3591 38.1074 53.9706 36.8403 52.4878C35.5732 51.005 34.3128 49.4953 33.1063 47.9586C33.1037 47.9546 33.1003 47.9512 33.0963 47.9485C33.0923 47.9458 33.0878 47.944 33.0831 47.943C33.0785 47.9421 33.0736 47.9421 33.0689 47.943C33.0642 47.9439 33.0598 47.9458 33.0558 47.9484C33.0518 47.9511 33.0484 47.9545 33.0457 47.9585C33.043 47.9625 33.0412 47.9669 33.0403 47.9716C33.0393 47.9763 33.0393 47.9812 33.0402 47.9859C33.0412 47.9905 33.043 47.995 33.0457 47.999C33.6051 48.7943 34.151 49.6099 34.7374 50.385C35.034 50.7691 35.3373 51.1466 35.6406 51.524C35.4923 51.4027 35.3508 51.2746 35.1957 51.1601C34.7374 50.8096 34.2454 50.4861 33.7534 50.1828C33.7534 50.1828 33.7062 50.1828 33.7534 50.2232C34.1822 50.6222 34.6322 50.998 35.1014 51.3488C35.4451 51.5982 35.7754 51.8341 36.1393 52.07L36.6785 52.744C37.8611 54.2824 39.1833 55.7084 40.6282 57.0036C40.6282 57.0441 40.7023 56.9632 40.6686 56.916Z" fill="#263238"/>
<path d="M-1.93492 56.296L-0.559956 55.8511L-1.06546 54.2874L2.27758 53.1956L2.78982 54.7592L4.16478 54.3077L3.23466 51.4634L-2.88525 53.4584L-1.93492 56.296Z" fill="#263238"/>
<path d="M31.1922 40.1941C31.3 36.8578 27.6874 35.7996 25.1801 35.5502C22.2145 35.2537 20.024 36.2242 18.7097 39.1292C17.3213 42.2026 17.1393 45.7209 16.6877 49.0505C16.6716 49.1783 16.6054 49.2945 16.5037 49.3735C16.4019 49.4525 16.273 49.4878 16.1451 49.4717C16.0173 49.4556 15.9011 49.3894 15.8221 49.2877C15.7432 49.1859 15.7078 49.057 15.7239 48.9291C16.2631 45.0941 16.6338 37.6936 20.3543 35.4896C23.7715 33.4676 32.3582 34.6606 32.1762 40.3154C32.1762 40.9422 31.1922 40.8209 31.2124 40.1941H31.1922Z" fill="#455A64"/>
<path d="M13.7491 50.5265C13.6923 50.9673 13.7678 51.415 13.9658 51.8129C14.1637 52.2108 14.4754 52.5409 14.8612 52.7615C15.247 52.982 15.6897 53.0831 16.133 53.0518C16.5763 53.0206 17.0004 52.8584 17.3514 52.5859C17.7025 52.3134 17.9647 51.9428 18.1049 51.521C18.2451 51.0993 18.257 50.6455 18.139 50.217C18.021 49.7885 17.7784 49.4048 17.4421 49.1143C17.1057 48.8238 16.6907 48.6397 16.2496 48.5854C15.6609 48.5129 15.0674 48.6763 14.5988 49.0401C14.1303 49.4038 13.8248 49.9382 13.7491 50.5265Z" fill="#263238"/>
<path d="M14.632 50.6411C14.5882 50.9986 14.6883 51.3589 14.9101 51.6427C15.1319 51.9264 15.4574 52.1105 15.8149 52.1543C16.1724 52.1981 16.5327 52.098 16.8164 51.8762C17.1002 51.6544 17.2842 51.3289 17.328 50.9714C17.3497 50.7944 17.3363 50.6148 17.2886 50.443C17.2409 50.2711 17.1598 50.1104 17.05 49.9698C16.9401 49.8293 16.8037 49.7118 16.6484 49.6241C16.4932 49.5363 16.3222 49.4799 16.1452 49.4583C15.9681 49.4366 15.7886 49.45 15.6167 49.4977C15.4449 49.5454 15.2841 49.6265 15.1436 49.7363C15.0031 49.8462 14.8856 49.9826 14.7978 50.1378C14.7101 50.2931 14.6537 50.4641 14.632 50.6411Z" fill="#EBEBEB"/>
<path d="M28.2063 50.7355C26.0832 60.1715 26.5483 62.4496 27.3638 63.4943C27.9765 64.227 28.752 64.8064 29.6285 65.186L29.8846 64.5592C29.1228 64.2171 28.4461 63.7108 27.903 63.0764C27.3099 62.3215 26.7707 60.2321 28.8668 50.8838L28.2063 50.7355Z" fill="#C7C7C7"/>
<path d="M34.3195 50.7422C36.4291 57.7248 37.0155 61.5667 36.173 62.8338C35.6784 63.5066 35.0408 64.0613 34.306 64.4581L34.6093 65.0647C35.4531 64.6199 36.1821 63.9854 36.7392 63.2112C37.7502 61.7014 37.2379 58.0349 34.9666 50.5468L34.3195 50.7422Z" fill="#C7C7C7"/>
<path d="M35.189 50.2434C34.823 48.6954 34.3615 47.1715 33.8073 45.6804C33.4882 45.0226 32.9968 44.4636 32.3852 44.0628C32.2504 44.0628 32.2706 42.8631 32.3043 41.8926C32.3043 41.0366 32.3852 40.0323 32.1695 39.7695C32.0442 39.65 31.8776 39.5833 31.7045 39.5833C31.5313 39.5833 31.3648 39.65 31.2394 39.7695C31.0102 40.0256 31.0372 41.0298 31.0372 41.8858C31.0372 42.8631 31.0372 44.0494 30.8822 44.0494C30.2967 44.4633 29.8184 45.0109 29.487 45.6467C28.8873 47.1604 28.4029 48.7173 28.0379 50.3041C27.8559 51.3151 28.1929 51.4297 28.4827 51.5173C28.8939 51.6386 29.1567 51.3555 29.4196 50.2299C29.8644 48.4573 30.3902 45.4782 31.6168 45.4378C32.83 45.5187 33.4366 48.6326 33.895 50.3647C34.178 51.4499 34.4139 51.5442 34.8251 51.4364C35.1216 51.342 35.4182 51.2072 35.189 50.2434Z" fill="#263238"/>
<path d="M28.9613 37.8284C28.7793 38.5495 25.2475 43.2203 21.9382 43.0114C20.853 42.9373 20.9609 37.033 20.9609 37.033L20.8733 36.5949L19.5927 30.4615L26.8381 25.9592L27.8828 25.3661C27.8828 25.3661 28.1188 27.0646 28.3951 29.1877C28.3951 29.282 28.4086 29.3831 28.4355 29.491C28.4355 29.6056 28.476 29.7201 28.4895 29.8347C28.5366 30.1515 28.5771 30.5087 28.6175 30.7918C28.6579 31.0749 28.6782 31.2771 28.6984 31.5399L28.7793 32.3083C28.9624 34.1422 29.0232 35.9863 28.9613 37.8284Z" fill="#DD6A57"/>
<path d="M28.3951 29.1877C27.7554 30.8959 26.7511 32.4441 25.4521 33.7245C24.153 35.0049 22.5905 35.9868 20.8733 36.6017L19.5927 30.4683L26.8381 25.966L27.8828 25.3729C27.8828 25.3729 28.1188 27.0646 28.3951 29.1877Z" fill="#263238"/>
<path d="M12.4011 18.6261C10.0623 29.3697 16.2294 31.9848 18.5413 32.4835C20.6441 32.9419 27.8627 34.2292 31.3001 23.7889C34.7375 13.3487 30.5182 8.88007 25.7328 7.57925C20.9474 6.27843 14.7466 7.90277 12.4011 18.6261Z" fill="#DD6A57"/>
<path d="M15.6902 17.0826C15.9463 17.0826 16.189 17.0826 16.4451 17.0826C16.7142 17.1149 16.9864 17.0581 17.2202 16.9209C17.2836 16.8636 17.3265 16.7871 17.3424 16.7031C17.3582 16.6191 17.3461 16.5323 17.3078 16.4558C17.2088 16.3135 17.0734 16.2002 16.9157 16.1279C16.7581 16.0556 16.5839 16.0269 16.4114 16.0447C16.0593 16.0309 15.7143 16.146 15.4408 16.3682C15.3867 16.4248 15.3492 16.4952 15.3326 16.5717C15.3159 16.6483 15.3208 16.7279 15.3466 16.8018C15.3724 16.8758 15.4182 16.9411 15.4788 16.9907C15.5394 17.0403 15.6126 17.0721 15.6902 17.0826Z" fill="#263238"/>
<path d="M23.1649 18.5789C22.9155 18.4981 22.7065 18.3835 22.4909 18.2824C22.2252 18.212 21.989 18.0585 21.8169 17.8443C21.7777 17.7664 21.7658 17.6776 21.7829 17.5921C21.8 17.5067 21.8451 17.4293 21.9112 17.3725C22.0567 17.2786 22.2247 17.2253 22.3977 17.2182C22.5708 17.2111 22.7426 17.2504 22.8953 17.332C23.2282 17.4529 23.5045 17.6931 23.6704 18.006C23.7041 18.0795 23.7158 18.1613 23.704 18.2413C23.6922 18.3213 23.6575 18.3962 23.604 18.4569C23.5504 18.5176 23.4804 18.5614 23.4025 18.583C23.3246 18.6047 23.242 18.6033 23.1649 18.5789Z" fill="#263238"/>
<path d="M20.9407 20.8907C20.9407 20.8907 20.9878 20.9379 20.9811 20.9649C20.7991 21.6928 20.7115 22.5555 21.3181 22.9397C21.3181 22.9397 21.3181 22.9936 21.3181 22.9801C20.5228 22.6701 20.6508 21.5513 20.9407 20.8907Z" fill="#263238"/>
<path d="M21.7562 20.2707C22.9491 20.4392 22.5245 22.8184 21.4192 22.6634C20.3138 22.5083 20.7586 20.1291 21.7562 20.2707Z" fill="#263238"/>
<path d="M22.2078 20.4796C22.3897 20.6481 22.5515 20.9245 22.7941 20.9919C23.0368 21.0593 23.3401 20.8638 23.576 20.6616C23.576 20.6616 23.6164 20.6616 23.6097 20.6616C23.5355 21.1199 23.2794 21.5513 22.7739 21.5311C22.2684 21.5108 22.0999 21.0525 22.0393 20.574C22.0325 20.5201 22.1336 20.4122 22.2078 20.4796Z" fill="#263238"/>
<path d="M16.6675 19.8932C16.6675 19.8932 16.6069 19.8933 16.6001 19.9472C16.499 20.6886 16.2564 21.5243 15.5487 21.6524V21.6996C16.3642 21.7198 16.6945 20.6481 16.6675 19.8932Z" fill="#263238"/>
<path d="M16.1418 19.0103C14.969 18.7205 14.4703 21.0795 15.5554 21.3558C16.6405 21.6321 17.1258 19.2597 16.1418 19.0103Z" fill="#263238"/>
<path d="M15.6161 19.0642C15.4004 19.1518 15.1713 19.3405 14.9421 19.3068C14.7129 19.2731 14.5444 18.9698 14.4299 18.6935C14.4299 18.6935 14.4299 18.6935 14.3894 18.6935C14.2816 19.1451 14.3288 19.6438 14.7466 19.8258C15.1645 20.0078 15.5015 19.664 15.7037 19.2327C15.7374 19.172 15.6902 19.0305 15.6161 19.0642Z" fill="#263238"/>
<path d="M19.3769 26.9365C19.1747 27.0848 18.9658 27.3005 18.7029 27.2938C18.4268 27.2496 18.1629 27.1486 17.9278 26.9972C17.9278 26.9972 17.8806 26.9972 17.8874 26.9972C17.9735 27.1577 18.102 27.2916 18.2588 27.3843C18.4157 27.4769 18.5949 27.5249 18.7771 27.5229C18.9335 27.5049 19.0811 27.4408 19.2011 27.3388C19.321 27.2368 19.4081 27.1015 19.4511 26.95C19.4495 26.942 19.4456 26.9347 19.4398 26.929C19.434 26.9232 19.4266 26.9194 19.4186 26.918C19.4106 26.9165 19.4023 26.9175 19.3949 26.9208C19.3874 26.9241 19.3812 26.9296 19.3769 26.9365Z" fill="#263238"/>
<path d="M16.7618 25.1976C16.966 25.6787 17.291 26.099 17.7054 26.4175C17.9382 26.5821 18.2157 26.6715 18.5008 26.6736C19.1276 26.6736 19.2759 26.1344 19.2893 25.6492C19.2906 25.3908 19.2635 25.1332 19.2085 24.8808C18.4474 25.244 17.5903 25.355 16.7618 25.1976Z" fill="#263238"/>
<path d="M17.7122 26.4175C17.9449 26.5822 18.2224 26.6715 18.5075 26.6737C19.1343 26.6737 19.2826 26.1345 19.2961 25.6492C18.9842 25.582 18.6588 25.6212 18.3717 25.7605C18.0847 25.8997 17.8525 26.131 17.7122 26.4175Z" fill="#FF9CBD"/>
<path d="M16.809 23.6946C16.6291 24.2143 16.4761 24.743 16.3507 25.2785C16.3507 25.3257 16.4586 25.3729 16.6338 25.42C17.0633 25.5857 17.5301 25.63 17.983 25.5479C18.436 25.4659 18.8576 25.2608 19.2017 24.955C19.2489 24.9078 19.2017 24.8471 19.1411 24.8674C18.394 25.1925 17.562 25.2682 16.7686 25.083C16.7686 24.9348 17.4426 23.27 17.3685 23.2498C16.9595 23.2103 16.5472 23.2239 16.1418 23.2902C16.8158 21.0458 17.874 18.9227 18.521 16.6783C18.5308 16.6604 18.5332 16.6393 18.5275 16.6197C18.5218 16.6002 18.5085 16.5836 18.4907 16.5738C18.4728 16.564 18.4517 16.5616 18.4322 16.5673C18.4126 16.573 18.396 16.5862 18.3862 16.6041C17.201 18.8429 16.2393 21.1931 15.515 23.6205C15.4476 23.9238 16.5866 23.7418 16.809 23.6946Z" fill="#263238"/>
<path d="M30.2419 24.0181C28.4895 23.8091 28.8198 20.0954 28.8198 20.0954C28.8198 20.0954 25.3015 19.4214 25.1532 14.1103C24.9484 15.6471 25.1991 17.2102 25.8744 18.6059C25.8744 18.6059 19.8084 16.7052 18.2312 10.9897C18.2312 10.9897 18.7435 13.8474 19.532 14.9797C18.0539 14.1841 16.8896 12.9105 16.2294 11.3671C16.2294 11.3671 14.5444 14.144 13.5334 14.8045C13.5334 14.8045 14.4568 0.300017 27.3774 7.6601C27.3774 7.6601 33.0862 8.7722 34.3466 14.2046C35.6069 19.6371 30.2419 24.0181 30.2419 24.0181Z" fill="#263238"/>
<path d="M30.4576 27.7656C30.2881 27.8095 30.1137 27.8321 29.9386 27.833C29.7639 27.8406 29.589 27.8224 29.4196 27.779C29.2016 27.7291 28.997 27.6325 28.8198 27.496C28.6799 27.3899 28.5552 27.2651 28.4491 27.1253C28.2989 26.9216 28.1849 26.6936 28.1121 26.4513L29.0894 23.6137C29.0894 23.6137 31.9134 20.5201 33.3423 21.5917C34.7712 22.6634 32.3583 27.3275 30.4576 27.7656Z" fill="#DD6A57"/>
<path d="M32.621 22.906C32.621 22.906 32.621 22.9464 32.621 22.9532C31.273 23.3037 30.4642 24.3955 29.8374 25.5616C29.9276 25.444 30.0423 25.3473 30.1734 25.2783C30.3046 25.2093 30.4492 25.1696 30.5972 25.1619C30.7452 25.1542 30.8932 25.1787 31.0308 25.2338C31.1684 25.2888 31.2925 25.373 31.3944 25.4807C31.3944 25.4807 31.3944 25.5548 31.3539 25.5413C31.1395 25.4405 30.8989 25.409 30.6658 25.4513C30.4326 25.4936 30.2184 25.6075 30.0531 25.7772C29.7792 26.0615 29.5353 26.3732 29.3252 26.7074C29.251 26.8152 29.0556 26.7074 29.1162 26.5995C29.305 24.9482 30.8552 22.8453 32.621 22.906Z" fill="#263238"/>
<path d="M30.3632 27.287C30.3432 27.3544 30.3091 27.4169 30.2633 27.4702C30.2175 27.5235 30.1609 27.5666 30.0972 27.5965C30.0336 27.6264 29.9643 27.6425 29.894 27.6438C29.8237 27.645 29.7539 27.6314 29.6892 27.6038C29.6224 27.5827 29.5606 27.5482 29.5076 27.5023C29.4547 27.4564 29.4117 27.4001 29.3814 27.3369C29.3511 27.2737 29.334 27.205 29.3313 27.135C29.3286 27.065 29.3403 26.9951 29.3657 26.9298C29.3883 26.8641 29.4238 26.8037 29.4702 26.752C29.5166 26.7003 29.5728 26.6584 29.6357 26.6289C29.6985 26.5993 29.7667 26.5827 29.8361 26.58C29.9055 26.5773 29.9747 26.5885 30.0397 26.613C30.1071 26.6332 30.1696 26.6672 30.2231 26.713C30.2766 26.7587 30.3199 26.8151 30.3504 26.8785C30.3808 26.942 30.3977 27.0111 30.3999 27.0814C30.4021 27.1518 30.3896 27.2218 30.3632 27.287Z" fill="white"/>
<path d="M31.5023 26.6602C31.4689 26.7468 31.4031 26.817 31.3189 26.8559C31.2347 26.8948 31.1386 26.8995 31.051 26.8688C30.9634 26.8382 30.8912 26.7746 30.8496 26.6916C30.808 26.6087 30.8004 26.5128 30.8283 26.4243C30.8427 26.3786 30.8661 26.3363 30.8971 26.2999C30.9282 26.2635 30.9662 26.2337 31.009 26.2123C31.0518 26.1908 31.0984 26.1782 31.1462 26.1752C31.1939 26.1721 31.2418 26.1787 31.287 26.1945C31.3322 26.2103 31.3737 26.235 31.4091 26.2672C31.4445 26.2994 31.4731 26.3383 31.4932 26.3817C31.5133 26.4252 31.5245 26.4722 31.526 26.52C31.5276 26.5679 31.5195 26.6155 31.5023 26.6602Z" fill="white"/>
<path d="M30.3564 9.5608C29.1971 8.0106 29.8846 3.33304 32.3784 1.6076C35.8023 -0.771618 41.4032 3.6296 39.3341 7.8421C37.2649 12.0546 31.2528 10.7605 30.3564 9.5608Z" fill="#263238"/>
<path d="M38.3298 2.6523C37.3357 1.71338 36.1247 1.03496 34.8048 0.677484C34.1831 0.519646 33.5286 0.550142 32.9243 0.765102C32.3304 0.996868 31.8156 1.39462 31.4415 1.9109C31.0472 2.4445 30.7233 3.02669 30.4777 3.64308C30.2128 4.2613 30.0206 4.90818 29.9048 5.57072C29.6532 6.91599 29.8105 8.30579 30.3564 9.5608C29.5542 8.37452 29.2071 6.93852 29.3791 5.5168C29.4555 4.80123 29.6255 4.09877 29.8846 3.4274C30.1354 2.74559 30.4827 2.10326 30.9158 1.51998C31.3681 0.901531 31.9947 0.432162 32.7154 0.171984C33.4368 -0.057328 34.2115 -0.057328 34.9329 0.171984C36.2942 0.627988 37.4809 1.49446 38.3298 2.6523Z" fill="#263238"/>
</g>
</svg>
