<svg width="390" height="616" viewBox="0 0 390 616" fill="none" xmlns="http://www.w3.org/2000/svg">
<g opacity="0.05">
<path d="M912.75 1044.75L820.717 1047.27L820.557 1046.84C814.788 1031.17 809.126 1015.52 803.653 1000.38C791.116 965.721 779.31 932.948 766.381 900.202C745.998 848.434 718.65 799.688 685.093 755.311C642.662 699.222 595.339 647.006 543.682 599.278C505.532 563.931 462.935 533.711 416.97 509.381C338.341 467.971 253.945 438.591 166.599 422.223C72.9201 404.593 -9.53713 400.636 -85.4913 410.125C-156.146 418.949 -216.353 439.271 -269.573 472.255C-325.288 506.787 -379.027 549.505 -429.306 599.252C-457.665 627.302 -486.802 658.953 -507.744 700.231C-542.604 768.924 -564.09 834.002 -573.47 899.257C-575.144 910.833 -577.765 922.078 -580.557 933.974C-581.831 939.44 -583.158 945.091 -584.39 950.819L-584.509 951.377L-585.084 951.32C-597.796 950.001 -610.486 949.073 -622.755 948.182C-649.249 946.229 -674.27 944.392 -699.248 939.025L-699.663 938.931L-699.736 938.518C-702.359 924.997 -698.983 915.094 -694.974 905.307L-690.38 894.097C-678.611 865.436 -666.448 835.806 -655.517 806.146C-613.553 692.258 -553.263 593.212 -476.307 511.764C-413.074 444.84 -358.304 405.111 -298.658 383.093C-196.72 345.378 -86.6542 309.303 27.4773 300.755C98.3137 295.467 152.613 297.084 203.435 306.059C245.25 313.439 289.776 322.375 343.554 334.167C420.583 351.103 489.307 385.48 547.863 436.479C608.589 489.345 660.37 542.835 706.179 599.989C742.784 645.668 770.451 689.974 790.66 735.324C821.463 804.398 850.741 873.15 877.741 939.63C886.771 961.929 893.957 985.014 901.598 1009.53C905.087 1020.71 908.684 1032.27 912.517 1043.91L912.75 1044.75ZM821.561 1045.99L910.956 1043.54C907.245 1032.15 903.706 1020.88 900.303 1009.95C892.685 985.497 885.492 962.402 876.481 940.159C849.526 873.667 820.243 804.93 789.416 735.882C769.22 690.603 741.644 646.415 705.104 600.829C659.313 543.755 607.611 490.313 546.947 437.491C488.549 386.637 419.994 352.308 343.197 335.464C289.444 323.671 244.934 314.74 203.129 307.354C152.424 298.405 98.2506 296.757 27.4912 302.067C-86.4786 310.603 -196.439 346.659 -298.292 384.34C-357.721 406.328 -412.365 445.91 -475.447 512.687L-475.912 512.245L-475.447 512.687C-552.297 593.998 -612.497 692.904 -654.397 806.627C-665.337 836.318 -677.494 865.983 -689.273 894.624L-693.877 905.839C-697.762 915.337 -701.044 924.942 -698.641 937.9C-673.883 943.195 -649.041 945.014 -622.74 946.945C-610.609 947.821 -598.142 948.743 -585.599 950.038C-584.399 944.484 -583.11 939.022 -581.874 933.745C-579.102 921.86 -576.515 910.672 -574.814 899.12C-565.414 833.738 -543.873 768.526 -508.96 699.739C-487.867 658.313 -458.709 626.56 -430.268 598.425C-379.941 548.6 -326.135 505.91 -270.319 471.257C-216.931 438.18 -156.554 417.789 -85.7178 408.943C-9.62716 399.443 72.972 403.4 166.768 421.055C254.241 437.448 338.76 466.869 417.504 508.335C463.587 532.702 506.298 562.972 544.557 598.379C596.256 646.154 643.621 698.415 686.095 754.55C719.716 799.021 747.119 847.866 767.548 899.738C780.488 932.504 792.304 965.271 804.836 999.945C810.284 1014.95 815.883 1030.43 821.601 1045.97L821.561 1045.99ZM765.425 1046.04L731.413 1045.54C695.406 1044.99 661.407 1044.46 627.17 1044.05C620.993 1043.97 617.933 1039.98 615.228 1034.01C610.948 1024.56 606.295 1015.14 601.801 1006.03L599.433 1001.23C560.616 922.366 510.906 854.998 459.106 787.219C407.912 720.232 348.794 667.279 283.538 629.767C277.281 626.174 270.864 622.619 264.669 619.185C255.528 614.12 246.046 608.907 236.949 603.455C178.257 568.357 113.37 556.367 38.5742 566.782C-9.2882 573.459 -58.758 589.049 -112.672 614.458C-207.415 659.078 -286.174 716.457 -353.482 789.776C-369.089 806.686 -381.674 826.154 -390.684 847.329C-403.571 877.85 -416.036 908.06 -430.707 943.968C-432.87 949.253 -434.682 954.823 -436.441 960.208C-437.24 962.695 -438.039 965.151 -438.837 967.576L-439.01 968.06L-531.275 958.254L-531.2 957.617C-530.809 954.088 -530.49 950.755 -530.183 947.544C-529.563 940.731 -528.933 934.404 -527.768 928.273C-525.93 918.561 -523.535 908.826 -521.239 899.404C-520.55 896.625 -519.873 893.847 -519.207 891.073C-501.793 818.489 -479.592 758.425 -451.321 707.467C-411.254 635.248 -353.334 582.118 -263.608 535.095C-254.385 530.268 -245.083 525.138 -236.088 520.177C-229.984 516.802 -223.67 513.312 -217.438 509.956C-211.205 506.601 -205.069 503.118 -199.014 499.769C-184.909 491.789 -170.313 483.525 -155.437 477.267C-108.953 457.751 -57.8263 447.406 10.344 443.708C49.0598 441.622 90.3648 441.715 130.095 456.511L134.399 458.117C148.639 463.417 163.343 468.9 177.888 473.98C181.002 475.071 184.111 476.169 187.215 477.273C199.855 481.763 212.935 486.345 225.995 489.838C236.824 492.69 247.957 495.062 258.718 497.368C274.88 500.855 291.699 504.405 307.783 509.669C357.837 525.948 404.918 550.24 447.193 581.597C489.865 613.324 528.519 653.16 562.084 699.989C587.177 735.004 606.801 761.719 625.707 786.645C681.684 860.434 723.039 944.521 756.098 1017.05C758.444 1022.61 760.39 1028.34 761.923 1034.18C762.928 1037.64 763.963 1041.22 765.244 1045.22L765.425 1046.04ZM-162.63 638.457C-146.647 629.62 -130.167 621.198 -113.191 613.192C-59.1524 587.727 -9.56263 572.097 38.4362 565.409C113.529 554.946 178.692 566.991 237.639 602.245C246.772 607.716 256.209 612.941 265.339 617.986C271.539 621.43 277.951 624.976 284.224 628.573C349.669 666.148 408.879 719.244 460.176 786.369C512.013 854.191 561.756 921.619 600.617 1000.59L602.986 1005.39C607.501 1014.54 612.144 1023.94 616.434 1033.41C619.007 1039.09 621.703 1042.63 627.226 1042.7C661.49 1043.16 695.471 1043.63 731.463 1044.18L763.706 1044.66C762.528 1040.96 761.529 1037.52 760.641 1034.44C759.124 1028.66 757.202 1022.99 754.889 1017.48C721.853 945.021 680.542 861.014 624.63 787.318C605.678 762.404 586.089 735.657 560.991 700.632C494.634 608.047 409.287 544.168 307.307 510.799C291.291 505.563 274.557 501.978 258.376 498.528C247.6 496.217 236.446 493.831 225.597 490.99C212.483 487.54 199.38 482.892 186.709 478.394C183.601 477.291 180.504 476.183 177.398 475.105C162.831 470.012 148.118 464.534 133.887 459.228L129.573 457.628C90.0697 442.913 48.9165 442.814 10.3426 444.9C-57.6813 448.581 -108.7 458.957 -155.011 478.365C-169.818 484.584 -184.389 492.822 -198.459 500.796C-204.482 504.203 -210.713 507.726 -216.886 511.048C-223.059 514.371 -229.412 517.883 -235.522 521.249C-244.521 526.224 -253.817 531.364 -263.055 536.188C-352.554 583.084 -410.319 636.05 -450.253 708.041C-478.462 758.901 -500.628 818.841 -518.021 891.323C-518.686 894.097 -519.362 896.878 -520.047 899.664C-522.344 909.06 -524.729 918.79 -526.564 928.461C-527.716 934.546 -528.325 940.887 -528.929 947.588C-529.219 950.621 -529.51 953.745 -529.87 957.05L-439.912 966.592C-439.14 964.314 -438.394 962.013 -437.638 959.705C-435.88 954.295 -434.07 948.675 -431.877 943.373C-417.202 907.45 -404.781 877.277 -391.85 846.718C-382.782 825.409 -370.117 805.817 -354.409 788.8C-299.065 728.554 -235.958 679 -162.63 638.457Z" fill="black"/>
</g>
<g opacity="0.2">
<path d="M212.668 529.101C223.532 529.101 232.338 520.295 232.338 509.431C232.338 498.568 223.532 489.761 212.668 489.761C201.805 489.761 192.998 498.568 192.998 509.431C192.998 520.295 201.805 529.101 212.668 529.101Z" fill="#EBEBEB"/>
<path d="M219.828 497.761C219.875 498.706 219.619 499.641 219.098 500.431C218.569 501.243 217.829 501.896 216.958 502.321C216.062 502.773 215.026 502.859 214.068 502.561C213.157 502.278 212.376 501.679 211.868 500.871C212.571 501.375 213.377 501.717 214.228 501.871C214.628 501.946 215.038 501.946 215.438 501.871C215.836 501.813 216.222 501.688 216.578 501.501C216.768 501.411 216.948 501.311 217.128 501.211C217.308 501.111 217.488 500.981 217.648 500.851C217.98 500.596 218.285 500.308 218.558 499.991C219.119 499.335 219.55 498.578 219.828 497.761Z" fill="#C7C7C7"/>
<path d="M212.748 498.891C212.664 498.236 212.808 497.572 213.158 497.011C213.515 496.431 214.028 495.963 214.638 495.661C215.279 495.343 216.018 495.289 216.698 495.511C217.331 495.729 217.856 496.179 218.168 496.771C217.67 496.463 217.116 496.256 216.538 496.161C216.016 496.103 215.488 496.197 215.018 496.431C213.985 496.945 213.177 497.82 212.748 498.891Z" fill="#C7C7C7"/>
<path d="M212.668 518.671C212.91 519.271 212.927 519.939 212.718 520.551C212.504 521.182 212.107 521.736 211.578 522.141C211.306 522.354 210.994 522.509 210.661 522.598C210.328 522.688 209.98 522.709 209.638 522.661C208.995 522.576 208.407 522.256 207.988 521.761C208.529 521.94 209.099 522.018 209.668 521.991C210.174 521.956 210.658 521.771 211.058 521.461C211.466 521.138 211.806 520.737 212.058 520.281C212.356 519.785 212.562 519.24 212.668 518.671Z" fill="#C7C7C7"/>
<path d="M208.588 520.911C208.48 520.711 208.413 520.491 208.391 520.264C208.369 520.038 208.391 519.809 208.458 519.591C208.59 519.132 208.867 518.729 209.248 518.441C209.445 518.286 209.672 518.174 209.915 518.112C210.158 518.05 210.411 518.04 210.658 518.081C210.883 518.122 211.097 518.208 211.287 518.333C211.478 518.459 211.642 518.621 211.768 518.811C211.39 518.736 211.002 518.72 210.618 518.761C210.307 518.801 210.013 518.925 209.768 519.121C209.192 519.574 208.778 520.202 208.588 520.911Z" fill="#C7C7C7"/>
<path d="M205.578 500.981C205.752 501.143 205.89 501.337 205.987 501.554C206.083 501.77 206.134 502.004 206.138 502.241C206.142 502.498 206.094 502.754 205.998 502.992C205.902 503.231 205.759 503.448 205.578 503.631C205.393 503.82 205.166 503.962 204.916 504.047C204.666 504.132 204.4 504.158 204.138 504.121C203.668 504.077 203.229 503.868 202.898 503.531C203.31 503.543 203.722 503.516 204.128 503.451C204.445 503.401 204.738 503.254 204.968 503.031C205.205 502.791 205.377 502.495 205.468 502.171C205.569 501.783 205.607 501.381 205.578 500.981Z" fill="#C7C7C7"/>
<path d="M203.138 502.891C202.995 502.793 202.877 502.664 202.792 502.513C202.707 502.362 202.658 502.194 202.648 502.021C202.641 501.837 202.672 501.652 202.739 501.48C202.806 501.308 202.908 501.152 203.038 501.021C203.175 500.881 203.344 500.777 203.531 500.718C203.717 500.659 203.916 500.646 204.108 500.681C204.277 500.704 204.439 500.761 204.585 500.849C204.732 500.937 204.858 501.053 204.958 501.191C204.678 501.224 204.401 501.278 204.128 501.351C203.945 501.397 203.779 501.494 203.648 501.631C203.504 501.772 203.391 501.943 203.318 502.131C203.224 502.375 203.163 502.631 203.138 502.891Z" fill="#C7C7C7"/>
<path d="M219.248 521.711C219.134 521.92 218.979 522.103 218.791 522.249C218.604 522.395 218.388 522.501 218.158 522.561C217.911 522.636 217.652 522.659 217.396 522.63C217.139 522.601 216.892 522.52 216.668 522.391C216.44 522.258 216.246 522.074 216.1 521.854C215.954 521.634 215.861 521.383 215.828 521.121C215.766 520.652 215.865 520.176 216.108 519.771C216.191 520.174 216.318 520.566 216.488 520.941C216.607 521.239 216.821 521.489 217.098 521.651C217.385 521.826 217.712 521.922 218.048 521.931C218.458 521.927 218.864 521.853 219.248 521.711Z" fill="#C7C7C7"/>
<path d="M216.798 519.821C216.857 519.658 216.952 519.511 217.077 519.392C217.202 519.272 217.353 519.183 217.518 519.131C217.7 519.072 217.891 519.052 218.081 519.072C218.271 519.093 218.454 519.154 218.618 519.251C218.793 519.355 218.94 519.501 219.044 519.675C219.149 519.85 219.209 520.048 219.218 520.251C219.236 520.421 219.219 520.592 219.169 520.755C219.119 520.918 219.037 521.07 218.928 521.201C218.821 520.938 218.701 520.681 218.568 520.431C218.476 520.266 218.341 520.128 218.178 520.031C218.004 519.933 217.815 519.865 217.618 519.831C217.347 519.789 217.071 519.786 216.798 519.821Z" fill="#C7C7C7"/>
<path d="M225.988 507.871C226.028 508.349 225.877 508.824 225.568 509.191C225.225 509.58 224.745 509.82 224.228 509.861C223.964 509.876 223.7 509.83 223.455 509.728C223.211 509.626 222.993 509.47 222.818 509.271C222.503 508.92 222.316 508.472 222.288 508.001C222.595 508.285 222.93 508.536 223.288 508.751C223.558 508.928 223.876 509.015 224.198 509.001C224.533 508.978 224.856 508.872 225.138 508.691C225.464 508.465 225.751 508.188 225.988 507.871Z" fill="#C7C7C7"/>
<path d="M222.898 507.681C222.85 507.51 222.843 507.329 222.88 507.155C222.917 506.981 222.995 506.818 223.108 506.681C223.227 506.528 223.378 506.403 223.551 506.314C223.724 506.226 223.914 506.177 224.108 506.171C224.299 506.163 224.49 506.201 224.664 506.281C224.837 506.361 224.99 506.481 225.108 506.631C225.218 506.76 225.3 506.91 225.35 507.071C225.399 507.233 225.416 507.403 225.398 507.571C225.167 507.408 224.923 507.264 224.668 507.141C224.502 507.055 224.315 507.016 224.128 507.031C223.927 507.041 223.729 507.092 223.548 507.181C223.311 507.32 223.093 507.488 222.898 507.681Z" fill="#C7C7C7"/>
<path d="M199.928 512.331C199.95 512.566 199.924 512.804 199.851 513.029C199.779 513.254 199.663 513.462 199.508 513.641C199.341 513.837 199.137 513.998 198.907 514.113C198.676 514.228 198.425 514.295 198.168 514.311C197.904 514.328 197.639 514.284 197.394 514.181C197.149 514.079 196.932 513.921 196.758 513.721C196.445 513.372 196.259 512.929 196.228 512.461C196.537 512.742 196.872 512.994 197.228 513.211C197.498 513.385 197.817 513.469 198.138 513.451C198.472 513.431 198.795 513.328 199.078 513.151C199.404 512.925 199.691 512.648 199.928 512.331Z" fill="#C7C7C7"/>
<path d="M196.838 512.131C196.791 511.96 196.786 511.78 196.822 511.606C196.859 511.432 196.936 511.269 197.048 511.131C197.169 510.98 197.321 510.856 197.493 510.768C197.666 510.68 197.855 510.63 198.048 510.621C198.238 510.613 198.428 510.649 198.602 510.727C198.775 510.806 198.928 510.923 199.048 511.071C199.157 511.201 199.238 511.35 199.288 511.512C199.338 511.673 199.355 511.843 199.338 512.011C199.105 511.854 198.861 511.714 198.608 511.591C198.443 511.501 198.256 511.459 198.068 511.471C197.87 511.484 197.677 511.535 197.498 511.621C197.256 511.76 197.033 511.931 196.838 512.131Z" fill="#C7C7C7"/>
<g opacity="0.4">
<path d="M-6.91187 436.311C-6.94413 443.902 -5.49365 451.426 -2.64186 458.461C0.248136 465.391 4.81814 471.531 10.7381 475.391C12.1819 476.348 13.7079 477.174 15.2981 477.861C16.8609 478.507 18.4816 479.002 20.1381 479.341C23.3666 480.007 26.692 480.054 29.9381 479.481C36.3781 478.371 42.3181 475.181 47.5781 470.981C47.8981 470.711 48.2581 470.441 48.5781 470.191L49.3181 469.481C49.7981 468.981 50.3181 468.481 50.7381 467.951C51.6981 466.858 52.5707 465.691 53.3481 464.461C55.0496 461.802 56.5056 458.994 57.6981 456.071C60.293 449.622 62.4218 442.995 64.0681 436.241C67.6381 422.241 70.4781 407.411 73.8581 392.351C74.6981 388.578 75.5948 384.791 76.5481 380.991C77.4681 377.181 78.4881 373.361 79.5481 369.511C81.7033 361.504 84.4715 353.674 87.8281 346.091C88.7481 344.091 89.7581 342.091 90.9581 340.021C91.5481 339.021 92.2181 337.951 92.9581 336.931C93.6981 335.911 94.4181 334.931 95.2081 334.041C98.2331 330.522 101.737 327.445 105.618 324.901C112.958 319.971 120.498 316.901 127.738 313.781C134.978 310.661 142.118 307.781 148.868 304.331C155.551 300.978 161.834 296.882 167.598 292.121C173.175 287.448 177.931 281.874 181.668 275.631C185.348 269.441 188.028 262.691 188.798 256.121C189.218 252.988 189.174 249.811 188.668 246.691C188.186 243.902 187.167 241.232 185.668 238.831C184.326 236.709 182.56 234.886 180.482 233.477C178.403 232.067 176.057 231.102 173.588 230.641C171.069 230.149 168.488 230.048 165.938 230.341C163.2 230.68 160.514 231.352 157.938 232.341C157.268 232.591 156.608 232.871 155.938 233.151L153.578 234.151C152.018 234.851 150.468 235.581 148.958 236.361C145.958 237.911 142.958 239.581 140.048 241.451C134.218 245.141 128.488 249.611 122.108 254.451C115.418 259.599 108.359 264.248 100.988 268.361C93.3041 272.467 85.2438 275.825 76.9181 278.391C75.9181 278.731 74.8581 279.001 73.8281 279.301L71.0581 280.091C69.5281 280.541 67.9781 281.031 66.4381 281.561C63.3681 282.641 60.3281 283.871 57.3681 285.241C45.5381 290.761 35.1981 298.501 27.8381 308.561C24.0313 313.691 20.8834 319.278 18.4681 325.191C17.1688 328.284 16.0698 331.457 15.1781 334.691C14.219 338.041 13.4379 341.439 12.8381 344.871C12.2381 348.361 11.7681 351.941 11.4781 355.581C11.3281 357.291 11.2181 359.521 11.0781 361.581C10.9381 363.641 10.7281 365.691 10.4881 367.731C9.53215 375.798 8.01175 383.787 5.93814 391.641C3.93814 399.411 1.45814 406.931 -1.06186 414.321C-2.33186 418.021 -3.60186 421.691 -4.73186 425.321C-5.94878 428.87 -6.68204 432.566 -6.91187 436.311ZM-9.91187 436.311C-9.90133 434.266 -9.69371 432.226 -9.29186 430.221C-8.94186 428.221 -8.48186 426.331 -8.03186 424.431C-7.13186 420.621 -6.16186 416.861 -5.36186 413.081C-4.56186 409.301 -3.85186 405.531 -3.36186 401.741C-2.87186 397.951 -2.55186 394.151 -2.36186 390.361C-2.09104 382.848 -2.57345 375.328 -3.80186 367.911C-4.08186 366.071 -4.44186 364.251 -4.80186 362.441C-5.16186 360.631 -5.59186 358.951 -6.01186 356.801C-6.86651 352.659 -7.4908 348.472 -7.88186 344.261C-8.73048 335.508 -8.32302 326.679 -6.67186 318.041C-4.91476 309.013 -1.62743 300.352 3.04814 292.431C7.83806 284.487 13.8329 277.335 20.8181 271.231C27.6661 265.235 35.2915 260.189 43.4881 256.231C47.521 254.254 51.6761 252.537 55.9281 251.091C58.0481 250.341 60.2081 249.691 62.4081 249.091L67.7481 247.661C74.3048 245.873 80.6977 243.531 86.8581 240.661C93.2499 237.611 99.4215 234.119 105.328 230.211C111.678 226.211 118.548 221.541 126.168 217.491C129.991 215.435 133.92 213.582 137.938 211.941C139.938 211.111 141.938 210.361 144.038 209.641L147.118 208.641C148.288 208.291 149.468 207.951 150.658 207.641C155.537 206.401 160.567 205.859 165.598 206.031C170.821 206.197 175.975 207.273 180.828 209.211C185.782 211.204 190.282 214.176 194.058 217.951C197.788 221.674 200.679 226.15 202.538 231.081C204.285 235.744 205.143 240.692 205.068 245.671C205.016 250.308 204.288 254.913 202.908 259.341C200.232 267.51 196.155 275.151 190.858 281.921C188.344 285.223 185.607 288.35 182.668 291.281C179.745 294.159 176.657 296.863 173.418 299.381C160.528 309.381 145.888 316.021 132.658 323.751C126.058 327.571 119.768 331.751 114.998 336.571C112.763 338.82 110.863 341.38 109.358 344.171C109.018 344.838 108.708 345.504 108.428 346.171C108.158 346.821 107.908 347.481 107.658 348.171C107.168 349.611 106.718 351.171 106.308 352.831C105.498 356.121 104.868 359.671 104.308 363.291C103.748 366.911 103.248 370.621 102.738 374.361L101.258 385.701C100.758 389.511 100.258 393.351 99.6581 397.211C97.2981 412.611 94.2981 428.321 88.6581 443.961C85.8179 452.09 82.0248 459.854 77.3581 467.091C76.0881 468.951 74.7681 470.791 73.2981 472.591C71.8255 474.435 70.2284 476.175 68.5181 477.801C66.7556 479.502 64.8632 481.064 62.8581 482.471C61.8348 483.194 60.7733 483.862 59.6781 484.471L57.9981 485.371C57.4581 485.651 56.9981 485.851 56.4681 486.091C52.4084 487.976 48.1571 489.418 43.7881 490.391C39.343 491.374 34.7794 491.71 30.2381 491.391C25.7224 491.069 21.2967 489.966 17.1581 488.131C15.1367 487.233 13.2019 486.152 11.3781 484.901C9.6029 483.687 7.93058 482.329 6.37814 480.841C0.505587 474.989 -3.82666 467.775 -6.23186 459.841C-8.60059 452.247 -9.8405 444.346 -9.91187 436.391V436.311Z" fill="#EBEBEB"/>
<path d="M118.988 469.761C123.126 461.867 126.202 453.461 128.138 444.761C130.228 436.091 131.558 427.241 132.858 418.291C133.548 413.821 134.168 409.291 134.988 404.761C135.754 400.102 136.789 395.491 138.088 390.951C139.466 386.058 141.448 381.355 143.988 376.951C146.927 371.93 150.96 367.637 155.788 364.391C157.078 363.541 158.468 362.831 159.788 362.071C161.108 361.311 162.648 360.831 164.108 360.261C165.568 359.691 167.108 359.361 168.568 358.981C170.028 358.601 171.568 358.431 173.058 358.181C178.802 357.418 184.627 357.495 190.348 358.411C195.96 359.305 201.441 360.883 206.668 363.111C211.565 365.228 216.278 367.746 220.758 370.641C228.894 376.03 236.628 382.002 243.898 388.511L254.138 397.511C255.808 398.981 257.498 400.381 259.138 401.791L261.628 403.881L264.118 405.881C267.354 408.472 270.718 410.899 274.198 413.151C277.487 415.301 280.953 417.168 284.558 418.731C288.39 420.295 292.352 421.52 296.398 422.391C300.618 423.391 305.018 424.131 309.528 424.791C318.528 426.121 327.928 426.961 337.438 428.061L344.588 428.951C346.998 429.301 349.388 429.661 351.808 430.101C356.719 430.923 361.56 432.12 366.288 433.681C371.235 435.28 375.894 437.66 380.088 440.731C384.328 443.911 387.789 448.015 390.208 452.731C391.364 455.008 392.295 457.393 392.988 459.851L393.888 463.481C394.138 464.681 394.298 465.841 394.508 467.031C395.214 471.787 395.485 476.596 395.318 481.401C395.077 486.238 394.367 491.041 393.198 495.741C392.878 496.911 392.638 498.111 392.258 499.261L391.138 502.731C390.278 505.001 389.408 507.281 388.378 509.481C384.251 518.35 378.829 526.557 372.288 533.831C369.068 537.503 365.636 540.982 362.008 544.251C358.428 547.581 354.608 550.611 350.728 553.561C348.728 554.981 346.808 556.471 344.778 557.811L341.778 559.871L338.708 561.871C334.582 564.458 330.368 566.891 326.068 569.171C323.918 570.301 321.748 571.391 319.578 572.491C317.408 573.591 315.188 574.571 312.978 575.561C310.768 576.551 308.548 577.561 306.298 578.451C304.048 579.341 301.818 580.291 299.538 581.121L286.538 585.981C284.418 586.771 282.338 587.621 280.248 588.441L277.108 589.681L273.998 590.971C257.496 597.789 241.426 605.611 225.878 614.391C218.068 618.801 210.328 623.391 201.928 628.031C197.738 630.381 193.298 632.661 188.438 634.831C183.289 637.151 177.932 638.98 172.438 640.291C166.541 641.667 160.491 642.275 154.438 642.101C148.681 641.924 142.959 641.136 137.368 639.751C134.648 639.161 132.118 638.371 129.548 637.621C128.278 637.221 127.058 636.781 125.818 636.371C124.578 635.961 123.358 635.541 122.078 635.011L118.298 633.491L116.418 632.711L114.548 631.801C112.019 630.628 109.558 629.313 107.178 627.861C105.978 627.121 104.778 626.401 103.588 625.631L100.128 623.081L98.4282 621.791C97.8582 621.351 97.3382 620.841 96.7882 620.361L93.5882 617.441C92.5882 616.441 91.5882 615.281 90.6482 614.211L89.2082 612.571C88.7482 612.011 88.3382 611.411 87.8982 610.821C87.0482 609.641 86.1882 608.471 85.3682 607.281C84.5482 606.091 83.9182 604.781 83.2182 603.521C80.5844 598.585 78.7132 593.278 77.6682 587.781L77.2582 585.781C77.1482 585.111 77.0782 584.451 76.9982 583.781C76.8382 582.461 76.6682 581.141 76.5582 579.781C76.4118 577.2 76.3952 574.614 76.5082 572.031C76.7343 567.058 77.3833 562.114 78.4482 557.251C79.4937 552.574 80.8024 547.96 82.3682 543.431C85.4553 534.657 89.0857 526.084 93.2382 517.761C94.2382 515.711 95.2382 513.631 96.3182 511.611C97.3982 509.591 98.3182 507.531 99.4482 505.521C100.578 503.511 101.588 501.521 102.668 499.521L105.898 493.521L118.988 469.761ZM121.648 471.121C117.368 479.041 113.388 487.121 109.848 495.371L108.528 498.461L107.288 501.581C106.438 503.651 105.688 505.761 104.928 507.861C103.378 512.051 102.038 516.311 100.798 520.581C98.3275 529.013 96.6272 537.652 95.7182 546.391C95.2764 550.619 95.086 554.87 95.1482 559.121C95.2377 563.188 95.6557 567.241 96.3982 571.241C96.6682 573.241 97.2782 575.051 97.7182 576.911L98.6282 579.581C98.7882 580.021 98.9182 580.461 99.0782 580.891L99.6482 582.151C101.004 585.386 102.805 588.415 104.998 591.151C105.548 591.811 106.098 592.451 106.608 593.151L108.408 594.951C108.708 595.251 108.988 595.571 109.298 595.851L110.298 596.661C110.968 597.191 111.588 597.761 112.298 598.281L114.448 599.761C114.808 600.011 115.138 600.281 115.518 600.501L116.688 601.171L118.998 602.521L121.488 603.711C124.939 605.347 128.505 606.727 132.158 607.841C133.058 608.161 134.068 608.431 135.068 608.701C136.068 608.971 137.068 609.271 138.068 609.511C140.018 609.941 141.978 610.461 143.858 610.751C147.402 611.445 151.007 611.78 154.618 611.751C157.918 611.701 161.201 611.262 164.398 610.441C170.868 608.791 178.088 605.271 185.918 601.081C189.828 599.011 193.818 596.811 197.918 594.581C202.018 592.351 206.208 590.181 210.418 588.001C227.505 579.288 245.186 571.793 263.328 565.571L266.668 564.391L270.078 563.271C272.348 562.531 274.618 561.761 276.898 561.061L290.248 556.991C294.498 555.681 298.708 554.291 302.898 552.861L309.128 550.611C311.188 549.821 313.248 549.041 315.298 548.231C319.348 546.551 323.438 544.901 327.378 543.021L330.378 541.641L333.308 540.191C335.308 539.251 337.158 538.191 339.088 537.191C346.658 533.087 353.812 528.258 360.448 522.771C363.688 520.044 366.732 517.094 369.558 513.941C372.372 510.852 374.886 507.504 377.068 503.941C381.485 496.871 384.282 488.91 385.258 480.631C385.693 476.465 385.673 472.263 385.198 468.101C385.048 467.101 384.948 466.001 384.768 464.981L384.148 461.981C383.631 460.073 382.934 458.218 382.068 456.441C380.344 452.924 377.773 449.89 374.588 447.611C371.188 445.252 367.396 443.515 363.388 442.481C359.128 441.365 354.778 440.629 350.388 440.281C345.928 439.911 341.388 439.781 336.788 439.821C327.608 439.871 318.248 440.441 308.598 440.641C303.758 440.711 298.838 440.641 293.778 440.341C288.528 440.047 283.312 439.304 278.188 438.121C267.278 435.451 257.878 430.561 249.368 425.121C232.468 414.181 219.158 401.121 205.638 391.511C198.908 386.721 192.248 382.901 185.388 380.801C181.94 379.744 178.372 379.125 174.768 378.961C171.495 378.671 168.198 379.153 165.145 380.369C162.092 381.585 159.366 383.5 157.188 385.961C154.471 388.905 152.142 392.185 150.258 395.721C148.214 399.504 146.388 403.4 144.788 407.391C143.178 411.501 141.648 415.711 140.258 419.971C137.398 428.491 134.888 437.201 132.018 445.811C129.298 454.528 125.835 462.996 121.668 471.121H121.648Z" fill="#EBEBEB"/>
<path d="M397.388 266.271C396.132 268.963 394.692 271.566 393.078 274.061C392.338 275.261 391.558 276.391 390.778 277.531C389.998 278.671 389.178 279.741 388.358 280.791C386.738 282.931 385.038 284.901 383.358 286.871C376.498 294.621 369.028 301.271 361.708 307.871L359.118 310.221L357.978 311.221L356.868 312.391C356.118 313.141 355.458 314.001 354.758 314.821C354.058 315.641 353.438 316.581 352.758 317.501C352.078 318.421 351.498 319.361 350.918 320.361C350.338 321.361 349.748 322.361 349.198 323.361C348.128 325.361 347.038 327.531 346.088 329.711C342.088 338.451 339.088 347.841 334.478 357.251C332.063 362.258 328.867 366.849 325.008 370.851C322.897 372.968 320.548 374.834 318.008 376.411C316.715 377.203 315.38 377.924 314.008 378.571C313.318 378.891 312.628 379.231 311.928 379.511L309.808 380.301C306.99 381.276 304.092 382.005 301.148 382.481C299.668 382.751 298.068 382.831 296.498 382.971C294.928 383.111 293.398 382.971 291.828 382.971C290.258 382.971 288.828 382.701 287.238 382.531C286.489 382.442 285.745 382.315 285.008 382.151L282.788 381.701L281.678 381.461L280.608 381.151L278.468 380.511C277.053 380.105 275.664 379.614 274.308 379.041C269.003 376.921 263.986 374.139 259.378 370.761C254.937 367.468 250.84 363.736 247.148 359.621C243.55 355.542 240.373 351.11 237.668 346.391C236.998 345.211 236.358 344.021 235.728 342.841C235.098 341.661 234.568 340.391 233.998 339.171C233.428 337.951 232.908 336.711 232.428 335.451C231.948 334.191 231.428 332.961 231.028 331.661C229.305 326.592 227.994 321.391 227.108 316.111C226.209 310.925 225.727 305.674 225.668 300.411C225.57 295.269 225.958 290.13 226.828 285.061C227.688 280.056 229.279 275.204 231.548 270.661C233.946 266.055 237.367 262.06 241.548 258.981C245.807 255.931 250.464 253.478 255.388 251.691C265.219 248.134 275.389 245.595 285.738 244.111C290.848 243.331 295.928 242.811 300.958 242.491C301.446 242.469 301.931 242.406 302.408 242.301L303.578 242.091C304.378 241.851 305.138 241.781 305.928 241.501L307.088 241.171C307.478 241.031 307.868 240.871 308.258 240.761C309.038 240.551 309.858 240.141 310.648 239.891C314.256 238.42 317.77 236.727 321.168 234.821L327.098 231.491L330.268 229.701L333.668 227.911C335.928 226.671 338.458 225.481 341.058 224.301C343.882 223.068 346.781 222.016 349.738 221.151C353.074 220.174 356.502 219.551 359.968 219.291C363.752 219.001 367.557 219.23 371.278 219.971L372.698 220.241L374.078 220.611C374.988 220.871 375.918 221.121 376.828 221.411C378.574 222.025 380.281 222.747 381.938 223.571L384.348 224.821L386.558 226.191C387.987 227.118 389.365 228.119 390.688 229.191C391.038 229.451 391.308 229.651 391.688 229.981C392.068 230.311 392.688 230.861 393.198 231.321C394.237 232.258 395.191 233.285 396.048 234.391C396.258 234.661 396.488 234.941 396.698 235.231L397.308 236.161C397.698 236.791 398.068 237.411 398.438 238.051C399.1 239.34 399.665 240.677 400.128 242.051C400.328 242.731 400.508 243.401 400.678 244.051C400.768 244.391 400.848 244.741 400.908 245.051L401.068 246.051C401.158 246.691 401.228 247.341 401.298 247.991C401.368 248.641 401.348 249.201 401.368 249.811C401.388 250.421 401.368 251.021 401.368 251.601L401.228 253.241C401.168 253.771 401.128 254.351 401.038 254.851L400.748 256.391C400.015 259.804 398.888 263.119 397.388 266.271Z" fill="#EBEBEB"/>
<path d="M67.5482 530.741C68.0409 533.6 68.2453 536.501 68.1582 539.401C67.9389 544.69 67.0312 549.927 65.4582 554.981C64.0979 559.91 62.3628 564.727 60.2682 569.391C58.1395 574.077 55.4535 578.489 52.2682 582.531C48.9397 586.736 45.0656 590.479 40.7482 593.661C35.9083 597.052 30.3443 599.267 24.4982 600.131C21.3992 600.594 18.2535 600.658 15.1382 600.321C12.1291 599.985 9.18869 599.193 6.41819 597.971C3.96048 596.867 1.66035 595.441 -0.421812 593.731C-2.28455 592.173 -4.05112 590.503 -5.71181 588.731C-6.57142 587.803 -7.34462 586.799 -8.02181 585.731C-8.65927 584.611 -9.20441 583.44 -9.65181 582.231C-10.4908 579.733 -11.0738 577.157 -11.3918 574.541C-12.1372 569.103 -12.1977 563.594 -11.5718 558.141C-10.9773 552.905 -9.27275 547.856 -6.57181 543.331C-3.95851 539.042 -0.510301 535.322 3.56819 532.391C7.77767 529.536 12.3089 527.186 17.0682 525.391C21.8082 523.511 26.3982 521.741 30.7582 519.681C35.1182 517.621 39.3382 515.331 44.6482 513.681C46.0657 513.233 47.522 512.918 48.9982 512.741C50.7192 512.51 52.4651 512.536 54.1782 512.821C56.4767 513.264 58.6203 514.298 60.3982 515.821C60.84 516.208 61.2606 516.619 61.6582 517.051C62.0282 517.471 62.3982 517.901 62.7482 518.351C63.3619 519.183 63.9134 520.058 64.3982 520.971C64.8475 521.807 65.2482 522.669 65.5982 523.551C65.8982 524.351 66.2382 525.231 66.4482 526.001L66.7982 527.211L67.0882 528.381C67.2782 529.231 67.4082 529.971 67.5482 530.741Z" fill="#EBEBEB"/>
</g>
<g opacity="0.4">
<path d="M350.018 362.871C373.528 344.611 397.178 348.161 397.178 348.161C397.178 348.161 397.288 372.081 375.828 392.711C357.718 410.121 340.528 409.131 334.598 402.291C328.668 395.451 330.178 378.271 350.018 362.871Z" fill="#EBEBEB"/>
<path d="M347.408 374.681C362.308 363.101 377.298 365.361 377.298 365.361C377.298 365.361 377.368 380.511 363.768 393.601C352.288 404.601 341.378 404.011 337.628 399.671C333.878 395.331 334.828 384.441 347.408 374.681Z" fill="white"/>
</g>
<path d="M358.198 380.931L356.418 379.511C356.297 379.415 356.195 379.295 356.12 379.16C356.044 379.024 355.996 378.875 355.979 378.72C355.961 378.566 355.974 378.41 356.017 378.261C356.06 378.112 356.132 377.972 356.228 377.851C356.325 377.73 356.445 377.63 356.581 377.555C356.717 377.481 356.867 377.434 357.021 377.417C357.175 377.4 357.331 377.414 357.48 377.458C357.629 377.501 357.767 377.574 357.888 377.671L359.668 379.091C359.789 379.187 359.889 379.306 359.963 379.442C360.038 379.577 360.085 379.725 360.101 379.879C360.118 380.032 360.104 380.187 360.061 380.335C360.018 380.483 359.945 380.621 359.848 380.741C359.753 380.862 359.634 380.964 359.499 381.039C359.365 381.114 359.216 381.162 359.063 381.18C358.909 381.197 358.754 381.184 358.606 381.142C358.457 381.099 358.319 381.027 358.198 380.931Z" fill="#EBEBEB"/>
<path d="M338.128 399.241L336.888 397.331C336.718 397.07 336.658 396.751 336.722 396.446C336.785 396.14 336.967 395.873 337.228 395.701C337.358 395.615 337.504 395.556 337.656 395.526C337.809 395.497 337.967 395.498 338.119 395.53C338.271 395.561 338.416 395.623 338.545 395.71C338.673 395.798 338.783 395.911 338.868 396.041L340.108 397.951C340.278 398.214 340.336 398.533 340.27 398.838C340.205 399.144 340.02 399.411 339.758 399.581C339.497 399.751 339.178 399.811 338.873 399.748C338.568 399.684 338.3 399.502 338.128 399.241Z" fill="#EBEBEB"/>
<path d="M349.848 377.301H348.618C348.463 377.296 348.311 377.26 348.17 377.196C348.028 377.132 347.901 377.041 347.795 376.927C347.69 376.814 347.607 376.681 347.553 376.536C347.498 376.391 347.473 376.236 347.478 376.081C347.483 375.926 347.519 375.774 347.583 375.632C347.647 375.491 347.739 375.364 347.852 375.258C347.965 375.152 348.098 375.07 348.244 375.015C348.389 374.961 348.543 374.936 348.698 374.941H349.918C350.073 374.945 350.225 374.979 350.366 375.042C350.507 375.105 350.635 375.196 350.741 375.308C350.847 375.421 350.929 375.553 350.984 375.698C351.038 375.843 351.064 375.997 351.058 376.151C351.054 376.306 351.02 376.459 350.957 376.6C350.894 376.742 350.804 376.87 350.692 376.977C350.579 377.084 350.447 377.167 350.302 377.223C350.157 377.278 350.003 377.305 349.848 377.301Z" fill="#EBEBEB"/>
<path d="M361.168 392.091V390.871C361.172 390.717 361.207 390.564 361.27 390.423C361.333 390.282 361.423 390.155 361.535 390.049C361.648 389.943 361.78 389.86 361.925 389.806C362.07 389.751 362.224 389.726 362.378 389.731C362.533 389.735 362.686 389.769 362.828 389.832C362.969 389.895 363.097 389.985 363.204 390.098C363.311 390.21 363.394 390.342 363.45 390.487C363.506 390.632 363.532 390.786 363.528 390.941V392.171C363.524 392.326 363.49 392.478 363.427 392.619C363.364 392.76 363.273 392.887 363.161 392.993C363.048 393.099 362.916 393.182 362.771 393.237C362.627 393.291 362.473 393.316 362.318 393.311C362.162 393.307 362.009 393.272 361.866 393.209C361.724 393.145 361.596 393.054 361.489 392.941C361.382 392.827 361.298 392.694 361.243 392.548C361.188 392.402 361.163 392.247 361.168 392.091Z" fill="#EBEBEB"/>
<path d="M335.098 392.451L334.958 391.241C334.924 390.936 335.008 390.629 335.195 390.385C335.381 390.141 335.655 389.978 335.958 389.931C336.271 389.897 336.584 389.989 336.83 390.186C337.075 390.382 337.233 390.668 337.268 390.981L337.398 392.191C337.435 392.496 337.351 392.802 337.164 393.046C336.977 393.289 336.702 393.449 336.398 393.491C336.244 393.509 336.089 393.496 335.94 393.454C335.791 393.411 335.652 393.339 335.531 393.243C335.41 393.146 335.31 393.026 335.235 392.89C335.161 392.754 335.114 392.605 335.098 392.451Z" fill="#EBEBEB"/>
<path d="M354.948 403.111L353.808 403.561C353.664 403.618 353.51 403.645 353.354 403.642C353.199 403.639 353.046 403.606 352.904 403.543C352.762 403.481 352.634 403.391 352.526 403.28C352.419 403.168 352.334 403.036 352.278 402.891C352.222 402.747 352.194 402.592 352.197 402.437C352.2 402.282 352.234 402.129 352.296 401.987C352.358 401.845 352.448 401.717 352.56 401.609C352.672 401.502 352.804 401.417 352.948 401.361L354.088 400.921C354.379 400.806 354.703 400.811 354.99 400.935C355.276 401.059 355.502 401.291 355.618 401.581C355.676 401.725 355.705 401.88 355.702 402.035C355.7 402.191 355.667 402.344 355.604 402.487C355.542 402.629 355.452 402.758 355.339 402.865C355.226 402.972 355.094 403.056 354.948 403.111Z" fill="#EBEBEB"/>
<path d="M350.85 403.223C358.32 402.389 363.7 395.658 362.866 388.187C362.032 380.717 355.3 375.338 347.83 376.172C340.36 377.005 334.98 383.737 335.814 391.207C336.648 398.678 343.38 404.057 350.85 403.223Z" fill="#EBEBEB"/>
<path d="M343.508 382.251C343.544 382.906 343.793 383.531 344.218 384.031C344.641 384.55 345.198 384.944 345.828 385.171C346.478 385.409 347.194 385.387 347.828 385.111C348.431 384.845 348.92 384.373 349.208 383.781C348.768 384.192 348.242 384.499 347.668 384.681C347.399 384.76 347.118 384.79 346.838 384.771C346.558 384.762 346.281 384.708 346.018 384.611L345.618 384.451C345.488 384.381 345.358 384.321 345.238 384.241C344.991 384.091 344.76 383.917 344.548 383.721C344.106 383.306 343.753 382.806 343.508 382.251Z" fill="#C7C7C7"/>
<path d="M348.458 382.491C348.465 382.031 348.313 381.582 348.028 381.221C347.74 380.85 347.351 380.568 346.908 380.411C346.465 380.242 345.972 380.251 345.536 380.438C345.099 380.624 344.752 380.973 344.568 381.411C344.888 381.16 345.255 380.976 345.648 380.871C346 380.785 346.369 380.806 346.708 380.931C347.467 381.213 348.092 381.77 348.458 382.491Z" fill="#C7C7C7"/>
<path d="M354.088 391.261C353.965 391.693 354.004 392.156 354.198 392.561C354.385 392.981 354.7 393.331 355.098 393.561C355.3 393.688 355.526 393.772 355.761 393.808C355.997 393.844 356.238 393.832 356.468 393.771C356.906 393.663 357.287 393.396 357.538 393.021C357.179 393.187 356.793 393.288 356.398 393.321C356.046 393.331 355.698 393.237 355.398 393.051C355.082 392.869 354.806 392.624 354.588 392.331C354.357 392.008 354.187 391.645 354.088 391.261Z" fill="#C7C7C7"/>
<path d="M357.058 392.481C357.12 392.337 357.152 392.182 357.152 392.026C357.152 391.87 357.12 391.715 357.058 391.571C356.934 391.265 356.713 391.008 356.428 390.841C356.28 390.75 356.115 390.691 355.943 390.666C355.771 390.642 355.595 390.654 355.428 390.701C355.276 390.746 355.135 390.822 355.013 390.923C354.89 391.024 354.79 391.15 354.718 391.291C354.973 391.208 355.24 391.164 355.508 391.161C355.724 391.172 355.934 391.238 356.118 391.351C356.546 391.615 356.876 392.012 357.058 392.481Z" fill="#C7C7C7"/>
<path d="M358.598 387.711C358.491 387.835 358.41 387.98 358.36 388.136C358.311 388.293 358.293 388.458 358.308 388.621C358.324 388.798 358.376 388.97 358.46 389.126C358.545 389.282 358.66 389.42 358.798 389.531C358.937 389.642 359.099 389.72 359.272 389.759C359.445 389.799 359.625 389.8 359.798 389.761C360.115 389.692 360.397 389.515 360.598 389.261C360.319 389.285 360.038 389.285 359.758 389.261C359.531 389.257 359.313 389.176 359.138 389.031C358.959 388.885 358.822 388.696 358.738 388.481C358.65 388.234 358.603 387.974 358.598 387.711Z" fill="#C7C7C7"/>
<path d="M360.418 388.831C360.511 388.756 360.585 388.66 360.632 388.55C360.679 388.44 360.698 388.32 360.688 388.201C360.683 388.069 360.65 387.94 360.589 387.822C360.529 387.704 360.443 387.602 360.338 387.521C360.234 387.434 360.111 387.375 359.978 387.347C359.846 387.319 359.708 387.324 359.578 387.361C359.464 387.39 359.358 387.443 359.265 387.515C359.172 387.587 359.095 387.678 359.038 387.781C359.232 387.785 359.426 387.801 359.618 387.831C359.746 387.851 359.866 387.902 359.968 387.981C360.078 388.069 360.17 388.178 360.238 388.301C360.321 388.469 360.381 388.647 360.418 388.831Z" fill="#C7C7C7"/>
<path d="M339.608 385.781C339.611 385.946 339.646 386.11 339.714 386.261C339.781 386.412 339.877 386.548 339.998 386.661C340.132 386.785 340.289 386.881 340.461 386.941C340.634 387.001 340.816 387.025 340.998 387.011C341.18 387.003 341.358 386.953 341.518 386.864C341.678 386.776 341.815 386.651 341.918 386.501C342.105 386.236 342.196 385.915 342.178 385.591C341.996 385.805 341.795 386.003 341.578 386.181C341.402 386.319 341.19 386.402 340.968 386.421C340.736 386.433 340.506 386.385 340.298 386.281C340.043 386.153 339.81 385.984 339.608 385.781Z" fill="#C7C7C7"/>
<path d="M341.718 385.391C341.734 385.273 341.723 385.153 341.685 385.04C341.646 384.927 341.583 384.825 341.498 384.741C341.406 384.647 341.296 384.573 341.173 384.525C341.051 384.477 340.92 384.455 340.788 384.461C340.662 384.468 340.539 384.503 340.427 384.562C340.316 384.622 340.219 384.705 340.142 384.806C340.066 384.906 340.013 385.023 339.986 385.146C339.96 385.27 339.96 385.398 339.988 385.521C340.168 385.381 340.308 385.261 340.448 385.171C340.562 385.105 340.688 385.065 340.818 385.051C340.958 385.045 341.098 385.069 341.228 385.121C341.403 385.188 341.568 385.279 341.718 385.391Z" fill="#C7C7C7"/>
<path d="M348.228 394.121C347.717 394.421 347.129 394.563 346.537 394.529C345.945 394.495 345.377 394.286 344.904 393.93C344.43 393.573 344.073 393.084 343.878 392.525C343.682 391.965 343.656 391.36 343.804 390.786C343.952 390.212 344.266 389.695 344.707 389.3C345.149 388.904 345.697 388.648 346.284 388.564C346.871 388.48 347.469 388.572 348.004 388.828C348.538 389.083 348.985 389.492 349.288 390.001C349.49 390.341 349.623 390.717 349.679 391.109C349.735 391.5 349.713 391.899 349.615 392.281C349.516 392.664 349.343 393.024 349.105 393.34C348.867 393.655 348.569 393.921 348.228 394.121Z" fill="#DBDBDB"/>
<path d="M345.138 390.271C344.769 390.489 344.456 390.791 344.225 391.152C343.994 391.513 343.851 391.924 343.808 392.351C343.672 391.866 343.66 391.355 343.774 390.865C343.887 390.374 344.122 389.92 344.457 389.545C344.792 389.169 345.216 388.883 345.69 388.714C346.164 388.545 346.673 388.498 347.17 388.578C347.667 388.657 348.136 388.861 348.534 389.169C348.932 389.477 349.246 389.881 349.447 390.342C349.648 390.804 349.73 391.308 349.684 391.81C349.639 392.311 349.469 392.793 349.188 393.211C349.294 392.699 349.251 392.167 349.064 391.679C348.877 391.191 348.553 390.767 348.132 390.457C347.71 390.148 347.209 389.965 346.687 389.932C346.165 389.899 345.645 390.017 345.188 390.271H345.138Z" fill="#C7C7C7"/>
<path d="M342.668 392.491C342.745 393.287 343.062 394.04 343.578 394.651C344.111 395.277 344.802 395.75 345.578 396.021C346.362 396.331 347.234 396.331 348.018 396.021C348.734 395.676 349.315 395.103 349.668 394.391C349.145 394.924 348.5 395.322 347.788 395.551C347.618 395.605 347.445 395.645 347.268 395.671C347.092 395.691 346.914 395.691 346.738 395.671C346.396 395.66 346.058 395.593 345.738 395.471L345.238 395.271C345.078 395.181 344.918 395.111 344.768 395.011C344.455 394.823 344.164 394.601 343.898 394.351C343.37 393.818 342.952 393.186 342.668 392.491Z" fill="#C7C7C7"/>
<path d="M339.478 393.991C339.339 394.04 339.191 394.062 339.044 394.054C338.896 394.046 338.752 394.009 338.619 393.946C338.485 393.882 338.366 393.793 338.267 393.683C338.169 393.573 338.092 393.445 338.043 393.306C337.994 393.167 337.973 393.019 337.98 392.872C337.988 392.724 338.025 392.58 338.088 392.447C338.152 392.313 338.241 392.194 338.351 392.095C338.461 391.996 338.589 391.92 338.728 391.871C339.009 391.778 339.316 391.797 339.583 391.926C339.85 392.055 340.056 392.283 340.158 392.561C340.257 392.841 340.242 393.149 340.114 393.417C339.987 393.685 339.758 393.891 339.478 393.991Z" fill="#DBDBDB"/>
<path d="M338.668 392.391C338.517 392.444 338.381 392.533 338.272 392.649C338.162 392.766 338.082 392.907 338.038 393.061C338.013 392.813 338.073 392.563 338.207 392.353C338.341 392.142 338.542 391.983 338.778 391.901C339.059 391.808 339.366 391.827 339.633 391.956C339.9 392.085 340.106 392.313 340.208 392.591C340.279 392.792 340.291 393.008 340.243 393.215C340.195 393.422 340.09 393.612 339.938 393.761C340.033 393.523 340.033 393.259 339.938 393.021C339.896 392.896 339.83 392.781 339.744 392.681C339.657 392.582 339.552 392.501 339.434 392.442C339.316 392.384 339.188 392.349 339.056 392.34C338.925 392.331 338.793 392.349 338.668 392.391Z" fill="#C7C7C7"/>
<path d="M337.538 393.001C337.493 393.3 337.546 393.605 337.688 393.871C337.839 394.144 338.06 394.372 338.328 394.531C338.604 394.699 338.934 394.753 339.248 394.681C339.546 394.612 339.808 394.438 339.988 394.191C339.749 394.331 339.483 394.419 339.208 394.451C338.952 394.468 338.697 394.405 338.478 394.271C338.243 394.134 338.039 393.951 337.877 393.733C337.716 393.514 337.6 393.265 337.538 393.001Z" fill="#C7C7C7"/>
<path d="M347.958 400.391C347.646 400.444 347.325 400.403 347.036 400.274C346.747 400.145 346.503 399.932 346.334 399.664C346.166 399.396 346.081 399.084 346.091 398.767C346.1 398.45 346.203 398.144 346.386 397.886C346.57 397.628 346.826 397.43 347.122 397.318C347.418 397.205 347.741 397.183 348.05 397.255C348.358 397.326 348.639 397.487 348.856 397.718C349.073 397.949 349.216 398.239 349.268 398.551C349.304 398.758 349.298 398.97 349.252 399.175C349.205 399.379 349.118 399.573 348.997 399.744C348.875 399.915 348.72 400.06 348.542 400.171C348.364 400.282 348.165 400.357 347.958 400.391Z" fill="#DBDBDB"/>
<path d="M347.158 397.881C346.934 397.919 346.722 398.009 346.539 398.145C346.357 398.281 346.209 398.457 346.108 398.661C346.133 398.269 346.302 397.9 346.583 397.625C346.864 397.35 347.237 397.189 347.63 397.173C348.022 397.157 348.407 397.287 348.71 397.537C349.012 397.788 349.211 398.142 349.268 398.531C349.318 398.83 349.282 399.137 349.166 399.416C349.049 399.696 348.856 399.936 348.608 400.111C348.797 399.814 348.875 399.46 348.828 399.111C348.801 398.92 348.737 398.736 348.638 398.57C348.539 398.404 348.408 398.259 348.252 398.145C348.096 398.03 347.92 397.948 347.732 397.902C347.544 397.857 347.349 397.85 347.158 397.881Z" fill="#C7C7C7"/>
<path d="M345.498 398.501C345.389 398.91 345.407 399.342 345.548 399.741C345.685 400.149 345.931 400.512 346.258 400.791C346.595 401.079 347.025 401.236 347.468 401.231C347.896 401.213 348.304 401.051 348.628 400.771C348.269 400.939 347.874 401.018 347.478 401.001C347.108 400.966 346.758 400.816 346.478 400.571C346.182 400.321 345.944 400.011 345.778 399.661C345.604 399.298 345.509 398.903 345.498 398.501Z" fill="#C7C7C7"/>
<path d="M353.318 384.251C353.614 384.715 354.044 385.077 354.551 385.29C355.058 385.503 355.618 385.557 356.156 385.445C356.695 385.332 357.186 385.059 357.565 384.66C357.944 384.262 358.193 383.758 358.279 383.214C358.365 382.671 358.283 382.115 358.045 381.619C357.807 381.123 357.424 380.712 356.946 380.439C356.468 380.166 355.919 380.045 355.371 380.092C354.823 380.139 354.302 380.351 353.878 380.701C353.335 381.099 352.971 381.696 352.866 382.361C352.762 383.026 352.924 383.705 353.318 384.251Z" fill="#DBDBDB"/>
<path d="M357.038 381.911C357.26 382.188 357.408 382.517 357.467 382.867C357.527 383.217 357.496 383.576 357.378 383.911C357.74 383.484 357.946 382.946 357.962 382.387C357.979 381.827 357.804 381.279 357.468 380.831C357.005 380.344 356.369 380.058 355.698 380.036C355.026 380.013 354.373 380.256 353.878 380.711C353.493 381.015 353.198 381.416 353.022 381.874C352.846 382.331 352.796 382.828 352.878 383.311C353 382.721 353.321 382.192 353.788 381.811C354.234 381.396 354.825 381.174 355.434 381.192C356.042 381.211 356.619 381.469 357.038 381.911Z" fill="#C7C7C7"/>
<path d="M352.238 382.541C351.933 383.164 351.886 383.883 352.108 384.541C352.224 384.877 352.412 385.184 352.658 385.441C352.894 385.71 353.184 385.925 353.511 386.072C353.837 386.219 354.191 386.293 354.548 386.291C354.887 386.298 355.225 386.251 355.548 386.151C356.186 385.957 356.769 385.615 357.248 385.151C356.669 385.392 356.065 385.569 355.448 385.681C354.873 385.783 354.282 385.725 353.738 385.511C353.482 385.387 353.246 385.226 353.038 385.031C352.821 384.841 352.644 384.61 352.518 384.351C352.264 383.784 352.167 383.159 352.238 382.541Z" fill="#C7C7C7"/>
</g>
</svg>
