<svg width="174" height="133" viewBox="0 0 174 133" fill="none" xmlns="http://www.w3.org/2000/svg">
<path d="M83.0177 73.6644C93.7512 73.5588 99.2095 63.5531 88.5099 62.6945C85.6591 62.4724 82.6849 62.9043 79.9822 61.9664C74.1202 59.9178 71.7754 52.3404 66.0615 49.9339C61.7791 48.1197 56.855 49.7364 52.7084 51.822C48.5618 53.9077 44.4646 56.5363 39.8244 56.8325C35.8012 57.0917 31.4201 55.5984 27.9029 57.5606C25.2742 59.0292 23.8921 62.0528 21.4732 63.8422C19.0544 65.6317 16.0185 65.9526 13.0689 66.113C10.1194 66.2734 7.09587 66.3105 4.4302 67.5322C-0.223053 69.665 3.7845 74.444 8.90299 74.3936L83.0177 73.6644Z" fill="#C6C6C9"/>
<path d="M152.306 131.321C164.623 131.194 170.88 119.663 158.595 118.76C155.3 118.488 151.894 118.994 148.722 117.908C141.984 115.564 139.293 106.801 132.679 104.074C127.742 102.001 122.102 103.852 117.326 106.246C112.55 108.64 107.848 111.664 102.517 112.009C97.8767 112.306 92.8539 110.59 88.7937 112.849C85.7825 114.539 84.2028 118.019 81.3891 120.068C78.5753 122.117 75.1074 122.536 71.7383 122.684C68.3692 122.832 64.852 122.907 61.7791 124.313C56.4434 126.756 61.0721 132.255 66.9401 132.195L152.306 131.321Z" fill="#C6C6C9"/>
<path d="M146.057 19.8357C154.741 19.7497 159.155 11.6656 150.499 10.9608C148.191 10.7757 145.785 11.1336 143.601 10.3684C138.849 8.71471 136.961 2.58121 132.333 0.631317C128.865 -0.824928 124.929 0.470881 121.535 2.16161C118.141 3.85233 114.858 5.97499 111.107 6.20947C107.849 6.41927 104.307 5.20985 101.456 6.80185C99.3332 8.03596 98.2225 10.5042 96.2602 11.8864C94.2346 13.1377 91.8901 13.7763 89.5097 13.7252C87.1224 13.6731 84.746 14.0622 82.5 14.8729C78.7541 16.5853 81.993 20.4707 86.1116 20.4299L146.057 19.8357Z" fill="#C6C6C9"/>
</svg>
