<svg width="93" height="26" viewBox="0 0 93 26" fill="none" xmlns="http://www.w3.org/2000/svg">
<path d="M81.0611 24.6644C91.7945 24.5588 97.2528 14.5531 86.5532 13.6945V13.6945C83.7024 13.4724 80.7282 13.9043 78.0255 12.9664C72.1635 10.9178 69.8187 3.34036 64.1048 0.933858C59.8225 -0.880279 54.8984 0.736399 50.7518 2.82204C46.6052 4.90768 42.5079 7.53633 37.8677 7.83252C33.8445 8.09168 29.4634 6.59841 25.9462 8.56064C23.3176 10.0292 21.9354 13.0528 19.5165 14.8422C17.0977 16.6317 14.0618 16.9526 11.1123 17.113C8.16277 17.2734 5.13921 17.3105 2.47354 18.5322V18.5322C-2.17972 20.665 1.82784 25.444 6.94632 25.3936L81.0611 24.6644Z" fill="#C6C6C9"/>
</svg>
