<svg width="423" height="92" viewBox="0 0 423 92" fill="none" xmlns="http://www.w3.org/2000/svg">
<path d="M414.783 70.3356C407.829 65.671 400.583 60.9461 394.069 55.6841C382.842 46.6141 367.491 42.6837 353.068 44.514C341.764 45.9486 324.647 38.2467 318.161 28.8784C312.629 20.8895 304.876 14.6983 295.861 11.0716C286.846 7.44489 276.966 6.54192 267.443 8.47447C259.817 10.022 234.558 2.71866 227.039 0.713525C225.651 0.343343 224.236 0.111971 222.823 0.0388171C211.617 -0.541213 201.238 5.48122 191.625 11.2692C182.011 17.0571 171.57 23.0179 160.365 22.2651C148.233 21.4506 138.151 12.9846 126.822 8.60352C114.056 3.66863 99.7297 5.03402 87.3836 10.7818C64.8449 21.2748 33.7365 37.8421 11.4159 48.7915C-11.6345 60.099 4.45251 86.3907 30.1252 86.6902L409.914 91.1211C419.844 91.237 427.003 81.4714 419.916 74.5156C418.331 72.9601 416.612 71.5622 414.783 70.3356Z" fill="#C6C6C9"/>
</svg>
