<svg width="236" height="236" viewBox="0 0 236 236" fill="none" xmlns="http://www.w3.org/2000/svg">
<path d="M19.9279 182.914L44.4435 182.801L68.9639 182.758L118 182.678L167.036 182.758L191.557 182.801L216.072 182.914L191.557 183.032L167.036 183.075L118 183.15L68.9639 183.07L44.4435 183.032L19.9279 182.914Z" fill="#263238"/>
<path d="M177.104 195.531V31.0246C177.104 27.6644 174.38 24.9405 171.02 24.9405L64.9849 24.9405C61.6248 24.9405 58.9009 27.6644 58.9009 31.0246L58.9009 195.531C58.9009 198.891 61.6248 201.615 64.9849 201.615H171.02C174.38 201.615 177.104 198.891 177.104 195.531Z" fill="#263238"/>
<path d="M172.115 37.3069H64.0221V189.357H172.115V37.3069Z" fill="white"/>
<path d="M130.857 32.4453V31.7892C130.857 31.4634 130.593 31.1992 130.267 31.1992H105.723C105.397 31.1992 105.133 31.4634 105.133 31.7892V32.4453C105.133 32.7711 105.397 33.0353 105.723 33.0353H130.267C130.593 33.0353 130.857 32.7711 130.857 32.4453Z" fill="#37474F"/>
<path d="M118 198.66C119.838 198.66 121.328 197.17 121.328 195.332C121.328 193.495 119.838 192.005 118 192.005C116.162 192.005 114.672 193.495 114.672 195.332C114.672 197.17 116.162 198.66 118 198.66Z" fill="#37474F"/>
<path d="M155.463 58.1882H80.679V59.2407H155.463V58.1882Z" fill="#EBEBEB"/>
<path d="M155.463 61.4544H80.679V62.507H155.463V61.4544Z" fill="#EBEBEB"/>
<path d="M155.463 160.919H80.679V161.972H155.463V160.919Z" fill="#EBEBEB"/>
<path d="M155.463 164.185H80.679V165.238H155.463V164.185Z" fill="#EBEBEB"/>
<path d="M98.8604 175.518C100.769 175.518 102.315 173.971 102.315 172.063C102.315 170.155 100.769 168.608 98.8604 168.608C96.9522 168.608 95.4054 170.155 95.4054 172.063C95.4054 173.971 96.9522 175.518 98.8604 175.518Z" fill="#8BA3E7"/>
<path d="M98.9171 174.078L96.8591 171.997L97.553 171.312L98.7518 172.53L101.253 168.613L102.07 169.136L98.9171 174.078Z" fill="white"/>
<path d="M107.512 172.035C107.514 171.787 107.559 171.541 107.644 171.308C107.732 171.07 107.865 170.852 108.036 170.666C108.218 170.46 108.443 170.296 108.695 170.186C108.947 170.076 109.22 170.022 109.495 170.029C109.826 170.023 110.152 170.108 110.439 170.274C110.695 170.423 110.903 170.642 111.038 170.906L110.448 171.336C110.401 171.229 110.335 171.132 110.254 171.048C110.183 170.976 110.102 170.914 110.014 170.864C109.927 170.82 109.835 170.787 109.74 170.765C109.648 170.746 109.555 170.737 109.462 170.737C109.284 170.732 109.109 170.773 108.952 170.855C108.81 170.929 108.686 171.034 108.588 171.161C108.491 171.291 108.418 171.436 108.371 171.591C108.264 171.913 108.264 172.26 108.371 172.582C108.424 172.741 108.505 172.888 108.612 173.016C108.716 173.14 108.843 173.242 108.985 173.318C109.131 173.393 109.293 173.432 109.457 173.432C109.552 173.43 109.647 173.417 109.74 173.394C109.837 173.374 109.931 173.339 110.018 173.29C110.108 173.238 110.191 173.175 110.264 173.101C110.341 173.018 110.404 172.922 110.448 172.818L111.085 173.186C111.022 173.337 110.929 173.474 110.811 173.587C110.693 173.703 110.558 173.8 110.41 173.875C110.11 174.037 109.774 174.121 109.433 174.121C109.16 174.123 108.89 174.062 108.645 173.941C108.412 173.825 108.204 173.665 108.031 173.469C107.86 173.275 107.724 173.051 107.63 172.809C107.54 172.561 107.5 172.298 107.512 172.035Z" fill="#8BA3E7"/>
<path d="M113.318 174.102C113.04 174.106 112.766 174.046 112.515 173.927C112.046 173.7 111.683 173.301 111.501 172.813C111.407 172.574 111.359 172.32 111.359 172.063C111.359 171.799 111.41 171.538 111.51 171.294C111.606 171.053 111.745 170.832 111.921 170.642C112.098 170.446 112.311 170.286 112.548 170.17C112.796 170.059 113.065 170.003 113.337 170.005C113.612 170 113.884 170.061 114.13 170.184C114.365 170.299 114.575 170.459 114.748 170.656C114.929 170.855 115.072 171.085 115.168 171.336C115.261 171.574 115.309 171.827 115.31 172.082C115.31 172.346 115.258 172.607 115.159 172.851C115.066 173.091 114.928 173.31 114.753 173.498C114.576 173.685 114.364 173.836 114.13 173.941C113.875 174.056 113.597 174.111 113.318 174.102ZM112.152 172.063C112.152 172.234 112.18 172.405 112.232 172.568C112.282 172.723 112.359 172.869 112.459 172.997C112.561 173.121 112.686 173.223 112.827 173.3C112.981 173.375 113.151 173.413 113.322 173.408C113.497 173.411 113.671 173.373 113.828 173.295C113.969 173.218 114.095 173.114 114.196 172.988C114.295 172.857 114.372 172.71 114.422 172.554C114.469 172.401 114.494 172.242 114.498 172.082C114.498 171.91 114.47 171.739 114.413 171.577C114.363 171.421 114.284 171.275 114.182 171.147C114.084 171.021 113.958 170.919 113.813 170.85C113.667 170.777 113.505 170.74 113.341 170.741C113.168 170.738 112.996 170.777 112.841 170.855C112.696 170.926 112.569 171.031 112.473 171.161C112.373 171.29 112.296 171.436 112.246 171.591C112.191 171.743 112.159 171.902 112.152 172.063Z" fill="#8BA3E7"/>
<path d="M116.664 171.497V174.074H115.885V170.052H116.49L118.585 172.691V170.057H119.369V174.074H118.732L116.664 171.497Z" fill="#8BA3E7"/>
<path d="M120.204 174.074V170.052H122.909V170.737H120.988V171.775H122.583V172.407H120.988V174.074H120.204Z" fill="#8BA3E7"/>
<path d="M123.456 174.074V170.052H124.24V174.074H123.456Z" fill="#8BA3E7"/>
<path d="M125.08 174.074V170.052H126.859C127.037 170.051 127.213 170.089 127.374 170.165C127.526 170.243 127.663 170.347 127.78 170.472C127.891 170.6 127.98 170.745 128.044 170.902C128.105 171.052 128.137 171.212 128.139 171.374C128.143 171.625 128.076 171.872 127.945 172.086C127.824 172.297 127.639 172.462 127.416 172.558L128.332 174.074H127.44L126.619 172.724H125.849V174.074H125.08ZM125.864 172.039H126.845C126.915 172.041 126.984 172.023 127.044 171.987C127.106 171.954 127.161 171.907 127.204 171.85C127.253 171.789 127.29 171.718 127.313 171.643C127.341 171.561 127.356 171.475 127.355 171.388C127.354 171.299 127.338 171.212 127.308 171.128C127.28 171.052 127.238 170.982 127.185 170.921C127.136 170.865 127.077 170.818 127.01 170.784C126.948 170.752 126.878 170.736 126.808 170.737H125.864V172.039Z" fill="#8BA3E7"/>
<path d="M132.122 174.074V171.412L131.089 173.394H130.664L129.625 171.412V174.074H128.856V170.052H129.696L130.886 172.341L132.084 170.052H132.92V174.074H132.122Z" fill="#8BA3E7"/>
<path d="M136.535 173.389V174.074H133.741V170.052H136.484V170.737H134.52V171.681H136.214V172.318H134.52V173.366L136.535 173.389Z" fill="#8BA3E7"/>
<path d="M137.149 174.074V170.052H138.608C138.903 170.045 139.198 170.099 139.471 170.213C139.708 170.308 139.921 170.455 140.094 170.642C140.262 170.826 140.389 171.043 140.467 171.279C140.64 171.802 140.64 172.366 140.467 172.889C140.381 173.125 140.245 173.34 140.068 173.519C139.891 173.699 139.678 173.838 139.443 173.927C139.181 174.029 138.902 174.078 138.622 174.074H137.149ZM139.802 172.058C139.805 171.877 139.778 171.697 139.721 171.525C139.675 171.37 139.596 171.227 139.49 171.105C139.388 170.986 139.261 170.893 139.117 170.831C138.955 170.767 138.782 170.735 138.608 170.737H137.928V173.389H138.608C138.784 173.391 138.96 173.356 139.122 173.285C139.266 173.222 139.393 173.127 139.495 173.007C139.598 172.882 139.675 172.737 139.721 172.582C139.778 172.413 139.805 172.236 139.802 172.058Z" fill="#8BA3E7"/>
<path d="M147.566 153.589H88.4339V103.566L117.995 84.7901L147.566 103.566V153.589Z" fill="#8BA3E7"/>
<path opacity="0.2" d="M147.566 153.589H88.4339V103.566L117.995 84.7901L147.566 103.566V153.589Z" fill="black"/>
<path d="M144.229 82.4112H91.7662V149.761H144.229V82.4112Z" fill="#EBEBEB"/>
<path d="M114.805 122.706L102.792 110.547L106.828 106.559L113.846 113.662L128.422 90.8081L133.208 93.8572L114.805 122.706Z" fill="#8BA3E7"/>
<path d="M147.566 116.112V153.589H88.4339V116.112C90.9733 117.528 93.4701 119.057 95.9859 120.53C98.5017 122.003 100.994 123.532 103.481 125.061C106.252 126.746 109.023 128.464 111.784 130.192L111.873 130.14C111.845 130.14 111.826 130.187 111.803 130.201C113.867 131.476 115.933 132.758 118 134.048C120.058 132.75 122.13 131.443 124.197 130.163C124.174 130.163 124.155 130.121 124.127 130.102C124.154 130.121 124.184 130.137 124.216 130.149C126.976 128.428 129.743 126.716 132.519 125.014C135.008 123.494 137.503 121.987 140.005 120.492C142.544 119.034 145.027 117.528 147.566 116.112Z" fill="#8BA3E7"/>
<g opacity="0.2">
<path d="M147.566 116.112C145.178 117.788 142.747 119.416 140.34 121.049C137.933 122.682 135.483 124.278 133.038 125.878C130.489 127.549 127.936 129.204 125.377 130.843L125.146 131.004L118.335 135.346L117.995 135.549L117.665 135.346L110.863 130.994L110.623 130.843C108.058 129.201 105.501 127.542 102.953 125.868C100.517 124.278 98.0863 122.663 95.6602 121.049C93.2341 119.435 90.8222 117.764 88.4339 116.112C90.9733 117.528 93.4701 119.057 95.9859 120.53C98.5017 122.003 100.994 123.532 103.481 125.061C106.252 126.746 109.023 128.464 111.784 130.192C113.861 131.472 115.933 132.758 118 134.048C120.058 132.75 122.13 131.443 124.197 130.163C126.957 128.442 129.724 126.73 132.5 125.028C134.989 123.508 137.484 122.001 139.986 120.506C142.544 119.034 145.027 117.528 147.566 116.112Z" fill="black"/>
<path d="M111.864 130.116C111.836 130.116 111.817 130.163 111.793 130.178L110.849 130.971C109.367 132.221 107.847 133.42 106.304 134.586C104.416 136.002 102.495 137.418 100.56 138.768C98.6244 140.118 96.6609 141.44 94.6596 142.719C92.6583 143.998 90.6476 145.249 88.5613 146.396C90.3549 144.824 92.2193 143.356 94.1026 141.93C95.9859 140.505 97.9211 139.098 99.8469 137.744C101.773 136.389 103.755 135.063 105.752 133.784C107.342 132.764 108.961 131.759 110.608 130.82C110.991 130.598 111.373 130.385 111.765 130.168L111.864 130.116Z" fill="black"/>
<path d="M147.424 146.396C145.338 145.249 143.313 143.998 141.326 142.719C139.339 141.44 137.352 140.109 135.417 138.768C133.482 137.428 131.556 136.021 129.673 134.586C128.139 133.42 126.619 132.226 125.146 130.98L124.202 130.178C124.178 130.178 124.16 130.135 124.131 130.116C124.159 130.136 124.189 130.151 124.221 130.163C124.613 130.385 124.995 130.598 125.377 130.82C127.025 131.764 128.634 132.764 130.234 133.784C132.231 135.063 134.185 136.394 136.13 137.744C138.074 139.094 139.99 140.491 141.874 141.93C143.757 143.37 145.631 144.824 147.424 146.396Z" fill="black"/>
</g>
<path d="M92.7008 79.2016C92.3862 76.6073 92.3862 73.9844 92.7008 71.39C93.0155 73.9844 93.0155 76.6073 92.7008 79.2016Z" fill="#263238"/>
<path d="M89.3779 80.443C88.3434 79.6448 87.3641 78.7775 86.4468 77.847C85.5152 76.9324 84.6478 75.9546 83.8508 74.9206C85.9081 76.5329 87.7638 78.3871 89.3779 80.443Z" fill="#263238"/>
<path d="M87.91 83.6668C86.6142 83.8347 85.3084 83.9135 84.0018 83.9028C82.6969 83.9173 81.3925 83.8401 80.0984 83.6715C81.3924 83.5012 82.6968 83.4224 84.0018 83.4355C85.3083 83.4231 86.6141 83.5004 87.91 83.6668Z" fill="#263238"/>
<path d="M89.1513 86.9849C87.5373 89.0406 85.6833 90.8962 83.6289 92.512C85.2394 90.4516 87.0937 88.5941 89.1513 86.9802V86.9849Z" fill="#263238"/>
<path d="M142.945 79.2016C142.781 77.9055 142.704 76.5999 142.714 75.2935C142.705 73.9883 142.785 72.6841 142.955 71.39C143.269 73.9844 143.269 76.6073 142.955 79.2016H142.945Z" fill="#263238"/>
<path d="M146.268 80.443C147.882 78.3871 149.738 76.5329 151.795 74.9206C150.998 75.9546 150.131 76.9324 149.199 77.847C148.282 78.7775 147.303 79.6448 146.268 80.443Z" fill="#263238"/>
<path d="M147.736 83.6667C149.032 83.5004 150.338 83.4231 151.644 83.4355C152.949 83.4222 154.254 83.501 155.548 83.6715C154.253 83.8402 152.949 83.9174 151.644 83.9027C150.338 83.9135 149.032 83.8347 147.736 83.6667Z" fill="#263238"/>
<path d="M146.495 86.9849C148.552 88.5973 150.406 90.4532 152.017 92.512C150.984 91.712 150.006 90.8431 149.091 89.9113C148.159 88.9965 147.292 88.0188 146.495 86.9849Z" fill="#263238"/>
<path d="M79.9049 215.761C78.8854 216.091 49.8432 215.713 48.7529 214.996C48.3328 214.732 48.1393 210.498 48.0543 205.372V205.211C48.0543 204.159 48.0213 203.069 48.0166 201.969C48.0166 201.818 48.0166 201.667 48.0166 201.497L49.4326 186.431L68.8601 186.624L66.9391 201.549V202.139L66.8211 205.226V205.547C66.8211 205.547 77.8753 210.663 78.9986 211.579C80.122 212.494 80.9197 215.44 79.9049 215.761Z" fill="#DD6A57"/>
<path d="M79.9049 215.761C78.8854 216.091 49.8432 215.713 48.7529 214.996C48.3328 214.732 48.1393 210.498 48.0543 205.372V205.211C48.0543 204.159 48.0213 203.069 48.0166 201.969C48.0166 201.818 48.0166 201.667 48.0166 201.497L66.9343 201.549V202.139L66.8163 205.226V205.547C66.8163 205.547 77.8706 210.663 78.9939 211.579C80.1173 212.494 80.9197 215.44 79.9049 215.761Z" fill="#EBEBEB"/>
<path d="M79.9899 215.831C78.9609 216.162 49.6544 215.883 48.5452 215.166C48.1204 214.897 47.9127 210.625 47.8089 205.457L66.6889 205.584C66.6889 205.584 77.8611 210.71 78.9987 211.626C80.1362 212.542 81.0141 215.496 79.9899 215.831Z" fill="#8BA3E7"/>
<path d="M79.5792 214.656C74.6704 214.486 54.8417 214.274 49.9754 214.482C49.9376 214.482 49.9376 214.51 49.9754 214.515C54.8417 214.784 74.6657 214.836 79.5792 214.736C79.6831 214.732 79.6831 214.656 79.5792 214.656Z" fill="#263238"/>
<path d="M77.1343 210.554C76.5885 210.536 76.0448 210.631 75.5372 210.832C75.0296 211.034 74.569 211.338 74.1843 211.725C73.4893 212.421 73.0873 213.357 73.0609 214.34C73.0609 214.368 73.1176 214.368 73.1223 214.34C73.2978 213.369 73.7838 212.48 74.5072 211.809C75.2307 211.137 76.1525 210.719 77.1343 210.616C77.1393 210.618 77.1447 210.619 77.1501 210.618C77.1555 210.617 77.1606 210.616 77.1651 210.613C77.1695 210.609 77.1732 210.605 77.1757 210.601C77.1783 210.596 77.1796 210.591 77.1796 210.585C77.1796 210.58 77.1783 210.574 77.1757 210.57C77.1732 210.565 77.1695 210.561 77.1651 210.558C77.1606 210.555 77.1555 210.553 77.1501 210.552C77.1447 210.552 77.1393 210.552 77.1343 210.554Z" fill="#263238"/>
<path d="M68.6052 206.094C66.637 206.047 64.3572 206.717 63.1159 208.312C63.0687 208.379 63.1583 208.445 63.215 208.412C64.9438 207.529 66.7618 206.832 68.6383 206.335C68.6667 206.327 68.6912 206.309 68.7073 206.284C68.7235 206.259 68.7302 206.229 68.7261 206.2C68.7221 206.171 68.7077 206.144 68.6855 206.124C68.6633 206.105 68.6348 206.094 68.6052 206.094Z" fill="#263238"/>
<path d="M70.1156 206.698C68.1521 206.651 65.8676 207.326 64.6263 208.921C64.5791 208.983 64.6687 209.049 64.7254 209.02C66.4535 208.135 68.2717 207.437 70.1487 206.939C70.1771 206.931 70.2016 206.913 70.2177 206.888C70.2339 206.863 70.2406 206.834 70.2365 206.804C70.2325 206.775 70.2181 206.748 70.1959 206.729C70.1737 206.709 70.1452 206.698 70.1156 206.698Z" fill="#263238"/>
<path d="M71.6308 207.302C69.6625 207.26 67.3828 207.93 66.1414 209.525C66.0942 209.587 66.1792 209.658 66.2405 209.625C67.968 208.742 69.7844 208.046 71.6591 207.548C71.6856 207.538 71.708 207.519 71.7227 207.495C71.7374 207.471 71.7437 207.442 71.7404 207.414C71.7372 207.386 71.7246 207.36 71.7048 207.339C71.6849 207.319 71.6588 207.306 71.6308 207.302Z" fill="#263238"/>
<path d="M73.16 207.911C71.1965 207.864 68.912 208.539 67.6707 210.134C67.6235 210.196 67.7132 210.262 67.7698 210.233C69.4874 209.35 71.2944 208.652 73.16 208.152C73.1879 208.146 73.2129 208.131 73.2309 208.109C73.249 208.088 73.2588 208.06 73.2588 208.032C73.2588 208.003 73.249 207.976 73.2309 207.954C73.2129 207.932 73.1879 207.917 73.16 207.911Z" fill="#263238"/>
<path d="M51.2734 209.828C49.0644 209.828 49.0408 213.24 51.2734 213.254C53.5059 213.268 53.4823 209.842 51.2734 209.828Z" fill="white"/>
<path d="M70.8 200.864C69.8135 200.029 68.5486 200.827 67.9303 201.676C66.8837 203.155 66.2455 204.884 66.08 206.689C66.08 206.727 66.1083 206.745 66.1414 206.745C66.1484 206.782 66.1642 206.817 66.1874 206.847C66.2106 206.876 66.2405 206.9 66.2747 206.916C66.3088 206.931 66.3463 206.939 66.3838 206.937C66.4214 206.935 66.458 206.925 66.4907 206.906C67.9067 205.962 69.5256 205.103 70.6018 203.748C71.2248 202.96 71.7157 201.657 70.8 200.864ZM68.3456 205.023C67.6659 205.495 66.9627 205.967 66.3019 206.472C66.6298 205.485 67.0079 204.517 67.4347 203.569C67.6496 203.113 67.894 202.671 68.1663 202.247C68.6005 201.601 70.5263 199.977 70.7198 202.12C70.8 203.3 69.1386 204.442 68.3267 205.023H68.3456Z" fill="#263238"/>
<path d="M61.1807 207.368C62.894 207.647 64.664 207.18 66.3491 206.934C66.3855 206.925 66.4192 206.907 66.4476 206.882C66.476 206.858 66.4984 206.827 66.513 206.792C66.5276 206.757 66.534 206.72 66.5318 206.682C66.5295 206.645 66.5187 206.608 66.5001 206.575C66.506 206.571 66.5108 206.564 66.5141 206.558C66.5174 206.551 66.5191 206.543 66.5191 206.535C66.5191 206.528 66.5174 206.52 66.5141 206.513C66.5108 206.506 66.506 206.5 66.5001 206.495C65.1705 205.274 63.5425 204.424 61.7801 204.031C60.7464 203.819 59.2785 204.083 59.1133 205.367C58.9481 206.58 60.1848 207.208 61.1807 207.368ZM60.0054 206.264C58.6932 204.565 61.2232 204.451 61.9784 204.636C62.4606 204.76 62.9337 204.918 63.3944 205.108C64.3667 205.495 65.2824 206.009 66.1933 206.486C65.3579 206.557 64.5366 206.698 63.7012 206.797C62.7241 206.901 60.7323 207.175 60.0054 206.264Z" fill="#263238"/>
<path opacity="0.1" d="M63.3896 215.879C56.1067 215.751 49.0786 215.51 48.5452 215.166C48.1204 214.897 47.9127 210.625 47.8089 205.457H50.4993C53.4729 207.892 59.7647 212.957 63.3896 215.879Z" fill="black"/>
<path d="M68.0624 205.32H47.1481C47.1481 205.32 51.3583 156.473 51.1931 155.618C50.9855 154.523 49.7488 149.581 48.1063 143.12C47.5918 141.1 47.0348 138.933 46.459 136.686C44.8967 130.607 43.155 123.966 41.6823 118.184C39.4356 109.528 37.6798 102.802 37.6798 102.802H55.4034C55.4034 102.802 57.4707 109.348 60.0762 117.873C64.3242 131.716 69.9882 150.776 70.5451 155.411C71.4514 162.882 68.0624 205.32 68.0624 205.32Z" fill="#37474F"/>
<path d="M67.1373 201.742C63.9419 201.676 64.8575 201.653 61.6621 201.62C60.0998 201.62 49.8291 201.516 48.3659 201.756C48.3571 201.756 48.3487 201.76 48.3425 201.766C48.3363 201.772 48.3328 201.781 48.3328 201.789C48.3328 201.798 48.3363 201.807 48.3425 201.813C48.3487 201.819 48.3571 201.822 48.3659 201.822C49.8291 202.063 60.0998 201.974 61.6621 201.959C64.8575 201.931 63.9419 201.903 67.1373 201.837C67.1498 201.837 67.1618 201.832 67.1707 201.823C67.1795 201.814 67.1845 201.802 67.1845 201.789C67.1845 201.777 67.1795 201.765 67.1707 201.756C67.1618 201.747 67.1498 201.742 67.1373 201.742Z" fill="#263238"/>
<path d="M55.1296 152.621C54.4452 149.6 53.4162 146.636 52.5242 143.653C50.7117 137.627 48.8882 131.601 47.0537 125.576C46.138 122.564 45.2192 119.553 44.2972 116.541C43.8315 115.022 43.3595 113.503 42.8812 111.987C42.4092 110.5 41.8853 109.032 41.4652 107.531C41.2953 106.922 41.2009 107.257 41.4227 108.031C41.8617 109.589 42.2959 111.151 42.7538 112.709C43.6506 115.793 44.5568 118.873 45.4725 121.951C47.285 128.077 49.1132 134.199 50.9571 140.316C51.8791 143.387 52.8026 146.455 53.7278 149.52C54.1955 150.981 54.5723 152.469 54.8558 153.976C55.1051 155.55 55.1685 157.149 55.0447 158.738C54.8417 161.938 54.4688 165.134 54.1762 168.325C53.8835 171.515 53.5814 174.725 53.2888 177.92C52.7004 184.289 52.1151 190.657 51.533 197.022C51.4622 197.829 51.3914 198.636 51.33 199.448C51.33 199.717 51.717 199.694 51.7454 199.448C52.4345 193.157 52.9631 186.836 53.5531 180.535C54.1431 174.234 54.7331 167.985 55.3184 161.712C55.4647 160.135 55.6347 158.559 55.6347 156.992C55.6308 155.521 55.4614 154.055 55.1296 152.621Z" fill="#263238"/>
<path d="M53.3927 102.792C52.1607 112.312 49.8149 130.168 48.1063 143.11C44.1084 127.44 37.6798 102.792 37.6798 102.792H53.3927Z" fill="#263238"/>
<path d="M57.7445 216.044C56.7297 216.374 27.6876 216.105 26.5925 215.392C26.1724 215.128 25.9648 210.894 25.8609 205.768V205.608C25.8373 204.555 25.8184 203.465 25.8137 202.365C25.8137 202.214 25.8137 202.063 25.8137 201.893C25.7476 194.502 26.2857 186.832 26.2857 186.832L45.2696 186.954L44.7362 201.879V202.469L44.6324 205.561V205.877C44.6324 205.877 55.6536 210.984 56.7769 211.881C57.9003 212.778 58.764 215.704 57.7445 216.044Z" fill="#DD6A57"/>
<path d="M57.7445 216.044C56.7297 216.374 27.6876 216.105 26.5925 215.392C26.1724 215.128 25.9648 210.894 25.8609 205.768V205.608C25.8373 204.555 25.8184 203.465 25.8137 202.365C25.8137 202.214 25.8137 202.063 25.8137 201.893H44.7315V202.483L44.6276 205.575V205.891C44.6276 205.891 55.6536 210.984 56.7769 211.881C57.9003 212.778 58.764 215.704 57.7445 216.044Z" fill="#EBEBEB"/>
<path d="M57.8625 215.982C56.8335 216.313 27.527 216.034 26.4178 215.317C25.993 215.048 25.7854 210.776 25.6815 205.608L44.5615 205.735C44.5615 205.735 55.7338 210.861 56.8666 211.777C57.9994 212.693 58.8867 215.647 57.8625 215.982Z" fill="#8BA3E7"/>
<path d="M57.4519 214.807C52.5383 214.637 32.7143 214.425 27.848 214.633C27.8103 214.633 27.8103 214.661 27.848 214.661C32.7096 214.935 52.5383 214.987 57.4519 214.887C57.5557 214.883 57.5557 214.807 57.4519 214.807Z" fill="#263238"/>
<path d="M55.0069 210.705C54.4611 210.687 53.9173 210.781 53.4097 210.983C52.902 211.184 52.4415 211.488 52.0569 211.876C51.3603 212.571 50.958 213.507 50.9335 214.491C50.9335 214.519 50.9902 214.519 50.9949 214.491C51.1704 213.52 51.6564 212.631 52.3798 211.96C53.1033 211.288 54.0252 210.87 55.0069 210.767C55.013 210.764 55.0183 210.76 55.022 210.755C55.0257 210.749 55.0277 210.743 55.0277 210.736C55.0277 210.73 55.0257 210.723 55.022 210.718C55.0183 210.712 55.013 210.708 55.0069 210.705Z" fill="#263238"/>
<path d="M46.4779 206.264C44.5096 206.221 42.2299 206.892 40.9885 208.487C40.9413 208.548 41.0263 208.619 41.0876 208.586C42.8164 207.703 44.6345 207.007 46.5109 206.509C46.5375 206.499 46.5598 206.48 46.5743 206.455C46.5888 206.431 46.5946 206.402 46.5908 206.374C46.587 206.345 46.5738 206.319 46.5533 206.299C46.5328 206.279 46.5063 206.267 46.4779 206.264Z" fill="#263238"/>
<path d="M47.9883 206.849C46.0248 206.802 43.7403 207.472 42.4989 209.072C42.4517 209.134 42.5414 209.2 42.598 209.171C44.3262 208.286 46.1443 207.588 48.0213 207.09C48.0497 207.082 48.0742 207.064 48.0904 207.039C48.1065 207.014 48.1132 206.985 48.1092 206.955C48.1052 206.926 48.0907 206.899 48.0685 206.88C48.0463 206.86 48.0178 206.849 47.9883 206.849Z" fill="#263238"/>
<path d="M49.5034 207.453C47.5351 207.406 45.2554 208.081 44.014 209.677C43.9621 209.738 44.0518 209.804 44.1131 209.776C45.8394 208.891 47.6561 208.194 49.5317 207.699C49.5582 207.689 49.5806 207.67 49.5953 207.646C49.6101 207.622 49.6163 207.593 49.613 207.565C49.6098 207.537 49.5972 207.511 49.5774 207.49C49.5575 207.47 49.5315 207.457 49.5034 207.453Z" fill="#263238"/>
<path d="M51.0138 208.062C49.0455 208.015 46.7658 208.685 45.5244 210.285C45.4772 210.347 45.5669 210.413 45.6236 210.385C47.3513 209.498 49.1696 208.8 51.0468 208.303C51.0752 208.295 51.0998 208.277 51.1159 208.252C51.132 208.227 51.1387 208.198 51.1347 208.168C51.1307 208.139 51.1162 208.112 51.094 208.093C51.0718 208.073 51.0433 208.062 51.0138 208.062Z" fill="#263238"/>
<path d="M29.1461 209.979C26.9371 209.979 26.9135 213.391 29.1461 213.405C31.3786 213.42 31.355 209.993 29.1461 209.979Z" fill="white"/>
<path d="M48.6538 201.015C47.6626 200.18 46.4023 200.978 45.7793 201.827C44.74 203.307 44.1084 205.034 43.9479 206.835C43.9471 206.843 43.9481 206.851 43.9509 206.859C43.9538 206.867 43.9584 206.873 43.9643 206.879C43.9703 206.884 43.9775 206.888 43.9853 206.891C43.9931 206.893 44.0013 206.893 44.0093 206.892C44.0157 206.929 44.031 206.964 44.054 206.995C44.0769 207.025 44.1067 207.049 44.141 207.065C44.1753 207.081 44.2129 207.089 44.2508 207.088C44.2887 207.086 44.3256 207.076 44.3586 207.057C45.7746 206.113 47.3935 205.254 48.4697 203.895C49.088 203.102 49.5883 201.804 48.6538 201.015ZM46.1994 205.174C45.5197 205.646 44.8164 206.118 44.1556 206.618C44.4913 205.631 44.8773 204.662 45.312 203.715C45.527 203.261 45.7714 202.821 46.0436 202.398C46.4779 201.752 48.4036 200.128 48.5971 202.266C48.6727 203.432 47.0112 204.593 46.1994 205.174Z" fill="#263238"/>
<path d="M39.0533 207.52C40.7619 207.798 42.5367 207.326 44.217 207.085C44.2526 207.076 44.2856 207.059 44.3135 207.035C44.3414 207.011 44.3635 206.981 44.3781 206.948C44.3927 206.914 44.3993 206.877 44.3976 206.841C44.3959 206.804 44.3857 206.768 44.368 206.736C44.3748 206.731 44.3804 206.725 44.3842 206.717C44.3881 206.71 44.3901 206.702 44.3901 206.694C44.3901 206.685 44.3881 206.677 44.3842 206.67C44.3804 206.662 44.3748 206.656 44.368 206.651C43.0364 205.432 41.4093 204.583 39.648 204.187C38.6143 203.98 37.1464 204.244 36.9812 205.528C36.816 206.736 38.0574 207.354 39.0533 207.52ZM37.878 206.387C36.5659 204.688 39.0958 204.579 39.851 204.763C40.3332 204.888 40.8064 205.045 41.267 205.235C42.2211 205.647 43.1537 206.107 44.0612 206.613C43.2258 206.684 42.4045 206.821 41.5738 206.925C40.592 207.052 38.6049 207.326 37.878 206.387Z" fill="#263238"/>
<path d="M54.8323 102.792C54.8323 102.792 54.4216 111.288 52.4723 117.991C52.3165 118.548 52.1466 119.09 51.9672 119.614C50.1902 120.336 48.4824 121.217 46.8649 122.248C46.8649 122.248 46.6619 129.068 46.459 136.682C46.2324 145.178 45.987 154.674 46.0436 156.69C46.223 164.242 45.0996 205.622 45.0996 205.622L24.1853 205.707C24.1853 205.707 27.9613 159.451 27.9613 156.709C27.9188 152.277 28.9714 132.679 29.7879 118.392C30.2599 109.584 30.6942 102.816 30.6942 102.816L54.8323 102.792Z" fill="#37474F"/>
<path d="M44.368 201.898C41.1726 201.846 42.0882 201.818 38.8975 201.799C37.3305 201.799 27.0598 201.742 25.6013 201.992C25.5925 201.992 25.5841 201.996 25.5779 202.002C25.5717 202.008 25.5682 202.017 25.5682 202.025C25.5682 202.034 25.5717 202.043 25.5779 202.049C25.5841 202.055 25.5925 202.058 25.6013 202.058C27.0598 202.294 37.3352 202.158 38.8975 202.139C42.093 202.091 41.1726 202.073 44.368 201.992C44.3805 201.992 44.3925 201.987 44.4014 201.979C44.4102 201.97 44.4152 201.958 44.4152 201.945C44.4152 201.933 44.4102 201.921 44.4014 201.912C44.3925 201.903 44.3805 201.898 44.368 201.898Z" fill="#263238"/>
<path d="M32.4358 105.822C32.0488 117.49 31.6429 129.158 31.119 140.816C30.595 152.475 29.8918 164.218 28.9147 175.886C28.3672 182.409 27.848 191.585 27.1447 198.07C27.1447 198.113 27.2061 198.131 27.2155 198.07C28.7354 186.497 29.5755 172.19 30.3354 160.541C31.0954 148.892 31.591 137.234 31.9874 125.576C32.214 118.968 32.3839 112.36 32.5822 105.78C32.568 105.728 32.4406 105.728 32.4358 105.822Z" fill="#263238"/>
<path d="M52.864 119.109C50.7775 119.98 48.7703 121.031 46.8649 122.248C46.8519 122.258 46.8429 122.273 46.8396 122.289C46.8362 122.305 46.8387 122.322 46.8466 122.337C46.8545 122.352 46.8672 122.363 46.8827 122.369C46.8981 122.375 46.9152 122.376 46.931 122.371C48.9464 121.389 51.0043 120.445 52.9679 119.355C52.9928 119.336 53.0108 119.31 53.019 119.281C53.0273 119.251 53.0252 119.219 53.0132 119.191C53.0011 119.162 52.9799 119.139 52.9528 119.124C52.9257 119.109 52.8944 119.104 52.864 119.109Z" fill="#263238"/>
<path d="M52.9631 111.916C52.8215 112.657 52.6422 113.393 52.4911 114.134C52.3401 114.875 52.2315 115.55 52.0475 116.221C51.8951 116.883 51.558 117.489 51.0751 117.967C50.8061 118.217 50.504 118.439 50.2161 118.675L49.7441 119.048C49.7441 118.949 49.7866 118.85 49.8007 118.746C49.8527 118.463 49.8999 118.184 49.9471 117.901C50.0509 117.273 50.15 116.645 50.2491 116.013C50.4379 114.776 50.6079 113.53 50.8675 112.312C50.8675 112.26 50.8014 112.242 50.7919 112.312C50.4851 113.521 50.1453 114.715 49.8763 115.937C49.7441 116.537 49.2768 119.492 49.2579 119.713C49.2391 119.935 49.2155 120.148 49.2107 120.365C49.1798 120.584 49.1798 120.806 49.2107 121.026C49.2107 121.082 49.2863 121.073 49.3099 121.026C49.4017 120.821 49.4653 120.605 49.4987 120.384C49.5553 120.176 49.6025 119.959 49.6403 119.746C49.6403 119.671 49.6403 119.591 49.6733 119.51C49.9659 119.336 50.235 119.1 50.5087 118.902C50.7825 118.703 51.1035 118.481 51.3772 118.25C51.8744 117.809 52.2278 117.228 52.392 116.584C52.5718 115.888 52.6887 115.177 52.7413 114.46C52.8357 113.62 52.9018 112.775 53.0198 111.94C53.0481 111.864 52.9726 111.864 52.9631 111.916Z" fill="#263238"/>
<path d="M45.312 83.577C46.931 88.4528 54.1809 103.953 57.2253 105.039C60.3971 106.162 72.6455 107.564 75.3643 105.426C76.6953 104.373 77.1579 93.1539 75.3643 93.4371C73.5707 93.7203 62.7713 94.1121 61.4875 93.6542C60.2036 93.1964 51.6274 80.712 48.144 77.6723C42.1355 72.4567 44.4483 80.948 45.312 83.577Z" fill="#DD6A57"/>
<path d="M72.655 93.2483L72.4803 107.215C72.4803 107.215 59.9204 107.248 56.5739 105.487C53.2275 103.727 46.1475 87.589 44.3775 81.4153C42.6075 75.2415 45.4395 74.2881 49.9376 78.8193C54.4358 83.3505 61.1995 92.8471 62.0019 93.0406C62.8043 93.2342 72.655 93.2483 72.655 93.2483Z" fill="#8BA3E7"/>
<path d="M55.8943 85.7199C53.3099 86.1534 50.8075 86.9812 48.4744 88.1743L48.0496 88.3962C47.9411 88.4481 47.8372 88.5047 47.7334 88.5661C47.5257 88.6746 47.3227 88.7879 47.1198 88.9106L47.0301 88.6841L47.4596 88.4339L47.7711 88.2687C47.9647 88.1602 48.1629 88.0516 48.3611 87.9525C49.5592 87.3309 50.8083 86.8129 52.0947 86.4043C53.2853 86.0187 54.5034 85.7237 55.7385 85.5217L55.8943 85.7199ZM58.6979 89.2458C58.4753 89.3626 58.2469 89.4682 58.0135 89.562C57.4106 89.8161 56.7751 89.9845 56.1255 90.0623C55.7951 90.1001 55.4647 90.1567 55.1343 90.1756L54.1384 90.2039C52.806 90.1679 51.4913 89.8896 50.2586 89.3826C49.5175 89.0947 48.7954 88.7454 48.0732 88.3962C47.9788 88.3584 47.8891 88.3112 47.7947 88.2687C47.5682 88.1649 47.3227 88.0563 47.1103 87.9572L46.8885 87.8628L46.6808 87.7731L46.7611 87.9714C46.7611 88.028 46.8083 88.0846 46.8271 88.1413H46.8696L47.4785 88.415L47.7523 88.5472C48.5358 88.9201 49.324 89.3166 50.1453 89.6375C51.411 90.1582 52.7609 90.4445 54.129 90.4824L55.1485 90.4588C55.4883 90.4588 55.8282 90.3786 56.1633 90.3408C56.8448 90.2621 57.512 90.089 58.1457 89.8263C58.4086 89.7228 58.6654 89.6046 58.9151 89.4723L58.6979 89.2458ZM53.8647 83.2325C52.9815 83.6422 52.1226 84.1024 51.2923 84.6107C49.7301 85.572 48.2493 86.6596 46.8649 87.8628L46.7375 87.9714C46.7375 88.028 46.7847 88.0846 46.8035 88.1413V88.179C46.8035 88.179 46.8035 88.179 46.8319 88.179C46.9121 88.1082 46.9876 88.0374 47.0679 87.9761C48.4279 86.8174 49.8784 85.7694 51.4055 84.842C52.2517 84.3359 53.1229 83.8727 54.0157 83.4543L53.8647 83.2325Z" fill="white"/>
<path d="M68.997 100.144C68.997 99.0351 69.0772 94.6124 69.1764 93.5363H69.2094C69.318 94.603 69.3746 98.969 69.3699 100.078C69.4063 102.284 69.3228 104.49 69.1197 106.686C69.117 106.693 69.1122 106.7 69.1059 106.704C69.0995 106.708 69.092 106.711 69.0843 106.711C69.0766 106.711 69.0691 106.708 69.0628 106.704C69.0564 106.7 69.0516 106.693 69.0489 106.686C68.8837 104.51 68.9734 102.325 68.997 100.144Z" fill="#263238"/>
<path opacity="0.1" d="M44.368 81.4106C46.138 87.5891 53.218 103.722 56.5645 105.483C58.1693 106.327 61.8887 106.762 65.3295 106.979L45.6188 75.992C43.9338 75.8127 43.2966 77.6393 44.368 81.4106Z" fill="black"/>
<path d="M28.4994 115.39C28.5749 115.465 59.2171 113.37 59.472 113.03C59.8307 112.558 50.1311 81.4058 47.7003 76.851C46.6666 74.9017 41.7106 74.6185 39.7519 76.464C34.8478 81.0754 31.4352 95.9859 30.7178 100.456C29.5283 107.828 28.2256 115.121 28.4994 115.39Z" fill="#8BA3E7"/>
<path d="M57.8342 106.832L56.9752 106.327C55.8173 105.653 54.6246 105.04 53.4021 104.491L52.7319 104.199L52.4062 104.067C51.5035 103.694 50.5781 103.378 49.6356 103.123C48.3474 102.763 47.0275 102.529 45.6944 102.424C43.019 102.308 40.342 102.611 37.76 103.321L37.288 103.453C37.17 103.481 37.0568 103.514 36.9435 103.552C35.1444 104.102 33.3963 104.806 31.7184 105.657C31.2464 105.879 30.7744 106.129 30.3402 106.36L30.1986 106.436L29.6794 106.714L29.7219 106.474L30.2552 106.2C30.7839 105.912 31.3172 105.634 31.8553 105.374C32.299 105.147 32.7521 104.935 33.2052 104.732C34.345 104.209 35.5144 103.754 36.7075 103.368L37.052 103.269C37.2644 103.198 37.4768 103.137 37.694 103.08C38.9943 102.714 40.3241 102.463 41.6682 102.33C43.0098 102.184 44.3612 102.149 45.7085 102.226C48.0783 102.428 50.4002 103.01 52.5856 103.949L52.9065 104.09L53.4682 104.34C54.6925 104.904 55.8853 105.535 57.0412 106.228L57.7776 106.663L57.8342 106.832ZM56.2483 101.64C55.4648 102.112 54.7001 102.584 53.9402 103.085C53.4682 103.377 53.0387 103.675 52.5856 103.963L52.4062 104.081C51.7879 104.477 51.1601 104.86 50.5182 105.218C49.369 105.89 48.1173 106.368 46.813 106.634C46.1616 106.759 45.4959 106.793 44.8353 106.733C44.5049 106.7 44.1698 106.691 43.8441 106.644L42.8624 106.469C41.566 106.159 40.3364 105.617 39.2327 104.869C38.5672 104.435 37.9347 103.925 37.2928 103.453L37.0473 103.269C36.8491 103.118 36.6461 102.967 36.4432 102.825L36.2496 102.684L35.9664 102.49C34.8421 101.69 33.5083 101.235 32.1291 101.183C31.5849 101.193 31.0473 101.303 30.5432 101.508L30.5007 101.763C31.0157 101.549 31.5666 101.433 32.1244 101.423C33.4534 101.487 34.7348 101.938 35.8107 102.721L35.9759 102.835L36.1694 102.972C36.3488 103.099 36.5281 103.231 36.7028 103.368L36.9482 103.552C37.642 104.081 38.3312 104.628 39.0722 105.11C40.2024 105.878 41.4626 106.434 42.7916 106.752L43.8016 106.936C44.1368 106.984 44.4766 106.998 44.8164 107.031C45.5006 107.09 46.1896 107.056 46.8649 106.932C48.1959 106.656 49.472 106.162 50.6409 105.468C51.3442 105.072 52.0286 104.642 52.7036 104.199L52.8782 104.09L54.0676 103.311C54.804 102.839 55.5497 102.367 56.3049 101.895L56.2483 101.64ZM55.7291 99.9696C54.9093 99.7047 54.0758 99.4841 53.2322 99.3088C51.9043 99.0403 50.5512 98.9168 49.1966 98.9406C47.8417 98.9661 46.4915 99.1082 45.161 99.3654C43.8313 99.6162 42.5231 99.9697 41.2481 100.423C39.5238 101.042 37.8535 101.803 36.2544 102.698C36.16 102.745 36.0703 102.797 35.9806 102.849C35.3104 103.222 34.6543 103.609 34.0029 104.01C33.2808 104.454 32.5633 104.911 31.8553 105.374C31.3031 105.728 30.7556 106.091 30.208 106.45L29.6794 106.795C29.6794 106.87 29.6558 106.941 29.6464 107.012C30.3449 106.568 31.034 106.115 31.7279 105.671C32.1999 105.355 32.7096 105.039 33.2052 104.727C33.5026 104.539 33.8 104.354 34.102 104.175C34.7817 103.764 35.4756 103.363 36.1741 102.981L36.4479 102.835C38.0146 101.977 39.6484 101.248 41.3331 100.654C43.8618 99.7534 46.514 99.2472 49.1966 99.153C50.5376 99.1221 51.8779 99.236 53.1944 99.4929C54.0735 99.67 54.9418 99.8969 55.7952 100.173C55.7716 100.092 55.748 100.022 55.7291 99.9554V99.9696Z" fill="white"/>
<path d="M35.636 80.004C27.5034 88.972 18.3325 104.128 22.2548 107.38C25.842 110.335 38.9258 107.522 47.1528 104.307C48.7198 103.694 42.3667 89.8452 40.7714 90.6665C39.0916 91.5607 37.3576 92.3489 35.5794 93.0265C35.1074 93.1492 37.5995 90.1284 40.356 82.869C43.1408 75.4539 40.2852 74.8733 35.636 80.004Z" fill="#DD6A57"/>
<path d="M60.7606 89.6186C60.7606 91.2282 56.8005 90.9119 56.8005 90.9119C57.3777 91.2878 57.8052 91.8539 58.0088 92.512C58.3062 93.6967 56.5928 94.6879 56.5928 94.6879C57.1072 95.2041 57.457 95.8611 57.5982 96.5759C57.7681 97.737 56.1822 98.9878 56.1822 98.9878C56.392 99.7295 56.3283 100.522 56.0028 101.22C55.0588 103.056 51.887 103.108 49.9282 103.505C47.7333 104.012 45.5834 104.697 43.4996 105.553L39.8557 91.0866C39.8557 91.0866 48.3517 86.0409 50.7117 86.1542C52.7036 86.291 60.7512 87.1548 60.7606 89.6186Z" fill="#DD6A57"/>
<path d="M56.7675 90.8647C54.6623 90.2511 52.4156 90.1473 50.2491 90.067C50.2019 90.067 50.1972 90.1378 50.2491 90.1425C52.4109 90.1945 54.6057 90.8269 56.7533 90.9685C56.7671 90.9704 56.781 90.9667 56.7921 90.9583C56.8031 90.9499 56.8104 90.9375 56.8123 90.9237C56.8142 90.9099 56.8105 90.896 56.8021 90.8849C56.7937 90.8738 56.7812 90.8666 56.7675 90.8647Z" fill="#263238"/>
<path d="M56.522 94.5416C56.0306 94.4491 55.529 94.4221 55.0305 94.4613C54.5019 94.4613 53.9732 94.4849 53.4446 94.5085C52.3842 94.5557 51.3269 94.6313 50.2728 94.7351C50.2256 94.7351 50.2208 94.8106 50.2728 94.8106C51.33 94.7634 52.3873 94.7304 53.4399 94.7257H55.0258C55.5247 94.7667 56.0267 94.7508 56.522 94.6785C56.5351 94.6724 56.5461 94.6627 56.5538 94.6506C56.5615 94.6385 56.5656 94.6244 56.5656 94.61C56.5656 94.5957 56.5615 94.5816 56.5538 94.5695C56.5461 94.5573 56.5351 94.5477 56.522 94.5416Z" fill="#263238"/>
<path d="M56.1067 99.0303C55.6616 98.9524 55.2065 98.9524 54.7615 99.0303L53.336 99.12C52.392 99.1719 51.4055 99.2286 50.4379 99.2474C50.4279 99.2474 50.4183 99.2514 50.4112 99.2585C50.4042 99.2656 50.4002 99.2752 50.4002 99.2852C50.4002 99.2952 50.4042 99.3048 50.4112 99.3119C50.4183 99.319 50.4279 99.323 50.4379 99.323C51.4197 99.323 52.4015 99.323 53.3832 99.2805L54.8275 99.238C55.2676 99.2647 55.7089 99.2119 56.1303 99.0822C56.1371 99.0791 56.1425 99.0734 56.1452 99.0663C56.1478 99.0592 56.1475 99.0514 56.1444 99.0445C56.1413 99.0376 56.1356 99.0322 56.1285 99.0296C56.1214 99.0269 56.1135 99.0272 56.1067 99.0303Z" fill="#263238"/>
<path d="M39.4451 90.9685L42.5791 106.545C42.5791 106.545 23.0997 111.628 21.0795 106.7C19.0594 101.773 30.5195 83.4732 37.1275 78.2528C43.7355 73.0325 41.2528 81.2548 41.0499 81.9156C40.1578 84.8372 36.0042 92.4553 36.0042 92.4553L39.4451 90.9685Z" fill="#8BA3E7"/>
<path d="M42.5792 106.526C42.5792 106.526 23.0997 111.609 21.0796 106.681C19.994 104.029 22.8071 97.5105 26.6633 91.2376L26.7247 91.1385L26.8049 91.011C26.8285 90.9685 26.8568 90.9261 26.8852 90.8836C28.2778 88.6388 29.7839 86.4663 31.3975 84.3747L31.5627 84.1623C33.188 81.9855 35.0514 79.9971 37.1181 78.234C43.7261 73.0137 41.2434 81.2359 41.0404 81.8967C40.9791 82.1044 40.8988 82.3357 40.8044 82.5858C40.7667 82.6802 40.7289 82.7841 40.6864 82.8879C40.1436 84.2756 39.2704 86.1447 38.3878 87.8628L38.284 88.0705C38.284 88.0705 38.284 88.1177 38.2509 88.1365L38.1943 88.2451C37.0756 90.4493 36.0608 92.3185 35.9995 92.4317L39.4451 90.9685L42.5792 106.526Z" fill="#8BA3E7"/>
<path d="M38.3878 87.8628L38.284 88.0705C38.284 88.0705 38.284 88.1177 38.2509 88.1365L38.0149 88.2876L36.0939 89.5384C34.9664 90.2808 33.7883 90.9433 32.5681 91.5208C31.9503 91.8056 31.3029 92.0209 30.6376 92.1627C29.9641 92.3196 29.2614 92.2984 28.5985 92.1013C28.4333 92.0541 28.2634 92.0164 28.1265 91.9645L27.6545 91.7615C27.3408 91.6276 27.0378 91.4698 26.7483 91.2895L26.6775 91.247L26.7389 91.1479L26.8191 91.0205C26.8403 91.0407 26.8641 91.0582 26.8899 91.0724L26.956 91.1101C27.2104 91.2778 27.4789 91.4231 27.7584 91.5444L28.2304 91.7426L28.7024 91.8795C29.3303 92.0709 29.9973 92.0953 30.6376 91.9503C31.2874 91.8153 31.9205 91.6095 32.5256 91.3367C33.7375 90.7727 34.9092 90.1261 36.0325 89.4015L37.5665 88.4197L37.9677 88.1601L38.3878 87.8628ZM37.9158 88.1507C35.4945 88.7407 33.1203 89.4912 30.7037 90.0812C29.4387 90.3974 28.1548 90.6759 26.8663 90.8836C26.838 90.9261 26.8097 90.9685 26.7861 91.011L26.7058 91.1385L26.9229 91.1007C28.2115 90.8836 29.4906 90.5957 30.7556 90.2747C33.0259 89.7036 35.2537 88.9956 37.5146 88.4103L37.9866 88.2876C38.0433 88.2876 38.1046 88.2545 38.166 88.2451L38.2226 88.1365C38.2226 88.1365 38.2226 88.0941 38.2557 88.0705L37.9158 88.1507ZM38.0716 84.2284C37.4841 84.545 36.8697 84.8088 36.2355 85.0166C35.6137 85.2286 34.9553 85.3121 34.3003 85.2621C33.3064 85.1223 32.3609 84.7451 31.5438 84.1623L31.3786 84.3747C32.2381 84.9783 33.2307 85.3653 34.272 85.5028C34.9617 85.5527 35.6543 85.4595 36.3063 85.229C36.9599 85.0167 37.592 84.7433 38.1943 84.4125C39.052 83.9471 39.8854 83.4382 40.6912 82.8879C40.7337 82.7841 40.7714 82.6802 40.8092 82.5858C39.9321 83.1802 39.0246 83.7285 38.0904 84.2284H38.0716Z" fill="white"/>
<path d="M39.1099 90.9827C36.8727 91.7662 31.0104 94.6926 29.7219 95.8915C29.7163 95.8987 29.7133 95.9075 29.7131 95.9166C29.713 95.9257 29.7158 95.9346 29.721 95.942C29.7263 95.9494 29.7338 95.9549 29.7425 95.9577C29.7511 95.9605 29.7604 95.9605 29.7691 95.9576C31.034 95.0655 38.2651 91.5208 39.412 91.0866C39.412 91.0866 39.4687 91.2234 39.4923 91.2612C39.5159 91.299 39.5583 91.2848 39.5583 91.2329C39.5383 91.1053 39.5099 90.9792 39.4734 90.8553L39.1099 90.9827Z" fill="#263238"/>
<path d="M37.4438 99.6864C37.2314 98.6008 36.4195 94.249 36.3015 93.1539C36.3015 93.1539 36.3015 93.1303 36.3299 93.1539C36.6508 94.1734 37.5759 98.445 37.7931 99.5306C38.2733 101.69 38.6341 103.874 38.8739 106.073C38.8739 106.11 38.8173 106.134 38.8031 106.073C38.232 103.986 37.8591 101.825 37.4438 99.6864Z" fill="#263238"/>
<path d="M35.8437 92.512C36.4526 91.1856 37.1984 89.9254 37.8686 88.6321C38.5389 87.3388 39.2327 86.055 39.8557 84.7476H39.8841C39.5065 85.6396 39.1289 86.5317 38.7229 87.4096C38.8457 87.2728 38.9589 87.1264 39.0722 86.9801C39.2799 86.7158 39.4687 86.4373 39.6575 86.1588C39.6575 86.1588 39.6905 86.1588 39.6858 86.1588C39.5389 86.4712 39.3568 86.7657 39.143 87.0368C38.985 87.2403 38.8114 87.4313 38.6238 87.6079C38.4586 87.9666 38.284 88.3253 38.1046 88.6793C37.5235 89.9969 36.8434 91.2687 36.0703 92.4836C36.042 92.5733 35.8201 92.5733 35.8437 92.512Z" fill="#263238"/>
<path d="M29.3773 108.72C31.6759 108.692 40.356 106.988 42.5036 106.545C42.4753 106.318 42.5036 106.238 42.447 105.917C42.447 105.874 42.5083 105.855 42.5178 105.917C42.5744 106.224 42.7821 106.832 42.6971 106.861C41.6634 107.267 31.6334 109.018 29.3773 108.829C29.3702 108.829 29.3631 108.828 29.3565 108.825C29.3499 108.822 29.3439 108.818 29.3389 108.813C29.3339 108.808 29.3299 108.802 29.3271 108.795C29.3244 108.789 29.323 108.782 29.323 108.775C29.323 108.768 29.3244 108.761 29.3271 108.754C29.3299 108.747 29.3339 108.741 29.3389 108.736C29.3439 108.731 29.3499 108.727 29.3565 108.725C29.3631 108.722 29.3702 108.72 29.3773 108.72Z" fill="#263238"/>
<path d="M52.7507 107.149L68.912 109.325L75.0433 86.8621L58.882 84.6909L52.7507 107.149Z" fill="#263238"/>
<path d="M53.5484 107.253L69.705 109.428L75.8363 86.9707L59.6797 84.7948L53.5484 107.253Z" fill="#37474F"/>
<path d="M66.9485 96.3966C66.8476 96.8162 66.5963 97.1843 66.2424 97.4313C65.8884 97.6783 65.4562 97.7871 65.0275 97.737C64.8252 97.7156 64.63 97.6509 64.455 97.5473C64.28 97.4437 64.1293 97.3036 64.0133 97.1365C63.8973 96.9695 63.8187 96.7794 63.7827 96.5792C63.7468 96.379 63.7544 96.1734 63.805 95.9765C63.9059 95.5565 64.1569 95.1878 64.5108 94.9401C64.8646 94.6923 65.2968 94.5825 65.726 94.6313C65.9288 94.6526 66.1246 94.7174 66.3 94.8213C66.4754 94.9252 66.6263 95.0658 66.7424 95.2334C66.8584 95.401 66.937 95.5917 66.9725 95.7924C67.0081 95.9932 66.9999 96.1993 66.9485 96.3966Z" fill="white"/>
<path d="M75.6758 91.601C76.3507 93.489 78.2765 95.9481 78.3048 97.4397C78.324 97.807 78.2247 98.1708 78.0216 98.4776C77.8186 98.7843 77.5224 99.0177 77.1767 99.1436C77.1767 99.1436 78.5927 100.026 78.3709 101.381C78.2718 102.079 77.0635 102.533 77.0635 102.533C77.3689 102.749 77.6086 103.045 77.7561 103.389C77.9035 103.733 77.9529 104.112 77.8989 104.482C77.7007 105.426 76.5207 105.742 76.5207 105.742C76.5207 105.742 77.2287 106.955 76.7142 107.861C75.6663 109.697 67.3544 108.853 66.3821 105.657C65.9101 104.17 67.9444 104.487 67.9444 104.487C67.9444 104.487 65.1502 103.33 65.2823 101.612C65.4145 99.894 68.0105 100.46 68.0105 100.46C68.0105 100.46 65.3154 99.3182 65.6505 97.5482C65.9856 95.7782 68.4825 96.7222 68.4825 96.7222C68.4825 96.7222 66.7597 95.3062 67.3119 93.9846C68.2229 91.837 71.442 94.9805 73.3111 94.7304L74.6279 91.8181L75.6758 91.601Z" fill="#DD6A57"/>
<path d="M77.0776 94.4C76.6056 92.5545 79.0223 90.5815 78.8146 88.736C78.5361 86.258 75.5672 88.3584 74.6043 91.8135L74.3259 94.6455L77.0776 94.4Z" fill="#DD6A57"/>
<path d="M76.346 105.818C76.3523 105.818 76.3583 105.82 76.3627 105.825C76.3672 105.829 76.3696 105.835 76.3696 105.841C76.3696 105.848 76.3672 105.854 76.3627 105.858C76.3583 105.862 76.3523 105.865 76.346 105.865C73.4394 106.274 70.477 105.791 67.85 104.482C67.7651 104.439 67.8028 104.284 67.902 104.317C70.6289 105.224 73.4734 105.73 76.346 105.818Z" fill="#263238"/>
<path d="M77.1012 102.551C77.1343 102.551 77.1343 102.608 77.1012 102.613C73.8868 103.039 70.6257 102.303 67.9067 100.536C67.8123 100.47 67.7934 100.319 67.9067 100.385C69.8088 101.48 74.4014 102.509 77.1012 102.551Z" fill="#263238"/>
<path d="M68.3032 96.524C70.9794 98.2279 73.9294 98.884 77.0587 99.1624C77.0965 99.1624 77.0918 99.2238 77.0587 99.2285C75.4917 99.5212 73.514 99.1483 72.0036 98.7282C70.5894 98.3662 69.2953 97.6386 68.2512 96.6184C68.204 96.5759 68.2465 96.4862 68.3032 96.524Z" fill="#263238"/>
<path d="M48.2715 78.0499C48.3281 79.4659 48.3706 82.6803 46.1899 82.4395C45.3135 82.2654 44.5056 81.8427 43.863 81.2218C43.1751 80.6507 42.5529 80.0048 42.008 79.296C41.383 78.526 40.821 77.7067 40.3277 76.8463C40.3277 76.8133 40.2522 76.8463 40.2758 76.8841C40.7761 77.7479 41.1915 78.6399 41.7767 79.4565C42.3294 80.2479 42.9867 80.9608 43.7308 81.5758C44.4296 82.225 45.3112 82.6435 46.256 82.7747C46.6612 82.8032 47.0638 82.6904 47.3951 82.4555C47.7265 82.2205 47.9661 81.8779 48.0732 81.4861C48.3955 80.37 48.4633 79.1957 48.2715 78.0499Z" fill="#263238"/>
<path d="M46.1239 81.0188C44.5474 81.1557 41.9703 78.1868 41.2151 76.1713C41.4131 75.1211 41.6636 74.0814 41.9655 73.0561C42.2063 72.0602 42.4375 70.9416 42.6075 69.9079L48.8662 72.4331C48.3074 73.6742 47.9017 74.9786 47.6579 76.3177C47.6439 76.4605 47.6439 76.6043 47.6579 76.7472C47.6579 76.7472 47.6579 76.7944 47.6579 76.818C47.672 77.644 47.6437 80.8866 46.1239 81.0188Z" fill="#DD6A57"/>
<path d="M47.639 76.7472C47.6414 76.7707 47.6414 76.7944 47.639 76.818C47.4144 76.8165 47.1904 76.7976 46.9687 76.7613C43.2211 76.1241 43.0087 71.3994 43.0275 70.0825L44.5946 70.7103L48.8426 72.4331C48.284 73.6738 47.8798 74.9784 47.639 76.3176C47.6253 76.4605 47.6253 76.6043 47.639 76.7472Z" fill="#263238"/>
<path d="M41.89 62.8279C41.2387 65.1879 42.6358 71.8573 44.3256 73.311C46.78 75.4256 50.707 75.5341 52.4817 72.603C54.1998 69.771 52.2268 61.0815 50.3436 59.7693C47.5729 57.8294 42.8482 59.3634 41.89 62.8279Z" fill="#DD6A57"/>
<path d="M48.4839 67.0476C48.4839 67.0476 48.4555 67.0759 48.4839 67.0948C48.5877 67.5432 48.6349 68.0766 48.2573 68.3078C48.2573 68.3078 48.2573 68.3362 48.2573 68.3314C48.7246 68.1615 48.6585 67.4582 48.4839 67.0476Z" fill="#263238"/>
<path d="M47.9883 66.6605C47.2519 66.7549 47.5163 68.2181 48.1723 68.1332C48.8284 68.0482 48.616 66.585 47.9883 66.6605Z" fill="#263238"/>
<path d="M51.0468 66.552C51.0468 66.552 51.0893 66.552 51.0893 66.5898C51.1507 67.0618 51.297 67.5574 51.7312 67.6423V67.6659C51.2168 67.6659 51.0327 66.9862 51.0468 66.552Z" fill="#263238"/>
<path d="M51.3772 66.0045C52.0994 65.8298 52.3967 67.2836 51.7265 67.4205C51.0562 67.5573 50.773 66.1508 51.3772 66.0045Z" fill="#263238"/>
<path d="M47.2991 66.08C47.4833 65.9946 47.6615 65.8968 47.8325 65.7873C48.0305 65.7105 48.1968 65.5691 48.3045 65.3861C48.3288 65.3208 48.3309 65.2494 48.3104 65.1828C48.2899 65.1162 48.248 65.0583 48.1912 65.018C48.0675 64.9549 47.9293 64.926 47.7907 64.9343C47.6521 64.9426 47.5182 64.9878 47.403 65.0652C47.147 65.1863 46.9451 65.3983 46.8366 65.6599C46.8123 65.7229 46.8077 65.7919 46.8233 65.8576C46.8389 65.9234 46.874 65.9828 46.9241 66.0283C46.9741 66.0737 47.0367 66.1029 47.1036 66.1122C47.1705 66.1214 47.2387 66.1102 47.2991 66.08Z" fill="#263238"/>
<path d="M51.8492 65.5561C51.6416 65.5561 51.448 65.5183 51.2404 65.4994C51.0238 65.5094 50.8099 65.448 50.6315 65.3248C50.584 65.2742 50.5543 65.2096 50.5466 65.1407C50.539 65.0718 50.5538 65.0022 50.589 64.9425C50.6774 64.8358 50.7927 64.7546 50.923 64.7073C51.0532 64.66 51.1937 64.6483 51.33 64.6734C51.6147 64.6811 51.886 64.7957 52.09 64.9944C52.1336 65.0419 52.1626 65.1011 52.1734 65.1647C52.1843 65.2283 52.1765 65.2937 52.1511 65.353C52.1257 65.4124 52.0837 65.4631 52.0301 65.4991C51.9766 65.5351 51.9138 65.5549 51.8492 65.5561Z" fill="#263238"/>
<path d="M48.5499 71.2956C48.6654 71.4114 48.8169 71.4847 48.9794 71.5032C49.1488 71.4707 49.3096 71.4032 49.4514 71.305C49.4514 71.305 49.4845 71.305 49.4514 71.3286C49.4002 71.4281 49.3233 71.512 49.2287 71.5718C49.1341 71.6315 49.0252 71.6649 48.9134 71.6684C48.8174 71.6581 48.7265 71.6201 48.6519 71.5589C48.5773 71.4976 48.5222 71.416 48.4933 71.3239C48.5027 71.3003 48.5358 71.272 48.5499 71.2956Z" fill="#263238"/>
<path d="M48.8048 69.7521C48.9503 69.9126 49.1271 70.0415 49.3244 70.1308C49.5217 70.2201 49.7353 70.268 49.9518 70.2713C50.1412 70.275 50.3301 70.2528 50.5135 70.2053L50.6173 70.1769L50.7117 70.1439C50.7357 70.1355 50.7562 70.1194 50.7699 70.098C50.7836 70.0766 50.7897 70.0512 50.7872 70.0259C50.79 70.0103 50.79 69.9943 50.7872 69.9787V69.9409C50.74 69.5869 50.6173 69.063 50.6173 69.063C50.7542 69.1055 51.4575 69.2943 51.415 69.1102C51.1177 67.5415 50.6606 66.0074 50.0509 64.5318C50.048 64.5235 50.0426 64.5163 50.0354 64.5112C50.0282 64.506 50.0196 64.5033 50.0108 64.5033C50.002 64.5033 49.9934 64.506 49.9862 64.5112C49.979 64.5163 49.9736 64.5235 49.9707 64.5318C50.235 65.9856 50.7589 67.3638 51.0516 68.8317C50.8012 68.7617 50.5421 68.7283 50.2822 68.7326C50.235 68.7326 50.5371 69.7427 50.5418 69.9032C50.2602 69.9784 49.9663 69.9963 49.6777 69.9557C49.389 69.9152 49.1115 69.8171 48.8615 69.6672C48.8048 69.6813 48.7718 69.7191 48.8048 69.7521Z" fill="#263238"/>
<path d="M50.3058 70.1203C50.1552 70.395 49.9376 70.6271 49.6733 70.7953C49.5305 70.8783 49.366 70.9162 49.2013 70.9038C48.8284 70.8708 48.767 70.5451 48.7859 70.2525C48.7958 70.092 48.826 69.9334 48.8756 69.7805C49.3047 70.0413 49.8052 70.1602 50.3058 70.1203Z" fill="#263238"/>
<path d="M49.6733 70.8C49.5305 70.8831 49.366 70.9209 49.2013 70.9086C48.8284 70.8755 48.767 70.5498 48.7859 70.2572C48.9731 70.2366 49.1618 70.2787 49.3224 70.3769C49.483 70.4752 49.6064 70.624 49.6733 70.8Z" fill="#FF9ABB"/>
<path d="M51.6274 61.7187C51.2498 61.1948 50.8344 60.6709 50.4568 60.6284C50.0792 60.5859 50.0367 61.4922 49.2532 61.7187C48.1912 62.0208 47.4596 61.1476 45.9492 61.3647C43.7544 61.681 43.1928 63.6917 43.8016 66.7644C44.3444 69.5114 42.7491 70.125 42.7491 70.125C42.7491 70.125 40.4457 64.3053 41.7154 61.9406C42.9851 59.5758 46.6997 57.853 49.7394 59.1982C50.8203 59.6844 51.6274 61.7187 51.6274 61.7187Z" fill="#263238"/>
<path d="M43.8583 68.6005C43.8583 68.6005 42.2393 66.5001 41.2811 67.0853C40.323 67.6706 41.6021 70.7669 42.7821 71.1445C42.9292 71.2038 43.0869 71.2325 43.2455 71.2289C43.4041 71.2254 43.5603 71.1896 43.7046 71.1239C43.849 71.0581 43.9784 70.9637 44.0852 70.8463C44.1919 70.729 44.2737 70.5912 44.3255 70.4413L43.8583 68.6005Z" fill="#DD6A57"/>
<path d="M41.6682 67.968C41.6682 67.968 41.6682 67.968 41.6682 68.001C42.0479 68.1697 42.3881 68.4161 42.6669 68.7242C42.9457 69.0322 43.157 69.3953 43.2871 69.7899C43.2361 69.7108 43.1685 69.6436 43.089 69.5932C43.0095 69.5427 42.92 69.5101 42.8267 69.4975C42.7334 69.4849 42.6385 69.4927 42.5485 69.5204C42.4585 69.5481 42.3755 69.5949 42.3054 69.6577C42.3054 69.6577 42.3054 69.7049 42.329 69.7002C42.4697 69.6473 42.6233 69.6394 42.7686 69.6774C42.914 69.7154 43.0441 69.7976 43.1408 69.9126C43.2971 70.1085 43.4346 70.3187 43.5515 70.5404C43.5892 70.6112 43.7214 70.5687 43.6883 70.4837C43.6553 69.4264 42.7868 68.0152 41.6682 67.968Z" fill="#263238"/>
<path d="M47.5351 58.3675C46.6144 58.1049 45.6606 57.9762 44.7031 57.9852C43.6223 58.0182 40.3324 58.797 39.6386 59.59C38.9448 60.3829 39.228 63.5548 39.2799 64.0173C39.3318 64.4799 39.969 67.2222 41.0829 67.7367C42.1968 68.2512 41.5549 63.517 42.8907 61.7045C44.2264 59.8921 47.5351 58.3675 47.5351 58.3675Z" fill="#8BA3E7"/>
<path opacity="0.1" d="M47.5352 58.3722C47.5352 58.3722 44.2312 59.8921 42.8671 61.7046C41.503 63.517 42.1685 68.2465 41.064 67.7367C40.8066 67.5947 40.5798 67.4032 40.3967 67.1731C40.2136 66.9431 40.0779 66.679 39.9973 66.3962C39.9973 64.9802 40.2097 62.7618 41.1254 61.1004C41.9844 59.5475 43.7261 58.5516 45.6708 58.0182C46.3013 58.082 46.9251 58.2004 47.5352 58.3722Z" fill="black"/>
<path d="M41.772 70.4932C41.6634 69.2235 42.4139 65.6552 43.4523 63.517C44.4907 61.3789 48.2526 59.6372 48.8048 59.5806C50.1547 59.4484 50.5512 60.0526 50.7447 59.8874C50.9383 59.7222 49.3618 58.4242 48.9464 58.259C48.3268 58.0594 47.6704 58.0013 47.0254 58.089C46.4448 58.1929 42.919 59.1133 41.857 60.8455C40.795 62.5778 39.648 67.1514 40.12 68.1946C40.2427 68.4447 40.592 68.558 40.7855 68.9167C41.0121 69.3887 41.2009 69.9315 41.4039 70.2525C41.6068 70.5734 41.7814 70.6018 41.772 70.4932Z" fill="#8BA3E7"/>
<path d="M43.6223 62.6061C43.2948 62.4647 42.9791 62.2974 42.6783 62.1058C42.3619 61.9158 42.0702 61.6875 41.8098 61.4261C41.8098 61.4261 41.7579 61.4261 41.7767 61.4544C42.0056 61.7573 42.2812 62.0218 42.5933 62.2379C42.9068 62.4476 43.2578 62.5951 43.627 62.6722C43.6357 62.6715 43.6439 62.6675 43.6497 62.6608C43.6554 62.6542 43.6583 62.6455 43.6577 62.6368C43.657 62.628 43.653 62.6198 43.6463 62.6141C43.6397 62.6083 43.631 62.6055 43.6223 62.6061Z" fill="#263238"/>
<path d="M41.5644 69.2377C41.5124 69.1527 41.4416 69.0819 41.385 69.0017C41.3182 68.9113 41.2627 68.813 41.2198 68.709C41.1613 68.5057 41.0805 68.3094 40.9791 68.1238C40.8743 67.986 40.7539 67.8609 40.6204 67.7509C40.4603 67.6352 40.3439 67.4689 40.29 67.2789H40.2522C40.3088 67.6612 40.6062 67.8925 40.8233 68.1851C40.9337 68.3855 41.0253 68.5956 41.0971 68.8129C41.1806 69.0111 41.3264 69.1768 41.5124 69.2849C41.536 69.299 41.5785 69.2707 41.5644 69.2377Z" fill="#263238"/>
<path d="M41.7814 67.8123C41.6398 67.6895 41.4935 67.581 41.3614 67.4441C41.2292 67.3072 41.1254 67.1609 41.0168 67.0146C40.9083 66.8683 40.8233 66.7125 40.7194 66.5426C40.6156 66.3727 40.4599 66.2075 40.3466 66.0234C40.3466 66.0234 40.2994 66.0234 40.3135 66.0517C40.4315 66.2358 40.5118 66.4482 40.6203 66.637C40.7176 66.8007 40.8248 66.9583 40.9413 67.109C41.0514 67.2552 41.1746 67.3911 41.3094 67.5149C41.4444 67.6447 41.6052 67.7444 41.7814 67.8075C41.7814 67.8075 41.7909 67.8217 41.7814 67.8123Z" fill="#263238"/>
<path d="M42.0458 66.5142C41.7466 66.3336 41.4762 66.1093 41.2434 65.8487C41.0168 65.5938 40.7997 65.3248 40.592 65.0557C40.592 65.0557 40.5448 65.0557 40.559 65.0557C40.7133 65.3754 40.9085 65.6736 41.1395 65.9431C41.2518 66.0751 41.3803 66.1925 41.5219 66.2924C41.6752 66.3943 41.838 66.4812 42.008 66.552C42.008 66.552 42.0694 66.552 42.0458 66.5142Z" fill="#263238"/>
<path d="M42.3573 65.2587C42.2128 65.1899 42.083 65.0937 41.975 64.9755C41.8428 64.8528 41.7154 64.7254 41.5927 64.5932C41.4699 64.4658 41.3472 64.3478 41.2292 64.2203C41.1017 64.1009 41.0005 63.9562 40.9319 63.7955C40.9319 63.7955 40.8894 63.7955 40.8941 63.7955C40.9311 63.9677 41.007 64.1291 41.1159 64.2675C41.2211 64.4353 41.3412 64.5933 41.4747 64.7395C41.6067 64.8755 41.7469 65.0032 41.8947 65.1219C42.0196 65.2359 42.1758 65.3099 42.3431 65.3342C42.3481 65.3352 42.3532 65.3351 42.3581 65.3341C42.3631 65.333 42.3678 65.331 42.3719 65.3282C42.3761 65.3254 42.3796 65.3217 42.3824 65.3175C42.3852 65.3133 42.3871 65.3085 42.388 65.3036C42.3889 65.2986 42.3889 65.2935 42.3878 65.2886C42.3868 65.2836 42.3848 65.279 42.3819 65.2748C42.3791 65.2706 42.3754 65.2671 42.3712 65.2643C42.367 65.2616 42.3623 65.2597 42.3573 65.2587Z" fill="#263238"/>
<path d="M42.48 63.72C42.3416 63.6256 42.2094 63.5264 42.0835 63.4226C41.9608 63.314 41.8381 63.2055 41.7201 63.0922C41.6021 62.9789 41.4652 62.8562 41.3472 62.7288C41.3472 62.7288 41.3 62.7288 41.3142 62.7524C41.4041 62.901 41.5067 63.0416 41.621 63.1724C41.7338 63.3002 41.8552 63.4201 41.9844 63.5312C42.1124 63.6427 42.2481 63.7452 42.3903 63.838C42.53 63.9447 42.691 64.0204 42.8623 64.0598C42.8662 64.0572 42.8694 64.0537 42.8716 64.0496C42.8738 64.0455 42.875 64.0409 42.875 64.0362C42.875 64.0315 42.8738 64.0269 42.8716 64.0228C42.8694 64.0187 42.8662 64.0152 42.8623 64.0126C42.7442 63.9035 42.6162 63.8055 42.48 63.72Z" fill="#263238"/>
<path d="M44.4766 61.7376C44.3255 61.6054 44.1792 61.4733 44.0046 61.3505C43.8299 61.2278 43.6694 61.1193 43.4901 61.0154C43.1513 60.8075 42.7904 60.6381 42.4139 60.5104C42.4139 60.5104 42.3715 60.534 42.4139 60.5481C43.0842 60.9635 43.778 61.3505 44.4482 61.7753C44.4533 61.7791 44.4596 61.7807 44.4657 61.7798C44.4719 61.7789 44.4775 61.7756 44.4813 61.7706C44.485 61.7656 44.4867 61.7593 44.4858 61.7531C44.4849 61.7469 44.4816 61.7413 44.4766 61.7376Z" fill="#263238"/>
<path d="M45.0666 60.5434C44.9208 60.4163 44.7627 60.3041 44.5946 60.2083C44.2221 60.0208 43.8294 59.8767 43.424 59.7788C43.3957 59.7788 43.3815 59.8071 43.424 59.8166C43.7875 59.9818 44.1509 60.1422 44.5002 60.3263C44.6701 60.4207 44.8447 60.5151 45.0052 60.6237C45.1657 60.7322 45.3026 60.8786 45.4772 60.9966C45.3727 60.8191 45.2329 60.6649 45.0666 60.5434Z" fill="#263238"/>
<path d="M46.0342 59.8873C45.8897 59.7572 45.7314 59.6433 45.5622 59.5475C45.2533 59.36 44.915 59.226 44.5616 59.151C44.5616 59.151 44.5285 59.184 44.5616 59.1935C44.8899 59.3219 45.2058 59.4799 45.5056 59.6655C45.6566 59.7599 45.8076 59.8637 45.9776 59.9676C46.1475 60.0714 46.2655 60.2036 46.4212 60.2885C46.3053 60.1428 46.1757 60.0085 46.0342 59.8873Z" fill="#263238"/>
<path d="M46.6903 59.1416C46.544 59.0566 46.3882 58.9764 46.2183 58.9009C46.0707 58.818 45.9116 58.7576 45.7463 58.7215V58.764L46.6053 59.269C46.8582 59.4442 47.0923 59.6451 47.3039 59.8685C47.3039 59.8685 47.3322 59.8685 47.3039 59.8685C47.1775 59.5697 46.9636 59.3163 46.6903 59.1416Z" fill="#263238"/>
<path d="M47.6012 58.7923C47.3219 58.6048 47.0096 58.4718 46.6808 58.4006C46.6572 58.4006 46.6478 58.4336 46.6808 58.4431C46.9883 58.5552 47.2765 58.7145 47.5351 58.9151C47.7972 59.1054 48.0378 59.3239 48.2526 59.5664C48.2526 59.5664 48.2856 59.5664 48.2762 59.5664C48.1176 59.2573 47.8859 58.9915 47.6012 58.7923Z" fill="#263238"/>
<path d="M49.6922 59.1086C49.6055 59.0219 49.5141 58.9399 49.4184 58.8631C49.3227 58.787 49.2217 58.7176 49.1164 58.6555C49.0078 58.5894 48.8992 58.528 48.7954 58.4572C48.7954 58.4572 48.7482 58.4808 48.7954 58.495C48.9058 58.5592 49.0101 58.6334 49.1069 58.7168L49.3807 58.9434L49.6592 59.1699C49.7466 59.2548 49.8396 59.3336 49.9376 59.4059C49.8674 59.2978 49.7851 59.198 49.6922 59.1086Z" fill="#263238"/>
</svg>
