<svg width="156" height="163" viewBox="0 0 156 163" fill="none" xmlns="http://www.w3.org/2000/svg">
<path d="M106.574 51.669L106.722 47.9741C106.722 47.9741 107.712 46.9942 107.712 46.3584C107.712 45.7227 106.574 42.0851 106.077 41.913C105.58 41.7409 102.908 43.0076 102.86 43.825C102.812 44.6424 104.246 47.649 104.495 47.8689L104.098 51.7933L106.574 51.669Z" fill="#E4897B"/>
<path d="M146.836 46.5687L145.565 42.912C145.023 42.525 144.52 42.0864 144.064 41.6023C143.715 41.1243 145.66 37.6779 145.947 37.6779C146.889 38.0294 147.773 38.5227 148.566 39.1406C148.853 39.4848 147.333 42.2954 147.333 42.2954L149.221 45.4502L146.836 46.5687Z" fill="#E4897B"/>
<path d="M139.441 45.9521C141.196 46.1242 149.623 55.1345 149.623 55.1345L145.985 45.0296L148.853 44.0497C148.853 44.0497 155.956 55.3639 154.398 59.5178C152.84 63.6716 138.925 54.1498 138.925 54.1498L139.441 45.9521Z" fill="#E6EDFF"/>
<path d="M112.473 153.478L110.508 150.911L113.835 147.699L116.861 144.783L119.705 147.441L115.881 150.639L112.473 153.478Z" fill="#E4897B"/>
<path d="M110.393 150.123C110.685 149.917 113.118 153.564 113.118 153.564C113.118 153.564 112.578 157.388 113.677 159.821C114.777 162.254 112.64 162.068 110.862 159.745L106.474 154.009C105.212 152.341 107.406 152.288 110.393 150.123Z" fill="#2E353A"/>
<path d="M113.08 154.272C113.08 154.272 114.71 153.746 114.901 154.625C115.116 155.639 113.08 154.272 113.08 154.272ZM113.08 154.272C113.08 154.272 114.724 155.495 114.289 156.05C113.629 156.882 113.08 154.272 113.08 154.272Z" stroke="#E6EDFF" stroke-width="0.48312" stroke-linecap="round" stroke-linejoin="round"/>
<path opacity="0.2" d="M115.881 150.639L113.835 147.699L116.861 144.783L119.705 147.441L115.881 150.639Z" fill="black"/>
<path d="M132.133 157.546H128.897L128.366 153.043L127.888 148.913L131.726 148.287L131.942 153.191L132.133 157.546Z" fill="#E4897B"/>
<path d="M128.204 157.34C128.204 156.982 132.592 157.264 132.592 157.264C132.592 157.264 135.288 160.003 137.902 160.61C140.517 161.217 139.059 162.804 136.124 162.804H128.897C126.817 162.804 128.118 161.035 128.204 157.34Z" fill="#2E353A"/>
<path d="M133.132 157.723C133.132 157.723 133.705 156.107 134.518 156.49C135.474 156.934 133.132 157.723 133.132 157.723ZM133.132 157.723C133.132 157.723 135.106 157.159 135.278 157.838C135.541 158.87 133.132 157.723 133.132 157.723Z" stroke="#E6EDFF" stroke-width="0.48312" stroke-linecap="round" stroke-linejoin="round"/>
<path opacity="0.2" d="M131.942 153.292L128.366 153.134L127.888 148.956L131.726 148.311L131.942 153.292Z" fill="black"/>
<path d="M140.201 79.7563C140.201 79.7563 149.761 102.342 151.258 112.26C152.754 122.179 118.82 148.736 118.82 148.736L115.35 145.046C115.35 145.046 140.598 119.091 140.598 114.626C140.598 110.162 130.751 89.7704 130.751 89.7704C130.751 89.7704 129.8 81.544 140.201 79.7563Z" fill="#E6EDFF"/>
<path opacity="0.6" d="M133.285 136.371C129.819 139.564 126.464 142.446 123.859 144.626C120.833 147.149 118.82 148.727 118.82 148.727L115.35 145.037C115.35 145.037 118.82 141.476 123.18 136.758C126.612 133.048 130.603 128.632 133.897 124.674C137.721 120.085 140.589 116.123 140.589 114.636C140.589 112.279 137.85 105.501 135.264 99.6124C132.941 94.3544 130.742 89.7799 130.742 89.7799C130.676 88.8407 130.768 87.8972 131.014 86.9884C131.679 84.4311 133.777 80.8796 140.197 79.7754C140.197 79.7754 149.757 102.361 151.248 112.279C152.08 117.666 142.309 128.063 133.285 136.371Z" fill="white"/>
<path opacity="0.2" d="M133.897 124.674L133.285 136.371C129.819 139.564 126.464 142.446 123.859 144.626C123.26 142.049 123.031 139.399 123.18 136.758C126.612 133.049 130.603 128.632 133.897 124.674Z" fill="black"/>
<path opacity="0.2" d="M135.273 99.5933C132.95 94.3353 130.751 89.7608 130.751 89.7608C130.686 88.8216 130.778 87.878 131.024 86.9693C131.354 86.7458 131.721 86.5839 132.109 86.4913C132.109 86.4913 134.934 90.951 135.273 99.5933Z" fill="black"/>
<path d="M122.984 27.922C122.984 27.922 125.885 24.3035 130.632 25.1113C135.378 25.9191 134.556 34.7 134.556 34.7C135.443 35.4588 136.103 36.4476 136.464 37.5574C136.825 38.6673 136.873 39.8552 136.602 40.9905C135.675 44.9722 124.848 47.2762 120.709 44.5086C116.569 41.7409 119.753 32.9601 121.765 31.7173C123.777 30.4745 122.984 27.922 122.984 27.922Z" fill="#2E353A"/>
<path d="M132.2 86.5152L132.778 118.312V150.854H127.362C114.428 89.192 123.294 73.7335 123.294 73.7335H123.328C123.328 73.7096 123.328 73.6809 123.357 73.6618C125.436 69.0443 139.059 72.4477 139.059 72.4477C140.039 76.2717 140.641 84.0487 140.641 84.0487L132.2 86.5152Z" fill="#E6EDFF"/>
<path opacity="0.6" d="M132.2 86.5152L132.778 118.312V150.854H127.362C114.428 89.192 123.294 73.7335 123.294 73.7335H123.328C123.328 73.7096 123.328 73.6809 123.357 73.6618C125.436 69.0443 139.059 72.4477 139.059 72.4477C140.039 76.2717 140.641 84.0487 140.641 84.0487L132.2 86.5152Z" fill="white"/>
<path d="M123.218 71.353V73.6665L138.992 72.4572V69.723L123.218 71.353Z" fill="#2E353A"/>
<path d="M128.506 70.3977L127.723 70.4377L127.926 74.4238L128.709 74.3839L128.506 70.3977Z" fill="#E6EDFF"/>
<path d="M135.347 70.276L131.9 70.5848L132.135 73.1986L135.581 72.8897L135.347 70.276Z" fill="white"/>
<path d="M138.147 69.3298L137.364 69.3698L137.568 73.3559L138.351 73.3159L138.147 69.3298Z" fill="#E6EDFF"/>
<path opacity="0.6" d="M128.506 70.3977L127.723 70.4377L127.926 74.4238L128.709 74.3839L128.506 70.3977Z" fill="white"/>
<path opacity="0.6" d="M138.147 69.3298L137.364 69.3698L137.568 73.3559L138.351 73.3159L138.147 69.3298Z" fill="white"/>
<path d="M139.059 70.0003L123.285 71.3626C122.912 65.4975 122.539 61.7165 119.064 51.2866C118.763 50.3736 118.438 49.4033 118.08 48.3803C120.222 47.6965 122.41 47.1677 124.628 46.7982C126.969 46.3825 129.336 46.1333 131.712 46.0525C134.781 46.0525 138.308 46.3727 138.308 46.3727C138.308 46.3727 138.81 46.4922 139.126 49.7474C139.408 52.7779 139.69 58.8868 139.059 70.0003Z" fill="#E6EDFF"/>
<path opacity="0.3" d="M139.059 70.0003L123.285 71.3626C122.912 65.4975 122.539 61.7165 119.064 51.2866C118.763 50.3736 118.438 49.4033 118.08 48.3803C120.222 47.6965 122.41 47.1677 124.628 46.7982C126.969 46.3825 129.336 46.1333 131.712 46.0525C134.781 46.0525 138.308 46.3727 138.308 46.3727C138.308 46.3727 138.81 46.4922 139.126 49.7474C139.408 52.7779 139.69 58.8868 139.059 70.0003Z" fill="black"/>
<path d="M130.388 49.518C126.497 49.04 125.331 47.3574 125.331 47.3574C127.797 45.0296 125.747 40.9952 125.747 40.9952L130.426 41.87C130.316 42.5226 130.256 43.1825 130.245 43.8441C130.206 46.6834 131.492 46.7121 131.492 46.7121C132.334 48.2465 130.388 49.518 130.388 49.518Z" fill="#E4897B"/>
<path opacity="0.2" d="M130.445 41.87C130.336 42.5226 130.275 43.1825 130.264 43.8441C128.008 43.3183 125.766 40.9761 125.766 40.9761L130.445 41.87Z" fill="black"/>
<path d="M126.272 28.9114C130.24 27.9554 132.008 29.7957 133.275 33.8109C134.848 38.8299 134.575 42.7256 129.36 42.8117C122.262 42.9264 119.69 30.4745 126.272 28.9114Z" fill="#E4897B"/>
<path d="M130.66 34.222C131.119 34.7392 131.637 35.1998 132.204 35.5938C132.126 35.7874 131.995 35.955 131.826 36.0775C131.657 36.2001 131.457 36.2726 131.248 36.2869L130.66 34.222Z" fill="#DE5753"/>
<path d="M128.156 34.4466C128.242 34.7717 128.156 35.0776 127.922 35.135C127.687 35.1923 127.444 34.9772 127.377 34.657C127.31 34.3367 127.377 34.026 127.611 33.9686C127.845 33.9113 128.075 34.1216 128.156 34.4466Z" fill="#2E353A"/>
<path d="M127.52 34.0021L128.156 33.5241C128.156 33.5241 127.965 34.222 127.52 34.0021Z" fill="#2E353A"/>
<path d="M132.166 33.3281C132.252 33.6484 132.142 33.9591 131.927 34.0164C131.712 34.0738 131.449 33.8539 131.382 33.5384C131.315 33.223 131.406 32.9075 131.621 32.8501C131.836 32.7928 132.08 33.0031 132.166 33.3281Z" fill="#2E353A"/>
<path d="M131.535 32.8788L132.166 32.4008C132.166 32.4008 131.97 33.1035 131.535 32.8788Z" fill="#2E353A"/>
<path d="M127.467 31.7173C127.145 31.7536 126.835 31.8634 126.561 32.0382C126.288 32.2131 126.058 32.4483 125.89 32.7259" stroke="#2E353A" stroke-width="0.72468" stroke-linecap="round" stroke-linejoin="round"/>
<path d="M130.312 30.876C130.567 30.7439 130.848 30.6711 131.135 30.6628C131.423 30.6545 131.708 30.711 131.97 30.8282" stroke="#2E353A" stroke-width="0.72468" stroke-linecap="round" stroke-linejoin="round"/>
<path d="M131.057 37.96C130.976 38.4517 130.93 38.9484 130.919 39.4466L130.66 39.4848C129.48 39.6425 128.878 39.3223 128.572 38.9255C128.426 38.726 128.33 38.4951 128.29 38.2516C128.27 38.1136 128.27 37.9736 128.29 37.8357C129.065 38.0645 129.88 38.1232 130.68 38.0078C130.899 37.9887 131.057 37.96 131.057 37.96Z" fill="#2E353A"/>
<path d="M130.651 38.0078L130.603 38.4475C129.489 38.5909 128.691 38.5431 128.29 38.2516C128.27 38.1136 128.27 37.9736 128.29 37.8357C129.056 38.0603 129.861 38.119 130.651 38.0078Z" fill="white"/>
<path d="M130.66 39.48C129.48 39.6377 128.878 39.3175 128.572 38.9207C129.019 38.8688 129.472 38.8963 129.91 39.002C130.204 39.0777 130.467 39.2451 130.66 39.48Z" fill="#DE5753"/>
<path d="M123.524 36.612C123.524 36.612 124.604 32.9171 123.73 30.4697C123.73 30.4697 130.823 25.3981 133.103 33.2803C133.103 33.2803 132.195 26.0147 125.34 27.4726C118.486 28.9305 120.881 38.8968 125.101 41.0335C125.101 41.0431 122.86 38.9303 123.524 36.612Z" fill="#2E353A"/>
<path d="M124.37 37.3051C124.222 36.8565 123.903 36.4847 123.482 36.2706C123.061 36.0566 122.573 36.0178 122.123 36.1627C120.924 36.5833 120.938 39.2458 124.136 39.131C124.595 39.1119 124.743 38.6244 124.37 37.3051Z" fill="#E4897B"/>
<path d="M139.121 49.7235C133.194 52.6536 124.112 51.9701 119.045 51.2627C118.744 50.3497 118.419 49.3793 118.06 48.3564C120.202 47.6725 122.391 47.1438 124.609 46.7742C126.95 46.3585 129.317 46.1094 131.693 46.0286C134.762 46.0286 138.289 46.3488 138.289 46.3488C138.289 46.3488 138.806 46.4683 139.121 49.7235Z" fill="#E4897B"/>
<path d="M121.387 46.7599C121.387 46.7599 125.637 52.19 125.766 58.0742C125.895 63.9584 121.97 91.104 121.97 91.104L117.238 89.7656C117.238 89.7656 120.814 68.877 117.238 48.7006L121.387 46.7599Z" fill="#E6EDFF"/>
<path d="M134.556 46.172C134.556 46.172 136.287 51.7981 136.057 55.8419C135.828 59.8858 140.201 79.7945 140.201 79.7945L141.473 82.8537L140.216 70.507C140.216 70.507 140.976 52.386 139.441 46.172H134.556Z" fill="#E6EDFF"/>
<path d="M126.272 28.9114C126.272 28.9114 127.74 33.9065 123.271 36.1674C117.869 38.9016 118.385 44.8097 123.653 45.5601C123.653 45.5601 118.333 45.0248 117.3 41.5497C116.268 38.0747 119.212 32.7258 119.212 32.7258C119.212 32.7258 117.597 29.7861 121.961 27.4678C124.408 26.1772 126.272 28.9114 126.272 28.9114Z" fill="#2E353A"/>
<path d="M126.664 150.075L133.433 149.081L132.869 151.786L127.281 152.537L126.664 150.075Z" fill="#E6EDFF"/>
<path d="M115.35 143.789L119.891 148.727L117.621 150.027L114.117 146.308L115.35 143.789Z" fill="#E6EDFF"/>
<path d="M142.252 35.35C141.435 33.8874 139.862 33.2182 138.705 33.8587C137.548 34.4992 137.305 36.1961 138.117 37.6588C138.93 39.1215 140.507 39.7859 141.664 39.1501C142.821 38.5144 143.069 36.8079 142.252 35.35Z" fill="#E6EDFF"/>
<path d="M151.53 30.2259L148.719 25.0587C148.719 25.0587 146.76 29.2699 143.939 30.8473L145.373 33.4094L145.598 33.8109L147.032 36.373C149.852 34.7956 154.465 35.3262 154.465 35.3262L151.53 30.2259Z" fill="#E6EDFF"/>
<path opacity="0.8" d="M142.252 35.35C141.435 33.8874 139.862 33.2182 138.705 33.8587C137.548 34.4992 137.305 36.1961 138.117 37.6588C138.93 39.1215 140.507 39.7859 141.664 39.1501C142.821 38.5144 143.069 36.8079 142.252 35.35Z" fill="white"/>
<path opacity="0.8" d="M151.53 30.2259L148.719 25.0587C148.719 25.0587 146.76 29.2699 143.939 30.8473L145.373 33.4094L145.598 33.8109L147.032 36.373C149.852 34.7956 154.465 35.3262 154.465 35.3262L151.53 30.2259Z" fill="white"/>
<path d="M142.061 38.3758C142.061 38.3758 144.092 41.3155 145.99 42.391C146.055 42.4266 146.131 42.4375 146.204 42.4217C146.277 42.4059 146.342 42.3645 146.387 42.305L148.007 40.3021C148.035 40.2642 148.054 40.2206 148.063 40.1745C148.072 40.1283 148.071 40.0807 148.06 40.0351C148.048 39.9895 148.027 39.9469 147.997 39.9105C147.967 39.874 147.93 39.8445 147.888 39.8241C147.089 39.4704 145.225 38.5622 144.15 37.2907C142.754 35.6273 142.061 38.3758 142.061 38.3758Z" fill="#E6EDFF"/>
<path opacity="0.3" d="M142.061 38.3758C142.061 38.3758 144.092 41.3155 145.99 42.391C146.055 42.4266 146.131 42.4375 146.204 42.4217C146.277 42.4059 146.342 42.3645 146.387 42.305L148.007 40.3021C148.035 40.2642 148.054 40.2206 148.063 40.1745C148.072 40.1283 148.071 40.0807 148.06 40.0351C148.048 39.9895 148.027 39.9469 147.997 39.9105C147.967 39.874 147.93 39.8445 147.888 39.8241C147.089 39.4704 145.225 38.5622 144.15 37.2907C142.754 35.6273 142.061 38.3758 142.061 38.3758Z" fill="black"/>
<path d="M154.431 35.4791C153.786 35.8376 151.951 33.787 150.335 30.8951C148.719 28.0032 147.945 25.3694 148.581 25.0062C149.216 24.6429 151.061 26.6983 152.677 29.5854C154.293 32.4725 155.081 35.1159 154.431 35.4791Z" fill="white"/>
<path opacity="0.4" d="M154.169 34.6235C153.691 34.896 152.257 33.2804 150.904 30.9621C150.827 30.833 150.751 30.6944 150.674 30.5558C150.598 30.4171 150.493 30.2307 150.407 30.0778C149.169 27.7356 148.557 25.7184 149.035 25.4507C149.513 25.183 151.124 26.9851 152.539 29.5185C153.953 32.0519 154.685 34.3367 154.169 34.6235Z" fill="black"/>
<path d="M141.382 39.6855C141.382 39.6855 140.689 39.2075 139.432 36.9418C138.069 34.504 138.108 33.8252 138.108 33.8252L144.403 30.3024C144.403 30.3024 144.479 31.1867 145.756 33.4715C147.032 35.7563 147.668 36.1626 147.668 36.1626L141.382 39.6855Z" fill="#E6EDFF"/>
<path d="M150.904 30.962C150.827 30.833 150.751 30.6943 150.674 30.5557C150.598 30.4171 150.493 30.2307 150.407 30.0777L151.057 29.8722C151.126 29.8507 151.201 29.8554 151.267 29.8853C151.333 29.9153 151.386 29.9684 151.415 30.0347L151.468 30.1303C151.509 30.1893 151.527 30.2616 151.518 30.3331C151.509 30.4046 151.474 30.4702 151.42 30.5175L150.904 30.962Z" fill="white"/>
<path opacity="0.2" d="M150.904 30.962C150.827 30.833 150.751 30.6943 150.674 30.5557C150.598 30.4171 150.493 30.2307 150.407 30.0777L151.057 29.8722C151.126 29.8507 151.201 29.8554 151.267 29.8853C151.333 29.9153 151.386 29.9684 151.415 30.0347L151.468 30.1303C151.509 30.1893 151.527 30.2616 151.518 30.3331C151.509 30.4046 151.474 30.4702 151.42 30.5175L150.904 30.962Z" fill="black"/>
<path d="M117.238 48.6958C115.044 49.6518 107.2 63.6572 107.2 63.6572L107.047 50.4166L103.505 49.9386C103.505 49.9386 101.349 68.7192 105.967 69.7947C110.584 70.8702 119.055 57.4814 119.055 57.4814L117.238 48.6958Z" fill="#E6EDFF"/>
<path d="M125.766 28.3187C125.766 28.3187 127.797 29.7861 126.287 33.6149" stroke="#2E353A" stroke-width="0.5" stroke-linecap="round" stroke-linejoin="round"/>
<path d="M134.121 34.3893C134.121 34.3893 139.709 38.0077 136.086 42.6682" stroke="#2E353A" stroke-width="0.5" stroke-linecap="round" stroke-linejoin="round"/>
<path d="M100.709 0.226624H20.4337C17.6881 0.226624 15.4625 2.45231 15.4625 5.19782V157.522C15.4625 160.268 17.6881 162.493 20.4337 162.493H100.709C103.455 162.493 105.68 160.268 105.68 157.522V5.19782C105.68 2.45231 103.455 0.226624 100.709 0.226624Z" fill="#2E353A"/>
<path d="M102.664 5.66629V156.772C102.664 157.064 102.606 157.354 102.493 157.625C102.38 157.895 102.214 158.14 102.005 158.345C101.797 158.551 101.549 158.713 101.278 158.822C101.006 158.931 100.715 158.984 100.422 158.98H20.5388C20.2728 158.983 20.009 158.933 19.7629 158.832C19.5169 158.731 19.2937 158.581 19.1067 158.392C18.9198 158.203 18.7729 157.978 18.6748 157.731C18.5768 157.484 18.5295 157.219 18.536 156.953V5.48464C18.5264 5.25007 18.5632 5.01592 18.6443 4.79561C18.7255 4.57531 18.8493 4.37319 19.0087 4.20087C19.1682 4.02855 19.3601 3.88942 19.5734 3.79145C19.7868 3.69349 20.0174 3.63862 20.252 3.63H40.2228C40.5022 3.63499 40.7738 3.72315 41.0028 3.88322C41.2318 4.04329 41.408 4.26799 41.5087 4.52864L42.3356 6.56492C42.4378 6.82379 42.6146 7.04647 42.8435 7.20475C43.0724 7.36304 43.3431 7.44978 43.6214 7.45401H77.6216C77.8986 7.45285 78.169 7.36896 78.3981 7.21312C78.6272 7.05727 78.8046 6.83655 78.9074 6.57926L79.72 4.53342C79.8241 4.27184 80.0029 4.04668 80.2341 3.88602C80.4653 3.72537 80.7387 3.63633 81.0201 3.63H100.704C101.232 3.64501 101.734 3.86676 102.1 4.24756C102.467 4.62836 102.669 5.13779 102.664 5.66629Z" fill="#E6EDFF"/>
<path opacity="0.2" d="M102.664 13.429H18.536V32.31H102.664V13.429Z" fill="white"/>
<path opacity="0.6" d="M28.0243 9.7149H29.0616V8.3287H28.0243V9.7149Z" fill="white"/>
<path opacity="0.6" d="M26.3322 9.71973H27.3694V7.86987H26.3322V9.71973Z" fill="white"/>
<path opacity="0.6" d="M24.64 9.71973H25.6773V7.41099H24.64V9.71973Z" fill="white"/>
<path opacity="0.6" d="M22.9431 9.7149H23.9804V6.94251H22.9431V9.7149Z" fill="white"/>
<path opacity="0.6" d="M93.3621 7.82684H92.7455V9.21304H93.3621V7.82684Z" fill="white"/>
<path opacity="0.6" d="M93.778 9.71973H98.687V7.32495H93.778V9.71973Z" fill="white"/>
<path opacity="0.6" d="M58.6928 4.98271C59.3316 4.98271 59.8495 4.46481 59.8495 3.82595C59.8495 3.18709 59.3316 2.66919 58.6928 2.66919C58.0539 2.66919 57.536 3.18709 57.536 3.82595C57.536 4.46481 58.0539 4.98271 58.6928 4.98271Z" fill="white"/>
<path opacity="0.6" d="M62.1869 3.82598C62.1869 3.97252 62.1435 4.11576 62.0621 4.2376C61.9807 4.35944 61.865 4.45441 61.7296 4.51048C61.5942 4.56656 61.4452 4.58123 61.3015 4.55264C61.1578 4.52406 61.0258 4.45349 60.9221 4.34988C60.8185 4.24626 60.748 4.11424 60.7194 3.97052C60.6908 3.8268 60.7055 3.67783 60.7615 3.54245C60.8176 3.40707 60.9126 3.29136 61.0344 3.20995C61.1563 3.12854 61.2995 3.08508 61.446 3.08508C61.6425 3.08508 61.831 3.16314 61.9699 3.30209C62.1089 3.44103 62.1869 3.62949 62.1869 3.82598Z" fill="white"/>
<path opacity="0.2" d="M102.664 130.3V156.772C102.664 157.064 102.606 157.354 102.493 157.625C102.38 157.895 102.214 158.14 102.005 158.345C101.797 158.551 101.549 158.713 101.278 158.822C101.006 158.931 100.715 158.984 100.422 158.98H20.5388C20.2729 158.983 20.009 158.933 19.7629 158.832C19.5169 158.731 19.2937 158.581 19.1067 158.392C18.9198 158.203 18.7729 157.978 18.6748 157.731C18.5768 157.484 18.5295 157.219 18.536 156.953V130.3H102.664Z" fill="white"/>
<path d="M27.7758 79.7324L60.5713 52.1757L93.3621 79.7324L67.6505 114.22L44.5583 113.756L27.7758 79.7324Z" fill="#E6EDFF"/>
<path opacity="0.3" d="M27.7758 79.7324L60.5713 52.1757L93.3621 79.7324L67.6505 114.22L44.5583 113.756L27.7758 79.7324Z" fill="black"/>
<path d="M82.8175 43.0937H38.3204C37.7265 43.0937 37.2449 43.5752 37.2449 44.1692V110.219C37.2449 110.813 37.7265 111.295 38.3204 111.295H82.8175C83.4114 111.295 83.893 110.813 83.893 110.219V44.1692C83.893 43.5752 83.4114 43.0937 82.8175 43.0937Z" fill="white"/>
<path opacity="0.2" d="M78.5872 49.2503H42.5555C42.3655 49.2503 42.2114 49.4044 42.2114 49.5945V50.2923C42.2114 50.4824 42.3655 50.6365 42.5555 50.6365H78.5872C78.7772 50.6365 78.9313 50.4824 78.9313 50.2923V49.5945C78.9313 49.4044 78.7772 49.2503 78.5872 49.2503Z" fill="black"/>
<path opacity="0.2" d="M78.5872 53.8726H42.5555C42.3655 53.8726 42.2114 54.0266 42.2114 54.2167V54.9146C42.2114 55.1047 42.3655 55.2588 42.5555 55.2588H78.5872C78.7772 55.2588 78.9313 55.1047 78.9313 54.9146V54.2167C78.9313 54.0266 78.7772 53.8726 78.5872 53.8726Z" fill="black"/>
<path opacity="0.2" d="M78.5872 58.4948H42.5555C42.3655 58.4948 42.2114 58.6489 42.2114 58.839V59.5369C42.2114 59.7269 42.3655 59.881 42.5555 59.881H78.5872C78.7772 59.881 78.9313 59.7269 78.9313 59.5369V58.839C78.9313 58.6489 78.7772 58.4948 78.5872 58.4948Z" fill="black"/>
<path opacity="0.2" d="M78.5872 63.1171H42.5555C42.3655 63.1171 42.2114 63.2712 42.2114 63.4612V64.1591C42.2114 64.3492 42.3655 64.5033 42.5555 64.5033H78.5872C78.7772 64.5033 78.9313 64.3492 78.9313 64.1591V63.4612C78.9313 63.2712 78.7772 63.1171 78.5872 63.1171Z" fill="black"/>
<path opacity="0.2" d="M78.5872 67.7393H42.5555C42.3655 67.7393 42.2114 67.8934 42.2114 68.0835V68.7814C42.2114 68.9714 42.3655 69.1255 42.5555 69.1255H78.5872C78.7772 69.1255 78.9313 68.9714 78.9313 68.7814V68.0835C78.9313 67.8934 78.7772 67.7393 78.5872 67.7393Z" fill="black"/>
<path opacity="0.2" d="M78.5872 72.3616H42.5555C42.3655 72.3616 42.2114 72.5157 42.2114 72.7058V73.4037C42.2114 73.5938 42.3655 73.7478 42.5555 73.7478H78.5872C78.7772 73.7478 78.9313 73.5938 78.9313 73.4037V72.7058C78.9313 72.5157 78.7772 72.3616 78.5872 72.3616Z" fill="black"/>
<path opacity="0.2" d="M78.5872 76.9839H42.5555C42.3655 76.9839 42.2114 77.138 42.2114 77.328V78.0259C42.2114 78.216 42.3655 78.3701 42.5555 78.3701H78.5872C78.7772 78.3701 78.9313 78.216 78.9313 78.0259V77.328C78.9313 77.138 78.7772 76.9839 78.5872 76.9839Z" fill="black"/>
<path opacity="0.2" d="M78.5872 81.6013H42.5555C42.3655 81.6013 42.2114 81.7554 42.2114 81.9455V82.6434C42.2114 82.8334 42.3655 82.9875 42.5555 82.9875H78.5872C78.7772 82.9875 78.9313 82.8334 78.9313 82.6434V81.9455C78.9313 81.7554 78.7772 81.6013 78.5872 81.6013Z" fill="black"/>
<path opacity="0.2" d="M78.5872 86.2236H42.5555C42.3655 86.2236 42.2114 86.3777 42.2114 86.5678V87.2657C42.2114 87.4557 42.3655 87.6098 42.5555 87.6098H78.5872C78.7772 87.6098 78.9313 87.4557 78.9313 87.2657V86.5678C78.9313 86.3777 78.7772 86.2236 78.5872 86.2236Z" fill="black"/>
<path d="M62.3256 103.766L62.1439 103.666C61.819 103.484 61.4528 103.388 61.0804 103.388C60.7079 103.388 60.3417 103.484 60.0168 103.666L59.1325 104.168L27.618 79.7324V120.066C27.6192 120.347 27.6763 120.625 27.786 120.883C27.8956 121.142 28.0557 121.376 28.2567 121.573C28.4578 121.769 28.6959 121.923 28.9572 122.026C29.2185 122.129 29.4977 122.18 29.7785 122.174H91.3641C92.5495 122.174 93.104 121.261 93.104 120.066V79.7324L62.3256 103.766Z" fill="#E6EDFF"/>
<path opacity="0.6" d="M62.3256 103.766L62.1439 103.666C61.819 103.484 61.4528 103.388 61.0804 103.388C60.7079 103.388 60.3417 103.484 60.0168 103.666L59.1325 104.168L27.618 79.7324V120.066C27.6192 120.347 27.6763 120.625 27.786 120.883C27.8956 121.142 28.0557 121.376 28.2567 121.573C28.4578 121.769 28.6959 121.923 28.9572 122.026C29.2185 122.129 29.4977 122.18 29.7785 122.174H91.3641C92.5495 122.174 93.104 121.261 93.104 120.066V79.7324L62.3256 103.766Z" fill="white"/>
<path opacity="0.2" d="M57.7081 103.073L59.1326 104.177L36.8625 116.82L57.7081 103.073Z" fill="black"/>
<path opacity="0.2" d="M86.651 117.298L62.2921 103.79L63.4154 102.911L86.651 117.298Z" fill="black"/>
<path d="M74.701 16.3782H48.0908C47.8717 16.3782 47.694 16.5559 47.694 16.775V18.5292C47.694 18.7483 47.8717 18.926 48.0908 18.926H74.701C74.9201 18.926 75.0978 18.7483 75.0978 18.5292V16.775C75.0978 16.5559 74.9201 16.3782 74.701 16.3782Z" fill="#E6EDFF"/>
<path d="M96.7703 29.7622H84.5C84.0774 29.761 83.6726 29.5922 83.3742 29.2929C83.0758 28.9937 82.9083 28.5883 82.9083 28.1657C82.9083 27.7436 83.076 27.3387 83.3745 27.0402C83.673 26.7417 84.0778 26.574 84.5 26.574H96.7703C97.1924 26.574 97.5973 26.7417 97.8958 27.0402C98.1943 27.3387 98.362 27.7436 98.362 28.1657C98.362 28.5883 98.1945 28.9937 97.8961 29.2929C97.5977 29.5922 97.1929 29.761 96.7703 29.7622Z" fill="#E6EDFF"/>
<path d="M36.8625 134.282H24.5923V145.911H36.8625V134.282Z" fill="#E6EDFF"/>
<path d="M51.7857 134.282H39.5154V145.911H51.7857V134.282Z" fill="#E6EDFF"/>
<path d="M66.7136 134.282H54.4434V145.911H66.7136V134.282Z" fill="#E6EDFF"/>
<path d="M81.6416 134.282H69.3713V145.911H81.6416V134.282Z" fill="#E6EDFF"/>
<path d="M96.5647 134.282H84.2944V145.911H96.5647V134.282Z" fill="#E6EDFF"/>
<path d="M96.7703 154.119H84.5C84.0778 154.119 83.673 153.951 83.3745 153.653C83.076 153.354 82.9083 152.949 82.9083 152.527C82.9083 152.104 83.0758 151.699 83.3742 151.4C83.6726 151.101 84.0774 150.932 84.5 150.93H96.7703C97.1929 150.932 97.5977 151.101 97.8961 151.4C98.1945 151.699 98.362 152.104 98.362 152.527C98.362 152.949 98.1943 153.354 97.8958 153.653C97.5973 153.951 97.1924 154.119 96.7703 154.119Z" fill="#E6EDFF"/>
<path opacity="0.1" d="M94.0409 0.283997L15.4625 112.098V62.5626L59.1899 0.283997H94.0409Z" fill="white"/>
<path opacity="0.1" d="M48.5831 0.283986L15.668 47.2905V5.2265C15.6421 4.58423 15.7468 3.94338 15.9758 3.34275C16.2047 2.74211 16.5532 2.19418 17.0001 1.73212C17.4469 1.27007 17.9829 0.903486 18.5756 0.654572C19.1682 0.405657 19.8052 0.279585 20.448 0.283986H48.5831Z" fill="white"/>
<path d="M125.402 8.36699C104.327 11.3354 76.2545 19.7004 52.1442 30.1925C36.4562 37.0183 9.09071 50.6078 2.09757 64.9192C0.00393474 69.2212 -0.0151846 73.2077 2.04978 76.7879C4.11474 80.3681 8.90907 82.8585 15.668 84.5554V83.7715C9.21499 82.1415 4.61663 79.785 2.69029 76.4342C0.763954 73.0834 0.778295 69.2976 2.76199 65.2346C7.79533 54.929 25.9068 42.3958 52.474 30.8473C76.4887 20.36 104.49 12.038 125.503 9.0792C125.597 9.06589 125.683 9.01561 125.74 8.93941C125.797 8.86322 125.822 8.76735 125.809 8.67291C125.795 8.57846 125.745 8.49317 125.669 8.4358C125.593 8.37843 125.497 8.35367 125.402 8.36699Z" fill="white"/>
<path d="M125.402 8.36699C104.327 11.3354 76.2545 19.7004 52.1442 30.1925C36.4562 37.0183 9.09071 50.6078 2.09757 64.9192C0.00393474 69.2212 -0.0151846 73.2077 2.04978 76.7879C4.11474 80.3681 8.90907 82.8585 15.668 84.5554V83.7715C9.21499 82.1415 4.61663 79.785 2.69029 76.4342C0.763954 73.0834 0.778295 69.2976 2.76199 65.2346C7.79533 54.929 25.9068 42.3958 52.474 30.8473C76.4887 20.36 104.49 12.038 125.503 9.0792C125.597 9.06589 125.683 9.01561 125.74 8.93941C125.797 8.86322 125.822 8.76735 125.809 8.67291C125.795 8.57846 125.745 8.49317 125.669 8.4358C125.593 8.37843 125.497 8.35367 125.402 8.36699Z" fill="#E6EDFF"/>
<path d="M2.36048 76.9695C2.29717 76.9698 2.23495 76.9531 2.1803 76.9212C2.12565 76.8892 2.08057 76.8432 2.04978 76.7879C-0.0151846 73.2077 0.00393474 69.2116 2.09757 64.9192C9.09071 50.6078 36.4562 37.0183 52.1442 30.1925C76.2545 19.7004 104.327 11.3354 125.402 8.36699C125.497 8.35367 125.593 8.37843 125.669 8.4358C125.745 8.49317 125.795 8.57846 125.809 8.67291C125.822 8.76735 125.797 8.86322 125.74 8.93941C125.683 9.01561 125.597 9.06589 125.503 9.0792C104.471 12.038 76.4887 20.3791 52.431 30.8473C25.8876 42.3958 7.77621 54.929 2.76199 65.2346C0.778295 69.2976 0.754394 73.0691 2.69029 76.4342C2.73397 76.5157 2.74443 76.611 2.71948 76.7001C2.69454 76.7892 2.63613 76.8652 2.55645 76.9122C2.49819 76.9502 2.43002 76.9701 2.36048 76.9695Z" fill="#E6EDFF"/>
<g opacity="0.8">
<path d="M2.36048 76.9695C2.29717 76.9698 2.23495 76.9531 2.1803 76.9212C2.12565 76.8892 2.08057 76.8432 2.04978 76.7879C-0.0151846 73.2077 0.00393474 69.2116 2.09757 64.9192C9.09071 50.6078 36.4562 37.0183 52.1442 30.1925C76.2545 19.7004 104.327 11.3354 125.402 8.36699C125.497 8.35367 125.593 8.37843 125.669 8.4358C125.745 8.49317 125.795 8.57846 125.809 8.67291C125.822 8.76735 125.797 8.86322 125.74 8.93941C125.683 9.01561 125.597 9.06589 125.503 9.0792C104.471 12.038 76.4887 20.3791 52.431 30.8473C25.8876 42.3958 7.77621 54.929 2.76199 65.2346C0.778295 69.2976 0.754394 73.0691 2.69029 76.4342C2.73397 76.5157 2.74443 76.611 2.71948 76.7001C2.69454 76.7892 2.63613 76.8652 2.55645 76.9122C2.49819 76.9502 2.43002 76.9701 2.36048 76.9695Z" fill="white"/>
</g>
<path d="M135.254 13.429L155.559 2.67401L137.797 8.51995L135.254 13.429Z" fill="#E6EDFF"/>
<path opacity="0.3" d="M135.254 13.429L155.559 2.67401L137.797 8.51995L135.254 13.429Z" fill="black"/>
<path d="M130.455 3.90725L134.212 6.49801L135.254 13.429L137.797 8.51995L144.231 11.756L155.559 2.67401L130.455 3.90725Z" fill="#E6EDFF"/>
<path opacity="0.6" d="M130.455 3.90725L134.212 6.49801L135.254 13.429L137.797 8.51995L144.231 11.756L155.559 2.67401L130.455 3.90725Z" fill="white"/>
<path opacity="0.2" d="M134.212 6.49801L155.559 2.67401L137.797 8.51995L135.254 13.429L134.212 6.49801Z" fill="black"/>
</svg>
