<svg width="132" height="120" viewBox="0 0 132 120" fill="none" xmlns="http://www.w3.org/2000/svg">
<rect width="132" height="120" rx="20" fill="#E2E8F9"/>
<path fill-rule="evenodd" clip-rule="evenodd" d="M37.4462 44.5877C35.0535 46.0831 33.6 48.7056 33.6 51.5272V83.8166C33.6 88.3363 37.2638 92 41.7833 92H90.8835C95.4031 92 99.0668 88.3363 99.0668 83.8166V51.5272C99.0668 48.7056 97.6135 46.0831 95.2206 44.5877L70.6706 29.2439C68.0171 27.5854 64.6498 27.5854 61.9962 29.2439L37.4462 44.5877ZM48.1447 54.4986C46.2644 53.2451 43.724 53.7532 42.4705 55.6335C41.217 57.5137 41.7251 60.0542 43.6054 61.3075L64.0637 74.9467C65.4381 75.8628 67.2287 75.8628 68.6031 74.9467L89.0614 61.3075C90.9416 60.0542 91.4498 57.5137 90.1965 55.6335C88.9428 53.7532 86.4023 53.2451 84.5221 54.4986L66.3334 66.6242L48.1447 54.4986Z" fill="#1648CE"/>
</svg>
