<svg width="193" height="300" viewBox="0 0 193 300" fill="none" xmlns="http://www.w3.org/2000/svg">
<g opacity="0.5">
<path d="M87.7229 177.085C103.103 168.955 121.303 165.385 138.633 165.765C143.331 165.847 148.014 166.322 152.633 167.185C153.573 167.365 153.983 165.915 153.033 165.735C135.663 162.415 116.923 164.525 100.253 170.145C95.6785 171.669 91.2341 173.558 86.9628 175.795C86.1128 176.245 86.8629 177.545 87.7229 177.085Z" fill="#5076DA"/>
<path d="M113.943 167.545C120.563 163.815 127.503 160.625 134.833 159.195C142.163 157.765 149.923 158.195 156.723 161.525C158.533 162.405 160.513 163.905 160.463 166.075C160.409 166.869 160.12 167.629 159.632 168.258C159.144 168.887 158.479 169.356 157.723 169.605C156.267 170.01 154.737 170.072 153.253 169.785C141.053 168.275 128.833 164.905 116.653 166.615" fill="#5076DA"/>
<path d="M92.8429 157.005C98.6468 149.422 105.677 142.861 113.643 137.595C121.742 132.05 130.555 127.629 139.843 124.455C144.586 122.821 149.47 121.629 154.433 120.895C155.433 120.755 154.973 119.315 154.033 119.445C144.659 120.916 135.568 123.827 127.083 128.075C118.112 132.371 109.782 137.894 102.333 144.485C98.3348 148.022 94.7092 151.959 91.5128 156.235C90.9428 157.015 92.2429 157.755 92.8129 156.995L92.8429 157.005Z" fill="#5076DA"/>
<path d="M115.123 138.095C119.023 125.76 126.641 114.933 136.933 107.095C138.083 106.204 139.336 105.452 140.663 104.855C143.463 103.675 146.263 106.555 145.273 109.645C144.813 111.067 144.052 112.373 143.043 113.475C140.893 115.845 138.043 117.215 135.303 118.765C127.353 123.363 120.522 129.668 115.303 137.225" fill="#5076DA"/>
<path d="M113.433 138.535L148.313 150.085C149.662 150.659 151.131 150.899 152.593 150.785C153.341 150.679 154.036 150.337 154.576 149.808C155.116 149.279 155.472 148.591 155.593 147.845C155.753 146.135 154.463 144.695 153.153 143.745C150.276 141.821 147.048 140.486 143.653 139.815C133.961 137.452 123.92 136.879 114.023 138.125" fill="#5076DA"/>
<path d="M173.063 116.625C172.9 115.896 172.564 115.216 172.083 114.644C171.603 114.071 170.993 113.622 170.303 113.335C168.964 112.828 167.532 112.61 166.103 112.695C151.743 112.815 138.283 120.195 126.283 128.805L123.173 132.005C136.863 124.695 153.603 128.865 167.913 123.125C169.301 122.648 170.57 121.877 171.633 120.865C172.184 120.318 172.6 119.65 172.849 118.914C173.097 118.178 173.17 117.394 173.063 116.625Z" fill="#5076DA"/>
<path d="M96.1828 144.485C94.2584 135.593 91.3226 126.95 87.4328 118.725C83.6084 110.353 79.0084 102.358 73.6928 94.8449C71.1661 91.2659 68.3927 87.8677 65.3928 84.6749C64.7228 83.9749 63.6628 85.0349 64.3328 85.7349C69.8965 91.752 74.7546 98.385 78.8128 105.505C83.5718 113.507 87.5629 121.941 90.7328 130.695C92.3991 135.325 93.7358 140.066 94.7328 144.885C94.9228 145.835 96.3728 145.435 96.1828 144.485Z" fill="#5076DA"/>
<path d="M49.6129 298.685C51.8729 293.075 53.8929 287.365 55.8629 281.685C58.5029 273.985 61.0229 266.245 63.4829 258.485C66.4029 249.251 69.2496 239.998 72.0229 230.725C75.0963 220.485 78.0963 210.228 81.0229 199.955C84.0963 189.242 87.0963 178.512 90.0229 167.765C92.9496 157.018 95.8029 146.352 98.5829 135.765C101.203 125.678 103.753 115.571 106.233 105.445C108.413 96.4448 110.533 87.4448 112.513 78.4448C114.123 71.0948 115.653 63.7248 116.963 56.3148C117.883 51.0848 118.753 45.8248 119.153 40.5348C119.223 39.6348 119.273 38.7248 119.293 37.8248C119.293 37.6259 119.214 37.4351 119.073 37.2945C118.933 37.1538 118.742 37.0748 118.543 37.0748C118.344 37.0748 118.153 37.1538 118.013 37.2945C117.872 37.4351 117.793 37.6259 117.793 37.8248C117.588 42.4848 117.067 47.1256 116.233 51.7148C115.103 58.6548 113.733 65.5448 112.283 72.4148C110.433 81.1148 108.443 89.7848 106.383 98.4148C104.01 108.335 101.553 118.231 99.0129 128.105C96.3062 138.665 93.5229 149.205 90.6629 159.725C87.7496 170.505 84.7696 181.271 81.7229 192.025C78.7696 202.458 75.7529 212.871 72.6729 223.265C69.8529 232.785 66.9696 242.281 64.0229 251.755C61.4729 259.935 58.8629 268.085 56.1329 276.205C54.0429 282.435 51.8929 288.655 49.5429 294.805C49.0929 295.985 48.6329 297.175 48.1629 298.345C47.8029 299.245 49.2529 299.635 49.6029 298.745L49.6129 298.685Z" fill="#5076DA"/>
<path d="M104.263 113.095C120.093 105.174 134.644 94.9231 147.433 82.6849C151.031 79.2786 154.449 75.687 157.673 71.9249C158.303 71.1949 157.243 70.1349 156.613 70.8649C144.931 84.2342 131.241 95.7047 116.033 104.865C111.966 107.358 107.796 109.668 103.523 111.795C102.653 112.225 103.413 113.515 104.283 113.085L104.263 113.095Z" fill="#5076DA"/>
<path d="M192.563 95.7749C192.555 94.8425 192.287 93.9307 191.789 93.1426C191.291 92.3545 190.582 91.7214 189.743 91.3149C188.117 90.6172 186.361 90.2762 184.593 90.3149L138.533 88.2349L139.623 88.4849C153.24 97.1591 169.218 101.381 185.343 100.565C186.906 100.553 188.45 100.212 189.873 99.5649C190.603 99.2088 191.231 98.6752 191.701 98.0131C192.171 97.3509 192.468 96.5813 192.563 95.7749Z" fill="#5076DA"/>
<path d="M145.113 85.3849C157.373 76.4349 169.733 65.3849 177.893 47.6849C178.943 45.4049 179.413 42.0749 177.893 40.1849C177.328 39.6126 176.583 39.2525 175.783 39.1651C174.984 39.0777 174.178 39.2683 173.503 39.7049C172.131 40.641 170.991 41.8794 170.173 43.3249C161.033 57.0049 151.973 70.0049 144.883 85.0049" fill="#5076DA"/>
<path d="M141.433 68.7449C142.123 67.0192 142.463 65.1733 142.433 63.3149C142.303 61.4549 141.283 59.5449 139.643 59.0249C138.946 58.8584 138.218 58.8819 137.534 59.093C136.85 59.3041 136.235 59.695 135.753 60.2249C134.74 61.335 133.962 62.6375 133.463 64.0549C129.083 74.7149 129.333 86.9549 126.143 98.1149L124.853 101.195C131.952 91.2563 137.539 80.321 141.433 68.7449Z" fill="#5076DA"/>
<path d="M78.5429 204.485C66.2894 193.07 55.8373 179.863 47.5429 165.315C45.1429 161.122 42.9229 156.842 40.8829 152.475C40.4729 151.605 39.1829 152.365 39.5929 153.235C46.7335 168.58 56.1161 182.779 67.4329 195.365C70.6329 198.905 73.9862 202.298 77.4929 205.545C78.1929 206.205 79.2629 205.145 78.5529 204.485H78.5429Z" fill="#5076DA"/>
<path d="M0.0528428 165.095C0.285075 164.21 0.771635 163.412 1.45235 162.801C2.13306 162.19 2.97808 161.791 3.88286 161.655C5.63915 161.481 7.41222 161.686 9.08284 162.255L53.8928 174.105L52.7829 174.005C37.282 178.249 20.8387 177.507 5.78285 171.885C4.26749 171.411 2.86532 170.632 1.66286 169.595C1.04734 169.033 0.578746 168.33 0.298082 167.545C0.0174185 166.761 -0.0667809 165.919 0.0528428 165.095Z" fill="#5076DA"/>
<path d="M48.2228 169.905C38.6828 157.625 29.5928 143.255 26.2228 123.815C25.7828 121.305 26.2228 117.965 28.1628 116.625C29.5028 115.715 31.3528 116.285 32.5028 117.475C33.579 118.785 34.357 120.314 34.7828 121.955C40.0928 137.815 45.5128 153.105 48.5428 169.655" fill="#5076DA"/>
<path d="M55.9928 155.005C55.7628 153.153 55.8987 151.274 56.3928 149.475C56.9928 147.735 58.4428 146.205 60.1528 146.195C60.8778 146.252 61.5757 146.495 62.1785 146.902C62.7814 147.308 63.2686 147.864 63.5928 148.515C64.2858 149.877 64.7069 151.362 64.8328 152.885C66.3528 164.455 63.0328 176.145 63.2828 187.825L63.7528 191.175C59.4496 179.551 56.8363 167.371 55.9928 155.005Z" fill="#5076DA"/>
<path d="M141.263 37.8048C141.483 36.2748 141.313 34.4848 140.193 33.5448C138.373 32.0148 135.813 33.8348 134.193 35.6248C125.501 45.4039 118.79 56.7777 114.433 69.1148L114.263 71.3248C123.055 64.392 130.752 56.1729 137.093 46.9448C138.943 44.1948 140.783 41.2148 141.263 37.8048Z" fill="#5076DA"/>
<path d="M119.513 45.5849C121.703 33.8448 122.693 21.6548 120.573 9.90484C120.268 7.7289 119.592 5.62155 118.573 3.67484C118.098 2.74072 117.416 1.92732 116.579 1.29655C115.742 0.665778 114.772 0.234266 113.743 0.0348457C110.823 -0.325154 108.083 2.15485 107.003 5.13485C105.923 8.11485 106.153 11.4648 106.653 14.6248C108.533 26.6248 113.863 37.7048 119.233 48.4248" fill="#5076DA"/>
<path d="M109.693 82.3648C105.228 73.0553 99.6103 64.3437 92.9729 56.4348C92.2257 55.4403 91.304 54.5899 90.2529 53.9248C89.743 53.6019 89.156 53.4215 88.5528 53.4021C87.9497 53.3828 87.3523 53.5253 86.8229 53.8148C86.2118 54.3109 85.752 54.9683 85.4957 55.7124C85.2394 56.4566 85.1968 57.2577 85.3728 58.0248C85.7354 59.5595 86.4168 61.0007 87.3728 62.2548C93.4441 71.2261 101.268 78.8763 110.373 84.7448" fill="#5076DA"/>
<path d="M84.5728 111.415C87.7714 100.703 88.8348 89.4668 87.7028 78.3449C87.675 76.9532 87.3332 75.5859 86.7028 74.3449C86.4135 73.7628 85.932 73.2986 85.3398 73.0308C84.7475 72.7629 84.081 72.7078 83.4528 72.8749C82.0228 73.4549 81.5828 75.3949 81.4028 77.0549C80.2248 88.0949 81.3624 99.2593 84.7428 109.835" fill="#5076DA"/>
<path d="M72.8729 92.2949C65.6629 77.3449 50.0729 67.7249 34.6229 68.6749C32.4529 68.8049 29.8229 69.5449 29.2629 71.8449C28.7029 74.1449 30.7229 76.2549 32.6229 77.4749C44.3029 84.8949 60.0529 83.4749 70.1329 93.2649" fill="#5076DA"/>
<path d="M83.0229 110.685C76.5664 107.131 69.1701 105.657 61.8443 106.464C54.5186 107.271 47.6207 110.32 42.0929 115.195C40.1629 116.905 38.2229 119.625 39.3029 122.075C39.6286 122.732 40.1257 123.289 40.7418 123.687C41.3579 124.084 42.07 124.308 42.8029 124.335C44.234 124.332 45.6518 124.06 46.9829 123.535L84.3629 111.285" fill="#5076DA"/>
<path d="M65.0628 253.145C70.5779 246.548 76.8474 240.621 83.7428 235.485C90.4592 230.359 97.6837 225.936 105.303 222.285C109.047 220.49 112.934 219.008 116.923 217.855C117.018 217.829 117.107 217.784 117.185 217.723C117.263 217.662 117.328 217.587 117.377 217.501C117.426 217.415 117.457 217.321 117.469 217.223C117.481 217.125 117.474 217.025 117.448 216.93C117.422 216.835 117.377 216.746 117.316 216.668C117.255 216.59 117.18 216.525 117.094 216.476C117.008 216.427 116.914 216.396 116.816 216.384C116.717 216.371 116.618 216.379 116.523 216.405C109.048 218.672 101.898 221.899 95.2528 226.005C87.6678 230.47 80.5577 235.697 74.0328 241.605C70.4513 244.853 67.1092 248.355 64.0328 252.085C63.4228 252.825 64.4828 253.895 65.0928 253.145H65.0628Z" fill="#5076DA"/>
<path d="M88.4329 230.695C90.3828 219.817 94.4975 209.442 100.533 200.185C101.173 199.018 102.081 198.021 103.183 197.275C103.726 196.929 104.373 196.786 105.012 196.87C105.65 196.954 106.238 197.261 106.673 197.735C107.673 199.005 107.173 200.935 106.593 202.475C102.683 212.715 96.0629 223.375 88.4329 230.695Z" fill="#5076DA"/>
<path d="M149.013 219.925C135.963 210.825 117.173 211.725 104.183 220.925L106.183 221.925C119.373 218.755 133.333 228.925 146.843 228.655C149.043 228.655 151.733 227.885 152.293 225.555C152.853 223.225 150.843 221.205 149.013 219.925Z" fill="#5076DA"/>
<path d="M89.4329 229.615C103.933 230.125 117.733 240.705 123.093 255.435C124.013 257.955 124.483 261.365 122.443 262.925C121.843 263.325 121.143 263.546 120.422 263.564C119.702 263.582 118.991 263.395 118.373 263.025C117.117 262.247 116.007 261.256 115.093 260.095C106.093 249.865 97.4629 240.915 88.4229 230.695" fill="#5076DA"/>
<path d="M107.433 170.495C118.648 176.183 128.918 183.566 137.883 192.385C138.963 193.445 140.163 194.585 141.613 194.605C143.693 194.605 145.223 192.135 145.083 189.865C144.798 187.653 143.797 185.595 142.233 184.005C137.762 179.105 132.072 175.479 125.743 173.495C119.603 171.405 113.193 170.495 106.813 169.495" fill="#5076DA"/>
</g>
</svg>
