<svg width="326" height="326" viewBox="0 0 326 326" fill="none" xmlns="http://www.w3.org/2000/svg">
<path d="M69.2034 207.238C64.4321 207.238 59.768 205.823 55.8008 203.173C51.8336 200.522 48.7416 196.754 46.9157 192.346C45.0898 187.938 44.6121 183.087 45.5429 178.408C46.4737 173.728 48.7713 169.43 52.1451 166.056C55.5189 162.682 59.8174 160.385 64.497 159.454C69.1766 158.523 74.0271 159.001 78.4352 160.827C82.8433 162.652 86.611 165.744 89.2617 169.712C91.9125 173.679 93.3274 178.343 93.3274 183.114C93.3274 189.512 90.7857 195.648 86.2616 200.172C81.7375 204.697 75.6014 207.238 69.2034 207.238ZM69.2034 160.112C64.6484 160.11 60.1955 161.46 56.4076 163.989C52.6197 166.519 49.667 170.115 47.923 174.323C46.179 178.531 45.7221 183.161 46.6099 187.629C47.4977 192.096 49.6905 196.2 52.9108 199.422C56.1312 202.643 60.2345 204.837 64.7018 205.726C69.1691 206.615 73.7997 206.159 78.008 204.417C82.2163 202.674 85.8133 199.722 88.344 195.935C90.8747 192.148 92.2255 187.695 92.2255 183.14C92.2186 177.036 89.791 171.184 85.4752 166.866C81.1594 162.549 75.3077 160.12 69.2034 160.112Z" fill="#EBEBEB"/>
<path d="M67.9907 210.648C67.6255 210.648 67.2604 210.609 66.8953 210.583L66.9866 209.514C67.3321 209.514 67.6842 209.566 68.0363 209.579L67.9907 210.648ZM71.8244 210.55L71.7201 209.488C72.0722 209.455 72.4177 209.409 72.7698 209.364L72.9133 210.426C72.5547 210.479 72.1961 210.518 71.8244 210.55ZM63.1007 209.996C62.7421 209.918 62.39 209.827 62.0314 209.735L62.3117 208.699C62.6508 208.79 62.9963 208.875 63.3354 208.953L63.1007 209.996ZM76.6818 209.651L76.3884 208.614C76.7275 208.523 77.0404 208.418 77.399 208.307L77.7315 209.331L76.6818 209.651ZM58.4258 208.477C58.0868 208.334 57.7738 208.184 57.4217 208.027L57.8781 207.056C58.1976 207.212 58.5301 207.356 58.8431 207.492L58.4258 208.477ZM81.3045 207.89L80.8351 206.925C81.1545 206.769 81.4871 206.612 81.7739 206.443L82.2825 207.388C81.9435 207.558 81.6175 207.727 81.2849 207.89H81.3045ZM54.077 206.143C53.7705 205.941 53.4641 205.732 53.1707 205.491L53.8227 204.617C54.1031 204.826 54.3965 205.028 54.6899 205.217L54.077 206.143ZM85.5229 205.334L84.8709 204.467L85.7055 203.815L86.3575 204.65C86.0641 204.891 85.7968 205.119 85.5034 205.334H85.5229ZM50.2041 203.065C49.9368 202.811 49.676 202.557 49.4217 202.29L50.2041 201.546C50.4519 201.801 50.6996 202.048 50.9539 202.29L50.2041 203.065ZM89.2067 202.068L88.4309 201.331C88.6721 201.077 88.9068 200.816 89.1415 200.549L89.9435 201.253C89.6957 201.533 89.4545 201.801 89.2002 202.068H89.2067ZM46.9441 199.356C46.7289 199.062 46.5203 198.762 46.2921 198.456L47.1853 197.862C47.3809 198.149 47.5831 198.443 47.7917 198.723L46.9441 199.356ZM92.2581 198.208L91.3649 197.621C91.5539 197.328 91.743 197.028 91.9256 196.728L92.8449 197.276C92.6558 197.556 92.4602 197.889 92.2581 198.208ZM44.4078 195.144C44.2448 194.811 44.0949 194.492 43.9449 194.146L44.9294 193.716C45.0729 194.042 45.2163 194.368 45.3663 194.674L44.4078 195.144ZM94.6118 193.84L93.6273 193.422C93.7642 193.096 93.8946 192.77 94.0185 192.438L95.0226 192.816C94.8596 193.162 94.7227 193.501 94.5792 193.84H94.6118ZM42.6931 190.514C42.5953 190.162 42.5105 189.81 42.4257 189.452L43.4689 189.204C43.5472 189.549 43.6319 189.888 43.7297 190.228L42.6931 190.514ZM96.1114 189.132L95.0682 188.897C95.1465 188.558 95.2117 188.213 95.2769 187.867L96.3331 188.056C96.2353 188.428 96.1636 188.774 96.0788 189.132H96.1114ZM41.8129 185.664C41.7781 185.298 41.752 184.933 41.7346 184.568L42.7713 184.516C42.7713 184.868 42.7974 185.22 42.8495 185.572L41.8129 185.664ZM96.7439 184.236L95.6746 184.197C95.6746 183.844 95.6746 183.492 95.6746 183.14V183.029H96.7504V183.134C96.7373 183.512 96.7308 183.864 96.7113 184.236H96.7439ZM42.8365 180.819L41.7672 180.728C41.7672 180.363 41.8389 179.998 41.8846 179.639L42.9473 179.769C42.9082 180.122 42.8691 180.467 42.8365 180.819ZM95.3942 179.352C95.3421 179.007 95.2899 178.655 95.2247 178.315L96.2809 178.12C96.3461 178.478 96.4048 178.837 96.457 179.202L95.3942 179.352ZM43.6841 176.151L42.6474 175.87C42.7474 175.518 42.8517 175.166 42.9604 174.814L43.984 175.14C43.8601 175.473 43.7623 175.812 43.6841 176.151ZM94.3054 174.736C94.188 174.397 94.0707 174.084 93.9468 173.738L94.9509 173.36C95.0813 173.699 95.2051 174.045 95.3225 174.39L94.3054 174.736ZM45.3271 171.704L44.3361 171.248C44.4926 170.915 44.6556 170.596 44.8316 170.263L45.777 170.765C45.6401 171.078 45.4771 171.391 45.3271 171.711V171.704ZM92.4015 170.4C92.232 170.094 92.056 169.787 91.8734 169.487L92.7927 168.933C92.9818 169.246 93.1644 169.585 93.3404 169.885L92.4015 170.4ZM47.7526 167.636L46.8854 166.984C47.1006 166.69 47.3223 166.397 47.5374 166.11L48.3785 166.762C48.1764 167.068 47.9612 167.349 47.7526 167.636ZM89.7544 166.469C89.5327 166.195 89.3154 165.927 89.1024 165.667L89.9109 164.956C90.1521 165.23 90.3869 165.51 90.6151 165.791L89.7544 166.469ZM50.8561 164.056L50.1128 163.28C50.3801 163.026 50.6475 162.778 50.9213 162.537L51.632 163.339C51.3842 163.574 51.1234 163.808 50.8561 164.056ZM86.4357 163.072C86.1684 162.837 85.8946 162.615 85.6207 162.42L86.2727 161.579C86.5596 161.807 86.84 162.035 87.1203 162.276L86.4357 163.072ZM54.5529 161.116L53.9596 160.222L54.8855 159.629L55.4462 160.548C55.1593 160.705 54.8594 160.894 54.566 161.09L54.5529 161.116ZM82.5889 160.333L81.6696 159.818L82.1717 158.873C82.4977 159.049 82.8237 159.225 83.1301 159.414L82.5889 160.333ZM58.7323 158.827L58.3085 157.843C58.641 157.699 58.9605 157.562 59.3191 157.432L59.7103 158.429C59.3777 158.56 59.0517 158.69 58.7323 158.827ZM78.2923 158.286C77.9597 158.162 77.6403 158.051 77.2882 157.94L77.6207 156.917C77.9663 157.034 78.3183 157.152 78.6574 157.275L78.2923 158.286ZM63.2441 157.354L63.0029 156.31C63.3549 156.226 63.7135 156.154 64.0787 156.082L64.2743 157.139C63.8961 157.204 63.5766 157.275 63.2441 157.354ZM73.7217 157.06C73.3762 157.002 73.0306 156.949 72.6785 156.904L72.8155 155.841C73.1806 155.887 73.5457 155.945 73.9043 156.004L73.7217 157.06ZM67.9385 156.708L67.8863 155.639C68.2515 155.639 68.6166 155.639 68.9882 155.606V156.682C68.6361 156.682 68.2841 156.689 67.932 156.708H67.9385Z" fill="#EBEBEB"/>
<path d="M65.5065 198.045H72.9328V186.844H84.1342V179.417H72.9328V168.216H65.5065V179.417H54.3052V186.844H65.5065V198.045Z" fill="#EBEBEB"/>
<path d="M271.773 84.3623C267.754 89.7362 262.626 94.1833 256.738 97.4023C250.863 94.1796 245.749 89.7326 241.742 84.3623C236.448 77.3598 236.709 66.3932 244.278 64.0199C252.65 61.4119 256.764 74.002 256.764 74.002C256.764 74.002 260.937 61.3206 269.256 64.0199C276.774 66.504 277.061 77.3598 271.773 84.3623Z" fill="#EBEBEB"/>
<path d="M250.837 91.8668L248.555 82.3672L247.062 85.7184H237.85V84.6426H246.371L248.855 79.042L250.635 86.4487L253.152 71.1006L255.375 83.2408L257.129 78.1748L259.894 86.4748L260.507 84.6426H275.646V85.7119H261.282L259.894 89.8586L257.11 81.5065L255.049 87.4528L253.211 77.3794L250.837 91.8668Z" fill="white"/>
<path d="M256.764 101.908C251.993 101.908 247.329 100.493 243.362 97.842C239.394 95.1912 236.302 91.4235 234.476 87.0155C232.651 82.6074 232.173 77.7568 233.104 73.0772C234.035 68.3976 236.332 64.0992 239.706 60.7254C243.08 57.3516 247.378 55.054 252.058 54.1231C256.737 53.1923 261.588 53.67 265.996 55.4959C270.404 57.3218 274.172 60.4139 276.823 64.381C279.473 68.3482 280.888 73.0123 280.888 77.7836C280.888 84.1817 278.347 90.3177 273.822 94.8418C269.298 99.366 263.162 101.908 256.764 101.908ZM256.764 54.781C252.21 54.781 247.757 56.1316 243.97 58.6621C240.183 61.1925 237.231 64.7891 235.488 68.997C233.745 73.2049 233.289 77.8352 234.178 82.3023C235.067 86.7695 237.26 90.8728 240.48 94.0934C243.701 97.314 247.804 99.5073 252.271 100.396C256.739 101.284 261.369 100.828 265.577 99.0854C269.785 97.3424 273.381 94.3907 275.912 90.6037C278.442 86.8167 279.793 82.3643 279.793 77.8097C279.791 71.7014 277.365 65.8437 273.047 61.5233C268.729 57.2029 262.872 54.7732 256.764 54.768V54.781Z" fill="#EBEBEB"/>
<path d="M255.584 105.318C255.219 105.318 254.854 105.278 254.489 105.246L254.58 104.177C254.926 104.209 255.278 104.229 255.636 104.248L255.584 105.318ZM259.424 105.22L259.32 104.15C259.672 104.118 260.024 104.079 260.37 104.033L260.513 105.096C260.148 105.142 259.757 105.187 259.392 105.22H259.424ZM250.694 104.666C250.336 104.587 249.983 104.496 249.631 104.405L249.905 103.368C250.244 103.459 250.59 103.544 250.935 103.622L250.694 104.666ZM264.275 104.313L263.982 103.283C264.321 103.186 264.634 103.088 264.992 102.977L265.325 104.001C264.947 104.111 264.595 104.216 264.243 104.32L264.275 104.313ZM246.019 103.146C245.68 103.003 245.367 102.853 245.015 102.697L245.472 101.725L246.437 102.162L246.019 103.146ZM268.904 102.553L268.435 101.588C268.748 101.438 269.087 101.275 269.367 101.112L269.876 102.051C269.504 102.227 269.178 102.397 268.852 102.553H268.904ZM241.67 100.806C241.364 100.604 241.064 100.395 240.764 100.154L241.416 99.28C241.703 99.4887 241.99 99.6843 242.283 99.8799L241.67 100.806ZM273.116 99.9972L272.464 99.1366C272.751 98.928 273.025 98.7128 273.299 98.4846L273.951 99.3257C273.651 99.5604 273.364 99.756 273.064 99.9972H273.116ZM237.811 97.7348C237.543 97.4805 237.283 97.2197 237.028 96.9589L237.804 96.2156C238.048 96.4634 238.295 96.7112 238.547 96.9589L237.811 97.7348ZM276.813 96.7372L276.037 95.994C276.279 95.7397 276.513 95.4789 276.748 95.2181L277.557 95.9222C277.263 96.1961 277.015 96.496 276.761 96.7372H276.813ZM234.557 94.0249C234.342 93.725 234.133 93.4316 233.905 93.1252L234.792 92.5253C234.987 92.8187 235.19 93.1056 235.398 93.3925L234.557 94.0249ZM279.878 92.8644L278.978 92.2776C279.167 91.9776 279.356 91.6842 279.539 91.3778L280.458 91.932C280.217 92.245 280.021 92.584 279.825 92.8644H279.878ZM232.021 89.7934C231.858 89.4674 231.708 89.1414 231.564 88.8024L232.542 88.3721C232.686 88.6916 232.829 89.0241 232.986 89.3305L232.021 89.7934ZM282.225 88.4894L281.24 88.0722C281.377 87.7527 281.508 87.4202 281.632 87.0942L282.636 87.4723C282.42 87.8244 282.316 88.17 282.14 88.5025L282.225 88.4894ZM230.313 85.1708C230.215 84.8187 230.124 84.4601 230.039 84.108L231.082 83.8602C231.16 84.2058 231.252 84.5448 231.343 84.8839L230.313 85.1708ZM283.62 83.8016L282.57 83.5668C282.649 83.2213 282.72 82.8757 282.779 82.5302L283.835 82.7192C283.796 83.0844 283.724 83.456 283.62 83.8016ZM229.315 80.3264C229.28 79.9656 229.254 79.6005 229.237 79.231L230.306 79.1789C230.306 79.531 230.352 79.883 230.384 80.2286L229.315 80.3264ZM284.272 78.892L283.196 78.8529C283.196 78.5008 283.196 78.1487 283.196 77.7966V77.6858H284.272V77.7901C284.272 78.1748 284.272 78.5399 284.272 78.892ZM230.391 75.4755L229.328 75.3842C229.328 75.0191 229.393 74.654 229.439 74.2889L230.508 74.4258C230.469 74.7844 230.43 75.1365 230.397 75.4886L230.391 75.4755ZM282.968 74.0216C282.923 73.6695 282.864 73.3239 282.799 72.9784L283.855 72.7828C283.92 73.1414 283.979 73.5065 284.031 73.8651L282.968 74.0216ZM231.245 70.8202L230.208 70.5399C230.306 70.1813 230.41 69.8357 230.521 69.4836L231.545 69.8096C231.46 70.1422 231.323 70.4812 231.232 70.8202H231.245ZM281.879 69.4054C281.768 69.0729 281.645 68.7534 281.521 68.4144L282.525 68.0297C282.655 68.3774 282.779 68.723 282.896 69.0664L281.879 69.4054ZM232.901 66.3736L231.936 65.9107C232.093 65.5782 232.262 65.2587 232.432 64.9327L233.377 65.4347C233.201 65.7412 233.045 66.0606 232.888 66.3736H232.901ZM279.975 65.0696C279.806 64.7566 279.63 64.4567 279.447 64.1568L280.367 63.6026C280.556 63.909 280.738 64.2546 280.914 64.548L279.975 65.0696ZM235.333 62.2986L234.459 61.6466C234.677 61.3467 234.894 61.0533 235.111 60.7664L235.952 61.4184C235.737 61.7314 235.522 62.0182 235.32 62.2986H235.333ZM277.328 61.138C277.107 60.8642 276.878 60.5969 276.644 60.3296L277.452 59.6254C277.693 59.8992 277.928 60.1731 278.156 60.46L277.328 61.138ZM238.443 58.7191L237.7 57.9498C237.967 57.6955 238.234 57.4477 238.508 57.2065L239.206 58.028C238.945 58.2432 238.684 58.4779 238.43 58.7191H238.443ZM274.023 57.7346C273.755 57.5064 273.482 57.2847 273.208 57.0826L273.86 56.2415C274.147 56.4697 274.427 56.7044 274.707 56.9457L274.023 57.7346ZM242.146 55.7786L241.547 54.8919C241.853 54.6832 242.159 54.4876 242.472 54.2986L243.033 55.2179C242.72 55.3744 242.42 55.5634 242.133 55.7525L242.146 55.7786ZM270.182 55.0027C269.883 54.8267 269.576 54.6506 269.263 54.4876L269.765 53.5422C270.091 53.7118 270.417 53.8943 270.724 54.0769L270.182 55.0027ZM246.326 53.5227L245.902 52.5382C246.232 52.3947 246.571 52.2578 246.919 52.1274L247.304 53.125C246.939 53.2228 246.619 53.3597 246.293 53.4966L246.326 53.5227ZM265.886 52.975C265.553 52.8576 265.234 52.7403 264.888 52.636L265.214 51.6123C265.566 51.7232 265.912 51.8405 266.257 51.9709L265.886 52.975ZM250.825 52.0492L250.583 50.9994C250.935 50.9212 251.294 50.843 251.659 50.7778L251.855 51.8275C251.483 51.8666 251.138 51.9448 250.798 52.0231L250.825 52.0492ZM261.302 51.7558C260.957 51.6971 260.611 51.6449 260.259 51.5993L260.396 50.5365C260.761 50.5822 261.126 50.6343 261.485 50.6995L261.302 51.7558ZM255.519 51.4037L255.473 50.3279C255.832 50.3279 256.197 50.3279 256.569 50.3279V51.3972C256.197 51.3515 255.845 51.358 255.493 51.3776L255.519 51.4037Z" fill="#EBEBEB"/>
<path d="M96.113 74.4098C100.552 58.2498 91.0504 41.551 74.8904 37.1119C58.7304 32.6729 42.0316 42.1745 37.5926 58.3345C33.1535 74.4945 42.6552 91.1933 58.8151 95.6323C74.9751 100.071 91.6739 90.5697 96.113 74.4098Z" fill="#EBEBEB"/>
<path d="M79.175 93.8678C93.9832 87.8307 101.094 70.9322 95.0565 56.124C89.0194 41.3157 72.1209 34.2053 57.3127 40.2424C42.5045 46.2795 35.394 63.178 41.4311 77.9863C47.4682 92.7945 64.3667 99.9049 79.175 93.8678Z" fill="#DBDBDB"/>
<path d="M68.2448 94.1749C83.2245 94.1749 95.368 82.0314 95.368 67.0517C95.368 52.0719 83.2245 39.9285 68.2448 39.9285C53.2651 39.9285 41.1216 52.0719 41.1216 67.0517C41.1216 82.0314 53.2651 94.1749 68.2448 94.1749Z" fill="white"/>
<path opacity="0.5" d="M94.7617 61.288C82.3737 68.773 62.103 81.0501 50.7582 87.7788C47.5513 85.0746 45.014 81.6647 43.345 77.8162L80.848 43.032C84.3595 44.8745 87.4248 47.4637 89.8285 50.6177C92.2323 53.7716 93.9161 57.4137 94.7617 61.288Z" fill="#EBEBEB"/>
<path opacity="0.5" d="M95.3551 67.9971C95.2569 71.0153 94.6508 73.9954 93.5621 76.8121L59.7298 92.8122C58.2552 92.3282 56.8262 91.7151 55.4592 90.9801C65.6761 85.0729 84.3494 74.328 95.3551 67.9971Z" fill="#EBEBEB"/>
<path d="M68.5057 41.8975H67.9841V46.0116H68.5057V41.8975Z" fill="#C7C7C7"/>
<path d="M55.8934 45.1287L55.4417 45.3895L57.4987 48.9524L57.9504 48.6916L55.8934 45.1287Z" fill="#C7C7C7"/>
<path d="M46.5875 54.2408L46.3267 54.6925L49.8896 56.7495L50.1504 56.2978L46.5875 54.2408Z" fill="#C7C7C7"/>
<path d="M47.2047 66.7909H43.0906V67.3125H47.2047V66.7909Z" fill="#C7C7C7"/>
<path d="M49.8903 77.3454L46.3274 79.4025L46.5882 79.8542L50.1511 77.7971L49.8903 77.3454Z" fill="#C7C7C7"/>
<path d="M57.4982 85.1394L55.4436 88.7037L55.8955 88.9642L57.9501 85.3999L57.4982 85.1394Z" fill="#C7C7C7"/>
<path d="M68.5057 88.0982H67.9841V92.2124H68.5057V88.0982Z" fill="#C7C7C7"/>
<path d="M78.9925 85.1438L78.5408 85.4046L80.5978 88.9676L81.0496 88.7068L78.9925 85.1438Z" fill="#C7C7C7"/>
<path d="M86.9039 76.9939L86.6431 77.4477L90.2223 79.5047L90.4831 79.051L86.9039 76.9939Z" fill="#C7C7C7"/>
<path d="M93.4056 66.7909H89.2915V67.3125H93.4056V66.7909Z" fill="#C7C7C7"/>
<path d="M89.9055 54.2527L86.3425 56.3098L86.6033 56.7615L90.1663 54.7044L89.9055 54.2527Z" fill="#C7C7C7"/>
<path d="M80.5983 45.1327L78.5425 48.6963L78.9943 48.957L81.0501 45.3933L80.5983 45.1327Z" fill="#C7C7C7"/>
<path d="M68.6426 43.7557L69.5359 68.8838L66.9604 68.8512L67.945 43.7492L68.6426 43.7557Z" fill="#C7C7C7"/>
<path d="M84.2906 58.2888L67.3907 69.0794L66.1584 66.817L83.958 57.6759L84.2906 58.2888Z" fill="#A6A6A6"/>
<path d="M69.112 67.0517C69.112 67.2258 69.0603 67.3959 68.9636 67.5407C68.8669 67.6854 68.7294 67.7983 68.5686 67.8649C68.4078 67.9315 68.2308 67.9489 68.06 67.915C67.8893 67.881 67.7325 67.7972 67.6094 67.6741C67.4863 67.551 67.4024 67.3941 67.3685 67.2234C67.3345 67.0527 67.3519 66.8757 67.4186 66.7148C67.4852 66.554 67.598 66.4165 67.7427 66.3198C67.8875 66.2231 68.0577 66.1715 68.2318 66.1715C68.4652 66.1715 68.6891 66.2642 68.8542 66.4293C69.0192 66.5944 69.112 66.8182 69.112 67.0517Z" fill="#C7C7C7"/>
<path d="M53.8488 213.243L45.2945 213.419L40.9522 213.497C39.4983 213.497 38.0378 213.497 36.5838 213.53H36.2969V213.243L36.2578 205.947V205.615H36.5838L45.2163 205.654C48.0981 205.654 50.9734 205.726 53.8488 205.758H54.0313V205.934C54.0313 207.166 53.9727 208.399 53.9466 209.618L53.8488 213.243ZM53.8488 213.243L53.7575 209.553C53.7575 208.34 53.6858 207.14 53.6727 205.947L53.8488 206.123C50.9734 206.156 48.0981 206.228 45.2163 206.228L36.5838 206.273L36.9098 205.947V213.243L36.6164 212.95C38.0378 212.95 39.4591 212.95 40.887 212.982L45.1772 213.061L53.8488 213.243Z" fill="#EBEBEB"/>
<path d="M44.2186 222.443L35.6644 222.619L31.3221 222.697C29.8681 222.697 28.4076 222.697 26.9537 222.73H26.6668V222.443L26.6277 215.16V214.827H26.9537L35.5862 214.867C38.4615 214.867 41.3433 214.938 44.2186 214.971H44.4012V215.16C44.4012 216.392 44.349 217.625 44.3164 218.844L44.2186 222.443ZM44.2186 222.443L44.1274 218.753C44.0948 217.54 44.0556 216.34 44.0426 215.147L44.2186 215.323C41.3433 215.356 38.4615 215.427 35.5862 215.427L26.9537 215.466L27.2797 215.147L27.2471 222.443L26.9537 222.149C28.375 222.149 29.7964 222.149 31.2243 222.149L35.5144 222.228L44.2186 222.443Z" fill="#EBEBEB"/>
<path d="M220.767 132.023L212.207 132.206L207.864 132.278C206.417 132.31 204.956 132.278 203.502 132.317H203.215V132.023L203.183 124.728V124.402H203.509L212.141 124.447C215.017 124.447 217.898 124.519 220.774 124.552H220.956V124.728C220.956 125.966 220.904 127.199 220.872 128.418L220.767 132.023ZM220.767 132.023L220.676 128.34C220.676 127.127 220.604 125.921 220.591 124.728L220.767 124.91C217.892 124.91 215.01 125.008 212.135 125.014L203.502 125.054L203.828 124.728L203.789 132.023L203.502 131.737C204.924 131.737 206.345 131.737 207.766 131.737L212.057 131.808L220.767 132.023Z" fill="#EBEBEB"/>
<path d="M211.137 141.223L202.576 141.406L198.208 141.484C196.761 141.484 195.3 141.484 193.846 141.523H193.553V141.23V133.934V133.608H193.879L202.511 133.653C205.387 133.653 208.262 133.725 211.144 133.758H211.32V133.934C211.32 135.173 211.261 136.405 211.235 137.624L211.137 141.223ZM211.137 141.223L211.046 137.539C211.013 136.327 210.968 135.12 210.955 133.927L211.137 134.11C208.255 134.142 205.38 134.208 202.505 134.214L193.872 134.253L194.198 133.927L194.159 141.223L193.872 140.936C195.294 140.936 196.715 140.936 198.136 140.969L202.426 141.041L211.137 141.223Z" fill="#EBEBEB"/>
<path d="M201.54 132.023L192.985 132.206L188.643 132.278C187.189 132.31 185.735 132.278 184.275 132.317H183.988V132.023L183.949 124.728V124.402H184.275L192.907 124.447C195.789 124.447 198.664 124.519 201.54 124.552H201.722V124.728C201.722 125.966 201.664 127.199 201.637 128.418L201.54 132.023ZM201.54 132.023L201.448 128.34C201.448 127.127 201.377 125.921 201.364 124.728L201.54 124.91C198.664 124.91 195.789 125.008 192.907 125.014L184.275 125.054L184.601 124.728L184.568 132.023L184.275 131.737C185.703 131.737 187.117 131.737 188.545 131.737L192.835 131.808L201.54 132.023Z" fill="#EBEBEB"/>
<path d="M299.046 222.443L290.486 222.619L286.143 222.697C284.696 222.697 283.235 222.697 281.781 222.73H281.488V222.443L281.455 215.16V214.827H281.781L290.414 214.867C293.289 214.867 296.171 214.938 299.046 214.971H299.222V215.16C299.222 216.392 299.17 217.625 299.138 218.844L299.046 222.443ZM299.046 222.443L298.955 218.753C298.955 217.54 298.877 216.34 298.87 215.147L299.046 215.323C296.171 215.356 293.289 215.427 290.414 215.427L281.781 215.466L282.107 215.147L282.068 222.443L281.781 222.149C283.203 222.149 284.624 222.149 286.045 222.149L290.336 222.228L299.046 222.443Z" fill="#EBEBEB"/>
<path d="M289.416 44.0035L280.856 44.1795L276.513 44.2578C275.066 44.2578 273.605 44.2578 272.151 44.2904H271.884V43.997V36.7011V36.3686H272.217L280.849 36.4077C283.724 36.4077 286.6 36.4794 289.482 36.512H289.658V36.688C289.658 37.9268 289.599 39.1526 289.573 40.3718L289.416 44.0035ZM289.416 44.0035L289.325 40.3132C289.292 39.1004 289.247 37.9008 289.234 36.7076L289.416 36.8836C286.534 36.8836 283.659 36.988 280.784 36.988L272.151 37.0336L272.477 36.7076L272.438 44.0035L272.151 43.7101C273.573 43.7101 274.988 43.7101 276.415 43.7492L280.706 43.8209L289.416 44.0035Z" fill="#EBEBEB"/>
<path d="M299.046 53.2032L290.486 53.3792L286.143 53.4575C284.696 53.4575 283.235 53.4575 281.781 53.4901H281.488V53.2032L281.455 45.9073V45.5748H281.781L290.414 45.6139C293.289 45.6139 296.171 45.6856 299.046 45.7182H299.222V45.8943C299.222 47.1266 299.17 48.3588 299.138 49.5781L299.046 53.2032ZM299.046 53.2032L298.955 49.5129C298.955 48.3002 298.877 47.1005 298.87 45.9073L299.046 46.0834C296.171 46.0834 293.289 46.1877 290.414 46.1877L281.781 46.2333L282.107 45.9073L282.068 53.2032L281.781 52.9098C283.203 52.9098 284.624 52.9098 286.045 52.9489L290.336 53.0206L299.046 53.2032Z" fill="#EBEBEB"/>
<path d="M53.8488 44.0035L45.2945 44.1795L40.9522 44.2578C39.4983 44.2578 38.0378 44.2578 36.5838 44.2904H36.2969V43.997L36.2578 36.7076V36.3751H36.5838L45.2163 36.4142C48.0981 36.4142 50.9734 36.4859 53.8488 36.5185H54.0313V36.6946C54.0313 37.9334 53.9727 39.1591 53.9466 40.3784L53.8488 44.0035ZM53.8488 44.0035L53.7575 40.3132C53.7575 39.1004 53.6858 37.9008 53.6727 36.7076L53.8488 36.8836C50.9734 36.8836 48.0981 36.988 45.2163 36.988L36.5838 37.0336L36.9098 36.7076V44.0035L36.5838 43.684C38.0052 43.684 39.4265 43.684 40.8544 43.7231L45.1446 43.7948L53.8488 44.0035Z" fill="#EBEBEB"/>
<path d="M163 298.636C234.301 298.636 292.103 291.945 292.103 283.692C292.103 275.438 234.301 268.748 163 268.748C91.6986 268.748 33.8975 275.438 33.8975 283.692C33.8975 291.945 91.6986 298.636 163 298.636Z" fill="#EBEBEB"/>
<path d="M71.4723 143.583H63.2441V134.736H54.416V126.534H63.2441V117.679H71.4463V126.534H80.2939V134.736H71.4723V143.583ZM64.4373 142.416H70.3053V133.569H79.1529V127.701H70.3053V118.847H64.4373V127.701H55.5831V133.569H64.4373V142.416Z" fill="#1648CE"/>
<path d="M270.352 202.068H262.143V193.22H253.296V185.018H262.143V176.164H270.352V185.018H279.2V193.22H270.352V202.068ZM263.317 200.901H269.185V192.053H278.033V186.185H269.185V177.344H263.317V186.198H254.463V192.066H263.317V200.901Z" fill="#1648CE"/>
<path d="M227.248 51.2407V59.4428H218.401V68.297H210.198V59.4428H201.344V51.2407H210.198V42.393H218.401V51.2407H227.248Z" fill="#1648CE"/>
<path d="M148.076 52.9294C149.777 52.8772 156.904 50.8756 162.798 56.6979C168.379 62.2073 173.028 80.9458 174.664 84.9295C176.301 88.9132 181.836 88.672 183.864 93.236C185.624 97.1937 182.86 99.1953 183.029 102.273C183.166 104.666 186.1 107.815 184.509 111.635C183.068 115.111 179.528 114.993 177.611 116.317C175.694 117.64 175.173 122.641 171.541 124.552C167.909 126.462 163.965 123.502 161.931 123.847C159.896 124.193 158.481 130.824 151.753 131.339C145.024 131.854 142.208 126.54 139.287 125.869C136.366 125.197 129.787 128.216 126.097 125.288C122.406 122.361 121.135 117.875 119.446 116.421C117.758 114.967 114.843 115.704 112.463 112.085C110.084 108.467 113.304 105.415 113.278 101.953C113.278 99.5408 110.82 97.7087 111.714 93.875C112.946 88.6068 119.166 88.6981 120.665 83.2474C121.839 78.9768 122.811 61.0794 132.597 55.1136C139.378 51.0386 148.076 52.9294 148.076 52.9294Z" fill="#263238"/>
<path d="M174.306 83.9646C174.846 84.7809 175.578 85.4525 176.438 85.9206L178.896 87.4397C180.558 88.3432 182.067 89.5028 183.368 90.8758C183.974 91.531 184.42 92.3176 184.671 93.1738C184.922 94.0301 184.972 94.9328 184.816 95.8114C184.607 96.7023 184.262 97.5556 183.792 98.3412C183.247 99.2037 182.832 100.142 182.56 101.125C182.469 102.208 182.739 103.29 183.329 104.203C183.779 105.076 184.262 105.898 184.666 106.745C185.481 108.415 185.918 110.26 185.318 111.961C185.055 112.807 184.515 113.539 183.786 114.041C183.006 114.535 182.138 114.874 181.23 115.039C180.304 115.254 179.352 115.378 178.394 115.541C177.417 115.623 176.488 115.998 175.727 116.617C176.538 116.108 177.475 115.837 178.433 115.834C179.391 115.75 180.356 115.71 181.328 115.567C182.325 115.442 183.289 115.123 184.164 114.628C185.062 114.074 185.751 113.237 186.12 112.248C186.948 110.292 186.387 108.062 185.566 106.309C185.161 105.409 184.679 104.555 184.262 103.701C183.792 102.987 183.563 102.141 183.61 101.288C183.936 99.6843 185.429 98.0282 185.768 95.9809C185.946 94.9559 185.875 93.9029 185.561 92.911C185.247 91.9192 184.698 91.0176 183.962 90.2825C182.538 88.9225 180.907 87.7979 179.13 86.9507L176.522 85.6467C175.67 85.2533 174.914 84.6793 174.306 83.9646Z" fill="#263238"/>
<path d="M124.532 66.4584C123.189 69.6597 122.576 73.0957 121.65 76.3948C121.181 78.0444 120.77 79.7135 120.183 81.3044C119.92 82.0832 119.572 82.831 119.146 83.5342C119.06 83.6971 118.948 83.8447 118.814 83.9711C118.695 84.1138 118.557 84.239 118.403 84.3427C118.077 84.5905 117.751 84.8187 117.366 85.0404C115.875 85.9409 114.43 86.9157 113.037 87.9613C111.564 89.0498 110.465 90.5696 109.895 92.3102C109.629 93.2017 109.593 94.146 109.79 95.0551C110.029 95.9272 110.432 96.7458 110.977 97.4675C112.014 98.8562 113.005 100.252 113.331 101.979C113.265 100.219 112.3 98.628 111.427 97.1741C110.971 96.4857 110.649 95.7184 110.475 94.9116C110.351 94.1199 110.432 93.3096 110.71 92.5579C111.306 91.0284 112.331 89.7038 113.663 88.7437C115.049 87.7453 116.486 86.8183 117.966 85.9662C118.331 85.725 118.697 85.4772 119.055 85.1968C119.428 84.8973 119.738 84.5273 119.968 84.108C120.426 83.3301 120.795 82.5034 121.07 81.6434C121.622 79.9907 122.07 78.3053 122.413 76.597L123.404 71.5114C123.681 69.8064 124.058 68.1192 124.532 66.4584Z" fill="#263238"/>
<path d="M117.66 115.547C118.54 116.408 118.84 117.666 119.303 118.807C119.766 119.948 120.196 121.116 120.705 122.257C121.199 123.42 121.815 124.528 122.543 125.562C123.29 126.654 124.29 127.549 125.458 128.17C128.02 129.285 130.746 128.666 133.06 127.851C134.24 127.433 135.375 126.957 136.535 126.547C137.665 126.079 138.89 125.887 140.108 125.986C138.885 125.671 137.601 125.685 136.385 126.025C135.166 126.312 133.993 126.677 132.806 127.016C130.498 127.668 127.981 128.079 125.927 127.147C124.914 126.603 124.041 125.83 123.378 124.891C122.658 123.925 122.017 122.902 121.461 121.833C120.874 120.757 120.346 119.649 119.792 118.573C119.505 118.019 119.212 117.471 118.892 116.936C118.606 116.376 118.182 115.898 117.66 115.547Z" fill="#263238"/>
<path d="M181.68 264.771H125.203L121.846 194.915H172.311L181.68 264.771Z" fill="#37474F"/>
<path d="M156.506 194.915L150.54 242.225L150.534 242.296L150.403 243.281L150.162 245.217L149.888 247.375L149.79 248.145L149.712 248.764L147.698 264.771H125.203L121.846 194.915H156.506Z" fill="#263238"/>
<path d="M170.211 264.771H168.718C168.64 264.151 168.568 263.538 168.49 262.919C166.482 246.619 164.532 230.319 162.837 214.019C162.68 212.526 162.524 211.026 162.374 209.533C162.374 209.299 162.752 209.253 162.785 209.488C162.922 210.492 163.065 211.496 163.196 212.5C165.608 229.908 167.903 247.343 170.211 264.771Z" fill="#263238"/>
<path d="M167.186 194.863C167.188 194.881 167.188 194.898 167.186 194.915C167.036 195.613 165.386 203.268 163.208 212.519C163.091 213.021 162.974 213.53 162.85 214.039C161.885 218.074 160.835 222.345 159.772 226.427C157.477 235.287 155.124 243.229 153.52 245.843C153.345 246.167 153.103 246.449 152.809 246.671C152.287 246.978 151.179 247.525 149.803 248.171L148.891 248.595L148.108 248.953C144.979 250.388 141.216 252.031 139.476 252.754V252.891L138.869 264.784H85.6726L91.3059 230.88L98.1063 194.896L167.186 194.863Z" fill="#37474F"/>
<path d="M157.406 244.344C151.217 246.596 145.235 249.382 139.528 252.67C139.484 252.695 139.452 252.736 139.437 252.784C139.421 252.832 139.425 252.884 139.446 252.929C139.467 252.975 139.505 253.011 139.551 253.031C139.598 253.05 139.65 253.052 139.697 253.035C145.715 250.427 151.857 247.975 157.725 245.061C157.82 245.018 157.895 244.94 157.932 244.843C157.969 244.746 157.966 244.638 157.924 244.542C157.882 244.447 157.803 244.373 157.706 244.336C157.609 244.298 157.501 244.301 157.406 244.344Z" fill="#263238"/>
<path d="M159.218 203.111C159.218 202.902 158.84 202.857 158.84 203.111C158.886 210.283 158.429 216.542 157.829 223.225C157.549 226.322 155.058 243.437 149.679 242.211C148.78 242.003 148.317 241.116 148.18 239.76C148.01 238.123 148.623 236.128 148.891 234.505C149.49 230.919 149.966 227.333 150.273 223.695C150.902 216.949 150.83 210.155 150.058 203.424C150.05 203.384 150.028 203.348 149.997 203.322C149.965 203.296 149.926 203.282 149.885 203.282C149.844 203.282 149.804 203.296 149.773 203.322C149.741 203.348 149.72 203.384 149.712 203.424C149.712 212.787 149.471 222.13 148.076 231.408C147.424 235.861 145.155 242.57 149.816 243.261C154.478 243.952 157.64 232.718 158.214 229.641C159.831 221.028 159.896 211.796 159.218 203.111Z" fill="#263238"/>
<path d="M149.823 242.648C149.341 243.803 148.936 244.988 148.61 246.195C148.267 247.13 148.097 248.12 148.108 249.116C148.108 249.305 148.382 249.325 148.48 249.194C149.04 248.319 149.462 247.362 149.732 246.358C150.142 245.256 150.573 244.167 150.951 243.059C151.005 242.91 150.998 242.744 150.931 242.6C150.864 242.456 150.742 242.344 150.592 242.29C150.443 242.235 150.278 242.242 150.133 242.31C149.989 242.377 149.877 242.499 149.823 242.648Z" fill="#263238"/>
<path d="M110.031 246.208C109.497 252.402 108.864 258.596 108.199 264.771H107.619C108.271 258.577 109.014 252.383 109.816 246.202C109.836 246.065 110.044 246.065 110.031 246.208Z" fill="#263238"/>
<path d="M146.537 132.395C151.407 148.278 172.487 205.008 186.622 213.654C195.874 219.307 242.342 222.521 251.281 218.374C256.242 216.066 254.697 178.537 248.849 178.329C241.553 178.068 205.686 177.103 201.716 175.205C197.745 173.308 170.954 137.481 160.744 126.625C143.147 107.899 143.29 121.82 146.537 132.395Z" fill="#AD6359"/>
<path d="M237.732 175.512L231.108 221.413C231.108 221.413 193.37 222.521 183.082 214.104C168.418 202.12 147.391 141.484 145.005 131.997C139.352 109.503 151.949 113.259 161.859 124.173C168.294 131.28 193.611 167.636 202.987 174.332C205.647 176.255 237.732 175.512 237.732 175.512Z" fill="#EBEBEB"/>
<path d="M221.81 219.163C222.586 212.35 226.779 184.607 228.089 178.655C228.18 178.244 228.467 178.198 228.428 178.655C226.596 199.121 223.212 212.559 222.084 219.196C222.052 219.352 221.791 219.339 221.81 219.163Z" fill="#263238"/>
<path d="M172.33 177.872L178.635 221.23C178.635 221.23 107.971 222.273 90.4258 221.041C90.4258 221.041 104.737 139.978 123.6 119.492C133.034 109.249 144.111 110.018 151.173 117.177C152.959 118.99 174.273 147.169 176.516 157.921C178.472 167.414 172.33 177.872 172.33 177.872Z" fill="#1648CE"/>
<path d="M144.796 173.034C148.564 172.694 152.351 172.631 156.128 172.845C157.999 172.982 159.857 173.197 161.716 173.458C162.641 173.588 163.574 173.686 164.5 173.778C165.474 173.898 166.459 173.898 167.434 173.778C167.518 173.778 167.538 173.895 167.434 173.914C166.531 174.121 165.617 174.269 164.695 174.358C163.801 174.42 162.903 174.42 162.009 174.358C160.105 174.24 158.208 174.038 156.304 173.901C152.47 173.628 148.636 173.347 144.79 173.354C144.627 173.354 144.62 173.054 144.796 173.034Z" fill="#263238"/>
<path d="M136.268 177.996C139.269 177.122 142.316 176.417 145.396 175.884C146.935 175.623 148.48 175.453 150.038 175.323C150.775 175.264 151.525 175.212 152.268 175.173C153.011 175.134 153.911 175.173 154.726 175.173C154.811 175.173 154.837 175.297 154.726 175.31C153.957 175.381 153.194 175.584 152.431 175.707L150.123 176.06C148.591 176.301 147.058 176.562 145.513 176.79C142.436 177.24 139.371 177.722 136.307 178.283C136.111 178.263 136.085 178.029 136.268 177.996Z" fill="#263238"/>
<path d="M135.864 264.771H80.1111C86.6311 223.812 94.4551 181.862 101.986 160.751C118.194 115.234 131.423 113.494 131.423 113.494V113.546C131.495 115.469 133.379 167.062 134.827 221.628C135.218 236.089 135.577 250.759 135.864 264.771Z" fill="#EBEBEB"/>
<path d="M126.657 240.327C126.657 238.736 126.305 231.199 126.162 229.68C126.162 229.504 126.097 229.152 125.953 229.152C123.873 229.152 116.656 229.889 109.386 229.889C104.187 229.791 98.9993 229.386 93.8487 228.676C93.6075 228.748 93.6075 237.028 93.4771 241.031C93.2163 249.383 93.6009 258.831 95.3809 260.591C98.7061 263.851 107.567 263.571 110.377 263.545C113.187 263.519 123.091 263.512 125.419 258.401C126.41 256.112 126.683 244.454 126.657 240.327ZM125.353 248.803C125.236 252.924 125.106 256.627 123.521 258.798C122.165 260.63 118.338 262.476 109.529 262.469C103.166 262.469 97.7933 261.302 96.3263 259.607C94.5659 257.579 94.3703 251.75 94.3703 248.269C94.3703 243.463 94.3703 239.623 94.3703 234.824C106.674 237.68 120.209 236.272 125.34 235.235C125.36 235.437 125.471 245.576 125.373 248.803H125.353ZM125.386 234.459C109.405 236.513 99.5146 234.798 94.3899 233.807C94.3899 232.268 94.3899 231.069 94.3899 229.524C96.5871 230.078 103.981 230.958 109.523 230.958C114.68 230.958 122.256 230.241 125.471 229.856C125.379 231.121 125.445 233.872 125.405 234.453L125.386 234.459Z" fill="#DBDBDB"/>
<path d="M129.748 134.892C126.612 147.874 110.481 194.048 106.472 198.052C101.692 202.824 80.8544 217.501 73.5911 197.96C68.5577 184.431 102.762 137.005 118.925 121.676C126.814 114.237 134.996 113.142 129.748 134.892Z" fill="#EBEBEB"/>
<path d="M124.232 158.547C123.254 160.353 122.178 162.107 121.122 163.867C121.37 163.215 121.611 162.563 121.846 161.911C122.863 159.101 123.802 156.258 124.838 153.435C124.877 153.344 124.734 153.311 124.695 153.396C123.606 155.841 122.452 158.266 121.389 160.731C120.326 163.196 119.433 165.569 118.468 168.014C116.571 172.936 114.647 177.853 112.887 182.827C111.845 185.576 110.953 188.38 110.214 191.225C110.214 191.303 110.312 191.362 110.351 191.284C111.518 188.93 112.437 186.452 113.376 184.001C114.315 181.549 115.254 179.124 116.167 176.672C117.079 174.221 118.051 171.685 119.016 169.201C119.498 167.949 120 166.71 120.489 165.465C121.987 163.291 123.26 160.971 124.291 158.54C124.304 158.54 124.245 158.514 124.232 158.547Z" fill="#263238"/>
<path d="M130.837 113.552C129.098 117.221 127.412 120.916 125.777 124.636C124.147 128.353 122.465 132.043 120.887 135.786L120.692 136.255L121.115 136.542L127.955 141.165L127.792 140.18C125.934 142.958 124.134 145.768 122.322 148.571L122.146 148.845L122.243 149.145C124.076 154.824 125.842 160.522 127.766 166.175C129.689 171.828 131.574 177.487 133.595 183.127C132.043 177.355 130.417 171.611 128.718 165.895C127.075 160.157 125.275 154.472 123.541 148.76L123.463 149.334C125.301 146.55 127.153 143.773 128.952 140.956L129.324 140.369L128.757 139.997L121.833 135.499L122.067 136.255C123.619 132.506 125.054 128.711 126.553 124.943C128.053 121.174 129.441 117.36 130.837 113.552Z" fill="#DBDBDB"/>
<path d="M185.448 264.771H165.314C164.121 250.668 162.895 235.926 161.683 221.432C159.955 200.718 158.247 180.506 156.656 163.359C155.234 147.401 152.722 131.56 149.138 115.945C149.047 115.547 148.988 115.293 148.975 115.261C149.781 115.762 150.5 116.389 151.107 117.119C151.127 117.142 151.149 117.164 151.173 117.184L151.388 117.425C151.446 117.483 151.5 117.544 151.551 117.608C155.013 121.409 160.803 129.181 165.953 137.168C170.922 144.861 175.303 152.744 176.385 157.425L176.444 157.686C176.477 157.836 176.503 157.98 176.529 158.123C176.742 159.364 176.862 160.62 176.887 161.879C176.936 167.023 175.605 172.086 173.034 176.542C173.017 176.58 172.997 176.617 172.975 176.653C172.806 176.94 172.702 177.09 172.702 177.09V177.161L179.3 222.332L185.448 264.771Z" fill="#EBEBEB"/>
<path d="M169.559 143.779C167.603 140.636 165.562 137.526 163.626 134.358C163.567 134.266 163.711 134.162 163.776 134.247C165.732 136.855 167.688 139.463 169.585 142.116C168.933 140.702 168.34 139.28 167.773 137.833C167.707 137.67 167.936 137.533 168.014 137.696C168.894 139.554 169.683 141.445 170.465 143.349C172.168 145.709 173.677 148.204 174.977 150.808C177.67 156.343 178.83 162.394 177.37 168.444C176.974 170.116 176.383 171.735 175.61 173.269C175.088 174.312 173.386 176.581 173.399 176.646C174.508 182.827 175.355 189.08 176.209 195.3C177.064 201.52 177.983 207.884 178.72 214.208C179.13 217.781 179.372 221.38 179.919 224.947C179.919 225.077 179.737 225.129 179.717 224.999C179.267 221.895 178.596 218.824 178.042 215.734C177.487 212.643 176.972 209.553 176.47 206.449C175.466 200.19 174.566 193.905 173.66 187.626C173.152 184.079 172.591 180.526 172.187 176.959C172.141 176.568 173.745 174.038 174.221 173.047C174.855 171.734 175.374 170.368 175.773 168.966C176.589 166.114 176.841 163.131 176.516 160.183C175.831 154.172 172.715 148.819 169.559 143.779Z" fill="#263238"/>
<path d="M149.138 115.945C151.216 119.101 153.331 122.228 155.482 125.327C157.647 128.418 159.76 131.548 161.963 134.605L162.009 133.875L156.715 139.424L156.278 139.88L156.741 140.33C158.971 142.488 161.24 144.607 163.502 146.733L163.313 146.185C162.491 151.936 161.611 157.673 160.881 163.437C160.151 169.201 159.375 174.958 158.742 180.734C159.838 175.023 160.835 169.305 161.794 163.574C162.752 157.843 163.645 152.105 164.558 146.374L164.61 146.048L164.369 145.82C162.133 143.668 159.896 141.51 157.627 139.398V140.304L162.843 134.658L163.169 134.305L162.889 133.927C160.666 130.882 158.325 127.903 156.082 124.884C153.839 121.865 151.492 118.905 149.138 115.945Z" fill="#DBDBDB"/>
<path d="M123.684 123.274C123.156 115.56 132.499 112.496 138.276 111.701C145.116 110.762 149.673 111.329 152.966 117.966C156.434 124.962 158.253 133.08 159.616 140.741C159.87 142.169 162.1 141.81 161.846 140.376C160.275 131.554 158.019 115.091 149.23 110.305C141.138 105.891 120.542 110.566 121.454 123.632C121.552 125.086 123.782 124.715 123.684 123.274Z" fill="#455A64"/>
<path d="M166.534 143.942C166.705 144.962 166.569 146.01 166.144 146.953C165.718 147.895 165.022 148.69 164.143 149.236C163.265 149.782 162.244 150.054 161.21 150.019C160.176 149.983 159.177 149.641 158.338 149.036C157.499 148.431 156.859 147.59 156.5 146.62C156.14 145.65 156.076 144.596 156.318 143.59C156.559 142.584 157.093 141.673 157.854 140.971C158.614 140.27 159.566 139.811 160.588 139.652C161.26 139.543 161.947 139.568 162.609 139.724C163.272 139.881 163.897 140.167 164.45 140.565C165.002 140.963 165.47 141.467 165.828 142.046C166.185 142.626 166.425 143.27 166.534 143.942Z" fill="#263238"/>
<path d="M164.493 144.275C164.587 144.884 164.498 145.508 164.238 146.068C163.978 146.627 163.558 147.097 163.031 147.418C162.504 147.739 161.894 147.896 161.277 147.871C160.661 147.845 160.066 147.638 159.567 147.275C159.069 146.911 158.689 146.408 158.476 145.83C158.262 145.251 158.225 144.621 158.369 144.022C158.513 143.422 158.832 142.878 159.285 142.459C159.737 142.04 160.304 141.764 160.913 141.667C161.32 141.601 161.735 141.616 162.136 141.712C162.537 141.807 162.914 141.982 163.247 142.224C163.58 142.467 163.861 142.773 164.075 143.125C164.289 143.477 164.431 143.867 164.493 144.275Z" fill="#EBEBEB"/>
<path d="M131.528 147.437C137.233 169.103 136.353 174.397 134.553 176.888C133.197 178.63 131.456 180.036 129.467 180.995L128.815 179.567C130.553 178.714 132.078 177.485 133.282 175.968C134.586 174.169 135.655 169.292 130.022 147.834L131.528 147.437Z" fill="#C7C7C7"/>
<path d="M126.032 180.882L126.954 182.547C127.148 182.897 127.588 183.023 127.938 182.83L131.44 180.89C131.79 180.696 131.916 180.256 131.723 179.906L130.8 178.241C130.606 177.891 130.166 177.765 129.816 177.958L126.314 179.898C125.965 180.092 125.838 180.532 126.032 180.882Z" fill="#263238"/>
<path d="M117.36 148.004C113.063 164.304 112.026 173.276 114.1 176.138C115.303 177.653 116.829 178.88 118.566 179.73L117.914 181.165C115.925 180.205 114.185 178.8 112.828 177.057C110.364 173.654 111.238 165.119 115.847 147.606L117.36 148.004Z" fill="#C7C7C7"/>
<path d="M116.596 178.405L115.675 180.072C115.481 180.421 115.608 180.862 115.958 181.055L119.461 182.992C119.811 183.186 120.251 183.059 120.445 182.709L121.366 181.043C121.559 180.693 121.433 180.253 121.083 180.059L117.579 178.122C117.23 177.929 116.789 178.056 116.596 178.405Z" fill="#263238"/>
<path d="M115.319 146.896C116.036 143.281 116.975 139.715 118.129 136.216C118.813 134.671 119.898 133.338 121.272 132.356C121.585 132.323 121.448 129.572 121.272 127.329C121.129 125.373 120.92 123.039 121.396 122.4C121.671 122.105 122.05 121.928 122.452 121.907C122.855 121.886 123.25 122.023 123.554 122.289C124.095 122.869 124.128 125.191 124.206 127.179C124.284 129.429 124.441 132.173 124.754 132.173C126.144 133.075 127.295 134.298 128.111 135.74C129.631 139.193 130.887 142.757 131.867 146.4C132.369 148.721 131.606 149.008 130.941 149.243C130.002 149.562 129.402 148.917 128.666 146.348C127.492 142.279 126.012 135.427 123.176 135.446C120.366 135.733 119.225 142.99 118.325 147.039C117.758 149.575 117.223 149.817 116.252 149.595C115.574 149.432 114.876 149.145 115.319 146.896Z" fill="#263238"/>
<path d="M149.601 113.963C149.601 113.963 150.253 126.527 147.932 126.736C140.897 127.388 133.073 117.712 132.643 116.18C132.532 115.789 133.099 106.035 133.562 98.452C133.855 93.575 134.11 89.5978 134.11 89.5978L152.085 99.8994L149.771 113.024L149.601 113.963Z" fill="#AD6359"/>
<path d="M152.085 99.8994L149.771 113.024C146.197 111.87 142.907 109.976 140.114 107.465C137.321 104.954 135.089 101.883 133.562 98.452C133.855 93.575 134.11 89.5978 134.11 89.5978L136.372 90.7975L152.085 99.8994Z" fill="#263238"/>
<path d="M170.589 78.9963C174.338 102.09 160.926 106.941 155.945 107.743C151.427 108.473 135.942 110.384 129.826 87.7983C123.71 65.213 133.262 56.1763 143.518 53.9595C153.774 51.7427 166.84 55.9025 170.589 78.9963Z" fill="#AD6359"/>
<path d="M164.956 76.1471C164.416 76.1134 163.878 76.0503 163.345 75.958C162.772 75.9708 162.211 75.7943 161.748 75.456C161.624 75.321 161.548 75.1488 161.531 74.9661C161.515 74.7835 161.559 74.6004 161.657 74.4454C161.896 74.1739 162.204 73.9706 162.547 73.8561C162.891 73.7416 163.258 73.72 163.613 73.7934C164.367 73.8289 165.079 74.1479 165.608 74.6866C165.716 74.8141 165.786 74.9695 165.81 75.1351C165.834 75.3006 165.81 75.4695 165.742 75.6222C165.674 75.7749 165.564 75.9052 165.425 75.998C165.286 76.0909 165.123 76.1426 164.956 76.1471Z" fill="#263238"/>
<path d="M149.308 78.1552C149.849 78.0379 150.325 77.8423 150.847 77.6793C151.416 77.5878 151.938 77.3104 152.333 76.8904C152.431 76.735 152.475 76.5513 152.457 76.3683C152.44 76.1853 152.362 76.0135 152.235 75.8798C151.949 75.65 151.606 75.5015 151.242 75.4498C150.878 75.3982 150.508 75.4454 150.169 75.5864C149.436 75.7613 148.794 76.203 148.369 76.8252C148.282 76.9733 148.239 77.1434 148.246 77.3151C148.253 77.4868 148.31 77.6529 148.409 77.7933C148.508 77.9337 148.646 78.0425 148.805 78.1067C148.965 78.1709 149.139 78.1878 149.308 78.1552Z" fill="#263238"/>
<path d="M153.696 83.4169C153.696 83.3582 153.585 83.5016 153.591 83.5668C153.826 85.1447 153.826 86.9898 152.45 87.681C152.411 87.681 152.45 87.7788 152.45 87.7657C154.191 87.3224 154.172 84.8709 153.696 83.4169Z" fill="#263238"/>
<path d="M152.092 81.9238C149.53 82.0216 149.914 87.1398 152.294 87.0616C154.674 86.9833 154.244 81.8391 152.092 81.9238Z" fill="#263238"/>
<path d="M151.107 82.2694C150.684 82.5954 150.279 83.143 149.745 83.2343C149.21 83.3256 148.61 82.8431 148.167 82.3541C148.121 82.3085 148.076 82.3541 148.082 82.4258C148.141 83.4038 148.597 84.3818 149.66 84.4536C150.723 84.5253 151.257 83.5929 151.427 82.5823C151.46 82.3998 151.264 82.152 151.107 82.2694Z" fill="#263238"/>
<path d="M162.426 82.2368C162.426 82.1716 162.556 82.302 162.556 82.3672C162.615 83.958 162.948 85.7706 164.421 86.2009C164.467 86.2009 164.467 86.2987 164.421 86.2922C162.641 86.1683 162.224 83.7494 162.426 82.2368Z" fill="#263238"/>
<path d="M163.73 80.4764C166.273 80.1112 166.821 85.2229 164.467 85.562C162.113 85.901 161.598 80.7893 163.73 80.4764Z" fill="#263238"/>
<path d="M164.832 80.698C165.269 80.9262 165.719 81.35 166.208 81.35C166.697 81.35 167.121 80.698 167.421 80.1634C167.453 80.1047 167.499 80.1634 167.505 80.209C167.642 81.187 167.427 82.2368 166.508 82.5236C165.588 82.8105 164.949 82.0151 164.61 81.0697C164.552 80.9002 164.656 80.6068 164.832 80.698Z" fill="#263238"/>
<path d="M155.019 95.844C155.411 96.2026 155.808 96.7046 156.389 96.7372C156.981 96.708 157.561 96.5548 158.09 96.2873C158.101 96.2819 158.113 96.2802 158.125 96.2826C158.136 96.2849 158.147 96.2912 158.154 96.3003C158.162 96.3094 158.166 96.3209 158.166 96.3327C158.167 96.3446 158.163 96.3562 158.156 96.3656C157.941 96.6799 157.647 96.9314 157.303 97.0942C156.96 97.2569 156.579 97.325 156.2 97.2914C155.871 97.2185 155.571 97.0494 155.339 96.8055C155.107 96.5617 154.952 96.2542 154.896 95.9222C154.843 95.844 154.961 95.844 155.019 95.844Z" fill="#263238"/>
<path d="M161.155 89.5457C161.155 89.5457 161.689 91.8864 161.807 93.0078C161.807 93.1121 161.546 93.1838 161.155 93.2425C161.155 93.2425 161.155 93.2425 161.116 93.2425C160.172 93.5026 159.174 93.4972 158.233 93.2268C157.292 92.9565 156.444 92.4317 155.782 91.7103C155.691 91.606 155.821 91.4821 155.932 91.5408C157.443 92.3895 159.188 92.7279 160.907 92.5058C160.959 92.1928 159.857 88.5286 160.033 88.5025C160.915 88.4983 161.792 88.6168 162.641 88.8546C161.67 83.945 159.916 79.231 159.023 74.328C159.02 74.2934 159.029 74.2589 159.048 74.2299C159.067 74.2009 159.095 74.1791 159.128 74.1679C159.161 74.1567 159.197 74.1567 159.23 74.168C159.262 74.1793 159.291 74.2012 159.31 74.2302C161.494 79.042 162.739 84.6622 163.874 89.7087C163.991 90.3346 161.618 89.6956 161.155 89.5457Z" fill="#263238"/>
<path d="M159.883 93.0208C159.359 93.7751 158.646 94.3796 157.817 94.7747C157.359 94.9809 156.847 95.0357 156.356 94.9312C155.287 94.703 155.222 93.7315 155.378 92.8904C155.464 92.4405 155.604 92.0027 155.795 91.5864C156.968 92.4924 158.402 92.9955 159.883 93.0208Z" fill="#263238"/>
<path d="M157.817 94.7747C157.359 94.9809 156.847 95.0357 156.356 94.9312C155.287 94.703 155.222 93.7315 155.378 92.8904C156.513 92.9622 157.673 93.6794 157.817 94.7747Z" fill="#FF99BA"/>
<path d="M129.826 88.672C131.332 87.9501 132.624 86.8495 133.576 85.4779C134.528 84.1063 135.107 82.5109 135.257 80.848C139.353 79.0764 142.902 76.2452 145.539 72.6458C145.383 73.1283 144.235 76.6035 143.583 78.3508C158.423 75.6516 163.065 64.3263 163.065 64.3263C167.857 69.1446 168.803 72.222 169.487 73.7542C169.487 73.7542 169.644 64.6262 164.988 58.5431C163.423 56.4318 161.274 54.8254 158.806 53.9227C156.337 53.02 153.659 52.8605 151.101 53.464C147.608 52.2576 143.837 52.1091 140.26 53.037C136.683 53.9649 133.459 55.9279 130.993 58.68C121.311 69.112 129.826 88.672 129.826 88.672Z" fill="#263238"/>
<path d="M154.876 75.9841C152.488 77.2758 149.922 78.2053 147.261 78.742C147.228 78.742 147.261 78.742 147.261 78.742C151.433 77.6224 155.212 75.365 158.175 72.222C159.434 70.8782 160.516 69.3796 161.396 67.7624C162.429 66.0305 163.109 64.1116 163.398 62.116C163.404 62.0904 163.418 62.0676 163.439 62.0513C163.46 62.035 163.485 62.0262 163.512 62.0262C163.538 62.0262 163.564 62.035 163.584 62.0513C163.605 62.0676 163.62 62.0904 163.626 62.116C163.557 64.126 163.149 66.1099 162.42 67.984C161.612 69.7874 160.483 71.4289 159.088 72.8284C157.838 74.074 156.417 75.1364 154.869 75.9841" fill="#263238"/>
<path d="M150.801 91.932C149.434 91.9634 148.087 91.6106 146.911 90.9139C145.735 90.2171 144.778 89.2043 144.149 87.9907C143.521 86.7771 143.245 85.4114 143.354 84.049C143.463 82.6865 143.952 81.382 144.766 80.2839C145.58 79.1857 146.686 78.338 147.957 77.8371C149.229 77.3362 150.616 77.2023 151.96 77.4506C153.304 77.699 154.551 78.3195 155.56 79.2417C156.569 80.1639 157.299 81.3507 157.666 82.6671C158.185 84.5329 157.943 86.5284 156.992 88.2154C156.041 89.9024 154.459 91.143 152.594 91.6647C152.009 91.8264 151.407 91.9161 150.801 91.932ZM150.488 78.3052C149.961 78.3166 149.437 78.3955 148.93 78.5399C147.383 78.9757 146.06 79.9847 145.23 81.3615C144.401 82.7383 144.128 84.3794 144.466 85.9507C144.804 87.522 145.729 88.9053 147.051 89.819C148.373 90.7327 149.994 91.108 151.583 90.8686C153.173 90.6292 154.611 89.7931 155.606 88.5304C156.6 87.2678 157.076 85.6735 156.936 84.0723C156.797 82.4711 156.052 80.9834 154.854 79.9119C153.656 78.8405 152.095 78.2659 150.488 78.3052Z" fill="#1648CE"/>
<path d="M167.381 89.5196C164.591 89.5848 161.989 86.7812 161.455 82.9996C161.171 81.2008 161.458 79.3585 162.276 77.7314C162.587 77.015 163.076 76.3903 163.698 75.9172C164.319 75.444 165.051 75.1382 165.825 75.0289C166.598 74.9197 167.386 75.0107 168.114 75.2932C168.842 75.5757 169.486 76.0403 169.983 76.6426C171.219 77.9829 172.003 79.6772 172.226 81.487C172.786 85.4707 170.83 89.0567 167.857 89.474C167.7 89.5024 167.541 89.5177 167.381 89.5196ZM166.332 75.958C166.208 75.9515 166.084 75.9515 165.96 75.958C165.347 76.0747 164.771 76.3362 164.28 76.7207C163.789 77.1051 163.397 77.6015 163.137 78.1683C162.418 79.6143 162.17 81.2489 162.426 82.8431C162.909 86.2987 165.282 88.835 167.72 88.4894C170.159 88.1439 171.743 85.0534 171.261 81.6043C171.068 80.0026 170.385 78.4995 169.305 77.3011C168.931 76.8814 168.473 76.5449 167.961 76.3135C167.449 76.0821 166.894 75.961 166.332 75.958Z" fill="#1648CE"/>
<path d="M157.543 83.5473L156.812 82.8953C157.784 81.8195 160.144 80.2286 162.172 81.8651L161.559 82.628C159.74 81.1545 157.628 83.456 157.543 83.5473Z" fill="#1648CE"/>
<path d="M125.582 89.976L124.662 89.65C124.812 89.2197 126.195 85.4316 128.301 84.7796C130.257 84.1732 143.407 83.5603 143.949 83.5408L143.994 84.5122C140.232 84.6818 130.1 85.2425 128.581 85.7119C127.199 86.1162 125.947 88.9067 125.582 89.976Z" fill="#1648CE"/>
<path d="M133.784 88.9784C133.784 88.9784 128.15 82.0738 124.975 84.1406C121.8 86.2074 126.423 96.496 130.4 97.624C130.9 97.8075 131.433 97.8878 131.965 97.8601C132.498 97.8323 133.019 97.6972 133.498 97.4626C133.977 97.2281 134.403 96.8991 134.751 96.4954C135.1 96.0918 135.363 95.6218 135.525 95.1138L133.784 88.9784Z" fill="#AD6359"/>
<path d="M126.377 87.0485C126.363 87.0485 126.35 87.054 126.34 87.0638C126.33 87.0736 126.325 87.0869 126.325 87.1007C126.325 87.1145 126.33 87.1278 126.34 87.1376C126.35 87.1474 126.363 87.1528 126.377 87.1528C129.174 88.0526 130.798 90.4715 131.997 93.0208C131.111 92.0754 129.97 91.606 128.692 92.6688C128.627 92.7274 128.692 92.8318 128.776 92.8122C129.243 92.6241 129.757 92.5857 130.246 92.7025C130.736 92.8194 131.177 93.0856 131.508 93.4642C132.061 94.0995 132.545 94.7924 132.949 95.531C133.093 95.7658 133.523 95.6028 133.412 95.3289V95.2637C133.184 91.7755 130.126 87.1202 126.377 87.0485Z" fill="#263238"/>
<path d="M132.525 96.4308C132.539 96.543 132.53 96.6569 132.498 96.7654C132.466 96.8738 132.411 96.9744 132.339 97.0609C132.266 97.1474 132.176 97.2179 132.074 97.268C131.973 97.3182 131.862 97.3468 131.749 97.3522C131.636 97.3576 131.524 97.3396 131.418 97.2994C131.312 97.2592 131.216 97.1975 131.135 97.1184C131.054 97.0392 130.991 96.9443 130.949 96.8394C130.906 96.7346 130.886 96.6221 130.889 96.5091C130.895 96.3019 130.978 96.1046 131.123 95.9567C131.268 95.8087 131.464 95.7209 131.671 95.7111C131.878 95.7012 132.081 95.7698 132.239 95.9033C132.398 96.0368 132.5 96.2252 132.525 96.4308Z" fill="white"/>
<path d="M130.165 95.1268C130.169 95.1944 130.159 95.2621 130.136 95.3259C130.113 95.3897 130.078 95.4484 130.033 95.4987C129.987 95.5489 129.932 95.5897 129.871 95.6188C129.81 95.6478 129.744 95.6645 129.676 95.668C129.608 95.6714 129.541 95.6615 129.477 95.6387C129.413 95.616 129.354 95.581 129.304 95.5356C129.254 95.4901 129.213 95.4353 129.184 95.3741C129.155 95.3129 129.138 95.2466 129.135 95.179C129.128 95.0424 129.176 94.9086 129.267 94.8071C129.359 94.7056 129.487 94.6447 129.624 94.6378C129.761 94.6309 129.894 94.6785 129.996 94.7702C130.097 94.8619 130.158 94.9902 130.165 95.1268Z" fill="white"/>
<path d="M149.608 114.596L145.696 124.845L132.812 112.216L129.311 116.415C129.311 116.415 142.064 136.627 142.123 135.701L146.146 126.853L152.314 132.838L151.531 117.536L149.608 114.596Z" fill="#1648CE"/>
<path d="M152.372 125.249C152.164 122.726 152.014 120.183 151.72 117.673C151.72 117.582 151.564 117.543 151.544 117.673C151.088 120.118 151.955 129.761 151.988 132.076C151.733 131.815 146.276 126.814 146.224 126.899C145.344 128.307 142.39 134.723 142.188 135.336C140.173 132.128 131.632 119.479 129.259 116.428C129.247 116.408 129.227 116.393 129.205 116.388C129.182 116.382 129.158 116.386 129.138 116.398C129.118 116.41 129.104 116.43 129.099 116.453C129.093 116.475 129.097 116.499 129.109 116.519C130.902 119.916 141.947 136.607 142.097 136.555C143.658 133.513 145.062 130.392 146.302 127.205C147.228 128.301 152.744 133.953 152.757 133.582C152.776 130.799 152.648 128.018 152.372 125.249Z" fill="#263238"/>
<path d="M150.521 147.743C150.521 147.743 145.481 141.093 150.292 138.022C155.104 134.951 159.01 142.325 159.01 142.325L150.521 147.743Z" fill="#455A64"/>
<path d="M190.384 191.505L191.082 199.636L191.329 202.322L188.976 200.986L181.908 196.904L150.358 147.456L158.834 142.038L190.384 191.505Z" fill="#455A64"/>
<path d="M191.101 199.649L191.336 202.329L188.989 200.992L191.101 199.649Z" fill="#37474F"/>
<path d="M159.377 141.33L149.467 147.653L150.723 149.621L160.633 143.297L159.377 141.33Z" fill="#263238"/>
<path d="M160.759 143.512L150.848 149.835L152.104 151.803L162.014 145.48L160.759 143.512Z" fill="#263238"/>
<path d="M152.105 151.792L155.3 149.751L164.956 168.77L163.737 169.448L152.105 151.792Z" fill="#263238"/>
<path d="M132.356 165.197C137.2 164.239 151.916 205.654 144.842 207.408C113.441 215.232 87.7331 210.303 81.6434 207.408C73.6564 203.58 72.9914 193.325 76.3296 188.591C82.152 180.382 124.845 166.69 132.356 165.197Z" fill="#AD6359"/>
<path d="M192.659 163C192.581 167.779 180.813 166.593 180.813 166.593C182.512 167.761 183.746 169.49 184.301 171.476C185.116 175.016 179.926 177.846 179.926 177.846C181.431 179.427 182.426 181.424 182.782 183.577C183.218 187.046 178.387 190.645 178.387 190.645C178.973 192.86 178.741 195.211 177.735 197.269C174.821 202.655 142.299 207.858 138.25 208.594L130.426 166.214C130.426 166.214 155.978 151.766 163.026 152.249C168.953 152.607 192.777 155.678 192.659 163Z" fill="#AD6359"/>
<path d="M180.721 166.436C174.514 164.48 167.851 164.03 161.422 163.659C161.393 163.659 161.365 163.67 161.344 163.691C161.323 163.712 161.311 163.74 161.311 163.769C161.311 163.799 161.323 163.827 161.344 163.848C161.365 163.869 161.393 163.88 161.422 163.88C167.825 164.174 174.299 166.188 180.676 166.742C180.713 166.743 180.75 166.729 180.778 166.705C180.807 166.68 180.826 166.646 180.831 166.609C180.837 166.572 180.829 166.534 180.809 166.502C180.788 166.47 180.757 166.447 180.721 166.436Z" fill="#263238"/>
<path d="M179.763 177.344C178.31 177.039 176.824 176.925 175.342 177.005C173.769 177.005 172.198 177.018 170.628 177.044C167.481 177.122 164.339 177.281 161.2 177.52C161.064 177.52 161.044 177.742 161.2 177.742C164.33 177.67 167.466 177.644 170.602 177.703C172.174 177.703 173.738 177.774 175.31 177.826C176.785 177.972 178.272 177.955 179.743 177.774C179.789 177.761 179.829 177.733 179.858 177.696C179.887 177.659 179.904 177.613 179.906 177.566C179.908 177.519 179.895 177.472 179.87 177.432C179.844 177.393 179.807 177.362 179.763 177.344Z" fill="#263238"/>
<path d="M178.25 190.625C177.038 190.234 175.518 190.475 174.26 190.534L169.957 190.71C167.095 190.808 164.232 190.906 161.363 190.906C161.22 190.906 161.207 191.127 161.363 191.127C164.278 191.127 167.192 191.199 170.1 191.186C171.535 191.186 172.963 191.186 174.397 191.147C175.61 191.147 177.135 191.245 178.309 190.769C178.325 190.759 178.338 190.744 178.344 190.726C178.35 190.708 178.349 190.689 178.342 190.671C178.335 190.654 178.322 190.64 178.305 190.631C178.288 190.623 178.269 190.621 178.25 190.625Z" fill="#263238"/>
<path d="M127.583 165.745L141.647 212.409C141.647 212.409 90.4258 214.906 79.4396 206.919C71.8047 201.364 72.4371 190.912 75.8862 187.313C83.4168 179.456 127.583 165.745 127.583 165.745Z" fill="#EBEBEB"/>
<path d="M128.151 210.596C125.94 204.076 117.862 177.214 116.506 171.287C116.415 170.876 116.649 170.72 116.806 171.13C123.899 190.423 126.586 204.024 128.405 210.498C128.444 210.674 128.209 210.772 128.151 210.596Z" fill="#263238"/>
<path d="M127.596 165.262C127.316 165.204 122.38 166.482 120.802 166.945C117.721 167.862 114.661 168.857 111.622 169.931C105.572 172.062 99.6351 174.504 93.8357 177.246L92.9685 177.663C90.8495 178.172 88.7827 178.902 86.7223 179.58C86.6637 179.58 86.7223 179.691 86.7223 179.672C88.3719 179.124 90.0475 178.694 91.7232 178.25C90.7973 178.7 89.865 179.157 88.9522 179.633C87.3287 180.474 85.7443 181.38 84.1339 182.241C84.1279 182.243 84.1226 182.247 84.1182 182.252C84.1139 182.256 84.1105 182.262 84.1085 182.268C84.1065 182.274 84.1058 182.281 84.1064 182.287C84.1071 182.294 84.1092 182.3 84.1124 182.305C84.1157 182.311 84.1201 182.316 84.1254 182.32C84.1306 182.323 84.1366 182.326 84.143 182.327C84.1493 182.329 84.1559 182.328 84.1622 182.327C84.1685 182.325 84.1744 182.323 84.1795 182.319C86.8853 180.917 89.6955 179.672 92.473 178.407C95.2505 177.142 98.1454 175.91 101.014 174.749C106.667 172.461 112.431 170.413 118.266 168.614C119.909 168.112 121.526 167.629 123.208 167.16C124.017 166.932 127.381 165.791 127.525 165.778C127.603 165.898 127.662 166.03 127.701 166.169C127.74 166.306 127.896 166.306 127.864 166.169C127.81 165.857 127.72 165.553 127.596 165.262Z" fill="#263238"/>
<path d="M134.534 212.617C133.047 212.513 127.564 212.78 126.097 212.78C123.137 212.78 120.183 212.78 117.223 212.728C111.277 212.572 105.357 212.141 99.4364 211.574C97.7999 211.418 96.1764 211.241 94.5203 211.065C92.8642 210.889 91.0843 210.759 89.4021 210.453C89.3369 210.453 89.3108 210.544 89.4021 210.557C90.8756 210.772 92.3231 211.118 93.7901 211.372C95.2571 211.626 96.7306 211.848 98.2106 212.056C101.171 212.474 104.144 212.767 107.123 213.015C113.07 213.504 119.055 213.667 125.021 213.556C126.703 213.524 132.982 213.263 134.612 212.904C134.775 212.898 134.703 212.63 134.534 212.617Z" fill="#263238"/>
<path d="M233.005 221.791L179.215 225.69L199.323 154.87L253.113 150.971L233.005 221.791Z" fill="white"/>
<path d="M236.682 221.524L182.899 225.422L203.007 154.602L256.79 150.703L236.682 221.524Z" fill="#37474F"/>
<path d="M208.718 154.198C208.582 154.808 208.326 155.384 207.966 155.895C207.606 156.405 207.148 156.839 206.619 157.171C206.13 157.484 205.967 156.826 206.43 156.519C207.108 156.072 207.613 155.407 207.864 154.635C207.897 154.511 207.936 154.368 207.955 154.244C208.071 153.817 208.071 153.367 207.955 152.94C207.899 152.756 207.782 152.597 207.623 152.49C207.607 152.482 207.594 152.471 207.584 152.457C207.584 152.457 207.525 152.457 207.518 152.457C207.484 152.462 207.449 152.462 207.414 152.457C207.285 152.442 207.154 152.462 207.036 152.516C206.808 152.615 206.607 152.767 206.449 152.959C206.255 153.189 206.093 153.443 205.967 153.716C205.889 153.848 205.82 153.986 205.758 154.126V154.224C205.734 154.269 205.716 154.317 205.706 154.368C205.706 154.368 205.667 154.426 205.673 154.459L204.91 154.517C205.066 154.03 205.285 153.565 205.562 153.135C205.764 152.765 206.044 152.442 206.381 152.189C206.719 151.936 207.106 151.759 207.518 151.668C207.825 151.635 208.133 151.722 208.377 151.912C208.62 152.102 208.78 152.379 208.822 152.685C208.915 153.19 208.879 153.71 208.718 154.198Z" fill="#1648CE"/>
<path d="M212.93 153.872C212.65 155.101 211.895 156.17 210.831 156.845C210.335 157.158 210.179 156.5 210.642 156.193C211.32 155.748 211.824 155.082 212.069 154.309C212.111 154.181 212.144 154.05 212.167 153.918C212.283 153.491 212.283 153.041 212.167 152.614C212.109 152.429 211.99 152.27 211.828 152.164C211.817 152.166 211.806 152.166 211.796 152.164C211.796 152.164 211.737 152.164 211.724 152.164H211.626C211.497 152.148 211.366 152.169 211.248 152.222C211.02 152.321 210.819 152.473 210.661 152.666C210.463 152.892 210.3 153.147 210.179 153.422C210.101 153.557 210.032 153.697 209.97 153.839V153.931C209.942 153.975 209.922 154.023 209.911 154.074C209.911 154.107 209.879 154.139 209.911 154.165L209.148 154.224C209.301 153.736 209.521 153.27 209.8 152.842C210.002 152.471 210.281 152.148 210.618 151.895C210.956 151.642 211.344 151.464 211.756 151.375C212.063 151.343 212.37 151.431 212.613 151.621C212.856 151.81 213.017 152.087 213.06 152.392C213.136 152.889 213.091 153.396 212.93 153.872Z" fill="#1648CE"/>
<path d="M217.116 153.585C216.834 154.817 216.077 155.888 215.01 156.565C214.521 156.871 214.358 156.213 214.821 155.913C215.501 155.468 216.007 154.802 216.255 154.028C216.255 153.905 216.333 153.768 216.353 153.644C216.463 153.216 216.463 152.767 216.353 152.34C216.3 152.155 216.182 151.995 216.021 151.89H215.981C215.981 151.89 215.929 151.89 215.916 151.89H215.812C215.686 151.871 215.556 151.889 215.44 151.942C215.21 152.041 215.007 152.193 214.847 152.385C214.653 152.615 214.491 152.869 214.364 153.142C214.286 153.272 214.228 153.416 214.156 153.559V153.65C214.133 153.696 214.115 153.744 214.104 153.794C214.104 153.826 214.071 153.859 214.104 153.885L213.341 153.944C213.493 153.455 213.713 152.99 213.993 152.561C214.195 152.192 214.474 151.87 214.811 151.618C215.149 151.366 215.537 151.189 215.949 151.101C216.255 151.066 216.563 151.152 216.807 151.341C217.05 151.529 217.211 151.806 217.253 152.112C217.325 152.607 217.278 153.112 217.116 153.585Z" fill="#1648CE"/>
<path d="M221.347 153.279C221.21 153.889 220.955 154.466 220.594 154.977C220.234 155.489 219.777 155.924 219.248 156.258C218.759 156.571 218.596 155.906 219.059 155.606C219.736 155.158 220.241 154.494 220.493 153.722C220.526 153.592 220.565 153.455 220.585 153.331C220.699 152.904 220.699 152.454 220.585 152.027C220.527 151.844 220.41 151.685 220.252 151.577H220.213C220.213 151.577 220.154 151.577 220.148 151.577H220.043C219.914 151.555 219.782 151.576 219.665 151.636C219.436 151.73 219.234 151.88 219.079 152.072C218.885 152.302 218.722 152.556 218.596 152.829C218.519 152.964 218.449 153.103 218.387 153.246V153.337C218.365 153.383 218.348 153.431 218.335 153.481C218.335 153.513 218.296 153.546 218.303 153.579L217.54 153.631C217.695 153.143 217.914 152.679 218.192 152.249C218.394 151.879 218.673 151.557 219.011 151.305C219.348 151.053 219.736 150.877 220.148 150.788C220.454 150.753 220.762 150.839 221.006 151.028C221.249 151.217 221.41 151.493 221.452 151.799C221.539 152.293 221.503 152.801 221.347 153.279Z" fill="#1648CE"/>
<path d="M225.592 152.972C225.311 154.203 224.556 155.273 223.492 155.952C222.997 156.265 222.84 155.6 223.303 155.3C223.98 154.853 224.484 154.188 224.731 153.416C224.773 153.288 224.806 153.157 224.829 153.024C224.945 152.597 224.945 152.147 224.829 151.72C224.771 151.534 224.651 151.373 224.49 151.264C224.479 151.266 224.468 151.266 224.457 151.264C224.457 151.264 224.399 151.264 224.386 151.264H224.288C224.159 151.245 224.027 151.266 223.91 151.323C223.682 151.419 223.481 151.569 223.323 151.76C223.126 151.989 222.963 152.246 222.84 152.522C222.762 152.654 222.692 152.792 222.632 152.933V153.024C222.605 153.069 222.585 153.117 222.573 153.168C222.573 153.2 222.541 153.233 222.573 153.266L221.81 153.318C221.963 152.829 222.182 152.364 222.462 151.936C222.665 151.566 222.944 151.245 223.282 150.993C223.619 150.741 224.007 150.564 224.418 150.475C224.724 150.441 225.031 150.528 225.275 150.717C225.518 150.905 225.678 151.181 225.722 151.486C225.799 151.984 225.754 152.494 225.592 152.972Z" fill="#1648CE"/>
<path d="M229.771 152.672C229.487 153.902 228.731 154.97 227.665 155.645C227.176 155.958 227.013 155.293 227.476 154.993C228.155 154.547 228.661 153.882 228.911 153.109C228.943 152.985 228.989 152.842 229.008 152.718C229.121 152.291 229.121 151.841 229.008 151.414C228.953 151.228 228.836 151.067 228.676 150.958H228.637C228.637 150.958 228.585 150.958 228.572 150.958C228.537 150.962 228.502 150.962 228.467 150.958C228.34 150.94 228.211 150.961 228.096 151.016C227.864 151.113 227.66 151.265 227.502 151.46C227.308 151.689 227.146 151.943 227.02 152.216C226.941 152.34 226.883 152.483 226.811 152.627V152.724C226.788 152.768 226.771 152.814 226.759 152.861C226.75 152.893 226.75 152.927 226.759 152.959L225.996 153.011C226.15 152.525 226.369 152.062 226.648 151.636C226.85 151.266 227.13 150.943 227.467 150.69C227.805 150.437 228.192 150.259 228.604 150.169C228.91 150.133 229.218 150.219 229.462 150.408C229.706 150.597 229.866 150.874 229.908 151.179C229.983 151.681 229.936 152.193 229.771 152.672Z" fill="#1648CE"/>
<path d="M233.977 152.366C233.841 152.976 233.585 153.552 233.225 154.063C232.864 154.573 232.406 155.007 231.877 155.339C231.388 155.652 231.225 154.993 231.688 154.687C232.366 154.24 232.872 153.575 233.123 152.803C233.155 152.679 233.194 152.535 233.214 152.412C233.329 151.985 233.329 151.535 233.214 151.108C233.158 150.924 233.041 150.765 232.881 150.658C232.866 150.65 232.853 150.639 232.842 150.625C232.842 150.625 232.784 150.625 232.777 150.625C232.742 150.63 232.707 150.63 232.673 150.625C232.544 150.61 232.413 150.63 232.295 150.684C232.066 150.783 231.865 150.935 231.708 151.127C231.512 151.355 231.349 151.61 231.225 151.883C231.148 152.016 231.078 152.153 231.017 152.294V152.392C230.993 152.438 230.974 152.486 230.958 152.535C230.958 152.535 230.925 152.594 230.958 152.627L230.195 152.685C230.351 152.198 230.57 151.733 230.847 151.303C231.049 150.933 231.328 150.61 231.666 150.357C232.003 150.104 232.391 149.926 232.803 149.836C233.11 149.803 233.418 149.89 233.661 150.08C233.905 150.27 234.065 150.547 234.107 150.853C234.191 151.36 234.146 151.881 233.977 152.366Z" fill="#1648CE"/>
<path d="M238.189 152.059C237.908 153.289 237.154 154.357 236.089 155.033C235.594 155.346 235.437 154.687 235.9 154.381C236.577 153.937 237.081 153.274 237.328 152.503C237.37 152.375 237.402 152.244 237.426 152.112C237.538 151.684 237.538 151.235 237.426 150.808C237.368 150.623 237.248 150.464 237.087 150.358C237.076 150.36 237.065 150.36 237.054 150.358C237.054 150.358 236.995 150.358 236.982 150.358H236.885C236.756 150.342 236.625 150.363 236.506 150.416C236.278 150.515 236.077 150.667 235.92 150.86C235.721 151.086 235.559 151.341 235.437 151.616C235.36 151.751 235.29 151.89 235.229 152.033V152.125C235.201 152.169 235.181 152.217 235.17 152.268C235.17 152.301 235.137 152.333 235.17 152.359L234.407 152.418C234.56 151.929 234.779 151.464 235.059 151.036C235.26 150.665 235.539 150.342 235.877 150.089C236.214 149.836 236.603 149.658 237.015 149.569C237.322 149.537 237.629 149.625 237.872 149.815C238.115 150.004 238.275 150.281 238.319 150.586C238.393 151.08 238.348 151.586 238.189 152.059Z" fill="#1648CE"/>
<path d="M242.401 151.753C242.119 152.985 241.362 154.056 240.295 154.733C239.806 155.039 239.643 154.381 240.106 154.081C240.785 153.635 241.292 152.97 241.54 152.196C241.573 152.072 241.618 151.936 241.638 151.812C241.748 151.384 241.748 150.935 241.638 150.508C241.584 150.323 241.466 150.163 241.305 150.058H241.266C241.266 150.058 241.214 150.058 241.201 150.058H241.097C240.97 150.038 240.841 150.057 240.725 150.11C240.495 150.209 240.291 150.361 240.132 150.553C239.938 150.783 239.776 151.037 239.649 151.31C239.571 151.44 239.512 151.583 239.44 151.727V151.818C239.418 151.864 239.401 151.912 239.388 151.962C239.388 151.994 239.388 152.027 239.388 152.053L238.625 152.112C238.778 151.623 238.997 151.158 239.277 150.729C239.479 150.36 239.758 150.038 240.096 149.786C240.434 149.533 240.822 149.357 241.233 149.269C241.54 149.234 241.848 149.32 242.091 149.508C242.335 149.697 242.495 149.974 242.537 150.279C242.61 150.775 242.563 151.28 242.401 151.753Z" fill="#1648CE"/>
<path d="M246.606 151.447C246.469 152.057 246.213 152.634 245.853 153.145C245.492 153.657 245.035 154.092 244.506 154.426C244.017 154.739 243.854 154.074 244.317 153.774C244.993 153.324 245.498 152.661 245.752 151.89C245.784 151.76 245.823 151.623 245.843 151.499C245.958 151.072 245.958 150.622 245.843 150.195C245.786 150.012 245.669 149.853 245.51 149.745H245.471C245.471 149.745 245.413 149.745 245.406 149.745H245.302C245.173 149.723 245.04 149.744 244.924 149.804C244.694 149.898 244.493 150.048 244.337 150.24C244.141 150.468 243.978 150.723 243.854 150.997C243.777 151.132 243.707 151.271 243.646 151.414V151.505C243.622 151.551 243.602 151.599 243.587 151.649C243.587 151.681 243.554 151.714 243.587 151.747L242.824 151.799C242.98 151.311 243.199 150.846 243.476 150.416C243.678 150.047 243.958 149.725 244.295 149.473C244.633 149.221 245.02 149.045 245.432 148.956C245.739 148.921 246.046 149.007 246.29 149.196C246.534 149.384 246.694 149.661 246.736 149.967C246.815 150.463 246.77 150.971 246.606 151.447Z" fill="#1648CE"/>
<path d="M250.818 151.14C250.536 152.371 249.782 153.441 248.718 154.12C248.223 154.433 248.066 153.768 248.529 153.468C249.206 153.021 249.71 152.356 249.957 151.583C249.999 151.456 250.032 151.325 250.055 151.192C250.167 150.765 250.167 150.316 250.055 149.888C249.997 149.702 249.877 149.541 249.716 149.432C249.705 149.434 249.694 149.434 249.683 149.432C249.683 149.432 249.625 149.432 249.612 149.432H249.514C249.385 149.413 249.253 149.434 249.136 149.491C248.908 149.587 248.706 149.737 248.549 149.927C248.352 150.158 248.187 150.415 248.06 150.69C247.983 150.823 247.916 150.96 247.858 151.101V151.192C247.831 151.237 247.811 151.285 247.799 151.336C247.799 151.368 247.766 151.401 247.799 151.434L247.036 151.486C247.189 150.997 247.408 150.532 247.688 150.103C247.891 149.734 248.17 149.413 248.507 149.161C248.845 148.909 249.233 148.732 249.644 148.643C249.95 148.609 250.257 148.696 250.5 148.885C250.744 149.073 250.904 149.349 250.948 149.654C251.024 150.152 250.98 150.662 250.818 151.14Z" fill="#1648CE"/>
<path d="M255.03 150.84C254.746 152.07 253.989 153.138 252.924 153.813C252.435 154.126 252.272 153.461 252.735 153.161C253.413 152.715 253.919 152.05 254.169 151.277C254.202 151.153 254.241 151.01 254.267 150.886C254.379 150.458 254.379 150.009 254.267 149.582C254.212 149.396 254.094 149.235 253.934 149.125H253.895C253.895 149.125 253.843 149.125 253.83 149.125C253.795 149.13 253.76 149.13 253.726 149.125C253.599 149.108 253.47 149.128 253.354 149.184C253.123 149.28 252.919 149.433 252.761 149.627C252.567 149.857 252.405 150.111 252.278 150.384C252.2 150.508 252.141 150.651 252.07 150.795V150.892C252.047 150.936 252.029 150.982 252.017 151.029C252.009 151.061 252.009 151.095 252.017 151.127L251.255 151.179C251.41 150.692 251.629 150.227 251.907 149.797C252.11 149.429 252.39 149.108 252.727 148.856C253.065 148.604 253.452 148.427 253.863 148.337C254.169 148.301 254.477 148.387 254.721 148.576C254.964 148.765 255.124 149.042 255.167 149.347C255.241 149.849 255.194 150.361 255.03 150.84Z" fill="#1648CE"/>
<path d="M254.143 166.625C256.992 172.447 264.073 179.665 264.705 184.418C264.902 185.589 264.716 186.793 264.174 187.85C263.633 188.907 262.765 189.761 261.7 190.286C261.7 190.286 266.505 192.614 266.362 197.041C266.283 199.323 262.58 201.201 262.58 201.201C262.58 201.201 266.342 203.235 265.977 207.166C265.677 210.296 262.013 211.73 262.013 211.73C262.013 211.73 264.712 215.349 263.408 218.42C260.728 224.692 233.729 225.005 229.445 215.108C227.444 210.498 234.042 210.779 234.042 210.779C234.042 210.779 224.653 208.086 224.444 202.518C224.236 196.95 232.79 197.836 232.79 197.836C232.79 197.836 223.714 195.144 224.079 189.36C224.464 183.336 232.868 185.683 232.868 185.683C232.868 185.683 226.818 181.68 228.115 177.311C230.254 170.1 241.722 179.007 247.675 177.533L250.837 167.707L254.143 166.625Z" fill="#AD6359"/>
<path d="M259.652 175.069C257.442 169.318 264.51 162.107 263.18 156.31C261.387 148.486 252.617 156.271 250.792 167.72L250.922 176.848L259.652 175.069Z" fill="#AD6359"/>
<path d="M261.452 212.024C261.537 212.024 261.569 212.141 261.452 212.161C252.598 214.43 242.172 214.208 233.625 210.857C233.344 210.746 233.403 210.244 233.735 210.309C243.255 212.07 251.809 212.911 261.452 212.024Z" fill="#263238"/>
<path d="M262.71 201.259C262.815 201.259 262.834 201.422 262.71 201.448C253.582 203.737 241.846 203.163 232.444 198.104C232.118 197.934 232.008 197.452 232.392 197.628C238.906 200.51 254.026 202.12 262.71 201.259Z" fill="#263238"/>
<path d="M232.275 185.109C241.475 189.608 251.183 190.71 261.335 190.404C261.465 190.404 261.458 190.586 261.335 190.619C256.412 192.118 249.931 191.642 244.917 190.84C240.25 190.187 235.835 188.324 232.112 185.435C231.968 185.318 232.112 185.018 232.275 185.109Z" fill="#263238"/>
<path d="M31.5308 264.771L64.3981 264.614L97.2654 264.556L163 264.445L228.735 264.556L261.602 264.614L294.469 264.771L261.602 264.934L228.735 264.986L163 265.097L97.2654 264.986L64.3981 264.927L31.5308 264.771Z" fill="#263238"/>
<path d="M71.8569 237.093H42.895V280.543H71.8569V237.093Z" fill="#1648CE"/>
<path d="M75.3582 225.422H39.4004V237.087H75.3582V225.422Z" fill="#455A64"/>
<path d="M67.0191 249.592H47.7395V268.872H67.0191V249.592Z" fill="white"/>
<path opacity="0.1" d="M42.895 237.093V240.477L59.2015 246.639V280.536H67.019V237.093H42.895Z" fill="black"/>
<path d="M33.9041 279.545C33.9041 279.067 33.9984 278.593 34.1816 278.151C34.3649 277.709 34.6334 277.308 34.9719 276.97C35.3105 276.632 35.7123 276.364 36.1545 276.182C36.5966 275.999 37.0704 275.906 37.5487 275.907H44.799C45.2776 275.906 45.7517 275.999 46.1942 276.182C46.6367 276.364 47.039 276.632 47.3781 276.97C47.7171 277.308 47.9863 277.709 48.1702 278.151C48.3542 278.593 48.4493 279.066 48.4502 279.545C48.4484 280.512 48.063 281.439 47.3785 282.123C46.6939 282.806 45.7662 283.19 44.799 283.19H37.5748C37.0942 283.192 36.6179 283.1 36.1731 282.918C35.7282 282.736 35.3237 282.468 34.9827 282.13C34.6416 281.791 34.3708 281.388 34.1857 280.945C34.0006 280.501 33.9049 280.026 33.9041 279.545Z" fill="#455A64"/>
<path d="M33.9041 279.545C33.9041 279.067 33.9984 278.593 34.1816 278.151C34.3649 277.709 34.6334 277.308 34.972 276.97C35.3105 276.632 35.7123 276.364 36.1545 276.182C36.5966 275.999 37.0704 275.906 37.5487 275.907H41.1673V283.203H37.5748C37.0931 283.205 36.6157 283.113 36.17 282.93C35.7244 282.747 35.3193 282.478 34.9781 282.138C34.6369 281.798 34.3663 281.394 34.182 280.949C33.9976 280.504 33.9032 280.027 33.9041 279.545Z" fill="#1648CE"/>
<path d="M83.4561 279.545C83.4553 280.024 83.3601 280.497 83.1762 280.939C82.9922 281.381 82.7231 281.782 82.384 282.12C82.045 282.458 81.6427 282.726 81.2002 282.908C80.7577 283.091 80.2835 283.184 79.8049 283.183H72.6134C72.1347 283.184 71.6606 283.091 71.2181 282.908C70.7756 282.726 70.3733 282.458 70.0343 282.12C69.6952 281.782 69.426 281.381 69.2421 280.939C69.0581 280.497 68.963 280.024 68.9622 279.545C68.9622 278.577 69.3468 277.648 70.0316 276.963C70.7163 276.278 71.645 275.894 72.6134 275.894H79.831C80.7948 275.901 81.7168 276.288 82.3959 276.972C83.075 277.656 83.4561 278.581 83.4561 279.545Z" fill="#455A64"/>
<path d="M83.4559 279.545C83.4551 280.024 83.36 280.497 83.176 280.939C82.9921 281.381 82.7229 281.782 82.3838 282.12C82.0448 282.458 81.6425 282.726 81.2 282.908C80.7575 283.091 80.2834 283.184 79.8047 283.183H76.2188V275.894H79.8308C80.7947 275.901 81.7167 276.288 82.3958 276.972C83.0749 277.656 83.456 278.581 83.4559 279.545Z" fill="#1648CE"/>
<path d="M91.6778 281.012C91.3399 281.351 90.9385 281.619 90.4965 281.803C90.0546 281.986 89.5809 282.08 89.1024 282.08C88.624 282.08 88.1502 281.986 87.7083 281.803C87.2664 281.619 86.865 281.351 86.527 281.012L81.4153 275.907C80.7329 275.223 80.3496 274.297 80.3496 273.331C80.3496 272.366 80.7329 271.439 81.4153 270.756C82.1009 270.073 83.0294 269.689 83.9973 269.689C84.9652 269.689 85.8936 270.073 86.5792 270.756L91.6843 275.861C92.3643 276.546 92.7453 277.473 92.7441 278.438C92.7429 279.403 92.3595 280.329 91.6778 281.012Z" fill="#455A64"/>
<path d="M91.6778 281.012C91.3399 281.351 90.9385 281.619 90.4966 281.803C90.0546 281.986 89.5809 282.08 89.1024 282.08C88.624 282.08 88.1502 281.986 87.7083 281.803C87.2664 281.619 86.865 281.351 86.527 281.012L83.9712 278.456L89.1285 273.299L91.6844 275.855C92.3663 276.54 92.7486 277.468 92.7474 278.435C92.7462 279.402 92.3615 280.328 91.6778 281.012Z" fill="#1648CE"/>
<path d="M58.6409 286.841C58.6417 286.362 58.7368 285.888 58.9208 285.447C59.1047 285.005 59.3739 284.603 59.713 284.266C60.052 283.928 60.4543 283.66 60.8968 283.478C61.3393 283.295 61.8134 283.202 62.2921 283.203H69.5097C69.9883 283.202 70.4624 283.295 70.905 283.478C71.3475 283.66 71.7498 283.928 72.0888 284.266C72.4278 284.603 72.697 285.005 72.881 285.447C73.0649 285.888 73.1601 286.362 73.1609 286.841C73.1592 287.808 72.7737 288.735 72.0892 289.418C71.4046 290.102 70.4769 290.486 69.5097 290.486H62.2921C61.3248 290.486 60.3971 290.102 59.7126 289.418C59.028 288.735 58.6426 287.808 58.6409 286.841Z" fill="#455A64"/>
<path d="M58.6409 286.841C58.6417 286.362 58.7368 285.888 58.9208 285.447C59.1048 285.005 59.3739 284.603 59.713 284.266C60.052 283.928 60.4543 283.66 60.8968 283.478C61.3393 283.295 61.8134 283.202 62.2921 283.203H65.9042V290.499H62.2921C61.812 290.499 61.3367 290.404 60.8933 290.22C60.4499 290.036 60.0471 289.767 59.708 289.427C59.3688 289.087 59.1 288.684 58.9169 288.24C58.7338 287.796 58.64 287.321 58.6409 286.841Z" fill="#1648CE"/>
<path d="M208.092 278.854L207.91 281.41C207.91 281.449 207.91 281.494 207.91 281.54C207.773 282.349 206.854 283.02 205.478 283.437C204.013 283.845 202.49 284.004 200.973 283.907L200.321 283.861C200.099 283.861 199.871 283.822 199.669 283.79C196.187 283.34 193.618 281.905 193.722 280.412L193.898 277.863C193.794 279.356 196.363 280.79 199.845 281.24L200.497 281.305C200.718 281.305 200.946 281.345 201.149 281.351C202.666 281.451 204.19 281.293 205.654 280.882C207.03 280.471 207.942 279.806 208.086 278.991C208.086 278.939 208.086 278.906 208.092 278.854Z" fill="#DBDBDB"/>
<path d="M196.317 275.835C197.778 275.427 199.296 275.269 200.81 275.366L199.812 281.234C200.027 281.234 200.255 281.286 200.464 281.299C200.673 281.312 200.907 281.338 201.116 281.351L202.114 275.483C205.7 275.939 208.314 277.439 208.047 278.984C207.916 279.799 206.997 280.464 205.621 280.888C204.157 281.296 202.634 281.455 201.116 281.358C200.894 281.358 200.666 281.358 200.464 281.305C200.262 281.253 200.014 281.266 199.812 281.24C196.226 280.784 193.612 279.284 193.879 277.739C194.016 276.924 194.948 276.252 196.317 275.835Z" fill="white"/>
<path d="M200.816 275.366L201.468 275.411L202.12 275.483L201.123 281.351C200.901 281.351 200.673 281.351 200.471 281.299C200.268 281.247 200.021 281.26 199.819 281.234L200.816 275.366Z" fill="#DBDBDB"/>
<path d="M207.688 283.561V286.117C207.685 286.161 207.685 286.204 207.688 286.248C207.76 287.063 208.627 287.812 209.957 288.334C211.384 288.858 212.89 289.138 214.41 289.162H215.062C215.284 289.162 215.512 289.162 215.714 289.162C219.222 288.992 221.902 287.767 221.915 286.267V283.711C221.915 285.204 219.222 286.43 215.714 286.606H215.062C214.845 286.618 214.627 286.618 214.41 286.606C212.89 286.584 211.385 286.306 209.957 285.785C208.614 285.263 207.76 284.52 207.688 283.698C207.684 283.653 207.684 283.607 207.688 283.561Z" fill="#DBDBDB"/>
<path d="M219.672 281.488C218.247 280.964 216.743 280.684 215.225 280.66L215.753 286.593C215.532 286.593 215.303 286.593 215.101 286.593H214.449L213.921 280.66C210.309 280.829 207.584 282.12 207.727 283.672C207.799 284.5 208.659 285.237 209.996 285.765C211.423 286.289 212.929 286.569 214.449 286.593H215.101C215.323 286.593 215.551 286.593 215.753 286.593C219.359 286.424 222.091 285.133 221.947 283.581C221.875 282.753 221.028 282.016 219.672 281.488Z" fill="white"/>
<path d="M215.225 280.66H214.573C214.351 280.66 214.134 280.66 213.921 280.66L214.449 286.593H215.101C215.323 286.593 215.551 286.593 215.753 286.593L215.225 280.66Z" fill="#DBDBDB"/>
<path d="M188.643 282.74C187.085 283.621 185.339 284.117 183.551 284.187C182.021 284.292 180.488 284.058 179.059 283.503C178.902 283.437 178.739 283.353 178.583 283.274C178.426 283.196 178.283 283.105 178.146 283.014C177.756 282.793 177.423 282.487 177.171 282.117C176.919 281.747 176.755 281.325 176.692 280.882L176.457 278.554C176.525 279.002 176.695 279.429 176.955 279.8C177.216 280.171 177.558 280.476 177.957 280.693C178.087 280.775 178.231 280.86 178.387 280.947C178.539 281.032 178.696 281.108 178.857 281.175C180.286 281.731 181.819 281.964 183.349 281.86C185.136 281.791 186.881 281.299 188.441 280.425C190.025 279.473 190.769 278.267 190.651 277.165L190.886 279.493C190.971 280.588 190.227 281.794 188.643 282.74Z" fill="#DBDBDB"/>
<path d="M178.831 281.175L178.961 282.531L188.428 276.852L188.2 274.525L177.911 280.693C178.035 280.777 178.185 280.862 178.342 280.947C178.498 281.032 178.648 281.103 178.831 281.175Z" fill="#1648CE"/>
<path d="M188.213 274.525C188.376 274.596 188.539 274.668 188.695 274.753C188.852 274.838 188.989 274.916 189.126 275.007L178.831 281.175C178.661 281.103 178.511 281.032 178.355 280.947C178.198 280.862 178.048 280.777 177.924 280.693L188.213 274.525Z" fill="#DBDBDB"/>
<path d="M189.126 275.007L189.36 277.328L179.059 283.496L178.831 281.175L189.126 275.007Z" fill="#DBDBDB"/>
<path d="M183.721 273.84C185.25 273.737 186.783 273.971 188.213 274.525L177.924 280.693C178.048 280.777 178.198 280.862 178.355 280.947C178.511 281.032 178.661 281.103 178.831 281.175L189.126 275.007C191.369 276.455 191.082 278.808 188.408 280.419C186.851 281.294 185.108 281.788 183.323 281.86C181.793 281.963 180.26 281.729 178.831 281.175C178.661 281.103 178.511 281.032 178.355 280.947C178.198 280.862 178.048 280.777 177.924 280.693C175.681 279.239 175.968 276.891 178.641 275.281C180.197 274.407 181.938 273.913 183.721 273.84Z" fill="white"/>
<path d="M226.277 280.862C227.833 281.742 229.576 282.238 231.362 282.309C232.894 282.415 234.43 282.181 235.861 281.625C236.018 281.56 236.181 281.475 236.337 281.397C236.494 281.318 236.637 281.227 236.767 281.136C237.164 280.92 237.505 280.615 237.764 280.245C238.023 279.875 238.193 279.45 238.26 279.004L238.495 276.676C238.427 277.124 238.256 277.55 237.996 277.921C237.736 278.292 237.393 278.598 236.996 278.815C236.865 278.897 236.722 278.982 236.565 279.069C236.413 279.154 236.257 279.23 236.096 279.297C234.665 279.854 233.129 280.087 231.597 279.982C229.812 279.915 228.068 279.423 226.511 278.547C224.927 277.596 224.184 276.389 224.295 275.287L224.06 277.615C223.949 278.717 224.692 279.917 226.277 280.862Z" fill="#DBDBDB"/>
<path d="M236.089 279.297L235.952 280.653L226.472 274.974L226.707 272.653L236.995 278.815C236.857 278.908 236.713 278.992 236.565 279.069C236.409 279.154 236.252 279.226 236.089 279.297Z" fill="#1648CE"/>
<path d="M226.707 272.653C226.544 272.719 226.381 272.797 226.224 272.875C226.068 272.953 225.931 273.038 225.788 273.129L236.089 279.297C236.252 279.226 236.409 279.154 236.565 279.069C236.713 278.992 236.857 278.908 236.995 278.815L226.707 272.653Z" fill="#DBDBDB"/>
<path d="M225.794 273.129L225.559 275.45L235.861 281.618L236.089 279.297L225.794 273.129Z" fill="#DBDBDB"/>
<path d="M231.193 271.969C229.665 271.86 228.132 272.094 226.707 272.653L236.995 278.815C236.857 278.908 236.713 278.992 236.565 279.069C236.409 279.154 236.252 279.226 236.089 279.297L225.787 273.129C223.551 274.583 223.832 276.93 226.511 278.541C228.069 279.416 229.812 279.91 231.597 279.982C233.127 280.091 234.661 279.857 236.089 279.297C236.252 279.226 236.409 279.154 236.565 279.069C236.713 278.992 236.857 278.908 236.995 278.815C239.238 277.361 238.951 275.014 236.278 273.403C234.721 272.527 232.978 272.035 231.193 271.969Z" fill="white"/>
<path d="M182.912 272.145L182.879 274.851C182.871 275.028 182.797 275.195 182.671 275.32C182.201 275.855 181.002 276.278 179.443 276.52C177.87 276.748 176.278 276.821 174.69 276.735L174.038 276.689L173.386 276.624C170.478 276.305 168.581 275.509 168.588 274.668L168.627 271.975C168.627 272.81 170.524 273.605 173.425 273.931C173.628 273.964 173.856 273.983 174.077 273.996L174.729 274.049C176.317 274.141 177.91 274.068 179.483 273.833C181.034 273.586 182.241 273.181 182.743 272.627C182.859 272.494 182.92 272.321 182.912 272.145Z" fill="#DBDBDB"/>
<path d="M174.084 273.99L174.045 276.689L173.393 276.624L173.425 273.925L174.084 273.99Z" fill="#DBDBDB"/>
<path d="M176.829 270.078L177.481 270.124C177.703 270.124 177.92 270.143 178.133 270.182L174.742 274.029L174.09 273.99L173.438 273.925L176.829 270.078Z" fill="#DBDBDB"/>
<path d="M178.126 270.182L178.087 272.882L174.697 276.735L174.736 274.029L178.126 270.182Z" fill="#DBDBDB"/>
<path d="M172.089 270.287C173.657 270.054 175.246 269.984 176.829 270.078L173.432 273.925L174.084 273.99L174.736 274.029L178.126 270.182C181.562 270.56 183.597 271.617 182.69 272.621C182.221 273.155 181.021 273.573 179.43 273.82C177.862 274.053 176.273 274.123 174.69 274.029L174.038 273.99L173.386 273.925C169.944 273.547 167.916 272.497 168.822 271.486C169.324 270.952 170.524 270.534 172.089 270.287Z" fill="white"/>
<path d="M200.536 272.353L200.575 275.053C200.576 275.141 200.595 275.228 200.631 275.309C200.667 275.39 200.719 275.462 200.783 275.522C201.253 276.057 202.453 276.481 204.011 276.728C205.582 276.957 207.172 277.029 208.757 276.944L209.409 276.891C209.618 276.891 209.84 276.859 210.061 276.826C212.969 276.507 214.867 275.711 214.854 274.87V272.171C214.854 273.012 212.956 273.807 210.055 274.127L209.403 274.192L208.751 274.238C207.166 274.336 205.574 274.264 204.004 274.023C202.446 273.781 201.246 273.371 200.777 272.823C200.706 272.766 200.648 272.695 200.607 272.614C200.565 272.533 200.541 272.444 200.536 272.353Z" fill="#DBDBDB"/>
<path d="M209.377 274.192L209.409 276.891C209.624 276.891 209.846 276.852 210.061 276.833L210.022 274.133L209.377 274.192Z" fill="#DBDBDB"/>
<path d="M206.625 270.28L205.973 270.326L205.321 270.384L208.712 274.238L209.364 274.192L210.016 274.133L206.625 270.28Z" fill="#DBDBDB"/>
<path d="M205.328 270.384L205.36 273.09L208.757 276.937L208.718 274.238L205.328 270.384Z" fill="#DBDBDB"/>
<path d="M211.359 270.489C209.792 270.259 208.206 270.189 206.625 270.28L210.016 274.133L209.364 274.192L208.712 274.238L205.321 270.384C201.879 270.769 199.851 271.819 200.757 272.823C201.227 273.358 202.427 273.781 203.985 274.023C205.555 274.258 207.146 274.33 208.731 274.238L209.383 274.192L210.035 274.133C213.484 273.755 215.512 272.699 214.599 271.695C214.13 271.16 212.924 270.736 211.359 270.489Z" fill="white"/>
<path d="M184.099 285.667L184.131 288.373C184.132 288.461 184.152 288.549 184.187 288.629C184.223 288.71 184.275 288.782 184.34 288.843C184.809 289.377 186.009 289.794 187.567 290.042C189.138 290.271 190.728 290.343 192.314 290.257L192.966 290.212L193.618 290.147C196.526 289.827 198.423 289.025 198.417 288.191L198.377 285.498C198.377 286.332 196.48 287.128 193.579 287.454L192.927 287.519L192.275 287.565C190.687 287.663 189.094 287.591 187.522 287.349C185.963 287.108 184.764 286.697 184.294 286.15C184.168 286.021 184.098 285.848 184.099 285.667Z" fill="#DBDBDB"/>
<path d="M192.933 287.532L192.972 290.238L193.624 290.173L193.585 287.473L192.933 287.532Z" fill="#DBDBDB"/>
<path d="M190.182 283.62L189.53 283.666L188.878 283.731L192.268 287.578L192.92 287.532L193.572 287.473L190.182 283.62Z" fill="#DBDBDB"/>
<path d="M188.885 283.705L188.917 286.404L192.314 290.251L192.275 287.552L188.885 283.705Z" fill="#DBDBDB"/>
<path d="M194.948 283.809C193.38 283.574 191.791 283.502 190.208 283.594L193.598 287.447L192.946 287.506L192.294 287.552L188.904 283.705C185.468 284.083 183.434 285.133 184.34 286.143C184.809 286.671 186.009 287.095 187.567 287.343C189.139 287.572 190.729 287.642 192.314 287.552L192.966 287.506L193.618 287.447C197.067 287.069 199.095 286.013 198.182 285.009C197.686 284.474 196.48 284.057 194.948 283.809Z" fill="white"/>
<path d="M252.494 226.766H275.085C276.552 226.766 277.958 227.348 278.995 228.385C280.032 229.422 280.614 230.828 280.614 232.295V282.016C280.614 282.564 280.397 283.09 280.009 283.478C279.621 283.865 279.096 284.083 278.548 284.083H249.064C248.516 284.083 247.99 283.865 247.603 283.478C247.215 283.09 246.997 282.564 246.997 282.016V232.288C246.999 230.828 247.578 229.429 248.607 228.394C249.637 227.36 251.034 226.774 252.494 226.766Z" fill="#1648CE"/>
<path d="M273.534 219.489H254.052V228.415H273.534V219.489Z" fill="#1648CE"/>
<path d="M280.614 245.432H246.971V268.115H280.614V245.432Z" fill="#EBEBEB"/>
<path d="M280.614 263.48H246.971V265.534H280.614V263.48Z" fill="#455A64"/>
<path d="M280.614 248.021H246.971V250.075H280.614V248.021Z" fill="#455A64"/>
<path d="M274.89 213.243H252.696V221.51H274.89V213.243Z" fill="#455A64"/>
<path d="M276.05 221.504H251.529V223.949H276.05V221.504Z" fill="#37474F"/>
<path d="M254.469 214.397H254.182C253.981 214.397 253.817 214.561 253.817 214.762V219.991C253.817 220.193 253.981 220.356 254.182 220.356H254.469C254.671 220.356 254.834 220.193 254.834 219.991V214.762C254.834 214.561 254.671 214.397 254.469 214.397Z" fill="#37474F"/>
<path d="M256.36 214.397H256.073C255.871 214.397 255.708 214.561 255.708 214.762V219.991C255.708 220.193 255.871 220.356 256.073 220.356H256.36C256.562 220.356 256.725 220.193 256.725 219.991V214.762C256.725 214.561 256.562 214.397 256.36 214.397Z" fill="#37474F"/>
<path d="M257.964 214.397H258.257C258.352 214.397 258.444 214.435 258.511 214.502C258.578 214.569 258.616 214.661 258.616 214.756V219.972C258.616 220.069 258.577 220.161 258.509 220.23C258.441 220.298 258.348 220.337 258.251 220.337H257.957C257.861 220.337 257.768 220.298 257.699 220.23C257.631 220.161 257.592 220.069 257.592 219.972V214.756C257.593 214.708 257.603 214.66 257.623 214.617C257.642 214.573 257.669 214.533 257.704 214.499C257.738 214.466 257.779 214.44 257.824 214.422C257.868 214.405 257.916 214.396 257.964 214.397Z" fill="#37474F"/>
<path d="M260.148 214.397H259.861C259.66 214.397 259.496 214.561 259.496 214.762V219.991C259.496 220.193 259.66 220.356 259.861 220.356H260.148C260.35 220.356 260.513 220.193 260.513 219.991V214.762C260.513 214.561 260.35 214.397 260.148 214.397Z" fill="#37474F"/>
<path d="M262.045 214.397H261.758C261.557 214.397 261.393 214.561 261.393 214.762V219.991C261.393 220.193 261.557 220.356 261.758 220.356H262.045C262.247 220.356 262.41 220.193 262.41 219.991V214.762C262.41 214.561 262.247 214.397 262.045 214.397Z" fill="#37474F"/>
<path d="M263.643 214.397H263.936C264.033 214.397 264.126 214.436 264.194 214.504C264.263 214.573 264.301 214.665 264.301 214.762V219.978C264.301 220.075 264.263 220.168 264.194 220.236C264.126 220.305 264.033 220.343 263.936 220.343H263.643C263.548 220.343 263.457 220.306 263.389 220.238C263.322 220.171 263.284 220.08 263.284 219.985V214.769C263.283 214.721 263.292 214.673 263.31 214.629C263.327 214.584 263.353 214.543 263.387 214.509C263.42 214.474 263.46 214.447 263.504 214.427C263.548 214.408 263.595 214.398 263.643 214.397Z" fill="#37474F"/>
<path d="M265.827 214.397H265.54C265.339 214.397 265.175 214.561 265.175 214.762V219.991C265.175 220.193 265.339 220.356 265.54 220.356H265.827C266.029 220.356 266.192 220.193 266.192 219.991V214.762C266.192 214.561 266.029 214.397 265.827 214.397Z" fill="#37474F"/>
<path d="M267.724 214.397H267.437C267.236 214.397 267.072 214.561 267.072 214.762V219.991C267.072 220.193 267.236 220.356 267.437 220.356H267.724C267.926 220.356 268.089 220.193 268.089 219.991V214.762C268.089 214.561 267.926 214.397 267.724 214.397Z" fill="#37474F"/>
<path d="M269.328 214.397H269.622C269.718 214.397 269.811 214.436 269.88 214.504C269.948 214.573 269.987 214.665 269.987 214.762V219.978C269.987 220.075 269.948 220.168 269.88 220.236C269.811 220.305 269.718 220.343 269.622 220.343H269.328C269.233 220.343 269.142 220.306 269.075 220.238C269.007 220.171 268.97 220.08 268.97 219.985V214.769C268.969 214.721 268.977 214.673 268.995 214.629C269.012 214.584 269.039 214.543 269.072 214.509C269.105 214.474 269.145 214.447 269.189 214.427C269.233 214.408 269.28 214.398 269.328 214.397Z" fill="#37474F"/>
<path d="M271.506 214.397H271.219C271.017 214.397 270.854 214.561 270.854 214.762V219.991C270.854 220.193 271.017 220.356 271.219 220.356H271.506C271.708 220.356 271.871 220.193 271.871 219.991V214.762C271.871 214.561 271.708 214.397 271.506 214.397Z" fill="#37474F"/>
<path d="M273.403 214.397H273.116C272.915 214.397 272.751 214.561 272.751 214.762V219.991C272.751 220.193 272.915 220.356 273.116 220.356H273.403C273.605 220.356 273.768 220.193 273.768 219.991V214.762C273.768 214.561 273.605 214.397 273.403 214.397Z" fill="#37474F"/>
<path d="M112.392 297.73L112.58 278.83L110.083 278.805L109.895 297.705L112.392 297.73Z" fill="#1648CE"/>
<path opacity="0.1" d="M112.392 297.73L112.58 278.83L110.083 278.805L109.895 297.705L112.392 297.73Z" fill="black"/>
<path d="M95.4625 294.222L95.5776 282.65L93.0806 282.625L92.9655 294.197L95.4625 294.222Z" fill="#1648CE"/>
<path opacity="0.1" d="M95.4625 294.222L95.5776 282.65L93.0806 282.625L92.9655 294.197L95.4625 294.222Z" fill="black"/>
<path d="M109.964 291.64L110.025 285.498L95.5515 285.354L95.4904 291.496L109.964 291.64Z" fill="#1648CE"/>
<path opacity="0.2" d="M107.619 291.614L108.473 285.478L110.019 285.498L109.953 291.633L107.619 291.614Z" fill="black"/>
<path d="M165.556 288.836C168.066 288.777 170.576 288.764 173.093 288.751H180.623L188.154 288.875L191.916 288.973C193.174 289.019 194.426 289.051 195.685 289.116C194.426 289.149 193.174 289.155 191.916 289.182H188.147H180.617L173.086 289.058C170.576 288.986 168.066 288.921 165.556 288.836Z" fill="#263238"/>
<path d="M163.762 295.564L163.896 282.035L112.554 281.524L112.419 295.053L163.762 295.564Z" fill="#1648CE"/>
<path opacity="0.6" d="M163.762 295.564L163.896 282.035L112.554 281.524L112.419 295.053L163.762 295.564Z" fill="white"/>
<path d="M163.781 293.784L163.88 283.816L114.969 283.329L114.87 293.298L163.781 293.784Z" fill="#1648CE"/>
<path d="M158.563 285.016L158.588 282.499L158.288 282.496L158.263 285.013L158.563 285.016Z" fill="#263238"/>
<path d="M157.563 285.022L157.588 282.506L157.288 282.503L157.263 285.019L157.563 285.022Z" fill="#263238"/>
<path d="M156.549 285.009L156.574 282.493L156.274 282.49L156.249 285.006L156.549 285.009Z" fill="#263238"/>
<path d="M155.542 285.003L155.567 282.487L155.267 282.484L155.242 285L155.542 285.003Z" fill="#263238"/>
<path d="M154.513 286.826L154.556 282.464L154.256 282.462L154.213 286.823L154.513 286.826Z" fill="#263238"/>
<path d="M153.573 284.984L153.598 282.467L153.298 282.464L153.273 284.981L153.573 284.984Z" fill="#263238"/>
<path d="M152.559 284.971L152.584 282.454L152.284 282.451L152.259 284.968L152.559 284.971Z" fill="#263238"/>
<path d="M151.552 284.952L151.577 282.435L151.277 282.432L151.252 284.949L151.552 284.952Z" fill="#263238"/>
<path d="M150.523 284.938L150.548 282.421L150.248 282.418L150.223 284.935L150.523 284.938Z" fill="#263238"/>
<path d="M149.51 286.781L149.553 282.42L149.253 282.417L149.21 286.778L149.51 286.781Z" fill="#263238"/>
<path d="M148.576 284.932L148.601 282.416L148.301 282.413L148.276 284.929L148.576 284.932Z" fill="#263238"/>
<path d="M147.556 284.906L147.581 282.39L147.281 282.387L147.256 284.903L147.556 284.906Z" fill="#263238"/>
<path d="M146.549 284.9L146.574 282.384L146.274 282.381L146.249 284.897L146.549 284.9Z" fill="#263238"/>
<path d="M145.542 284.907L145.567 282.39L145.267 282.387L145.242 284.904L145.542 284.907Z" fill="#263238"/>
<path d="M144.513 286.736L144.556 282.375L144.256 282.372L144.213 286.733L144.513 286.736Z" fill="#263238"/>
<path d="M143.573 284.881L143.598 282.364L143.298 282.361L143.273 284.878L143.573 284.881Z" fill="#263238"/>
<path d="M142.559 284.862L142.584 282.345L142.284 282.342L142.259 284.859L142.559 284.862Z" fill="#263238"/>
<path d="M141.552 284.862L141.577 282.345L141.277 282.342L141.252 284.859L141.552 284.862Z" fill="#263238"/>
<path d="M140.539 284.836L140.564 282.319L140.264 282.316L140.239 284.833L140.539 284.836Z" fill="#263238"/>
<path d="M139.516 286.678L139.559 282.317L139.259 282.314L139.216 286.675L139.516 286.678Z" fill="#263238"/>
<path d="M138.569 284.83L138.594 282.313L138.295 282.31L138.27 284.827L138.569 284.83Z" fill="#263238"/>
<path d="M137.556 284.81L137.581 282.294L137.281 282.291L137.256 284.807L137.556 284.81Z" fill="#263238"/>
<path d="M136.556 284.81L136.581 282.294L136.281 282.291L136.256 284.807L136.556 284.81Z" fill="#263238"/>
<path d="M135.542 284.784L135.567 282.268L135.267 282.265L135.242 284.781L135.542 284.784Z" fill="#263238"/>
<path d="M134.513 286.633L134.556 282.272L134.256 282.269L134.213 286.631L134.513 286.633Z" fill="#263238"/>
<path d="M133.573 284.778L133.598 282.262L133.298 282.259L133.273 284.775L133.573 284.778Z" fill="#263238"/>
<path d="M132.566 284.772L132.591 282.255L132.291 282.252L132.266 284.769L132.566 284.772Z" fill="#263238"/>
<path d="M131.559 284.759L131.584 282.242L131.284 282.239L131.259 284.756L131.559 284.759Z" fill="#263238"/>
<path d="M130.539 284.739L130.564 282.223L130.264 282.22L130.239 284.736L130.539 284.739Z" fill="#263238"/>
<path d="M129.516 286.589L129.559 282.227L129.259 282.224L129.216 286.586L129.516 286.589Z" fill="#263238"/>
<path d="M128.57 284.72L128.595 282.204L128.295 282.201L128.27 284.717L128.57 284.72Z" fill="#263238"/>
<path d="M127.563 284.714L127.588 282.197L127.288 282.194L127.263 284.711L127.563 284.714Z" fill="#263238"/>
<path d="M126.549 284.701L126.574 282.184L126.274 282.181L126.249 284.698L126.549 284.701Z" fill="#263238"/>
<path d="M125.542 284.695L125.567 282.178L125.267 282.175L125.242 284.692L125.542 284.695Z" fill="#263238"/>
<path d="M124.519 286.531L124.563 282.169L124.263 282.166L124.219 286.528L124.519 286.531Z" fill="#263238"/>
<path d="M123.573 284.675L123.598 282.159L123.298 282.156L123.273 284.672L123.573 284.675Z" fill="#263238"/>
<path d="M122.559 284.662L122.584 282.146L122.284 282.143L122.259 284.659L122.559 284.662Z" fill="#263238"/>
<path d="M121.546 284.643L121.571 282.126L121.271 282.123L121.246 284.64L121.546 284.643Z" fill="#263238"/>
<path d="M120.545 284.656L120.57 282.14L120.27 282.137L120.245 284.653L120.545 284.656Z" fill="#263238"/>
<path d="M119.509 286.479L119.553 282.118L119.253 282.115L119.209 286.476L119.509 286.479Z" fill="#263238"/>
<path d="M118.569 284.624L118.594 282.107L118.295 282.104L118.27 284.621L118.569 284.624Z" fill="#263238"/>
<path d="M117.562 284.624L117.587 282.107L117.288 282.104L117.262 284.621L117.562 284.624Z" fill="#263238"/>
<path d="M116.556 284.605L116.581 282.088L116.281 282.085L116.256 284.602L116.556 284.605Z" fill="#263238"/>
<path d="M115.542 284.605L115.567 282.088L115.267 282.085L115.242 284.602L115.542 284.605Z" fill="#263238"/>
<path d="M114.513 286.434L114.556 282.073L114.256 282.07L114.213 286.431L114.513 286.434Z" fill="#263238"/>
<path d="M163.762 295.559L163.896 282.03L160.024 281.992L159.889 295.52L163.762 295.559Z" fill="#263238"/>
<path d="M168.222 293.416L168.312 284.275L163.879 284.231L163.788 293.372L168.222 293.416Z" fill="#1648CE"/>
<path d="M173.562 290.062L173.582 287.708L168.275 287.232L168.242 290.433L173.562 290.062Z" fill="#1648CE"/>
<path opacity="0.1" d="M168.242 290.433L168.275 287.239L169.781 287.369L169.52 290.342L168.242 290.433Z" fill="black"/>
</svg>
