<svg width="326" height="326" viewBox="0 0 326 326" fill="none" xmlns="http://www.w3.org/2000/svg">
<path d="M48.3328 125.23V144.444L35.8601 159.088C32.8731 156.537 30.7397 153.132 29.7473 149.332C28.7548 145.531 28.9509 141.518 30.3092 137.832C31.6675 134.147 34.1227 130.966 37.3441 128.718C40.5656 126.471 44.3984 125.265 48.3263 125.262L48.3328 125.23Z" fill="#EBEBEB"/>
<path d="M71.4592 146.4C71.4645 150.074 70.4167 153.672 68.4399 156.768C66.463 159.864 63.64 162.329 60.3054 163.87C56.9707 165.411 53.2642 165.964 49.6249 165.463C45.9857 164.962 42.5663 163.429 39.772 161.044L52.2382 146.433V127.186C54.762 127.184 57.2613 127.68 59.5933 128.645C61.9253 129.61 64.0441 131.025 65.8287 132.81C67.6133 134.594 69.0285 136.713 69.9935 139.045C70.9585 141.377 71.4544 143.876 71.4527 146.4H71.4592Z" fill="#EBEBEB"/>
<path d="M71.4592 146.4C71.4645 150.074 70.4167 153.672 68.4399 156.768C66.463 159.864 63.64 162.329 60.3054 163.87C56.9707 165.411 53.2642 165.964 49.6249 165.463C45.9857 164.962 42.5663 163.429 39.772 161.044L52.2382 146.433V127.186C54.762 127.184 57.2613 127.68 59.5933 128.645C61.9253 129.61 64.0441 131.025 65.8287 132.81C67.6133 134.594 69.0285 136.713 69.9935 139.045C70.9585 141.377 71.4544 143.876 71.4527 146.4H71.4592Z" fill="#DBDBDB"/>
<path d="M40.1046 110.292H39.4526V135.075H40.1046V110.292Z" fill="#C7C7C7"/>
<path d="M39.7722 110.618C39.3631 110.618 38.9632 110.497 38.6232 110.27C38.2832 110.042 38.0183 109.719 37.862 109.341C37.7058 108.963 37.6652 108.547 37.7455 108.146C37.8258 107.745 38.0233 107.376 38.313 107.088C38.6027 106.799 38.9716 106.603 39.3729 106.524C39.7743 106.445 40.1901 106.486 40.5676 106.644C40.9452 106.801 41.2675 107.067 41.4938 107.408C41.7202 107.749 41.8403 108.149 41.839 108.558C41.8373 109.105 41.6187 109.629 41.2313 110.015C40.8439 110.401 40.3192 110.618 39.7722 110.618ZM39.7722 107.143C39.4923 107.143 39.2188 107.226 38.9861 107.382C38.7534 107.537 38.5721 107.758 38.465 108.017C38.3579 108.275 38.3299 108.56 38.3845 108.834C38.4391 109.108 38.5738 109.361 38.7717 109.558C38.9696 109.756 39.2217 109.891 39.4961 109.946C39.7706 110 40.0551 109.972 40.3136 109.865C40.5721 109.758 40.7931 109.577 40.9485 109.344C41.104 109.111 41.187 108.838 41.187 108.558C41.187 108.183 41.0379 107.823 40.7726 107.558C40.5073 107.292 40.1474 107.143 39.7722 107.143Z" fill="#C7C7C7"/>
<path d="M64.3004 106.817H45.0469V107.684H64.3004V106.817Z" fill="#C7C7C7"/>
<path d="M55.9418 108.558H45.0469V109.425H55.9418V108.558Z" fill="#C7C7C7"/>
<path d="M269.237 51.9058C268.664 55.7757 266.991 59.3995 264.417 62.3461C261.844 65.2926 258.478 67.4379 254.721 68.5268C250.963 69.6157 246.972 69.6023 243.221 68.4881C239.471 67.374 236.12 65.2061 233.566 62.2423C231.013 59.2785 229.364 55.6436 228.817 51.7699C228.27 47.8962 228.847 43.9468 230.479 40.3916C232.112 36.8363 234.731 33.8248 238.026 31.7153C241.321 29.6059 245.152 28.4872 249.064 28.4924V48.9L269.237 51.9058Z" fill="#DBDBDB"/>
<path d="M273.618 44.7533C273.617 45.7549 273.543 46.7551 273.397 47.746L253.185 44.7533V24.3326C255.867 24.3318 258.523 24.8594 261 25.8853C263.478 26.9113 265.73 28.4154 267.626 30.3118C269.523 32.2082 271.027 34.4597 272.053 36.9376C273.079 39.4156 273.606 42.0714 273.605 44.7533H273.618Z" fill="#EBEBEB"/>
<path d="M272.966 56.1177H251.248V56.7697H272.966V56.1177Z" fill="#C7C7C7"/>
<path d="M274.492 58.2953C274.126 58.2953 273.768 58.1867 273.463 57.9832C273.159 57.7798 272.921 57.4906 272.781 57.1522C272.641 56.8139 272.605 56.4415 272.676 56.0824C272.747 55.7232 272.924 55.3932 273.183 55.1343C273.442 54.8753 273.772 54.6989 274.131 54.6275C274.49 54.5561 274.862 54.5927 275.201 54.7329C275.539 54.873 275.828 55.1104 276.032 55.4149C276.235 55.7194 276.344 56.0774 276.344 56.4436C276.344 56.9347 276.149 57.4057 275.801 57.7529C275.454 58.1002 274.983 58.2953 274.492 58.2953ZM274.492 55.2504C274.255 55.2504 274.022 55.321 273.825 55.4531C273.627 55.5852 273.474 55.7729 273.383 55.9925C273.292 56.2121 273.269 56.4537 273.316 56.6866C273.363 56.9195 273.478 57.1332 273.646 57.3007C273.815 57.4682 274.029 57.582 274.262 57.6275C274.495 57.6731 274.737 57.6484 274.956 57.5566C275.175 57.4648 275.362 57.31 275.493 57.1119C275.624 56.9137 275.693 56.6811 275.692 56.4436C275.692 56.2864 275.661 56.1307 275.6 55.9855C275.54 55.8403 275.451 55.7085 275.34 55.5976C275.228 55.4867 275.096 55.399 274.951 55.3394C274.805 55.2798 274.649 55.2496 274.492 55.2504Z" fill="#C7C7C7"/>
<path d="M296.875 55.3026H280.008V56.0655H296.875V55.3026Z" fill="#C7C7C7"/>
<path d="M289.553 56.8284H280.008V57.5912H289.553V56.8284Z" fill="#C7C7C7"/>
<path d="M199.688 242.251H298.251L300.298 201.814H197.641L199.688 242.251Z" fill="#EBEBEB"/>
<path d="M293.576 220.324H252.376L251.6 206.286H294.482L293.576 220.324ZM252.846 219.828H293.113L293.948 206.788H252.128L252.846 219.828Z" fill="#DBDBDB"/>
<path d="M292.82 236.474H253.987L253.335 223.806H293.589L292.82 236.474ZM254.463 235.978H292.35L293.081 224.288H253.882L254.463 235.978Z" fill="#DBDBDB"/>
<path d="M276.944 214.827H270.019L269.583 211.444H277.407L276.944 214.827ZM270.456 214.332H276.507L276.813 211.939H270.15L270.456 214.332Z" fill="#DBDBDB"/>
<path d="M276.944 231.832H270.019L269.583 228.448H277.407L276.944 231.832ZM270.456 231.336H276.507L276.813 228.943H270.15L270.456 231.336Z" fill="#DBDBDB"/>
<path d="M245.113 220.324H203.906L203.131 206.286H246.013L245.113 220.324ZM204.376 219.828H244.643L245.485 206.788H203.659L204.376 219.828Z" fill="#DBDBDB"/>
<path d="M244.35 236.474H205.517L204.865 223.806H245.152L244.35 236.474ZM205.993 235.978H243.881L244.611 224.288H205.413L205.993 235.978Z" fill="#DBDBDB"/>
<path d="M228.474 214.827H221.55L221.113 211.444H228.937L228.474 214.827ZM221.986 214.332H228.037L228.35 211.939H221.68L221.986 214.332Z" fill="#DBDBDB"/>
<path d="M228.474 231.832H221.55L221.113 228.448H228.937L228.474 231.832ZM221.986 231.336H228.037L228.35 228.943H221.68L221.986 231.336Z" fill="#DBDBDB"/>
<path d="M208.529 242.251L207.91 246.658L206.665 255.512H204.233V242.251H208.529Z" fill="#EBEBEB"/>
<path d="M208.529 242.251L207.91 246.658H204.233V242.251H208.529Z" fill="#DBDBDB"/>
<path d="M289.41 242.251L290.029 246.658L291.275 255.512H293.707V242.251H289.41Z" fill="#EBEBEB"/>
<path d="M289.41 242.251L290.029 246.658H293.707V242.251H289.41Z" fill="#DBDBDB"/>
<path d="M283.19 201.788V171.972H275.679V201.788H283.19Z" fill="#C7C7C7"/>
<path d="M283.183 173.66V170.381H275.672V173.66H283.183Z" fill="#DBDBDB"/>
<path d="M283.19 179.072V177.859H275.679V179.072H283.19Z" fill="#DBDBDB"/>
<path d="M283.19 197.889V194.609H275.679V197.889H283.19Z" fill="#DBDBDB"/>
<path d="M275.679 201.794V167.01H270.43V201.794H275.679Z" fill="#DBDBDB"/>
<path d="M274.655 183.655V170.276H271.506V183.655H274.655Z" fill="#EBEBEB"/>
<path d="M236.745 201.775L261.482 177.321L257.792 173.589L233.055 198.043L236.745 201.775Z" fill="#C7C7C7"/>
<path d="M241.802 195.279L251.317 185.873L249.103 183.633L239.588 193.039L241.802 195.279Z" fill="#DBDBDB"/>
<path d="M270.437 201.794V175.375H261.524V201.794H270.437Z" fill="#A6A6A6"/>
<path d="M270.437 199.003V196.539H261.524V199.003H270.437Z" fill="#C7C7C7"/>
<path d="M270.437 194.915V193.964H261.524V194.915H270.437Z" fill="#C7C7C7"/>
<path d="M298.571 199.38L288.779 176.564L283.123 178.992L292.915 201.807L298.571 199.38Z" fill="#A6A6A6"/>
<path d="M297.53 196.96L296.617 194.833L290.961 197.261L291.874 199.388L297.53 196.96Z" fill="#C7C7C7"/>
<path d="M291.715 183.399L290.802 181.272L285.146 183.699L286.059 185.826L291.715 183.399Z" fill="#C7C7C7"/>
<path d="M292.709 185.676L292.354 184.849L286.699 187.277L287.053 188.104L292.709 185.676Z" fill="#C7C7C7"/>
<path d="M163 299.196C228.101 299.196 280.875 292.091 280.875 283.327C280.875 274.562 228.101 267.457 163 267.457C97.8995 267.457 45.125 274.562 45.125 283.327C45.125 292.091 97.8995 299.196 163 299.196Z" fill="#EBEBEB"/>
<path d="M25.0173 255.512L59.5147 255.349L94.0055 255.297L163 255.186L231.995 255.291L266.492 255.349L300.983 255.512L266.492 255.669L231.995 255.727L163 255.838L94.0055 255.727L59.5147 255.669L25.0173 255.512Z" fill="#263238"/>
<path d="M127.929 275.163H124.323L149.601 173.875H158.586L127.929 275.163Z" fill="#455A64"/>
<path d="M158.593 173.882L154.055 188.852H145.865L149.595 173.888L149.601 173.882H158.593Z" fill="#263238"/>
<path d="M162.922 269.784H159.316L162.002 173.875H170.987L162.922 269.784Z" fill="#455A64"/>
<path d="M170.987 173.882L169.729 188.852H161.585L162.002 173.888V173.882H170.987Z" fill="#263238"/>
<path d="M198.071 275.163H201.677L181.778 173.875H172.793L198.071 275.163Z" fill="#455A64"/>
<path d="M184.718 188.852H176.529L172.787 173.882H181.778L181.784 173.888L184.718 188.852Z" fill="#263238"/>
<path d="M190.678 231.773H138.224V233.748H190.678V231.773Z" fill="#455A64"/>
<path d="M256.992 43.6578H69.0012V182.371H256.992V43.6578Z" fill="#EBEBEB"/>
<path d="M263.884 38.1289H62.1226V48.4109H263.884V38.1289Z" fill="#37474F"/>
<path d="M193.833 57.7542H132.167V59.3581H193.833V57.7542Z" fill="#C7C7C7"/>
<path d="M183.29 61.1053H142.71V62.7093H183.29V61.1053Z" fill="#C7C7C7"/>
<path d="M110.71 78.2074H91.8733V79.8113H110.71V78.2074Z" fill="#C7C7C7"/>
<path d="M103.688 81.5586H91.8733V83.1625H103.688V81.5586Z" fill="#C7C7C7"/>
<path d="M223.297 165.484H206.312V167.088H223.297V165.484Z" fill="#C7C7C7"/>
<path d="M218.126 168.835H206.312V170.439H218.126V168.835Z" fill="#C7C7C7"/>
<path d="M225.449 71.4788H215.453V72.8219H225.449V71.4788Z" fill="#C7C7C7"/>
<path d="M231.134 74.2888H215.453V75.6319H231.134V74.2888Z" fill="#C7C7C7"/>
<path d="M97.5913 130.491H91.8733V136.209H97.5913V130.491Z" fill="#1648CE"/>
<path d="M97.5913 141.119H91.8733V146.837H97.5913V141.119Z" fill="#455A64"/>
<path d="M97.5913 151.74H91.8733V157.458H97.5913V151.74Z" fill="#37474F"/>
<path d="M97.5913 162.368H91.8733V168.086H97.5913V162.368Z" fill="#C7C7C7"/>
<path d="M211.822 103.133H208.001L162.263 118.221H166.084L211.822 103.133Z" fill="#C7C7C7"/>
<path d="M166.084 118.221H162.263L208.001 133.314H211.822L166.084 118.221Z" fill="#C7C7C7"/>
<path d="M166.084 69.3923V118.221L211.822 103.133C205.256 82.6149 187.333 69.3923 166.084 69.3923Z" fill="#37474F"/>
<path d="M167.492 69.4119L166.09 71.8178V71.5374L167.336 69.4054L167.492 69.4119ZM168.946 69.4706L166.09 75.9384V76.3166L169.109 69.4836L168.946 69.4706ZM174.234 70.0574L166.09 83.606V83.958L174.436 70.09L174.234 70.0574ZM175.381 70.266L166.09 90.4259V90.9149L175.577 70.2986L175.381 70.266ZM179.906 75.971L182.436 72.1764L182.208 72.0916L179.711 75.8406L172.258 87.0224L166.09 96.2743V96.6851L172.454 87.1463L179.906 75.971ZM182.775 72.2938L166.09 101.921V102.449L183.003 72.372L182.775 72.2938ZM188.532 74.8431L166.09 104.692V105.142L188.786 74.98L188.532 74.8431ZM189.06 75.1234L166.09 110.762V111.329L189.315 75.2669L189.06 75.1234ZM194.022 78.2465L166.09 112.235V112.744L194.296 78.4486L194.022 78.2465ZM194.609 78.6768L168.574 117.399L169.135 117.217L194.889 78.892L194.609 78.6768ZM198.945 82.328L169.865 116.975L170.517 116.76L199.205 82.5628L198.945 82.328ZM199.427 82.791L176.607 114.739L177.109 114.576L199.675 83.0192C199.584 82.954 199.512 82.8692 199.427 82.804V82.791ZM203.235 87.0029L179 113.963L179.587 113.767L203.424 87.2311L203.235 87.0029ZM203.835 87.7657L186.381 111.525L186.817 111.381L204.011 88.02L203.835 87.7657ZM206.886 92.2319L190.312 110.234L190.795 110.071L207.01 92.4666C206.973 92.386 206.932 92.3076 206.886 92.2319ZM207.342 92.9948L195.359 108.565L195.724 108.447L207.46 93.2034L207.342 92.9948ZM209.905 98.0412L201.618 106.517L202.022 106.38L209.983 98.2368L209.905 98.0412ZM210.342 99.0779L205.38 105.259L205.686 105.155L210.407 99.2866C210.39 99.224 210.368 99.1629 210.342 99.104V99.0779Z" fill="#263238"/>
<path d="M166.084 69.3923H162.263V118.221H166.084V69.3923Z" fill="#263238"/>
<path d="M166.084 118.221H162.263L116.532 133.314H120.353L166.084 118.221Z" fill="#1648CE"/>
<path d="M166.084 118.221L120.353 133.314C123.412 143.061 129.491 151.583 137.709 157.65C145.928 163.717 155.862 167.015 166.077 167.068C171.131 167.065 176.152 166.253 180.949 164.663C196.102 159.668 206.899 148.702 211.822 133.314L166.084 118.221Z" fill="#1648CE"/>
<path d="M120.353 133.314H116.532C119.591 143.061 125.669 151.584 133.888 157.651C142.107 163.718 152.041 167.016 162.257 167.068H166.077C155.862 167.015 145.928 163.717 137.709 157.65C129.491 151.583 123.413 143.061 120.353 133.314Z" fill="#1648CE"/>
<g opacity="0.1">
<path d="M120.353 133.314H116.532C119.591 143.061 125.669 151.584 133.888 157.651C142.107 163.718 152.041 167.016 162.257 167.068H166.077C155.862 167.015 145.928 163.717 137.709 157.65C129.491 151.583 123.413 143.061 120.353 133.314Z" fill="black"/>
</g>
<path opacity="0.1" d="M122.439 132.623L121.924 137.572C121.922 137.555 121.922 137.537 121.924 137.52L122.419 132.623H122.439ZM127.609 130.922L123.88 141.582C123.882 141.595 123.882 141.608 123.88 141.621L127.661 130.902L127.609 130.922ZM129.448 130.315L127.225 147L127.277 147.072L129.5 130.296L129.448 130.315ZM132.708 129.233L127.987 148.004L128.033 148.069L132.806 129.161L132.708 129.233ZM134.012 128.809L131.6 152.281C131.624 152.312 131.653 152.341 131.684 152.366L134.097 128.809H134.012ZM137.878 127.505L132.356 153.037L132.441 153.122L137.983 127.492L137.878 127.505ZM138.824 127.192L136.705 156.852L136.829 156.943L138.941 127.153L138.824 127.192ZM137.409 157.386C137.447 157.42 137.489 157.451 137.533 157.478L142.671 125.921L142.514 125.979L137.409 157.386ZM143.766 125.562L143.583 161.344L143.753 161.435L143.922 125.51L143.766 125.562ZM144.111 161.624L144.281 161.709L148.193 124.095L147.991 124.167L144.111 161.624ZM149.112 123.808L148.917 123.88L149.497 164.043L149.719 164.128L149.112 123.808ZM149.921 164.232L150.136 164.31L153.2 122.491L152.959 122.576L149.921 164.232ZM153.918 122.256L153.676 122.335L155.28 165.83C155.365 165.83 155.456 165.875 155.548 165.888L153.918 122.256ZM155.769 165.94C155.857 165.966 155.946 165.986 156.037 165.999L158.814 120.62L158.521 120.718L155.769 165.94ZM161.865 166.814L159.512 120.411L159.218 120.509L161.552 166.873H161.865H162.178L163.482 119.049L163.137 119.159L161.865 166.814ZM168.02 166.742L164.232 118.853L163.893 118.964L167.714 167.055C167.814 167.062 167.914 167.062 168.014 167.055H168.046H168.34L169.161 119.277L168.848 119.179L168.02 166.742ZM169.774 119.453L169.461 119.355L174.123 166.39L174.397 166.345L169.774 119.453ZM173.217 120.594L174.397 166.345L174.671 166.293L173.478 120.653L173.217 120.594ZM174.058 120.868L173.784 120.776L180.813 164.728L180.956 164.682H181.034L174.058 120.868ZM180.578 156.18L179.515 143.362L177.742 122.087L177.526 122.015L179.3 143.355L180.363 156.18L180.897 162.589L181.067 164.63L181.288 164.552L181.125 162.596L180.578 156.18ZM178.504 122.335L178.276 122.263L187.939 161.807L188.108 161.722L178.504 122.335ZM183.636 124.03L188.506 161.513L188.676 161.429L183.805 124.089L183.636 124.03ZM184.568 124.336L184.392 124.278L193.357 158.625L193.481 158.54L184.568 124.336ZM195.978 128.105L199.297 153.826L199.388 153.742L196.069 128.131L195.978 128.105ZM197.08 128.47H196.989L203.763 148.897L203.822 148.825L197.08 128.47ZM189.588 125.992L194.185 158.045C194.229 158.021 194.271 157.993 194.309 157.96L189.712 126.012L189.588 125.992ZM193.957 137.865L190.925 127.433L190.599 126.312L190.469 126.266L190.814 127.466L193.846 137.898L198.671 154.407L198.756 154.335L193.957 137.865ZM200.164 129.468L204.258 148.187C204.277 148.164 204.295 148.14 204.311 148.115L200.229 129.487L200.164 129.468ZM201.129 129.787H201.057L206.775 144.47C206.775 144.47 206.808 144.47 206.808 144.418L201.129 129.787ZM204.102 130.765L207.362 143.453C207.362 143.453 207.362 143.42 207.362 143.401L204.102 130.778V130.765ZM205.745 131.306H205.706L209.807 138.641L205.745 131.306ZM208.725 132.291L210.485 137.018L208.731 132.323L208.725 132.291ZM211.502 133.21C211.593 133.327 211.678 133.445 211.756 133.569C211.665 133.438 211.587 133.321 211.502 133.21Z" fill="black"/>
<path d="M166.084 69.3923C139.528 69.3923 118.012 91.28 118.012 118.221C117.969 123.347 118.764 128.445 120.366 133.314L166.097 118.221L166.084 69.3923Z" fill="#455A64"/>
<path d="M166.084 108.082V108.454L123.665 95.192L123.821 94.8791L166.084 108.082ZM123.391 95.7462L166.084 113.728V113.383L123.541 95.4463C123.489 95.5441 123.436 95.6419 123.391 95.7462ZM127.303 89.3892C127.23 89.4806 127.162 89.5764 127.101 89.6761L166.11 103.075V102.742L127.303 89.3892ZM126.729 90.2042L166.11 107.267V106.876L126.925 89.9239C126.833 90.0086 126.762 90.1064 126.703 90.2042H126.729ZM136.587 79.6744L136.385 79.8374L166.084 91.28V91.0583L136.587 79.6744ZM135.551 80.522L166.11 95.4659V95.192L135.753 80.359C135.674 80.4091 135.598 80.4635 135.525 80.522H135.551ZM131.704 84.108C131.626 84.1797 131.554 84.258 131.489 84.3297L166.11 96.7177V96.496L131.704 84.108ZM130.771 85.0991L166.11 101.868V101.529L130.948 84.8904L130.771 85.0991ZM150.983 71.8504L150.807 71.9026L166.097 79.3354V79.1985L150.983 71.8504ZM148.845 72.6198L166.097 83.0518V82.8692L149.021 72.5676L148.845 72.6198ZM142.644 75.5799C142.575 75.6129 142.507 75.6499 142.442 75.6907L166.097 85.3142V85.1317L142.644 75.5799ZM141.132 76.4731L166.097 89.6435V89.4218L141.321 76.3818L141.132 76.4731ZM159.088 69.9009H158.944L166.084 73.676V73.5847L159.088 69.9009ZM155.887 70.4943L166.058 77.3729V77.2359L156.03 70.4617C155.99 70.4678 155.95 70.4788 155.913 70.4943H155.887ZM163.795 69.451H163.678L166.058 71.1854V71.068L163.795 69.451ZM118.155 123.026L137.337 127.694L137.578 127.609L118.142 122.876C118.201 122.928 118.201 122.98 118.207 123.026H118.155ZM118.077 122.002C118.077 122.054 118.077 122.107 118.077 122.159L144.072 125.464L144.431 125.347L118.077 122.002ZM119.179 129.285L126.657 131.241L126.833 131.182L119.153 129.226C119.177 129.248 119.204 129.268 119.231 129.285H119.179ZM119.049 128.718C119.045 128.755 119.045 128.792 119.049 128.829L130.465 129.95L130.732 129.865L119.049 128.718ZM118.012 116.447L148.004 124.173L148.31 124.076L118.005 116.252C118.004 116.317 118.006 116.382 118.012 116.447ZM118.051 115.626C118.047 115.693 118.047 115.76 118.051 115.828L156.591 121.35L157.047 121.2L118.051 115.626ZM126.527 110.475L120.105 108.519L119.016 108.186C119.016 108.265 118.983 108.343 118.97 108.421L120.033 108.747L126.455 110.703L139.3 114.654L158.762 120.62L159.12 120.496L139.371 114.413L126.527 110.475ZM119.088 107.828C119.088 107.906 119.049 107.984 119.035 108.062L165.125 118.534L165.601 118.377L119.088 107.828ZM120.815 101.712L165.647 118.351L166.051 118.221L120.913 101.445C120.875 101.532 120.842 101.621 120.815 101.712ZM121.063 101.027C121.025 101.119 120.992 101.212 120.965 101.308L166.084 114.439V114.1L121.063 101.027Z" fill="#37474F"/>
<path d="M166.084 69.3923H162.263C135.707 69.3923 114.178 91.2539 114.178 118.221C114.135 123.347 114.93 128.445 116.532 133.314H120.353C118.755 128.444 117.965 123.346 118.012 118.221C118.012 91.28 139.528 69.3923 166.084 69.3923Z" fill="#37474F"/>
<path d="M191.981 89.2131C192.264 86.9932 192.986 84.852 194.107 82.9148C195.204 80.9436 196.682 79.2104 198.456 77.8162L198.775 77.5423L199.127 77.3076L199.831 76.8382L200.535 76.3752C200.777 76.2318 201.031 76.1144 201.285 75.984C201.787 75.7363 202.289 75.482 202.798 75.2473L204.382 74.6931L205.178 74.4323L205.999 74.2562L207.636 73.9107C208.186 73.8227 208.741 73.7639 209.298 73.7346L210.954 73.6042V73.676C209.866 73.8716 208.77 74.0215 207.694 74.2432L206.104 74.6735L205.308 74.8822L204.545 75.1821L203.013 75.7754C202.524 76.0101 202.048 76.2775 201.566 76.5252C201.324 76.6556 201.077 76.7664 200.842 76.9034L200.19 77.3598L199.538 77.8162L199.199 78.0444L198.892 78.3117C197.175 79.6562 195.709 81.2941 194.563 83.1495C194.257 83.6059 194.015 84.1015 193.742 84.5709C193.468 85.0403 193.266 85.5619 193.05 86.064C192.601 87.0797 192.243 88.1336 191.981 89.2131Z" fill="#263238"/>
<path d="M209.083 76.5448L208.594 76.1145L210.713 73.7021L208.151 71.7591L208.542 71.244L211.665 73.6043L209.083 76.5448Z" fill="#263238"/>
<path d="M188.252 147.717C188.402 148.692 188.62 149.655 188.904 150.599C189.054 151.075 189.21 151.538 189.373 152.001C189.536 152.464 189.732 152.92 189.934 153.363C190.729 155.16 191.757 156.843 192.992 158.371C194.842 160.658 197.099 162.583 199.649 164.05C200.497 164.545 201.403 164.936 202.29 165.399L202.257 165.484L200.862 164.949C200.388 164.792 199.928 164.595 199.486 164.363C198.582 163.926 197.71 163.425 196.878 162.863C193.524 160.59 190.952 157.339 189.51 153.552C188.774 151.69 188.348 149.718 188.252 147.717Z" fill="#263238"/>
<path d="M199.271 167.068L199.042 166.456L202.048 165.321L200.692 162.407L201.285 162.133L202.935 165.68L199.271 167.068Z" fill="#263238"/>
<path d="M132.245 90.0216C131.784 89.3127 131.279 88.6332 130.733 87.9873C130.205 87.3322 129.639 86.7095 129.037 86.1226C127.863 84.9459 126.549 83.9168 125.125 83.0582C123.702 82.1991 122.143 81.5864 120.516 81.2456C120.105 81.1674 119.701 81.0631 119.29 81.0044L118.012 80.9131C117.593 80.8805 117.172 80.8805 116.754 80.9131L115.489 80.9588V80.8544C117.171 80.5013 118.903 80.4571 120.6 80.724L121.252 80.8218L121.904 80.9979C122.315 81.1283 122.746 81.2065 123.143 81.376L124.343 81.8846C124.734 82.0672 125.099 82.2954 125.477 82.5366C126.957 83.4158 128.293 84.515 129.442 85.7966C130.573 87.0636 131.517 88.4865 132.245 90.0216Z" fill="#263238"/>
<path d="M117.321 78.0378L117.816 78.4551L115.743 80.9132L118.344 82.804L117.96 83.3321L114.791 81.024L117.321 78.0378Z" fill="#263238"/>
<path d="M272.751 251.561C272.751 251.561 273.403 277.393 273.403 277.406C273.403 282.186 273.286 286.371 273.032 288.53V288.562C273.024 289.074 272.902 289.578 272.673 290.036V290.068C271.245 291.027 233.09 292.024 231.747 291.6C230.404 291.177 231.48 287.33 232.927 286.111C234.375 284.891 248.823 277.98 248.823 277.98L248.406 252.161L272.751 251.561Z" fill="#AD6359"/>
<path d="M273.449 272.282C273.449 272.282 273.41 277.393 273.41 277.406C273.41 282.186 273.292 286.371 273.038 288.53V288.562C272.974 289.065 272.854 289.56 272.68 290.036V290.068C271.252 291.027 233.097 292.024 231.754 291.601C230.41 291.177 231.486 287.33 232.934 286.111C234.381 284.891 248.829 277.98 248.829 277.98V272.764L273.449 272.282Z" fill="white"/>
<path d="M246.456 277.993C248.992 277.576 252.083 278.026 253.98 279.871C254.052 279.943 253.947 280.047 253.869 280.021C251.466 279.189 248.981 278.616 246.456 278.313C246.419 278.305 246.386 278.285 246.362 278.256C246.338 278.227 246.325 278.191 246.325 278.153C246.325 278.115 246.338 278.079 246.362 278.05C246.386 278.021 246.419 278.001 246.456 277.993Z" fill="#263238"/>
<path d="M244.617 279.056C247.16 278.639 250.244 279.089 252.141 280.934C252.213 281.006 252.109 281.11 252.031 281.084C249.628 280.252 247.142 279.679 244.617 279.376C244.581 279.368 244.547 279.348 244.524 279.319C244.5 279.29 244.487 279.253 244.487 279.216C244.487 279.178 244.5 279.142 244.524 279.113C244.547 279.084 244.581 279.064 244.617 279.056Z" fill="#263238"/>
<path d="M242.766 280.119C245.308 279.695 248.392 280.151 250.29 281.997C250.361 282.068 250.29 282.173 250.179 282.147C247.778 281.314 245.295 280.741 242.772 280.438C242.735 280.432 242.702 280.412 242.677 280.384C242.653 280.355 242.639 280.319 242.638 280.281C242.637 280.244 242.65 280.207 242.673 280.177C242.696 280.148 242.729 280.127 242.766 280.119Z" fill="#263238"/>
<path d="M231.727 291.6C233.071 292.018 271.226 291.027 272.653 290.068C273.201 289.71 273.384 284.142 273.403 277.413V277.198L248.784 277.563V277.98C248.784 277.98 234.348 284.891 232.888 286.111C231.427 287.33 230.384 291.196 231.727 291.6Z" fill="#37474F"/>
<path d="M273.41 277.198V277.413C273.41 284.142 273.201 289.71 272.654 290.068C272.002 290.505 263.734 290.949 254.802 291.268C244.109 291.646 232.458 291.829 231.728 291.607C230.384 291.19 231.467 287.33 232.908 286.111C234.349 284.891 248.803 277.98 248.803 277.98V277.563L257.012 277.439L273.41 277.198Z" fill="#1648CE"/>
<path d="M232.112 290.14C238.534 289.814 264.491 289.11 270.867 289.279C270.919 289.279 270.919 289.312 270.867 289.319C264.504 289.781 238.547 290.27 232.112 290.244C231.988 290.218 231.988 290.14 232.112 290.14Z" fill="#263238"/>
<path opacity="0.1" d="M256.993 277.439C256.393 281.566 255.473 287.643 254.802 291.268C244.109 291.646 232.458 291.829 231.728 291.607C230.384 291.19 231.467 287.33 232.908 286.111C234.349 284.891 248.803 277.98 248.803 277.98V277.563L256.993 277.439Z" fill="black"/>
<path d="M275.627 277.55L248.014 277.811C248.014 277.811 246.45 232.862 246.332 217.866C246.195 200.744 247.167 149.406 247.167 149.406H267.809C267.809 149.406 273.345 160.725 270.182 173.465L269.309 219.287L275.627 277.55Z" fill="#37474F"/>
<path d="M273.579 272.719C272.85 272.621 272.117 272.562 271.382 272.543C270.567 272.484 269.752 272.425 268.937 272.386C267.366 272.321 265.794 272.295 264.223 272.288C261.048 272.288 257.879 272.288 254.71 272.399C252.911 272.458 251.105 272.53 249.305 272.627C249.29 272.627 249.275 272.633 249.264 272.644C249.253 272.655 249.247 272.67 249.247 272.686C249.247 272.702 249.253 272.716 249.264 272.727C249.275 272.738 249.29 272.745 249.305 272.745C252.448 272.856 255.597 272.908 258.74 272.966C261.882 273.025 265.025 273.09 268.161 273.032C269.067 273.032 269.967 273.032 270.867 272.953C271.767 272.875 272.686 272.953 273.566 272.823C273.618 272.816 273.644 272.725 273.579 272.719Z" fill="#263238"/>
<path d="M250.003 247.903C249.684 240.471 249.449 233.031 249.24 225.592C248.836 210.718 248.729 195.839 248.921 180.956C249.025 172.611 249.247 164.265 249.494 155.919C249.494 155.822 249.358 155.828 249.351 155.919C248.562 170.863 248.256 185.827 248.243 200.79C248.23 215.753 248.536 230.554 249.273 245.419C249.684 253.758 250.192 262.104 250.974 270.424C250.974 270.439 250.981 270.454 250.992 270.465C251.003 270.476 251.018 270.482 251.033 270.482C251.049 270.482 251.064 270.476 251.075 270.465C251.086 270.454 251.092 270.439 251.092 270.424C250.753 262.913 250.329 255.408 250.003 247.903Z" fill="#263238"/>
<path d="M243.196 255.669C243.196 255.669 242.987 280.634 242.987 280.647C242.987 285.42 242.877 289.605 242.622 291.77C242.625 291.781 242.625 291.792 242.622 291.803C242.622 292.315 242.499 292.821 242.264 293.276C242.267 293.287 242.267 293.298 242.264 293.309C240.842 294.267 202.687 295.265 201.344 294.841C200.001 294.417 201.07 290.57 202.524 289.351C203.978 288.132 218.42 281.214 218.42 281.214L218.863 256.269L243.196 255.669Z" fill="#AD6359"/>
<path d="M243.053 275.522C243.053 275.522 243.007 280.634 243.007 280.647C243.007 285.42 242.896 289.605 242.642 291.77C242.644 291.781 242.644 291.792 242.642 291.803C242.581 292.306 242.46 292.801 242.283 293.276C242.286 293.287 242.286 293.298 242.283 293.309C240.862 294.267 202.707 295.265 201.364 294.841C200.021 294.417 201.09 290.57 202.544 289.351C203.998 288.132 218.42 281.214 218.42 281.214L218.388 275.998L243.053 275.522Z" fill="white"/>
<path d="M216.066 281.234C218.609 280.81 221.693 281.266 223.591 283.112C223.662 283.183 223.591 283.288 223.48 283.261C221.079 282.429 218.596 281.856 216.073 281.553C216.036 281.547 216.002 281.527 215.978 281.499C215.954 281.47 215.94 281.434 215.939 281.396C215.938 281.359 215.95 281.322 215.974 281.292C215.997 281.263 216.03 281.242 216.066 281.234Z" fill="#263238"/>
<path d="M214.215 282.316C216.757 281.892 219.841 282.316 221.739 284.194C221.817 284.266 221.739 284.37 221.628 284.337C219.226 283.51 216.743 282.939 214.221 282.636C214.184 282.629 214.151 282.61 214.126 282.581C214.102 282.552 214.088 282.516 214.087 282.478C214.086 282.441 214.099 282.404 214.122 282.375C214.145 282.345 214.178 282.324 214.215 282.316Z" fill="#263238"/>
<path d="M212.363 283.353C214.906 282.935 217.996 283.392 219.887 285.237C219.965 285.309 219.887 285.413 219.776 285.38C217.375 284.551 214.892 283.978 212.37 283.672C212.333 283.665 212.299 283.646 212.275 283.618C212.25 283.589 212.236 283.553 212.236 283.515C212.235 283.477 212.247 283.441 212.27 283.411C212.294 283.382 212.326 283.361 212.363 283.353Z" fill="#263238"/>
<path d="M201.331 294.841C202.674 295.258 240.823 294.267 242.251 293.302C242.798 292.95 242.981 287.382 243.007 280.647C243.007 280.575 243.007 280.51 243.007 280.438L218.388 280.803V281.221C218.388 281.221 203.959 288.132 202.498 289.351C201.038 290.57 199.982 294.43 201.331 294.841Z" fill="#1648CE"/>
<path d="M201.722 293.354C208.151 293.028 234.101 292.324 240.484 292.487C240.529 292.487 240.536 292.526 240.484 292.533C234.12 292.989 208.158 293.485 201.722 293.459C201.592 293.459 201.585 293.361 201.722 293.354Z" fill="#263238"/>
<path d="M255.832 175.805C255.832 175.805 244.5 211.502 244.298 218.068C244.128 223.662 244.839 281.058 244.839 281.058L216.151 281.234C216.151 281.234 218.57 222.697 219.02 216.862C219.854 205.967 229.406 176.04 236.233 149.38H267.144C267.144 149.38 266.877 163.339 260.526 173.439C260.546 173.432 257.67 174.769 255.832 175.805Z" fill="#37474F"/>
<path d="M243.32 275.796C240.008 275.698 236.572 275.6 233.26 275.685C229.947 275.77 226.681 275.816 223.395 276.011C221.537 276.122 219.678 276.181 217.82 276.37C217.81 276.374 217.802 276.38 217.795 276.389C217.789 276.398 217.786 276.408 217.786 276.419C217.786 276.429 217.789 276.44 217.795 276.449C217.802 276.457 217.81 276.464 217.82 276.468C221.132 276.663 224.458 276.624 227.77 276.592C231.082 276.559 234.348 276.526 237.634 276.376C239.499 276.292 241.351 276.194 243.209 276.07C243.411 276.031 243.522 275.796 243.32 275.796Z" fill="#263238"/>
<path d="M237.048 166.201C236.024 169.611 225.964 205.543 224.614 212.363C223.264 219.183 221.543 263.773 221.667 270.919C221.667 271.812 221.667 272.699 221.732 273.586C221.732 273.603 221.739 273.62 221.751 273.632C221.763 273.644 221.78 273.651 221.797 273.651C221.815 273.651 221.831 273.644 221.843 273.632C221.856 273.62 221.863 273.603 221.863 273.586C222.058 266.472 223.955 219.665 225.175 212.696C226.374 205.85 236.376 170.139 237.256 166.254C237.256 166.229 237.248 166.205 237.233 166.185C237.218 166.166 237.196 166.152 237.172 166.146C237.148 166.14 237.123 166.142 237.1 166.152C237.078 166.162 237.059 166.18 237.048 166.201Z" fill="#263238"/>
<path d="M248.738 176.496C250.166 176.487 251.59 176.356 252.996 176.105C254.391 175.798 255.768 175.417 257.123 174.964C258.457 174.662 259.81 174.444 261.172 174.312C262.544 174.111 263.879 173.712 265.136 173.126C265.148 173.123 265.16 173.124 265.171 173.129C265.182 173.134 265.19 173.142 265.196 173.153C265.201 173.163 265.203 173.176 265.2 173.187C265.197 173.199 265.191 173.209 265.182 173.217C263.964 173.874 262.692 174.426 261.38 174.866C260.024 175.297 258.603 175.355 257.221 175.688C255.829 176.114 254.411 176.449 252.976 176.692C251.563 176.867 250.132 176.843 248.725 176.62C248.673 176.581 248.686 176.496 248.738 176.496Z" fill="#263238"/>
<path d="M246.932 204.891C247.206 203.835 247.46 202.772 247.747 201.722C248.327 199.59 248.914 197.458 249.56 195.346C250.864 191.147 252.05 186.922 253.4 182.743C254.169 180.376 254.86 177.977 255.76 175.655C255.76 175.643 255.765 175.632 255.774 175.623C255.782 175.615 255.794 175.61 255.806 175.61C255.818 175.61 255.83 175.615 255.838 175.623C255.847 175.632 255.851 175.643 255.851 175.655C255.395 177.82 254.756 179.939 254.182 182.078C253.609 184.216 252.996 186.335 252.376 188.454C251.157 192.673 249.957 196.898 248.627 201.083C248.249 202.257 247.864 203.424 247.46 204.585C247.056 205.745 246.723 207.004 246.228 208.158C246.226 208.164 246.222 208.171 246.218 208.176C246.213 208.182 246.207 208.186 246.201 208.19C246.195 208.193 246.188 208.195 246.181 208.196C246.174 208.196 246.166 208.196 246.159 208.193C246.153 208.191 246.146 208.188 246.141 208.183C246.135 208.179 246.131 208.173 246.127 208.167C246.124 208.16 246.122 208.153 246.121 208.146C246.121 208.139 246.121 208.132 246.124 208.125C246.313 207.049 246.652 205.973 246.932 204.891Z" fill="#263238"/>
<path d="M247.89 115.893C241.24 125.934 228.852 137.572 225.807 135.505C218.074 130.289 211.757 114.217 210.387 110.605C209.585 108.499 223.61 99.58 224.731 101.692C226.074 104.157 228.924 117.477 229.947 117.856C230.736 118.136 241.52 111.825 244.174 110.684C250.753 107.841 250.714 111.642 247.89 115.893Z" fill="#AD6359"/>
<path d="M238.632 130.25L229.504 117.151C229.504 117.151 238.789 110.99 245.211 109.014C251.633 107.039 252.005 111.075 248.601 116.662C245.198 122.25 238.632 130.25 238.632 130.25Z" fill="#1648CE"/>
<path d="M236.024 121.807C235.379 122.034 234.77 122.354 234.218 122.759C234.9 122.704 235.57 122.55 236.207 122.302C236.853 122.073 237.463 121.752 238.019 121.35C237.335 121.404 236.663 121.558 236.024 121.807ZM241.729 113.207C241.5 112.56 241.179 111.95 240.777 111.394C240.905 112.765 241.391 114.078 242.185 115.202C242.128 114.518 241.969 113.845 241.716 113.207H241.729ZM249.833 110.553C250.118 110.799 250.426 111.018 250.753 111.205C250.763 111.055 250.763 110.905 250.753 110.755C250.448 110.663 250.136 110.595 249.82 110.553H249.833Z" fill="white"/>
<path d="M232.347 116.18C235.142 119.736 237.695 123.476 239.988 127.375C239.988 127.375 239.917 127.466 239.897 127.44C237.635 124.512 233.573 118.351 232.223 116.278C232.197 116.239 232.321 116.147 232.347 116.18Z" fill="#263238"/>
<path d="M248.621 116.662C245.211 122.25 238.632 130.25 238.632 130.25L232.066 120.809L248.249 108.512C251.672 108.63 251.372 112.144 248.621 116.662Z" fill="#263238"/>
<path d="M228.2 99.6452C225.664 98.8954 222.293 96.5417 220.324 96.6134C219.841 96.6141 219.37 96.7705 218.983 97.0594C218.595 97.3483 218.311 97.7543 218.172 98.2173C218.172 98.2173 216.907 96.4504 215.134 96.809C214.228 96.9916 213.719 98.6151 213.719 98.6151C213.413 98.2333 213.008 97.9424 212.548 97.7735C212.089 97.6046 211.592 97.5642 211.111 97.6566C209.872 97.9891 209.553 99.5605 209.553 99.5605C209.553 99.5605 207.903 98.7194 206.749 99.4627C204.415 100.969 206.13 111.851 210.401 112.9C212.396 113.389 211.828 110.755 211.828 110.755C211.828 110.755 213.556 114.348 215.806 114.015C218.055 113.683 217.11 110.338 217.11 110.338C217.11 110.338 218.811 113.807 221.113 113.266C223.512 112.698 221.993 109.477 221.993 109.477C221.993 109.477 224.014 111.642 225.683 110.821C228.441 109.464 224.073 105.461 224.262 102.997L227.998 101.041L228.2 99.6452Z" fill="#AD6359"/>
<path d="M224.438 98.0022C226.903 98.5043 229.322 95.166 231.74 95.3029C235 95.492 232.477 99.5475 227.998 101.073L224.314 101.64L224.438 98.0022Z" fill="#AD6359"/>
<path d="M213.693 98.5629C213.693 98.5238 213.621 98.5238 213.615 98.5629C213.291 102.825 214.503 107.061 217.031 110.508C217.123 110.631 217.325 110.644 217.227 110.508C215.623 108.089 213.947 102.116 213.693 98.5629Z" fill="#263238"/>
<path d="M222.267 109.699C219.829 106.309 218.727 102.475 218.159 98.3738C218.159 98.3216 218.075 98.3738 218.068 98.3738C217.801 100.454 218.433 103.029 219.098 104.992C219.682 106.823 220.734 108.471 222.15 109.771C222.208 109.836 222.332 109.777 222.267 109.699Z" fill="#263238"/>
<path d="M243.542 114.798C245.615 115.072 249.188 111.316 250.303 108.669C250.103 107.269 249.831 105.881 249.488 104.509C249.221 103.205 248.96 101.686 248.836 100.31L240.419 103.296C241.087 104.973 241.549 106.724 241.794 108.512C241.807 108.703 241.807 108.895 241.794 109.086C241.794 109.086 241.794 109.145 241.794 109.177C241.703 110.253 241.534 114.537 243.542 114.798Z" fill="#AD6359"/>
<path d="M241.775 109.067C241.775 109.067 241.775 109.125 241.775 109.164C242.073 109.171 242.372 109.156 242.668 109.119C247.734 108.395 248.477 102.566 248.575 100.401L240.399 103.296C241.071 104.972 241.535 106.724 241.781 108.512C241.791 108.697 241.789 108.882 241.775 109.067Z" fill="#263238"/>
<path d="M250.055 90.1586C251.111 93.2034 249.807 102.149 247.695 104.209C244.63 107.195 239.447 107.665 236.865 103.942C234.361 100.33 236.265 88.6981 238.639 86.8138C242.146 84.0298 248.503 85.6663 250.055 90.1586Z" fill="#AD6359"/>
<path d="M241.24 95.844C241.24 95.844 241.279 95.844 241.279 95.9027C241.181 96.5025 241.175 97.2067 241.696 97.474V97.5131C241.044 97.3436 241.064 96.4112 241.24 95.844Z" fill="#263238"/>
<path d="M241.892 95.2899C242.87 95.342 242.701 97.298 241.794 97.2459C240.888 97.1937 241.051 95.2508 241.892 95.2899Z" fill="#263238"/>
<path d="M237.843 95.5507C237.843 95.5507 237.797 95.5507 237.791 95.5963C237.791 96.2027 237.621 96.9003 237.054 97.0503V97.0829C237.732 97.0503 237.908 96.1309 237.843 95.5507Z" fill="#263238"/>
<path d="M237.361 94.866C236.389 94.7095 236.142 96.659 237.041 96.822C237.941 96.985 238.169 95.0029 237.361 94.866Z" fill="#263238"/>
<path d="M242.72 94.4619C242.459 94.3706 242.238 94.2467 241.983 94.1293C241.708 94.0482 241.468 93.8786 241.299 93.6469C241.261 93.5634 241.252 93.47 241.272 93.3807C241.292 93.2913 241.34 93.2109 241.41 93.1513C241.568 93.0585 241.748 93.0095 241.931 93.0095C242.115 93.0095 242.295 93.0585 242.453 93.1513C242.805 93.2824 243.096 93.5405 243.268 93.8751C243.299 93.9532 243.307 94.0387 243.292 94.1215C243.276 94.2042 243.238 94.2809 243.18 94.3424C243.123 94.404 243.049 94.4479 242.968 94.4691C242.886 94.4902 242.8 94.4877 242.72 94.4619Z" fill="#263238"/>
<path d="M236.676 93.8163C236.944 93.7865 237.209 93.7408 237.472 93.6794C237.757 93.6719 238.032 93.5711 238.254 93.3925C238.311 93.32 238.342 93.2305 238.342 93.1382C238.342 93.046 238.311 92.9564 238.254 92.8839C238.127 92.7521 237.967 92.6562 237.79 92.6058C237.614 92.5554 237.428 92.5524 237.25 92.5971C236.875 92.638 236.529 92.817 236.278 93.0991C236.224 93.1677 236.19 93.2511 236.183 93.3387C236.176 93.4263 236.194 93.5141 236.237 93.5909C236.28 93.6678 236.344 93.7303 236.422 93.7704C236.501 93.8105 236.589 93.8265 236.676 93.8163Z" fill="#263238"/>
<path d="M241.41 101.425C241.253 101.549 241.09 101.732 240.869 101.732C240.639 101.709 240.417 101.638 240.217 101.523C240.293 101.649 240.403 101.753 240.534 101.822C240.665 101.891 240.812 101.923 240.96 101.914C241.085 101.892 241.201 101.834 241.294 101.747C241.386 101.661 241.452 101.549 241.481 101.425C241.481 101.419 241.436 101.406 241.41 101.425Z" fill="#263238"/>
<path d="M240.934 99.5539C240.758 99.7799 240.538 99.9671 240.286 100.104C240.035 100.241 239.758 100.324 239.473 100.349C239.227 100.385 238.976 100.385 238.73 100.349H238.587H238.456C238.425 100.341 238.397 100.322 238.377 100.296C238.357 100.27 238.346 100.239 238.345 100.206C238.345 100.206 238.345 100.167 238.345 100.141V100.089C238.345 99.6191 238.482 98.9085 238.482 98.9085C238.3 98.9802 237.4 99.2997 237.433 99.0519C237.673 96.952 238.123 94.8814 238.776 92.8709C238.78 92.8594 238.787 92.8495 238.797 92.8424C238.807 92.8353 238.819 92.8315 238.831 92.8315C238.843 92.8315 238.855 92.8353 238.865 92.8424C238.875 92.8495 238.882 92.8594 238.886 92.8709C238.678 94.8269 238.13 96.7047 237.889 98.6542C238.212 98.5388 238.55 98.4686 238.893 98.4455C238.958 98.4455 238.658 99.8082 238.665 100.017C239.045 100.087 239.435 100.081 239.812 99.9978C240.19 99.9149 240.547 99.7574 240.862 99.5344C240.927 99.4627 240.973 99.5083 240.934 99.5539Z" fill="#263238"/>
<path d="M239.023 100.108C239.25 100.463 239.564 100.752 239.936 100.949C240.138 101.049 240.365 101.085 240.588 101.054C241.084 100.969 241.129 100.525 241.077 100.134C241.045 99.9283 240.988 99.7269 240.907 99.5344C240.356 99.9198 239.696 100.121 239.023 100.108Z" fill="#263238"/>
<path d="M239.936 100.949C240.138 101.049 240.365 101.085 240.588 101.054C241.084 100.969 241.129 100.525 241.077 100.134C240.824 100.125 240.574 100.2 240.368 100.347C240.161 100.495 240.009 100.706 239.936 100.949Z" fill="#FF97B8"/>
<path opacity="0.2" d="M248.197 87.4268C248.079 88.633 247.799 92.3494 248.256 93.1904C248.712 94.0315 249.664 95.9549 250.212 96.32C250.498 93.849 250.479 91.4626 250.029 90.1586C249.669 89.1029 249.037 88.1607 248.197 87.4268Z" fill="#263238"/>
<path d="M240.529 89.7544C240.816 90.177 241.206 90.5188 241.663 90.7472C242.12 90.9755 242.627 91.0827 243.137 91.0584C243.656 91.0402 244.16 90.8891 244.603 90.6197C245.046 90.3502 245.413 89.9714 245.667 89.5197C245.667 89.5197 245.719 89.5197 245.706 89.5197C245.479 90.0206 245.119 90.4497 244.665 90.7601C244.211 91.0705 243.68 91.2504 243.131 91.2801C242.594 91.2838 242.066 91.1467 241.6 90.8824C241.133 90.6181 240.743 90.2359 240.471 89.7739C240.445 89.7544 240.503 89.7153 240.529 89.7544Z" fill="#263238"/>
<path d="M244.415 82.804C245.196 82.8968 245.94 83.1842 246.581 83.6399C247.221 84.0956 247.736 84.705 248.08 85.412C248.352 86.1148 248.38 86.8889 248.158 87.6093C248.158 87.6093 248.086 87.6093 248.093 87.6093C248.203 86.9618 248.136 86.2966 247.9 85.6839C247.663 85.0711 247.266 84.5335 246.75 84.1276C246.19 83.6601 245.529 83.329 244.82 83.1604C244.111 82.9918 243.372 82.9904 242.662 83.1561C241.968 83.3042 241.351 83.695 240.921 84.258C240.882 84.3102 240.758 84.258 240.79 84.1993C241.377 83.1626 242.87 82.6019 244.415 82.804Z" fill="#263238"/>
<path d="M234.068 85.4121C234.445 84.5997 235.096 83.9462 235.907 83.5669C237.035 83.0388 238.208 83.267 239.375 83.5213C239.408 83.5213 239.375 83.5734 239.375 83.5669C238.401 83.28 237.364 83.28 236.389 83.5669C235.582 83.8644 234.905 84.4339 234.472 85.1773C234.048 85.9429 233.915 86.8356 234.095 87.6918C234.276 88.5481 234.76 89.3104 235.457 89.8391C235.865 90.1377 236.331 90.3495 236.824 90.4617C237.317 90.5738 237.828 90.5838 238.326 90.4911C238.326 90.4911 238.384 90.5433 238.326 90.5498C237.433 90.7522 236.497 90.6213 235.693 90.1818C234.89 89.7424 234.275 89.0246 233.964 88.1635C233.655 87.2654 233.692 86.2842 234.068 85.4121Z" fill="#263238"/>
<path d="M250.505 91.9647C250.505 91.9647 252.461 89.0763 251.294 87.1529C250.642 86.0641 248.066 85.9206 248.066 85.9206C247.493 84.8301 246.511 84.0117 245.335 83.6451C243.248 82.9214 240.568 83.8994 240.568 83.8994C240.568 83.8994 238.665 82.5107 236.656 83.3909C233.833 84.6231 233.729 88.6981 236.259 90.289C238.039 91.4039 240.764 90.0217 240.764 90.0217C241.005 90.0804 243.372 91.8669 245.485 89.8391C245.485 89.8391 246.88 91.3713 248.366 90.5629C248.538 90.986 248.835 91.3468 249.217 91.5972C249.599 91.8476 250.048 91.9758 250.505 91.9647Z" fill="#263238"/>
<path d="M248.412 97.474C248.412 97.474 250.368 94.5661 251.672 95.2572C252.976 95.9483 251.542 100.147 250.023 100.741C249.833 100.831 249.627 100.882 249.417 100.89C249.207 100.899 248.997 100.864 248.801 100.789C248.605 100.714 248.426 100.6 248.275 100.454C248.124 100.308 248.004 100.132 247.923 99.9386L248.412 97.474Z" fill="#AD6359"/>
<path d="M272.582 156.48C272.497 156.591 232.81 160.177 232.406 159.805C231.851 159.271 234.218 119.564 241.305 111.446C243.046 109.451 249.208 107.052 251.235 108.297C256.497 111.557 259.744 118.86 261.824 123.124C263.369 126.279 265.351 131.711 267.19 137.292C270.221 146.478 272.875 156.069 272.582 156.48Z" fill="#1648CE"/>
<path d="M247.558 121.696C247.264 122.315 247.062 122.974 246.958 123.652C247.396 123.125 247.76 122.542 248.04 121.918C248.331 121.297 248.533 120.639 248.64 119.962C248.202 120.488 247.838 121.071 247.558 121.696ZM240.875 147.711C240.584 148.331 240.382 148.99 240.275 149.667C240.719 149.142 241.083 148.556 241.357 147.926C241.651 147.306 241.856 146.647 241.964 145.97C241.52 146.495 241.153 147.082 240.875 147.711ZM257.364 146.465C257.065 147.084 256.859 147.743 256.751 148.421C257.2 147.902 257.568 147.317 257.84 146.687C258.135 146.067 258.339 145.409 258.446 144.731C258.005 145.255 257.641 145.839 257.364 146.465ZM268.011 151.844C267.391 151.551 266.733 151.347 266.055 151.238C267.115 152.113 268.385 152.698 269.739 152.933C269.218 152.49 268.636 152.123 268.011 151.844ZM241.123 131.274C240.503 130.98 239.844 130.776 239.167 130.667C239.689 131.112 240.273 131.479 240.901 131.756C241.522 132.047 242.18 132.249 242.857 132.356C242.335 131.913 241.751 131.548 241.123 131.274ZM251.77 111.16C251.151 110.864 250.492 110.659 249.814 110.553C250.339 110.998 250.925 111.364 251.555 111.642C252.175 111.933 252.834 112.135 253.511 112.242C252.986 111.799 252.399 111.435 251.77 111.16ZM241.716 113.207C241.535 112.709 241.303 112.23 241.025 111.779L240.842 112.027C240.931 112.493 241.057 112.951 241.221 113.396C241.451 114.04 241.772 114.648 242.172 115.202C242.119 114.518 241.965 113.846 241.716 113.207ZM257.54 129.507C257.308 128.864 256.988 128.256 256.588 127.701C256.645 128.382 256.798 129.052 257.045 129.689C257.275 130.335 257.596 130.945 257.997 131.502C257.938 130.823 257.785 130.156 257.54 129.52V129.507ZM259.992 156.891C260.007 157.152 260.042 157.411 260.096 157.667L260.468 157.634C260.33 157.371 260.171 157.121 259.992 156.884V156.891ZM235.483 157.178C235.252 156.532 234.932 155.922 234.531 155.365C234.585 156.049 234.738 156.721 234.987 157.36C235.218 158.004 235.539 158.612 235.939 159.166C235.882 158.483 235.729 157.811 235.483 157.171V157.178ZM267.464 138.139L266.968 138.309C266.321 138.535 265.711 138.853 265.155 139.254C265.839 139.197 266.511 139.044 267.151 138.798C267.307 138.741 267.464 138.676 267.62 138.602L267.464 138.139ZM248.895 154.831C248.251 155.059 247.643 155.377 247.089 155.776C248.457 155.646 249.767 155.161 250.89 154.368C250.206 154.422 249.534 154.576 248.895 154.824V154.831ZM250.199 139.183C249.553 139.409 248.944 139.73 248.393 140.134C249.074 140.08 249.744 139.926 250.381 139.678C251.028 139.449 251.638 139.128 252.194 138.726C251.517 138.782 250.851 138.935 250.218 139.183H250.199ZM237.041 121.487C237.002 121.657 236.956 121.82 236.917 121.989C237.296 121.811 237.655 121.593 237.987 121.337C237.674 121.361 237.365 121.411 237.061 121.487H237.041ZM259.098 117.719C258.557 117.927 258.046 118.208 257.579 118.553C258.183 118.511 258.778 118.384 259.346 118.175L259.098 117.719Z" fill="white"/>
<path d="M247.669 118.253C246.058 128.587 242.29 144.157 237.237 147.75C234.668 149.575 218.472 149.641 213.321 149.106C211.131 148.878 213.4 132.734 215.747 132.897C218.355 133.073 227.763 133.308 229.504 133.073C230.502 132.943 235.372 122.798 240.099 114.974C245.687 105.787 248.979 109.862 247.669 118.253Z" fill="#AD6359"/>
<path d="M216.947 133.223C216.947 133.223 211.163 130.53 207.297 128.953C205.139 128.066 201.305 126.886 199.427 126.964C196.611 127.075 184.914 129.35 185.403 132.18C185.846 134.788 195.652 131.528 195.652 131.528C195.652 131.528 185.475 133.914 186.576 136.92C187.678 139.926 198.273 134.801 198.273 134.801C198.273 134.801 187.841 137.487 189.497 140.408C190.73 142.612 200.581 138.511 200.581 138.511C200.581 138.511 191.656 140.884 192.829 143.205C194.133 145.774 203.45 142.553 203.45 142.553C207.414 147.958 211.515 148.91 214.534 149.236C215.238 149.341 216.947 133.223 216.947 133.223Z" fill="#AD6359"/>
<path d="M199.114 130.498C197.908 130.733 196.689 130.961 195.509 131.306C194.329 131.652 193.162 132.037 192.014 132.486C190.508 133.045 189.073 133.778 187.737 134.671C190.228 133.269 194.433 131.971 195.613 131.626C196.793 131.28 197.954 130.882 199.134 130.537C199.16 130.53 199.147 130.491 199.114 130.498Z" fill="#263238"/>
<path d="M200.431 134.736C198.906 135.101 197.38 135.388 195.867 135.851C194.355 136.314 192.281 136.966 190.808 137.507C190.697 137.546 190.71 137.722 190.808 137.689C192.301 137.213 194.459 136.614 195.952 136.151C197.445 135.688 198.925 135.173 200.431 134.768C200.47 134.762 200.457 134.729 200.431 134.736Z" fill="#263238"/>
<path d="M202.218 138.172C199.862 138.681 197.566 139.433 195.365 140.415C195.261 140.46 195.365 140.513 195.457 140.467C197.719 139.685 199.492 139.046 202.237 138.25C202.277 138.224 202.27 138.159 202.218 138.172Z" fill="#263238"/>
<path d="M223.043 133.138C224.177 133.06 225.312 133.028 226.446 132.995L228.141 132.936L228.982 132.897C229.113 132.897 229.263 132.897 229.374 132.858H229.465C229.465 132.858 229.465 132.858 229.498 132.825C229.53 132.793 229.563 132.78 229.608 132.728C229.969 132.32 230.296 131.884 230.586 131.424C230.899 130.961 231.193 130.472 231.499 130.002C232.106 129.044 232.692 128.046 233.318 127.12C232.875 128.17 232.366 129.187 231.825 130.191C231.309 131.225 230.679 132.199 229.947 133.093C229.821 133.237 229.648 133.332 229.458 133.36C229.309 133.384 229.159 133.4 229.009 133.406C228.722 133.406 228.435 133.406 228.148 133.406C227.581 133.406 227.013 133.406 226.446 133.406C225.312 133.328 224.177 133.262 223.043 133.138Z" fill="#263238"/>
<path d="M246.671 133.223L232.171 126.566C232.171 126.566 237.041 116.539 241.566 111.57C246.091 106.602 248.464 109.895 248.373 116.434C248.282 122.974 246.671 133.223 246.671 133.223Z" fill="#1648CE"/>
<path d="M236.024 121.807C235.379 122.033 234.77 122.354 234.218 122.759C234.9 122.704 235.57 122.55 236.207 122.302C236.853 122.073 237.463 121.752 238.019 121.35C237.335 121.404 236.663 121.558 236.024 121.807ZM241.729 113.207C241.576 112.802 241.395 112.407 241.188 112.027C241.097 112.125 241.012 112.229 240.921 112.333C241.001 112.694 241.106 113.049 241.234 113.396C241.464 114.04 241.785 114.648 242.185 115.202C242.128 114.518 241.969 113.845 241.716 113.207H241.729ZM247.597 121.683C247.303 122.302 247.101 122.961 246.997 123.639C247.435 123.112 247.799 122.529 248.08 121.905V121.852C248.119 121.429 248.151 121.005 248.184 120.587C247.95 120.942 247.741 121.312 247.558 121.696L247.597 121.683Z" fill="white"/>
<path d="M234.114 124.297C238.329 125.939 242.428 127.862 246.384 130.055C246.384 130.055 246.384 130.165 246.339 130.159C242.903 128.79 236.265 125.543 234.055 124.441C234.009 124.421 234.068 124.278 234.114 124.297Z" fill="#263238"/>
<path d="M244.852 132.389C245.504 132.597 246.111 132.845 246.737 133.041L246.515 133.165C246.75 130.85 247.023 128.548 247.317 126.247L247.767 122.798C247.919 121.65 248.082 120.498 248.256 119.342C248.304 120.507 248.304 121.674 248.256 122.843C248.191 124.004 248.106 125.165 247.969 126.325C247.722 128.641 247.348 130.942 246.847 133.217L246.802 133.432L246.626 133.334C246.019 133.041 245.426 132.734 244.852 132.389Z" fill="#263238"/>
<path d="M247.799 124.871C247.872 124.287 248.005 123.712 248.197 123.156C248.373 122.592 248.609 122.047 248.901 121.533C248.827 122.118 248.693 122.695 248.503 123.254C248.326 123.816 248.09 124.358 247.799 124.871Z" fill="#263238"/>
<path d="M239.832 127.062H239.682L239.545 127.029L236.813 126.377L236.65 126.345L235.092 125.98L234.909 125.94L232.438 125.367L232.236 125.314L230.723 124.962L230.502 124.917L227.652 124.265L227.411 124.206L225.703 123.808L225.436 123.75L223.31 123.228L223.023 123.163L221.152 122.726L220.852 122.661L218.244 122.061L217.977 121.996L216.021 121.539L215.76 121.481L213.876 121.044L213.654 120.992L211.502 120.49L211.287 120.438L209.422 120.007L209.292 119.968L206.684 119.362L206.495 119.316L203.737 118.664L203.587 118.625L201.468 118.136L201.331 118.103L198.593 117.451H198.475L196.167 116.917H196.063L193.644 116.356L195.789 115.404L195.88 115.365L198.351 114.263L198.462 114.217L200.581 113.272L200.705 113.22L203.411 112.02L203.561 111.948L205.374 111.147L205.537 111.075L209.52 109.301L209.716 109.217L210.713 108.773L210.922 108.682L214.834 106.954L215.075 106.85L215.929 106.472L216.184 106.361L220.18 104.587L220.487 104.457L221.38 104.059L221.674 103.929L225.872 102.064L226.179 101.927L226.668 101.712L226.955 101.582L231.584 99.5279L231.851 99.4105L232.275 99.2279L232.523 99.1171L237.126 97.0698L237.289 97.461L237.426 97.787L237.465 97.8848C237.524 98.0152 237.576 98.1456 237.628 98.276C238.938 101.56 239.897 104.974 240.49 108.46C240.49 108.597 240.536 108.734 240.562 108.878C240.817 110.473 240.985 112.082 241.064 113.696C241.064 114.009 241.097 114.315 241.103 114.628C241.19 118.809 240.763 122.985 239.832 127.062Z" fill="#C7C7C7"/>
<path d="M195.828 115.326L196.115 116.904H196.011L195.737 115.391L195.828 115.326ZM198.299 114.224L198.423 117.438H198.541L198.41 114.178L198.299 114.224ZM200.653 113.181L200.529 113.233L201.279 118.103L201.416 118.136L200.653 113.181ZM203.359 111.981L203.535 118.625L203.685 118.664L203.509 111.909L203.359 111.981ZM205.484 111.036L205.321 111.107L206.443 119.316L206.632 119.362L205.484 111.036ZM209.364 114.674L209.292 119.968L209.475 120.014L209.586 114.693L209.696 109.19L209.501 109.275L209.364 114.674ZM210.87 108.643L210.661 108.734L211.313 120.431L211.529 120.483L210.87 108.643ZM213.674 120.985L213.895 121.037L214.997 106.811L214.756 106.915L213.674 120.985ZM215.851 106.426L215.812 121.474L216.073 121.533L216.138 106.315L215.851 106.426ZM220.102 104.542L218.003 121.989L218.27 122.054L220.409 104.405L220.102 104.535V104.542ZM221.302 104.007L220.852 122.654L221.152 122.719L221.595 103.877L221.302 104.007ZM225.794 102.012L223.023 123.156L223.31 123.222L226.101 101.875L225.794 102.012ZM226.59 101.66L225.436 123.717L225.703 123.776L226.877 101.529L226.59 101.66ZM231.506 99.4757L227.411 124.173L227.652 124.232L231.773 99.3583L231.506 99.4757ZM232.197 99.1692L230.502 124.891L230.723 124.936L232.445 99.0519L232.197 99.1692ZM237.348 97.7348L237.211 97.4088L232.236 125.295L232.438 125.347L237.328 97.7413L237.348 97.7348ZM237.387 97.8457L234.909 125.921L235.092 125.96L237.55 98.2369C237.498 98.1065 237.446 97.9761 237.387 97.8457ZM240.484 108.845C240.484 108.701 240.438 108.565 240.412 108.428L236.676 126.325L236.839 126.358L240.484 108.884V108.845ZM240.986 113.67L239.545 126.997L239.682 127.029L241.025 114.641C241.018 114.289 241.005 113.983 240.986 113.67Z" fill="#DBDBDB"/>
<path d="M239.832 127.062H236.011L189.771 116.317H193.592L239.832 127.062Z" fill="#A6A6A6"/>
<path d="M193.592 116.317H189.771L233.227 97.0111H237.048L193.592 116.317Z" fill="#A6A6A6"/>
<path d="M58.0279 220.748C58.2301 215.603 58.1583 210.452 57.8127 205.315C57.0557 194.719 55.44 184.203 52.9814 173.869C51.6513 168.047 49.9952 162.348 48.2479 156.61C48.1957 156.441 47.9219 156.487 47.9675 156.669C53.3204 176.816 57.7084 197.602 57.4085 218.544C57.3237 224.412 56.6456 230.163 56.1045 235.985C56.1045 236.141 56.3457 236.2 56.3848 236.044C57.3779 231.003 57.9277 225.885 58.0279 220.748Z" fill="#1648CE"/>
<path d="M47.9805 156.669C47.9805 156.669 39.8762 177.24 41.6953 182.097C43.5143 186.954 47.2503 187.965 47.2503 187.965C47.2503 187.965 42.2886 195.046 45.7572 201.69C49.2259 208.334 56.9195 208.014 57.428 215.545C57.428 215.519 57.8583 184.034 47.9805 156.669Z" fill="#1648CE"/>
<path d="M56.5478 202.518C56.5608 202.482 56.5608 202.443 56.5478 202.407C55.4776 188.369 52.8379 174.495 48.6782 161.044C48.6782 161.035 48.6748 161.027 48.6686 161.021C48.6625 161.015 48.6542 161.011 48.6456 161.011C48.6369 161.011 48.6287 161.015 48.6225 161.021C48.6164 161.027 48.613 161.035 48.613 161.044C50.2169 167.064 51.6361 173.113 52.8706 179.189C51.7794 178.16 50.448 177.42 48.9977 177.038C48.9977 177.038 48.9586 177.038 48.9977 177.077C50.5216 177.638 51.8912 178.552 52.9944 179.743C53.2292 180.937 53.4639 182.13 53.6464 183.323C51.8404 181.302 49.3237 180.298 46.8135 179.339V179.398C49.4215 180.461 52.0295 181.836 53.8094 184.092C54.4484 187.5 54.9852 190.925 55.4199 194.368C54.1109 192.997 52.4328 192.034 50.5886 191.597C50.5299 191.597 50.4973 191.669 50.556 191.682C52.4596 192.233 54.1626 193.325 55.459 194.824C55.622 196.037 55.7785 197.243 55.9219 198.456C54.9067 197.601 53.7624 196.912 52.5315 196.415C52.5315 196.415 52.4794 196.454 52.5315 196.467C53.7858 197.011 54.9354 197.77 55.9284 198.71H55.9676C56.1045 199.864 56.2414 201.012 56.3522 202.166C54.5279 199.961 52.1589 198.27 49.4802 197.263C49.428 197.263 49.4019 197.321 49.4802 197.341C52.124 198.511 54.4474 200.3 56.2544 202.557C56.2735 202.583 56.3002 202.601 56.3307 202.611C56.3611 202.62 56.3938 202.62 56.424 202.609C56.5978 204.374 56.7521 206.147 56.8869 207.929H56.926C56.8217 206.149 56.7239 204.337 56.5478 202.518Z" fill="#263238"/>
<path d="M50.0345 174.99C48.5686 174.079 46.8946 173.556 45.1705 173.471C45.1619 173.471 45.1536 173.475 45.1475 173.481C45.1414 173.487 45.1379 173.495 45.1379 173.504C45.1379 173.512 45.1414 173.521 45.1475 173.527C45.1536 173.533 45.1619 173.536 45.1705 173.536C46.8376 173.842 48.4561 174.371 49.9823 175.108C49.9972 175.111 50.0129 175.11 50.0267 175.103C50.0404 175.096 50.0514 175.085 50.0576 175.071C50.0639 175.057 50.065 175.041 50.0607 175.026C50.0565 175.012 50.0472 174.999 50.0345 174.99Z" fill="#263238"/>
<path d="M51.019 196.767C49.8923 196.124 48.653 195.701 47.3678 195.522C47.3592 195.522 47.3509 195.525 47.3448 195.531C47.3386 195.538 47.3352 195.546 47.3352 195.554C47.3352 195.563 47.3386 195.571 47.3448 195.578C47.3509 195.584 47.3592 195.587 47.3678 195.587C48.6254 195.84 49.8414 196.268 50.9799 196.858C51.0255 196.904 51.0712 196.8 51.019 196.767Z" fill="#263238"/>
<path d="M79.3547 182.41C75.9273 184.781 72.7798 187.532 69.9724 190.612C67.0788 193.87 64.8447 197.659 63.3938 201.768C60.3169 210.335 58.6608 219.347 58.4907 228.448C58.3891 233.486 58.8749 238.518 59.9382 243.444C59.9484 243.478 59.9707 243.506 60.0009 243.525C60.0311 243.543 60.067 243.55 60.1017 243.543C60.1365 243.537 60.1676 243.518 60.1892 243.49C60.2107 243.462 60.2212 243.427 60.2185 243.392C58.8969 234.694 58.9453 225.844 60.362 217.162C61.7572 208.686 63.9414 199.395 69.353 192.477C72.3001 188.708 75.9708 185.748 79.6025 182.697C79.7916 182.56 79.5438 182.273 79.3547 182.41Z" fill="#1648CE"/>
<path d="M59.6841 222.332C61.6291 219.174 63.9162 216.239 66.504 213.582C70.5594 209.527 73.9759 206.651 74.4975 203.965C75.0191 201.279 70.4356 199.31 70.4356 199.31C70.4356 199.31 76.0493 200.321 77.6076 197.967C79.1658 195.613 79.8896 181.973 79.8896 181.973C79.8896 181.973 69.6792 189.263 64.8936 199.473C60.1079 209.683 59.6841 222.332 59.6841 222.332Z" fill="#1648CE"/>
<path d="M76.2317 194.765C75.5605 194.667 74.8804 194.643 74.204 194.694C74.1257 194.694 74.1322 194.837 74.204 194.837C74.856 194.837 75.5471 194.837 76.2186 194.837C76.2241 194.84 76.2302 194.842 76.2366 194.843C76.2429 194.843 76.2493 194.842 76.2551 194.84C76.2609 194.837 76.266 194.833 76.2699 194.828C76.2738 194.823 76.2765 194.817 76.2776 194.811C76.2788 194.805 76.2784 194.798 76.2765 194.792C76.2745 194.786 76.2712 194.78 76.2666 194.776C76.2621 194.772 76.2566 194.768 76.2505 194.766C76.2444 194.765 76.2379 194.764 76.2317 194.765Z" fill="#263238"/>
<path d="M68.8901 207.988C67.8101 208.017 66.7438 208.238 65.741 208.64C65.741 208.64 65.741 208.692 65.741 208.686C66.7842 208.438 67.8339 208.334 68.8836 208.164C68.9814 208.138 68.9749 207.988 68.8901 207.988Z" fill="#263238"/>
<path d="M66.6864 203.424C66.2487 203.422 65.8118 203.463 65.3824 203.548C65.372 203.548 65.3621 203.552 65.3547 203.559C65.3474 203.567 65.3433 203.577 65.3433 203.587C65.3433 203.597 65.3474 203.607 65.3547 203.615C65.3621 203.622 65.372 203.626 65.3824 203.626C65.829 203.65 66.2768 203.628 66.719 203.561C66.7341 203.554 66.7464 203.542 66.7537 203.527C66.761 203.512 66.7628 203.495 66.759 203.479C66.7551 203.463 66.7458 203.449 66.7326 203.439C66.7193 203.428 66.703 203.423 66.6864 203.424Z" fill="#263238"/>
<path d="M29.7636 196.904C33.0851 198.028 36.2678 199.526 39.2502 201.37C42.3456 203.339 45.0293 205.89 47.1525 208.881C51.6242 215.102 55.0469 222.014 57.2845 229.341C58.5352 233.397 59.3076 237.585 59.5861 241.82C59.5797 241.848 59.5644 241.872 59.5425 241.889C59.5206 241.907 59.4934 241.916 59.4655 241.916C59.4375 241.916 59.4104 241.907 59.3885 241.889C59.3666 241.872 59.3512 241.848 59.3449 241.82C58.4055 234.477 56.3198 227.327 53.1639 220.63C50.0734 214.065 46.1614 207.075 40.1826 202.726C36.9226 200.36 33.2714 198.814 29.6267 197.171C29.4376 197.087 29.5745 196.819 29.7636 196.904Z" fill="#1648CE"/>
<path d="M54.9048 224.64C52.5963 222.538 50.0645 220.695 47.3547 219.144C43.1362 216.803 39.7067 215.232 38.657 213.211C37.6073 211.189 40.8673 208.503 40.8673 208.503C40.8673 208.503 36.5641 210.616 34.7776 209.07C32.9911 207.525 29.2356 196.65 29.2356 196.65C29.2356 196.65 39.1786 200.164 45.3922 207.336C51.6057 214.508 54.9048 224.64 54.9048 224.64Z" fill="#1648CE"/>
<path d="M46.6506 214.651C45.6742 214.585 44.6941 214.705 43.7622 215.004C43.7622 215.004 43.7622 215.056 43.7622 215.049C44.7133 214.89 45.6738 214.792 46.6375 214.756C46.6514 214.758 46.6653 214.754 46.6763 214.745C46.6873 214.737 46.6945 214.724 46.6962 214.71C46.6979 214.696 46.6941 214.682 46.6855 214.671C46.677 214.66 46.6644 214.653 46.6506 214.651Z" fill="#263238"/>
<path d="M37.979 203.274C37.5428 203.244 37.1045 203.271 36.675 203.352C36.6229 203.352 36.6424 203.437 36.675 203.431C37.1119 203.385 37.5422 203.431 37.979 203.392C37.9946 203.392 38.0095 203.385 38.0205 203.374C38.0315 203.363 38.0377 203.348 38.0377 203.333C38.0377 203.317 38.0315 203.302 38.0205 203.291C38.0095 203.28 37.9946 203.274 37.979 203.274Z" fill="#263238"/>
<path d="M67.7296 255.512H45.2812L48.4826 232.066L49.3041 226.055H63.7133L64.5283 232.066L67.7296 255.512Z" fill="#455A64"/>
<path d="M64.5284 232.066H48.4827L49.3042 226.055H63.7134L64.5284 232.066Z" fill="#263238"/>
<path d="M65.7737 223.969H47.2439V229.061H65.7737V223.969Z" fill="#455A64"/>
</svg>
