<svg width="27" height="27" viewBox="0 0 27 27" fill="none" xmlns="http://www.w3.org/2000/svg">
<path fill-rule="evenodd" clip-rule="evenodd" d="M20.1302 6.31238C20.1302 8.81545 19.5082 12.0801 18.5514 11.5847C18.1601 12.8624 17.3387 13.9653 16.2266 14.7062C15.1145 15.447 13.7803 15.7801 12.4504 15.649C11.1206 15.5178 9.87715 14.9304 8.93124 13.9865C7.98532 13.0426 7.39524 11.8004 7.26119 10.4709C6.3116 8.80966 5.06621 5.48067 8.26791 2.88575C8.32577 2.86695 8.36049 2.71073 8.41256 2.48075C8.61072 1.61071 9.04972 -0.323185 11.8189 0.0463818C13.9546 0.330608 20.1302 1.4328 20.1302 6.31238ZM17.3776 7.89117C17.3776 7.89117 17.0507 8.84727 17.3574 9.91257C17.3534 11.0485 16.9042 12.1375 16.1062 12.9459C15.3082 13.7542 14.225 14.2175 13.0893 14.2361C11.9536 14.2548 10.8558 13.8273 10.0317 13.0456C9.2076 12.2639 8.72287 11.1902 8.6816 10.055C8.78646 9.65728 8.78646 8.98396 8.78574 8.23542C8.78502 6.88517 8.78357 5.29191 9.40192 4.64246C13.7333 7.52739 17.3776 7.89117 17.3776 7.89117Z" fill="#E09F1F"/>
<path d="M5.06255 22.3607C5.06255 21.5781 5.47696 20.8925 6.09893 20.5107C6.07524 20.4206 6.05306 20.3302 6.03239 20.2395C5.92264 19.7454 5.83696 19.2462 5.77565 18.7438C5.71351 18.2625 5.67609 17.7783 5.66355 17.2931C2.61083 18.4914 0 20.5801 0 22.7729V26.7H26.036V22.7729C26.036 20.6727 23.6421 18.6686 20.7579 17.45V17.4702C20.7709 17.9114 20.7463 18.4177 20.6986 18.9044C20.6552 19.3557 20.5908 19.8055 20.5135 20.191H20.9734C21.1077 20.1911 21.2393 20.2285 21.3535 20.2992C21.4677 20.3698 21.56 20.4708 21.62 20.591L22.3432 22.0374C22.3938 22.1379 22.4199 22.2486 22.4199 22.3607V23.8071C22.4199 23.9989 22.3437 24.1829 22.2081 24.3185C22.0724 24.4541 21.8885 24.5303 21.6967 24.5303H20.2502V23.0839H20.9734V22.5314L20.5265 21.6375H18.5275L18.0805 22.5314V23.0839H18.8038V24.5303H17.3573C17.1655 24.5303 16.9816 24.4541 16.8459 24.3185C16.7103 24.1829 16.6341 23.9989 16.6341 23.8071V22.3607C16.6341 22.2486 16.6601 22.1379 16.7108 22.0374L17.434 20.591C17.494 20.4708 17.5863 20.3698 17.7005 20.2992C17.8147 20.2285 17.9463 20.1911 18.0805 20.191H19.0316C19.0475 20.1288 19.0634 20.0601 19.0793 19.9842C19.1516 19.6435 19.216 19.2118 19.2594 18.7655C19.3028 18.3186 19.323 17.8753 19.3122 17.5107C19.3095 17.3597 19.2977 17.209 19.2768 17.0595C19.2608 16.9568 19.2449 16.9097 19.242 16.8996C19.2413 16.8975 19.2406 16.8967 19.242 16.8982L19.2442 16.8975C18.8605 16.7782 18.4723 16.6738 18.0805 16.5843C17.7168 16.5011 17.3407 17.0016 17.1765 17.3148H8.67866C8.65754 17.2745 8.63681 17.234 8.61646 17.1933C8.46314 16.8881 8.27438 16.5113 7.95544 16.5843C7.677 16.6472 7.39856 16.7195 7.12012 16.7991C7.11115 16.9259 7.10729 17.0531 7.10855 17.1802C7.11144 17.5802 7.14977 18.0698 7.21124 18.5645C7.27272 19.0577 7.35589 19.5379 7.44268 19.9169C7.46727 20.0261 7.49186 20.1245 7.515 20.2091C7.92847 20.2634 8.31752 20.4358 8.63557 20.7055C8.95362 20.9753 9.1872 21.331 9.30834 21.73C9.42947 22.1291 9.43304 22.5546 9.3186 22.9556C9.20417 23.3566 8.97658 23.7162 8.6631 23.9912C8.34961 24.2662 7.9635 24.4451 7.55099 24.5064C7.13849 24.5676 6.71706 24.5087 6.33717 24.3367C5.95728 24.1647 5.63501 23.8868 5.40896 23.5363C5.1829 23.1859 5.06263 22.7777 5.06255 22.3607Z" fill="#E09F1F"/>
<path d="M7.95548 22.3607C7.95548 22.7758 7.62135 23.0947 7.23226 23.0947C6.84316 23.0947 6.50903 22.7765 6.50903 22.3607C6.50903 21.9455 6.84316 21.6266 7.23226 21.6266C7.62135 21.6266 7.95548 21.9448 7.95548 22.3607Z" fill="#E09F1F"/>
</svg>
