<svg width="24" height="27" viewBox="0 0 24 27" fill="none" xmlns="http://www.w3.org/2000/svg">
<path d="M18.7221 7.50937H4.32051C3.12745 7.50937 2.16028 8.63006 2.16028 10.0125V20.025C2.16028 21.4074 3.12745 22.5281 4.32051 22.5281H18.7221C19.9151 22.5281 20.8823 21.4074 20.8823 20.025V10.0125C20.8823 8.63006 19.9151 7.50937 18.7221 7.50937Z" stroke="#00A7AC" stroke-width="2" stroke-linejoin="round"/>
<path d="M18.5132 7.50938V5.94493C18.5131 5.56123 18.4399 5.18228 18.2989 4.83512C18.1578 4.48797 17.9524 4.18117 17.6972 3.9366C17.4421 3.69204 17.1435 3.51575 16.8227 3.4203C16.502 3.32486 16.167 3.31261 15.8417 3.38444L3.98927 5.72852C3.47456 5.84217 3.01022 6.1604 2.67632 6.62831C2.34243 7.09621 2.15992 7.68447 2.16028 8.29161V10.8469" stroke="#00A7AC" stroke-width="2" stroke-linejoin="round"/>
<path d="M16.5617 16.6875C16.2769 16.6875 15.9985 16.5896 15.7616 16.4063C15.5248 16.2229 15.3402 15.9623 15.2312 15.6574C15.1222 15.3524 15.0937 15.0169 15.1493 14.6932C15.2048 14.3695 15.342 14.0722 15.5434 13.8388C15.7448 13.6054 16.0014 13.4465 16.2808 13.3821C16.5601 13.3177 16.8497 13.3507 17.1129 13.477C17.376 13.6033 17.6009 13.8172 17.7592 14.0916C17.9174 14.3661 18.0019 14.6887 18.0019 15.0188C18.0019 15.4613 17.8502 15.8858 17.5801 16.1987C17.31 16.5117 16.9437 16.6875 16.5617 16.6875Z" fill="#00A7AC"/>
</svg>
