<svg width="390" height="93" viewBox="0 0 390 93" fill="none" xmlns="http://www.w3.org/2000/svg">
<path d="M413.717 71.3032C406.763 66.6386 399.517 61.9137 393.003 56.6517C381.776 47.5817 366.425 43.6512 352.002 45.4816C340.698 46.9162 323.581 39.2143 317.095 29.846C311.563 21.8571 303.81 15.6659 294.795 12.0392C285.78 8.41248 275.9 7.50951 266.377 9.44206C258.751 10.9896 233.492 3.68625 225.973 1.68112C224.585 1.31093 223.17 1.07956 221.757 1.00641C210.551 0.426378 200.172 6.44881 190.559 12.2368C180.945 18.0247 170.504 23.9855 159.299 23.2327C147.167 22.4181 137.085 13.9522 125.756 9.57111C112.99 4.63622 98.6638 6.00161 86.3177 11.7493C63.779 22.2424 32.6705 38.8097 10.35 49.7591C-12.7004 61.0666 3.38659 87.3583 29.0593 87.6578L408.848 92.0887C418.778 92.2046 425.937 82.439 418.85 75.4831C417.265 73.9277 415.546 72.5298 413.717 71.3032Z" fill="#C6C6C9"/>
</svg>
