<svg width="28" height="21" viewBox="0 0 28 21" fill="none" xmlns="http://www.w3.org/2000/svg">
<path d="M66.1007 19.8357C74.7846 19.7497 79.1982 11.6656 70.5426 10.9608C68.2348 10.7757 65.8283 11.1336 63.6439 10.3684C58.8926 8.71471 57.0044 2.58121 52.3765 0.631317C48.9087 -0.824928 44.9719 0.470881 41.5781 2.16161C38.1843 3.85233 34.9016 5.97499 31.1499 6.20947C27.8918 6.41927 24.3499 5.20985 21.4992 6.80185C19.3765 8.03596 18.2658 10.5042 16.3036 11.8864C14.2779 13.1377 11.9335 13.7763 9.55302 13.7252C7.16572 13.6731 4.78933 14.0622 2.5433 14.8729C-1.2026 16.5853 2.03636 20.4707 6.15491 20.4299L66.1007 19.8357Z" fill="#C6C6C9"/>
</svg>
