<svg width="118" height="33" viewBox="0 0 118 33" fill="none" xmlns="http://www.w3.org/2000/svg">
<path d="M103.089 31.8949C116.733 31.7555 123.666 19.0434 110.066 17.9414C106.426 17.6452 102.662 18.2005 99.2062 17.0034C91.8015 14.3995 88.7656 4.76111 81.4967 1.70052C76.0543 -0.594914 69.7851 1.44135 64.5154 4.09468C59.2458 6.74801 54.0255 10.0924 48.1265 10.475C43.005 10.7959 37.4392 8.89535 32.947 11.4006C29.6026 13.2641 27.8625 17.1145 24.7772 19.3976C21.692 21.6807 17.8292 22.088 14.0899 22.2854C10.3505 22.4829 6.48776 22.5322 3.08163 24.0872C-2.8301 26.786 2.29477 32.9245 8.79307 32.8581L103.089 31.8949Z" fill="#C6C6C9"/>
</svg>
