<svg width="12" height="15" viewBox="0 0 12 15" fill="none" xmlns="http://www.w3.org/2000/svg">
<path d="M4.45033 8.63301L5.03366 6.73301L3.50033 5.49967H5.40033L6.00033 3.63301L6.60033 5.49967H8.50033L6.95033 6.73301L7.53366 8.63301L6.00033 7.44967L4.45033 8.63301ZM2.00033 14.833V9.68301C1.5781 9.21634 1.25033 8.68301 1.01699 8.08301C0.783659 7.48301 0.666992 6.84412 0.666992 6.16634C0.666992 4.67745 1.18366 3.41634 2.21699 2.38301C3.25033 1.34967 4.51144 0.833008 6.00033 0.833008C7.48921 0.833008 8.75033 1.34967 9.78366 2.38301C10.817 3.41634 11.3337 4.67745 11.3337 6.16634C11.3337 6.84412 11.217 7.48301 10.9837 8.08301C10.7503 8.68301 10.4225 9.21634 10.0003 9.68301V14.833L6.00033 13.4997L2.00033 14.833ZM6.00033 10.1663C7.11144 10.1663 8.05588 9.77745 8.83366 8.99967C9.61144 8.2219 10.0003 7.27745 10.0003 6.16634C10.0003 5.05523 9.61144 4.11079 8.83366 3.33301C8.05588 2.55523 7.11144 2.16634 6.00033 2.16634C4.88921 2.16634 3.94477 2.55523 3.16699 3.33301C2.38921 4.11079 2.00033 5.05523 2.00033 6.16634C2.00033 7.27745 2.38921 8.2219 3.16699 8.99967C3.94477 9.77745 4.88921 10.1663 6.00033 10.1663ZM3.33366 12.8497L6.00033 12.1663L8.66699 12.8497V10.783C8.2781 11.0052 7.85866 11.1802 7.40866 11.308C6.95866 11.4358 6.48921 11.4997 6.00033 11.4997C5.51144 11.4997 5.04199 11.4358 4.59199 11.308C4.14199 11.1802 3.72255 11.0052 3.33366 10.783V12.8497Z" fill="#48464C"/>
</svg>
